<svg xmlns="http://www.w3.org/2000/svg" width="852" height="417" viewBox="0 0 852 417"><rect x="0" y="0" width="852" height="417" fill="#FFFFFF"/><rect x="0" y="0" width="852" height="74.66" fill="#0F172A"/><rect x="0" y="74.66" width="192" height="85.34" fill="#E2E8F0"/><line x1="0" y1="74.66" x2="192" y2="74.66" stroke="#CBD5E1" stroke-width="2"/><line x1="192" y1="74.66" x2="192" y2="160" stroke="#CBD5E1" stroke-width="2"/><line x1="0" y1="160" x2="192" y2="160" stroke="#CBD5E1" stroke-width="2"/><line x1="0" y1="74.66" x2="0" y2="160" stroke="#CBD5E1" stroke-width="2"/><rect x="192" y="74.66" width="220" height="85.34" fill="#E2E8F0"/><line x1="192" y1="74.66" x2="412" y2="74.66" stroke="#CBD5E1" stroke-width="2"/><line x1="412" y1="74.66" x2="412" y2="160" stroke="#CBD5E1" stroke-width="2"/><line x1="192" y1="160" x2="412" y2="160" stroke="#CBD5E1" stroke-width="2"/><line x1="192" y1="74.66" x2="192" y2="160" stroke="#CBD5E1" stroke-width="2"/><rect x="412" y="74.66" width="220" height="85.34" fill="#E2E8F0"/><line x1="412" y1="74.66" x2="632" y2="74.66" stroke="#CBD5E1" stroke-width="2"/><line x1="632" y1="74.66" x2="632" y2="160" stroke="#CBD5E1" stroke-width="2"/><line x1="412" y1="160" x2="632" y2="160" stroke="#CBD5E1" stroke-width="2"/><line x1="412" y1="74.66" x2="412" y2="160" stroke="#CBD5E1" stroke-width="2"/><rect x="632" y="74.66" width="220" height="85.34" fill="#E2E8F0"/><line x1="632" y1="74.66" x2="852" y2="74.66" stroke="#CBD5E1" stroke-width="2"/><line x1="852" y1="74.66" x2="852" y2="160" stroke="#CBD5E1" stroke-width="2"/><line x1="632" y1="160" x2="852" y2="160" stroke="#CBD5E1" stroke-width="2"/><line x1="632" y1="74.66" x2="632" y2="160" stroke="#CBD5E1" stroke-width="2"/><rect x="0" y="160" width="192" height="85.34" fill="#FFFFFF"/><line x1="0" y1="160" x2="192" y2="160" stroke="#CBD5E1" stroke-width="2"/><line x1="192" y1="160" x2="192" y2="245.34" stroke="#CBD5E1" stroke-width="2"/><line x1="0" y1="245.34" x2="192" y2="245.34" stroke="#CBD5E1" stroke-width="2"/><line x1="0" y1="160" x2="0" y2="245.34" stroke="#CBD5E1" stroke-width="2"/><rect x="192" y="160" width="220" height="85.34" fill="#FFE5E5"/><clipPath id="xl-fill-3-2"><rect x="192" y="160" width="220" height="85.34"/></clipPath><g clip-path="url(#xl-fill-3-2)"><line x1="192" y1="176" x2="412" y2="176" stroke="#C00000" stroke-width="2"/><line x1="192" y1="192" x2="412" y2="192" stroke="#C00000" stroke-width="2"/><line x1="192" y1="208" x2="412" y2="208" stroke="#C00000" stroke-width="2"/><line x1="192" y1="224" x2="412" y2="224" stroke="#C00000" stroke-width="2"/><line x1="192" y1="240" x2="412" y2="240" stroke="#C00000" stroke-width="2"/></g><line x1="192" y1="160" x2="412" y2="160" stroke="#CBD5E1" stroke-width="2"/><line x1="412" y1="160" x2="412" y2="245.34" stroke="#CBD5E1" stroke-width="2"/><line x1="192" y1="245.34" x2="412" y2="245.34" stroke="#CBD5E1" stroke-width="2"/><line x1="192" y1="160" x2="192" y2="245.34" stroke="#CBD5E1" stroke-width="2"/><rect x="412" y="160" width="220" height="85.34" fill="#DDEBF7"/><clipPath id="xl-fill-3-3"><rect x="412" y="160" width="220" height="85.34"/></clipPath><g clip-path="url(#xl-fill-3-3)"><line x1="428" y1="160" x2="428" y2="245.34" stroke="#1F4E79" stroke-width="2"/><line x1="444" y1="160" x2="444" y2="245.34" stroke="#1F4E79" stroke-width="2"/><line x1="460" y1="160" x2="460" y2="245.34" stroke="#1F4E79" stroke-width="2"/><line x1="476" y1="160" x2="476" y2="245.34" stroke="#1F4E79" stroke-width="2"/><line x1="492" y1="160" x2="492" y2="245.34" stroke="#1F4E79" stroke-width="2"/><line x1="508" y1="160" x2="508" y2="245.34" stroke="#1F4E79" stroke-width="2"/><line x1="524" y1="160" x2="524" y2="245.34" stroke="#1F4E79" stroke-width="2"/><line x1="540" y1="160" x2="540" y2="245.34" stroke="#1F4E79" stroke-width="2"/><line x1="556" y1="160" x2="556" y2="245.34" stroke="#1F4E79" stroke-width="2"/><line x1="572" y1="160" x2="572" y2="245.34" stroke="#1F4E79" stroke-width="2"/><line x1="588" y1="160" x2="588" y2="245.34" stroke="#1F4E79" stroke-width="2"/><line x1="604" y1="160" x2="604" y2="245.34" stroke="#1F4E79" stroke-width="2"/><line x1="620" y1="160" x2="620" y2="245.34" stroke="#1F4E79" stroke-width="2"/></g><line x1="412" y1="160" x2="632" y2="160" stroke="#CBD5E1" stroke-width="2"/><line x1="632" y1="160" x2="632" y2="245.34" stroke="#CBD5E1" stroke-width="2"/><line x1="412" y1="245.34" x2="632" y2="245.34" stroke="#CBD5E1" stroke-width="2"/><line x1="412" y1="160" x2="412" y2="245.34" stroke="#CBD5E1" stroke-width="2"/><rect x="632" y="160" width="220" height="85.34" fill="#E2F0D9"/><clipPath id="xl-fill-3-4"><rect x="632" y="160" width="220" height="85.34"/></clipPath><g clip-path="url(#xl-fill-3-4)"><line x1="632" y1="176" x2="852" y2="176" stroke="#70AD47" stroke-width="2"/><line x1="632" y1="192" x2="852" y2="192" stroke="#70AD47" stroke-width="2"/><line x1="632" y1="208" x2="852" y2="208" stroke="#70AD47" stroke-width="2"/><line x1="632" y1="224" x2="852" y2="224" stroke="#70AD47" stroke-width="2"/><line x1="632" y1="240" x2="852" y2="240" stroke="#70AD47" stroke-width="2"/><line x1="648" y1="160" x2="648" y2="245.34" stroke="#70AD47" stroke-width="2"/><line x1="664" y1="160" x2="664" y2="245.34" stroke="#70AD47" stroke-width="2"/><line x1="680" y1="160" x2="680" y2="245.34" stroke="#70AD47" stroke-width="2"/><line x1="696" y1="160" x2="696" y2="245.34" stroke="#70AD47" stroke-width="2"/><line x1="712" y1="160" x2="712" y2="245.34" stroke="#70AD47" stroke-width="2"/><line x1="728" y1="160" x2="728" y2="245.34" stroke="#70AD47" stroke-width="2"/><line x1="744" y1="160" x2="744" y2="245.34" stroke="#70AD47" stroke-width="2"/><line x1="760" y1="160" x2="760" y2="245.34" stroke="#70AD47" stroke-width="2"/><line x1="776" y1="160" x2="776" y2="245.34" stroke="#70AD47" stroke-width="2"/><line x1="792" y1="160" x2="792" y2="245.34" stroke="#70AD47" stroke-width="2"/><line x1="808" y1="160" x2="808" y2="245.34" stroke="#70AD47" stroke-width="2"/><line x1="824" y1="160" x2="824" y2="245.34" stroke="#70AD47" stroke-width="2"/><line x1="840" y1="160" x2="840" y2="245.34" stroke="#70AD47" stroke-width="2"/></g><line x1="632" y1="160" x2="852" y2="160" stroke="#CBD5E1" stroke-width="2"/><line x1="852" y1="160" x2="852" y2="245.34" stroke="#CBD5E1" stroke-width="2"/><line x1="632" y1="245.34" x2="852" y2="245.34" stroke="#CBD5E1" stroke-width="2"/><line x1="632" y1="160" x2="632" y2="245.34" stroke="#CBD5E1" stroke-width="2"/><rect x="0" y="245.34" width="192" height="85.34" fill="#FFFFFF"/><line x1="0" y1="245.34" x2="192" y2="245.34" stroke="#CBD5E1" stroke-width="2"/><line x1="192" y1="245.34" x2="192" y2="330.68" stroke="#CBD5E1" stroke-width="2"/><line x1="0" y1="330.68" x2="192" y2="330.68" stroke="#CBD5E1" stroke-width="2"/><line x1="0" y1="245.34" x2="0" y2="330.68" stroke="#CBD5E1" stroke-width="2"/><rect x="192" y="245.34" width="220" height="85.34" fill="#FFE5E5"/><clipPath id="xl-fill-4-2"><rect x="192" y="245.34" width="220" height="85.34"/></clipPath><g clip-path="url(#xl-fill-4-2)"><line x1="106.66" y1="245.34" x2="192" y2="330.68" stroke="#C00000" stroke-width="3"/><line x1="116.66" y1="245.34" x2="202" y2="330.68" stroke="#C00000" stroke-width="3"/><line x1="126.66" y1="245.34" x2="212" y2="330.68" stroke="#C00000" stroke-width="3"/><line x1="136.66" y1="245.34" x2="222" y2="330.68" stroke="#C00000" stroke-width="3"/><line x1="146.66" y1="245.34" x2="232" y2="330.68" stroke="#C00000" stroke-width="3"/><line x1="156.66" y1="245.34" x2="242" y2="330.68" stroke="#C00000" stroke-width="3"/><line x1="166.66" y1="245.34" x2="252" y2="330.68" stroke="#C00000" stroke-width="3"/><line x1="176.66" y1="245.34" x2="262" y2="330.68" stroke="#C00000" stroke-width="3"/><line x1="186.66" y1="245.34" x2="272" y2="330.68" stroke="#C00000" stroke-width="3"/><line x1="196.66" y1="245.34" x2="282" y2="330.68" stroke="#C00000" stroke-width="3"/><line x1="206.66" y1="245.34" x2="292" y2="330.68" stroke="#C00000" stroke-width="3"/><line x1="216.66" y1="245.34" x2="302" y2="330.68" stroke="#C00000" stroke-width="3"/><line x1="226.66" y1="245.34" x2="312" y2="330.68" stroke="#C00000" stroke-width="3"/><line x1="236.66" y1="245.34" x2="322" y2="330.68" stroke="#C00000" stroke-width="3"/><line x1="246.66" y1="245.34" x2="332" y2="330.68" stroke="#C00000" stroke-width="3"/><line x1="256.66" y1="245.34" x2="342" y2="330.68" stroke="#C00000" stroke-width="3"/><line x1="266.66" y1="245.34" x2="352" y2="330.68" stroke="#C00000" stroke-width="3"/><line x1="276.66" y1="245.34" x2="362" y2="330.68" stroke="#C00000" stroke-width="3"/><line x1="286.66" y1="245.34" x2="372" y2="330.68" stroke="#C00000" stroke-width="3"/><line x1="296.66" y1="245.34" x2="382" y2="330.68" stroke="#C00000" stroke-width="3"/><line x1="306.66" y1="245.34" x2="392" y2="330.68" stroke="#C00000" stroke-width="3"/><line x1="316.66" y1="245.34" x2="402" y2="330.68" stroke="#C00000" stroke-width="3"/><line x1="326.66" y1="245.34" x2="412" y2="330.68" stroke="#C00000" stroke-width="3"/><line x1="336.66" y1="245.34" x2="422" y2="330.68" stroke="#C00000" stroke-width="3"/><line x1="346.66" y1="245.34" x2="432" y2="330.68" stroke="#C00000" stroke-width="3"/><line x1="356.66" y1="245.34" x2="442" y2="330.68" stroke="#C00000" stroke-width="3"/><line x1="366.66" y1="245.34" x2="452" y2="330.68" stroke="#C00000" stroke-width="3"/><line x1="376.66" y1="245.34" x2="462" y2="330.68" stroke="#C00000" stroke-width="3"/><line x1="386.66" y1="245.34" x2="472" y2="330.68" stroke="#C00000" stroke-width="3"/><line x1="396.66" y1="245.34" x2="482" y2="330.68" stroke="#C00000" stroke-width="3"/><line x1="406.66" y1="245.34" x2="492" y2="330.68" stroke="#C00000" stroke-width="3"/></g><line x1="192" y1="245.34" x2="412" y2="245.34" stroke="#CBD5E1" stroke-width="2"/><line x1="412" y1="245.34" x2="412" y2="330.68" stroke="#CBD5E1" stroke-width="2"/><line x1="192" y1="330.68" x2="412" y2="330.68" stroke="#CBD5E1" stroke-width="2"/><line x1="192" y1="245.34" x2="192" y2="330.68" stroke="#CBD5E1" stroke-width="2"/><rect x="412" y="245.34" width="220" height="85.34" fill="#DDEBF7"/><clipPath id="xl-fill-4-3"><rect x="412" y="245.34" width="220" height="85.34"/></clipPath><g clip-path="url(#xl-fill-4-3)"><line x1="412" y1="245.34" x2="326.66" y2="330.68" stroke="#1F4E79" stroke-width="3"/><line x1="422" y1="245.34" x2="336.66" y2="330.68" stroke="#1F4E79" stroke-width="3"/><line x1="432" y1="245.34" x2="346.66" y2="330.68" stroke="#1F4E79" stroke-width="3"/><line x1="442" y1="245.34" x2="356.66" y2="330.68" stroke="#1F4E79" stroke-width="3"/><line x1="452" y1="245.34" x2="366.66" y2="330.68" stroke="#1F4E79" stroke-width="3"/><line x1="462" y1="245.34" x2="376.66" y2="330.68" stroke="#1F4E79" stroke-width="3"/><line x1="472" y1="245.34" x2="386.66" y2="330.68" stroke="#1F4E79" stroke-width="3"/><line x1="482" y1="245.34" x2="396.66" y2="330.68" stroke="#1F4E79" stroke-width="3"/><line x1="492" y1="245.34" x2="406.66" y2="330.68" stroke="#1F4E79" stroke-width="3"/><line x1="502" y1="245.34" x2="416.66" y2="330.68" stroke="#1F4E79" stroke-width="3"/><line x1="512" y1="245.34" x2="426.66" y2="330.68" stroke="#1F4E79" stroke-width="3"/><line x1="522" y1="245.34" x2="436.66" y2="330.68" stroke="#1F4E79" stroke-width="3"/><line x1="532" y1="245.34" x2="446.66" y2="330.68" stroke="#1F4E79" stroke-width="3"/><line x1="542" y1="245.34" x2="456.66" y2="330.68" stroke="#1F4E79" stroke-width="3"/><line x1="552" y1="245.34" x2="466.66" y2="330.68" stroke="#1F4E79" stroke-width="3"/><line x1="562" y1="245.34" x2="476.66" y2="330.68" stroke="#1F4E79" stroke-width="3"/><line x1="572" y1="245.34" x2="486.66" y2="330.68" stroke="#1F4E79" stroke-width="3"/><line x1="582" y1="245.34" x2="496.66" y2="330.68" stroke="#1F4E79" stroke-width="3"/><line x1="592" y1="245.34" x2="506.66" y2="330.68" stroke="#1F4E79" stroke-width="3"/><line x1="602" y1="245.34" x2="516.66" y2="330.68" stroke="#1F4E79" stroke-width="3"/><line x1="612" y1="245.34" x2="526.66" y2="330.68" stroke="#1F4E79" stroke-width="3"/><line x1="622" y1="245.34" x2="536.66" y2="330.68" stroke="#1F4E79" stroke-width="3"/><line x1="632" y1="245.34" x2="546.66" y2="330.68" stroke="#1F4E79" stroke-width="3"/><line x1="642" y1="245.34" x2="556.66" y2="330.68" stroke="#1F4E79" stroke-width="3"/><line x1="652" y1="245.34" x2="566.66" y2="330.68" stroke="#1F4E79" stroke-width="3"/><line x1="662" y1="245.34" x2="576.66" y2="330.68" stroke="#1F4E79" stroke-width="3"/><line x1="672" y1="245.34" x2="586.66" y2="330.68" stroke="#1F4E79" stroke-width="3"/><line x1="682" y1="245.34" x2="596.66" y2="330.68" stroke="#1F4E79" stroke-width="3"/><line x1="692" y1="245.34" x2="606.66" y2="330.68" stroke="#1F4E79" stroke-width="3"/><line x1="702" y1="245.34" x2="616.66" y2="330.68" stroke="#1F4E79" stroke-width="3"/><line x1="712" y1="245.34" x2="626.66" y2="330.68" stroke="#1F4E79" stroke-width="3"/></g><line x1="412" y1="245.34" x2="632" y2="245.34" stroke="#CBD5E1" stroke-width="2"/><line x1="632" y1="245.34" x2="632" y2="330.68" stroke="#CBD5E1" stroke-width="2"/><line x1="412" y1="330.68" x2="632" y2="330.68" stroke="#CBD5E1" stroke-width="2"/><line x1="412" y1="245.34" x2="412" y2="330.68" stroke="#CBD5E1" stroke-width="2"/><rect x="632" y="245.34" width="220" height="85.34" fill="#E2F0D9"/><clipPath id="xl-fill-4-4"><rect x="632" y="245.34" width="220" height="85.34"/></clipPath><g clip-path="url(#xl-fill-4-4)"><line x1="546.66" y1="245.34" x2="632" y2="330.68" stroke="#70AD47" stroke-width="3"/><line x1="556.66" y1="245.34" x2="642" y2="330.68" stroke="#70AD47" stroke-width="3"/><line x1="566.66" y1="245.34" x2="652" y2="330.68" stroke="#70AD47" stroke-width="3"/><line x1="576.66" y1="245.34" x2="662" y2="330.68" stroke="#70AD47" stroke-width="3"/><line x1="586.66" y1="245.34" x2="672" y2="330.68" stroke="#70AD47" stroke-width="3"/><line x1="596.66" y1="245.34" x2="682" y2="330.68" stroke="#70AD47" stroke-width="3"/><line x1="606.66" y1="245.34" x2="692" y2="330.68" stroke="#70AD47" stroke-width="3"/><line x1="616.66" y1="245.34" x2="702" y2="330.68" stroke="#70AD47" stroke-width="3"/><line x1="626.66" y1="245.34" x2="712" y2="330.68" stroke="#70AD47" stroke-width="3"/><line x1="636.66" y1="245.34" x2="722" y2="330.68" stroke="#70AD47" stroke-width="3"/><line x1="646.66" y1="245.34" x2="732" y2="330.68" stroke="#70AD47" stroke-width="3"/><line x1="656.66" y1="245.34" x2="742" y2="330.68" stroke="#70AD47" stroke-width="3"/><line x1="666.66" y1="245.34" x2="752" y2="330.68" stroke="#70AD47" stroke-width="3"/><line x1="676.66" y1="245.34" x2="762" y2="330.68" stroke="#70AD47" stroke-width="3"/><line x1="686.66" y1="245.34" x2="772" y2="330.68" stroke="#70AD47" stroke-width="3"/><line x1="696.66" y1="245.34" x2="782" y2="330.68" stroke="#70AD47" stroke-width="3"/><line x1="706.66" y1="245.34" x2="792" y2="330.68" stroke="#70AD47" stroke-width="3"/><line x1="716.66" y1="245.34" x2="802" y2="330.68" stroke="#70AD47" stroke-width="3"/><line x1="726.66" y1="245.34" x2="812" y2="330.68" stroke="#70AD47" stroke-width="3"/><line x1="736.66" y1="245.34" x2="822" y2="330.68" stroke="#70AD47" stroke-width="3"/><line x1="746.66" y1="245.34" x2="832" y2="330.68" stroke="#70AD47" stroke-width="3"/><line x1="756.66" y1="245.34" x2="842" y2="330.68" stroke="#70AD47" stroke-width="3"/><line x1="766.66" y1="245.34" x2="852" y2="330.68" stroke="#70AD47" stroke-width="3"/><line x1="776.66" y1="245.34" x2="862" y2="330.68" stroke="#70AD47" stroke-width="3"/><line x1="786.66" y1="245.34" x2="872" y2="330.68" stroke="#70AD47" stroke-width="3"/><line x1="796.66" y1="245.34" x2="882" y2="330.68" stroke="#70AD47" stroke-width="3"/><line x1="806.66" y1="245.34" x2="892" y2="330.68" stroke="#70AD47" stroke-width="3"/><line x1="816.66" y1="245.34" x2="902" y2="330.68" stroke="#70AD47" stroke-width="3"/><line x1="826.66" y1="245.34" x2="912" y2="330.68" stroke="#70AD47" stroke-width="3"/><line x1="836.66" y1="245.34" x2="922" y2="330.68" stroke="#70AD47" stroke-width="3"/><line x1="846.66" y1="245.34" x2="932" y2="330.68" stroke="#70AD47" stroke-width="3"/><line x1="632" y1="245.34" x2="546.66" y2="330.68" stroke="#70AD47" stroke-width="3"/><line x1="642" y1="245.34" x2="556.66" y2="330.68" stroke="#70AD47" stroke-width="3"/><line x1="652" y1="245.34" x2="566.66" y2="330.68" stroke="#70AD47" stroke-width="3"/><line x1="662" y1="245.34" x2="576.66" y2="330.68" stroke="#70AD47" stroke-width="3"/><line x1="672" y1="245.34" x2="586.66" y2="330.68" stroke="#70AD47" stroke-width="3"/><line x1="682" y1="245.34" x2="596.66" y2="330.68" stroke="#70AD47" stroke-width="3"/><line x1="692" y1="245.34" x2="606.66" y2="330.68" stroke="#70AD47" stroke-width="3"/><line x1="702" y1="245.34" x2="616.66" y2="330.68" stroke="#70AD47" stroke-width="3"/><line x1="712" y1="245.34" x2="626.66" y2="330.68" stroke="#70AD47" stroke-width="3"/><line x1="722" y1="245.34" x2="636.66" y2="330.68" stroke="#70AD47" stroke-width="3"/><line x1="732" y1="245.34" x2="646.66" y2="330.68" stroke="#70AD47" stroke-width="3"/><line x1="742" y1="245.34" x2="656.66" y2="330.68" stroke="#70AD47" stroke-width="3"/><line x1="752" y1="245.34" x2="666.66" y2="330.68" stroke="#70AD47" stroke-width="3"/><line x1="762" y1="245.34" x2="676.66" y2="330.68" stroke="#70AD47" stroke-width="3"/><line x1="772" y1="245.34" x2="686.66" y2="330.68" stroke="#70AD47" stroke-width="3"/><line x1="782" y1="245.34" x2="696.66" y2="330.68" stroke="#70AD47" stroke-width="3"/><line x1="792" y1="245.34" x2="706.66" y2="330.68" stroke="#70AD47" stroke-width="3"/><line x1="802" y1="245.34" x2="716.66" y2="330.68" stroke="#70AD47" stroke-width="3"/><line x1="812" y1="245.34" x2="726.66" y2="330.68" stroke="#70AD47" stroke-width="3"/><line x1="822" y1="245.34" x2="736.66" y2="330.68" stroke="#70AD47" stroke-width="3"/><line x1="832" y1="245.34" x2="746.66" y2="330.68" stroke="#70AD47" stroke-width="3"/><line x1="842" y1="245.34" x2="756.66" y2="330.68" stroke="#70AD47" stroke-width="3"/><line x1="852" y1="245.34" x2="766.66" y2="330.68" stroke="#70AD47" stroke-width="3"/><line x1="862" y1="245.34" x2="776.66" y2="330.68" stroke="#70AD47" stroke-width="3"/><line x1="872" y1="245.34" x2="786.66" y2="330.68" stroke="#70AD47" stroke-width="3"/><line x1="882" y1="245.34" x2="796.66" y2="330.68" stroke="#70AD47" stroke-width="3"/><line x1="892" y1="245.34" x2="806.66" y2="330.68" stroke="#70AD47" stroke-width="3"/><line x1="902" y1="245.34" x2="816.66" y2="330.68" stroke="#70AD47" stroke-width="3"/><line x1="912" y1="245.34" x2="826.66" y2="330.68" stroke="#70AD47" stroke-width="3"/><line x1="922" y1="245.34" x2="836.66" y2="330.68" stroke="#70AD47" stroke-width="3"/><line x1="932" y1="245.34" x2="846.66" y2="330.68" stroke="#70AD47" stroke-width="3"/></g><line x1="632" y1="245.34" x2="852" y2="245.34" stroke="#CBD5E1" stroke-width="2"/><line x1="852" y1="245.34" x2="852" y2="330.68" stroke="#CBD5E1" stroke-width="2"/><line x1="632" y1="330.68" x2="852" y2="330.68" stroke="#CBD5E1" stroke-width="2"/><line x1="632" y1="245.34" x2="632" y2="330.68" stroke="#CBD5E1" stroke-width="2"/><rect x="0" y="330.68" width="192" height="85.34" fill="#FFFFFF"/><line x1="0" y1="330.68" x2="192" y2="330.68" stroke="#CBD5E1" stroke-width="2"/><line x1="192" y1="330.68" x2="192" y2="416.02" stroke="#CBD5E1" stroke-width="2"/><line x1="0" y1="416.02" x2="192" y2="416.02" stroke="#CBD5E1" stroke-width="2"/><line x1="0" y1="330.68" x2="0" y2="416.02" stroke="#CBD5E1" stroke-width="2"/><rect x="192" y="330.68" width="220" height="85.34" fill="#F8FAFC"/><clipPath id="xl-fill-5-2"><rect x="192" y="330.68" width="220" height="85.34"/></clipPath><g clip-path="url(#xl-fill-5-2)"><defs><pattern id="office-stipple-4cf8" patternUnits="userSpaceOnUse" x="192" y="330.68" width="8" height="8" viewBox="0 0 8 8"><rect x="0" y="0" width="2" height="2" fill="#70AD47"/><rect x="4" y="4" width="2" height="2" fill="#70AD47"/></pattern></defs><rect x="192" y="330.68" width="220" height="85.34" fill="url(#office-stipple-4cf8)"/></g><line x1="192" y1="330.68" x2="412" y2="330.68" stroke="#CBD5E1" stroke-width="2"/><line x1="412" y1="330.68" x2="412" y2="416.02" stroke="#CBD5E1" stroke-width="2"/><line x1="192" y1="416.02" x2="412" y2="416.02" stroke="#CBD5E1" stroke-width="2"/><line x1="192" y1="330.68" x2="192" y2="416.02" stroke="#CBD5E1" stroke-width="2"/><rect x="412" y="330.68" width="220" height="85.34" fill="#FFFFFF"/><line x1="412" y1="330.68" x2="632" y2="330.68" stroke="#CBD5E1" stroke-width="2"/><line x1="632" y1="330.68" x2="632" y2="416.02" stroke="#CBD5E1" stroke-width="2"/><line x1="412" y1="416.02" x2="632" y2="416.02" stroke="#CBD5E1" stroke-width="2"/><line x1="412" y1="330.68" x2="412" y2="416.02" stroke="#CBD5E1" stroke-width="2"/><rect x="632" y="330.68" width="220" height="85.34" fill="#FFFFFF"/><line x1="632" y1="330.68" x2="852" y2="330.68" stroke="#CBD5E1" stroke-width="2"/><line x1="852" y1="330.68" x2="852" y2="416.02" stroke="#CBD5E1" stroke-width="2"/><line x1="632" y1="416.02" x2="852" y2="416.02" stroke="#CBD5E1" stroke-width="2"/><line x1="632" y1="330.68" x2="632" y2="416.02" stroke="#CBD5E1" stroke-width="2"/><clipPath id="xl-text-1-1"><rect x="0" y="0" width="852" height="74.66"/></clipPath><g clip-path="url(#xl-text-1-1)"><text x="426" y="44.81" fill="#FFFFFF" font-family="Calibri, Arial, sans-serif" font-size="22" text-anchor="middle" font-weight="700">Pattern Fill Fidelity</text></g><clipPath id="xl-text-2-1"><rect x="0" y="74.66" width="192" height="85.34"/></clipPath><g clip-path="url(#xl-text-2-1)"><text x="96" y="124.81" fill="#0F172A" font-family="Calibri, Arial, sans-serif" font-size="22" text-anchor="middle" font-weight="700">Axis</text></g><clipPath id="xl-text-2-2"><rect x="192" y="74.66" width="220" height="85.34"/></clipPath><g clip-path="url(#xl-text-2-2)"><text x="302" y="124.81" fill="#0F172A" font-family="Calibri, Arial, sans-serif" font-size="22" text-anchor="middle" font-weight="700">Red</text></g><clipPath id="xl-text-2-3"><rect x="412" y="74.66" width="220" height="85.34"/></clipPath><g clip-path="url(#xl-text-2-3)"><text x="522" y="124.81" fill="#0F172A" font-family="Calibri, Arial, sans-serif" font-size="22" text-anchor="middle" font-weight="700">Blue</text></g><clipPath id="xl-text-2-4"><rect x="632" y="74.66" width="220" height="85.34"/></clipPath><g clip-path="url(#xl-text-2-4)"><text x="742" y="124.81" fill="#0F172A" font-family="Calibri, Arial, sans-serif" font-size="22" text-anchor="middle" font-weight="700">Green</text></g><clipPath id="xl-text-3-1"><rect x="0" y="160" width="192" height="85.34"/></clipPath><g clip-path="url(#xl-text-3-1)"><text x="96" y="210.15" fill="#000000" font-family="Calibri, Arial, sans-serif" font-size="22" text-anchor="middle">Light</text></g><clipPath id="xl-text-3-2"><rect x="192" y="160" width="220" height="85.34"/></clipPath><g clip-path="url(#xl-text-3-2)"><text x="302" y="210.15" fill="#000000" font-family="Calibri, Arial, sans-serif" font-size="22" text-anchor="middle">Horizontal</text></g><clipPath id="xl-text-3-3"><rect x="412" y="160" width="220" height="85.34"/></clipPath><g clip-path="url(#xl-text-3-3)"><text x="522" y="210.15" fill="#000000" font-family="Calibri, Arial, sans-serif" font-size="22" text-anchor="middle">Vertical</text></g><clipPath id="xl-text-3-4"><rect x="632" y="160" width="220" height="85.34"/></clipPath><g clip-path="url(#xl-text-3-4)"><text x="742" y="210.15" fill="#000000" font-family="Calibri, Arial, sans-serif" font-size="22" text-anchor="middle">Grid</text></g><clipPath id="xl-text-4-1"><rect x="0" y="245.34" width="192" height="85.34"/></clipPath><g clip-path="url(#xl-text-4-1)"><text x="96" y="295.49" fill="#000000" font-family="Calibri, Arial, sans-serif" font-size="22" text-anchor="middle">Diagonal</text></g><clipPath id="xl-text-4-2"><rect x="192" y="245.34" width="220" height="85.34"/></clipPath><g clip-path="url(#xl-text-4-2)"><text x="302" y="295.49" fill="#000000" font-family="Calibri, Arial, sans-serif" font-size="22" text-anchor="middle">Down</text></g><clipPath id="xl-text-4-3"><rect x="412" y="245.34" width="220" height="85.34"/></clipPath><g clip-path="url(#xl-text-4-3)"><text x="522" y="295.49" fill="#000000" font-family="Calibri, Arial, sans-serif" font-size="22" text-anchor="middle">Up</text></g><clipPath id="xl-text-4-4"><rect x="632" y="245.34" width="220" height="85.34"/></clipPath><g clip-path="url(#xl-text-4-4)"><text x="742" y="295.49" fill="#000000" font-family="Calibri, Arial, sans-serif" font-size="22" text-anchor="middle">Trellis</text></g><clipPath id="xl-text-5-1"><rect x="0" y="330.68" width="192" height="85.34"/></clipPath><g clip-path="url(#xl-text-5-1)"><text x="96" y="380.83" fill="#000000" font-family="Calibri, Arial, sans-serif" font-size="22" text-anchor="middle">Gray</text></g><clipPath id="xl-text-5-2"><rect x="192" y="330.68" width="220" height="85.34"/></clipPath><g clip-path="url(#xl-text-5-2)"><text x="302" y="380.83" fill="#000000" font-family="Calibri, Arial, sans-serif" font-size="22" text-anchor="middle">Dots</text></g><clipPath id="xl-text-5-3"><rect x="412" y="330.68" width="220" height="85.34"/></clipPath><g clip-path="url(#xl-text-5-3)"><text x="522" y="380.83" fill="#000000" font-family="Calibri, Arial, sans-serif" font-size="22" text-anchor="middle">Fallback</text></g><clipPath id="xl-text-5-4"><rect x="632" y="330.68" width="220" height="85.34"/></clipPath><g clip-path="url(#xl-text-5-4)"><text x="742" y="380.83" fill="#000000" font-family="Calibri, Arial, sans-serif" font-size="22" text-anchor="middle">Approx</text></g></svg>