<svg xmlns="http://www.w3.org/2000/svg" width="1152" height="704" viewBox="0 0 1152 704"><rect x="0" y="0" width="1152" height="704" fill="#FFFFFF"/><rect x="0" y="0" width="1152" height="69.34" fill="#0F172A"/><line x1="0" y1="0" x2="1152" y2="0" stroke="#CBD5E1" stroke-width="2"/><line x1="1152" y1="0" x2="1152" y2="69.34" stroke="#CBD5E1" stroke-width="2"/><line x1="0" y1="69.34" x2="1152" y2="69.34" stroke="#CBD5E1" stroke-width="2"/><line x1="0" y1="0" x2="0" y2="69.34" stroke="#CBD5E1" stroke-width="2"/><rect x="0" y="69.34" width="136" height="112" fill="#FFFFFF"/><line x1="0" y1="69.34" x2="136" y2="69.34" stroke="#CBD5E1" stroke-width="2"/><line x1="136" y1="69.34" x2="136" y2="181.34" stroke="#CBD5E1" stroke-width="2"/><line x1="0" y1="181.34" x2="136" y2="181.34" stroke="#CBD5E1" stroke-width="2"/><line x1="0" y1="69.34" x2="0" y2="181.34" stroke="#CBD5E1" stroke-width="2"/><rect x="136" y="69.34" width="220" height="112" fill="#FFFFFF"/><line x1="136" y1="69.34" x2="356" y2="69.34" stroke="#CBD5E1" stroke-width="2"/><line x1="356" y1="69.34" x2="356" y2="181.34" stroke="#CBD5E1" stroke-width="2"/><line x1="136" y1="181.34" x2="356" y2="181.34" stroke="#CBD5E1" stroke-width="2"/><line x1="136" y1="69.34" x2="136" y2="181.34" stroke="#CBD5E1" stroke-width="2"/><rect x="356" y="69.34" width="220" height="112" fill="#FFFFFF"/><line x1="356" y1="69.34" x2="576" y2="69.34" stroke="#CBD5E1" stroke-width="2"/><line x1="576" y1="69.34" x2="576" y2="181.34" stroke="#CBD5E1" stroke-width="2"/><line x1="356" y1="181.34" x2="576" y2="181.34" stroke="#CBD5E1" stroke-width="2"/><line x1="356" y1="69.34" x2="356" y2="181.34" stroke="#CBD5E1" stroke-width="2"/><rect x="576" y="69.34" width="220" height="112" fill="#FFFFFF"/><line x1="576" y1="69.34" x2="796" y2="69.34" stroke="#CBD5E1" stroke-width="2"/><line x1="796" y1="69.34" x2="796" y2="181.34" stroke="#CBD5E1" stroke-width="2"/><line x1="576" y1="181.34" x2="796" y2="181.34" stroke="#CBD5E1" stroke-width="2"/><line x1="576" y1="69.34" x2="576" y2="181.34" stroke="#CBD5E1" stroke-width="2"/><rect x="796" y="69.34" width="220" height="112" fill="#FFFFFF"/><line x1="796" y1="69.34" x2="1016" y2="69.34" stroke="#CBD5E1" stroke-width="2"/><line x1="1016" y1="69.34" x2="1016" y2="181.34" stroke="#CBD5E1" stroke-width="2"/><line x1="796" y1="181.34" x2="1016" y2="181.34" stroke="#CBD5E1" stroke-width="2"/><line x1="796" y1="69.34" x2="796" y2="181.34" stroke="#CBD5E1" stroke-width="2"/><rect x="1016" y="69.34" width="136" height="112" fill="#FFFFFF"/><line x1="1016" y1="69.34" x2="1152" y2="69.34" stroke="#CBD5E1" stroke-width="2"/><line x1="1152" y1="69.34" x2="1152" y2="181.34" stroke="#CBD5E1" stroke-width="2"/><line x1="1016" y1="181.34" x2="1152" y2="181.34" stroke="#CBD5E1" stroke-width="2"/><line x1="1016" y1="69.34" x2="1016" y2="181.34" stroke="#CBD5E1" stroke-width="2"/><rect x="0" y="181.34" width="136" height="112" fill="#FFFFFF"/><line x1="0" y1="181.34" x2="136" y2="181.34" stroke="#CBD5E1" stroke-width="2"/><line x1="136" y1="181.34" x2="136" y2="293.34" stroke="#CBD5E1" stroke-width="2"/><line x1="0" y1="293.34" x2="136" y2="293.34" stroke="#CBD5E1" stroke-width="2"/><line x1="0" y1="181.34" x2="0" y2="293.34" stroke="#CBD5E1" stroke-width="2"/><rect x="136" y="181.34" width="220" height="112" fill="#FFFFFF"/><line x1="136" y1="181.34" x2="356" y2="181.34" stroke="#CBD5E1" stroke-width="2"/><line x1="356" y1="181.34" x2="356" y2="293.34" stroke="#CBD5E1" stroke-width="2"/><line x1="136" y1="293.34" x2="356" y2="293.34" stroke="#CBD5E1" stroke-width="2"/><line x1="136" y1="181.34" x2="136" y2="293.34" stroke="#CBD5E1" stroke-width="2"/><rect x="356" y="181.34" width="220" height="112" fill="#FFFFFF"/><line x1="356" y1="181.34" x2="576" y2="181.34" stroke="#CBD5E1" stroke-width="2"/><line x1="576" y1="181.34" x2="576" y2="293.34" stroke="#CBD5E1" stroke-width="2"/><line x1="356" y1="293.34" x2="576" y2="293.34" stroke="#CBD5E1" stroke-width="2"/><line x1="356" y1="181.34" x2="356" y2="293.34" stroke="#CBD5E1" stroke-width="2"/><rect x="576" y="181.34" width="220" height="112" fill="#FFFFFF"/><line x1="576" y1="181.34" x2="796" y2="181.34" stroke="#CBD5E1" stroke-width="2"/><line x1="796" y1="181.34" x2="796" y2="293.34" stroke="#CBD5E1" stroke-width="2"/><line x1="576" y1="293.34" x2="796" y2="293.34" stroke="#CBD5E1" stroke-width="2"/><line x1="576" y1="181.34" x2="576" y2="293.34" stroke="#CBD5E1" stroke-width="2"/><rect x="796" y="181.34" width="220" height="112" fill="#FFFFFF"/><line x1="796" y1="181.34" x2="1016" y2="181.34" stroke="#CBD5E1" stroke-width="2"/><line x1="1016" y1="181.34" x2="1016" y2="293.34" stroke="#CBD5E1" stroke-width="2"/><line x1="796" y1="293.34" x2="1016" y2="293.34" stroke="#CBD5E1" stroke-width="2"/><line x1="796" y1="181.34" x2="796" y2="293.34" stroke="#CBD5E1" stroke-width="2"/><rect x="1016" y="181.34" width="136" height="112" fill="#FFFFFF"/><line x1="1016" y1="181.34" x2="1152" y2="181.34" stroke="#CBD5E1" stroke-width="2"/><line x1="1152" y1="181.34" x2="1152" y2="293.34" stroke="#CBD5E1" stroke-width="2"/><line x1="1016" y1="293.34" x2="1152" y2="293.34" stroke="#CBD5E1" stroke-width="2"/><line x1="1016" y1="181.34" x2="1016" y2="293.34" stroke="#CBD5E1" stroke-width="2"/><rect x="0" y="293.34" width="136" height="112" fill="#FFFFFF"/><line x1="0" y1="293.34" x2="136" y2="293.34" stroke="#CBD5E1" stroke-width="2"/><line x1="136" y1="293.34" x2="136" y2="405.34" stroke="#CBD5E1" stroke-width="2"/><line x1="0" y1="405.34" x2="136" y2="405.34" stroke="#CBD5E1" stroke-width="2"/><line x1="0" y1="293.34" x2="0" y2="405.34" stroke="#CBD5E1" stroke-width="2"/><rect x="136" y="293.34" width="220" height="112" fill="#FFFFFF"/><line x1="136" y1="293.34" x2="356" y2="293.34" stroke="#CBD5E1" stroke-width="2"/><line x1="356" y1="293.34" x2="356" y2="405.34" stroke="#CBD5E1" stroke-width="2"/><line x1="136" y1="405.34" x2="356" y2="405.34" stroke="#CBD5E1" stroke-width="2"/><line x1="136" y1="293.34" x2="136" y2="405.34" stroke="#CBD5E1" stroke-width="2"/><rect x="356" y="293.34" width="220" height="112" fill="#FFFFFF"/><line x1="356" y1="293.34" x2="576" y2="293.34" stroke="#CBD5E1" stroke-width="2"/><line x1="576" y1="293.34" x2="576" y2="405.34" stroke="#CBD5E1" stroke-width="2"/><line x1="356" y1="405.34" x2="576" y2="405.34" stroke="#CBD5E1" stroke-width="2"/><line x1="356" y1="293.34" x2="356" y2="405.34" stroke="#CBD5E1" stroke-width="2"/><rect x="576" y="293.34" width="220" height="112" fill="#FFFFFF"/><line x1="576" y1="293.34" x2="796" y2="293.34" stroke="#CBD5E1" stroke-width="2"/><line x1="796" y1="293.34" x2="796" y2="405.34" stroke="#CBD5E1" stroke-width="2"/><line x1="576" y1="405.34" x2="796" y2="405.34" stroke="#CBD5E1" stroke-width="2"/><line x1="576" y1="293.34" x2="576" y2="405.34" stroke="#CBD5E1" stroke-width="2"/><rect x="796" y="293.34" width="220" height="112" fill="#FFFFFF"/><line x1="796" y1="293.34" x2="1016" y2="293.34" stroke="#CBD5E1" stroke-width="2"/><line x1="1016" y1="293.34" x2="1016" y2="405.34" stroke="#CBD5E1" stroke-width="2"/><line x1="796" y1="405.34" x2="1016" y2="405.34" stroke="#CBD5E1" stroke-width="2"/><line x1="796" y1="293.34" x2="796" y2="405.34" stroke="#CBD5E1" stroke-width="2"/><rect x="1016" y="293.34" width="136" height="112" fill="#FFFFFF"/><line x1="1016" y1="293.34" x2="1152" y2="293.34" stroke="#CBD5E1" stroke-width="2"/><line x1="1152" y1="293.34" x2="1152" y2="405.34" stroke="#CBD5E1" stroke-width="2"/><line x1="1016" y1="405.34" x2="1152" y2="405.34" stroke="#CBD5E1" stroke-width="2"/><line x1="1016" y1="293.34" x2="1016" y2="405.34" stroke="#CBD5E1" stroke-width="2"/><rect x="0" y="405.34" width="136" height="85.34" fill="#FFFFFF"/><line x1="0" y1="405.34" x2="136" y2="405.34" stroke="#CBD5E1" stroke-width="2"/><line x1="136" y1="405.34" x2="136" y2="490.68" stroke="#CBD5E1" stroke-width="2"/><line x1="0" y1="490.68" x2="136" y2="490.68" stroke="#CBD5E1" stroke-width="2"/><line x1="0" y1="405.34" x2="0" y2="490.68" stroke="#CBD5E1" stroke-width="2"/><rect x="136" y="405.34" width="220" height="85.34" fill="#FFFFFF"/><line x1="136" y1="405.34" x2="356" y2="405.34" stroke="#CBD5E1" stroke-width="2"/><line x1="356" y1="405.34" x2="356" y2="490.68" stroke="#CBD5E1" stroke-width="2"/><line x1="136" y1="490.68" x2="356" y2="490.68" stroke="#CBD5E1" stroke-width="2"/><line x1="136" y1="405.34" x2="136" y2="490.68" stroke="#CBD5E1" stroke-width="2"/><rect x="356" y="405.34" width="220" height="85.34" fill="#FFFFFF"/><line x1="356" y1="405.34" x2="576" y2="405.34" stroke="#CBD5E1" stroke-width="2"/><line x1="576" y1="405.34" x2="576" y2="490.68" stroke="#CBD5E1" stroke-width="2"/><line x1="356" y1="490.68" x2="576" y2="490.68" stroke="#CBD5E1" stroke-width="2"/><line x1="356" y1="405.34" x2="356" y2="490.68" stroke="#CBD5E1" stroke-width="2"/><rect x="576" y="405.34" width="220" height="85.34" fill="#FFFFFF"/><line x1="576" y1="405.34" x2="796" y2="405.34" stroke="#CBD5E1" stroke-width="2"/><line x1="796" y1="405.34" x2="796" y2="490.68" stroke="#CBD5E1" stroke-width="2"/><line x1="576" y1="490.68" x2="796" y2="490.68" stroke="#CBD5E1" stroke-width="2"/><line x1="576" y1="405.34" x2="576" y2="490.68" stroke="#CBD5E1" stroke-width="2"/><rect x="796" y="405.34" width="220" height="85.34" fill="#FFFFFF"/><line x1="796" y1="405.34" x2="1016" y2="405.34" stroke="#CBD5E1" stroke-width="2"/><line x1="1016" y1="405.34" x2="1016" y2="490.68" stroke="#CBD5E1" stroke-width="2"/><line x1="796" y1="490.68" x2="1016" y2="490.68" stroke="#CBD5E1" stroke-width="2"/><line x1="796" y1="405.34" x2="796" y2="490.68" stroke="#CBD5E1" stroke-width="2"/><rect x="1016" y="405.34" width="136" height="85.34" fill="#FFFFFF"/><line x1="1016" y1="405.34" x2="1152" y2="405.34" stroke="#CBD5E1" stroke-width="2"/><line x1="1152" y1="405.34" x2="1152" y2="490.68" stroke="#CBD5E1" stroke-width="2"/><line x1="1016" y1="490.68" x2="1152" y2="490.68" stroke="#CBD5E1" stroke-width="2"/><line x1="1016" y1="405.34" x2="1016" y2="490.68" stroke="#CBD5E1" stroke-width="2"/><rect x="0" y="490.68" width="136" height="74.66" fill="#FFFFFF"/><line x1="0" y1="490.68" x2="136" y2="490.68" stroke="#CBD5E1" stroke-width="2"/><line x1="136" y1="490.68" x2="136" y2="565.34" stroke="#CBD5E1" stroke-width="2"/><line x1="0" y1="565.34" x2="136" y2="565.34" stroke="#CBD5E1" stroke-width="2"/><line x1="0" y1="490.68" x2="0" y2="565.34" stroke="#CBD5E1" stroke-width="2"/><rect x="136" y="490.68" width="220" height="74.66" fill="#FFFFFF"/><line x1="136" y1="490.68" x2="356" y2="490.68" stroke="#CBD5E1" stroke-width="2"/><line x1="356" y1="490.68" x2="356" y2="565.34" stroke="#CBD5E1" stroke-width="2"/><line x1="136" y1="565.34" x2="356" y2="565.34" stroke="#CBD5E1" stroke-width="2"/><line x1="136" y1="490.68" x2="136" y2="565.34" stroke="#CBD5E1" stroke-width="2"/><rect x="356" y="490.68" width="220" height="74.66" fill="#FFFFFF"/><line x1="356" y1="490.68" x2="576" y2="490.68" stroke="#CBD5E1" stroke-width="2"/><line x1="576" y1="490.68" x2="576" y2="565.34" stroke="#CBD5E1" stroke-width="2"/><line x1="356" y1="565.34" x2="576" y2="565.34" stroke="#CBD5E1" stroke-width="2"/><line x1="356" y1="490.68" x2="356" y2="565.34" stroke="#CBD5E1" stroke-width="2"/><rect x="576" y="490.68" width="220" height="74.66" fill="#FFFFFF"/><line x1="576" y1="490.68" x2="796" y2="490.68" stroke="#CBD5E1" stroke-width="2"/><line x1="796" y1="490.68" x2="796" y2="565.34" stroke="#CBD5E1" stroke-width="2"/><line x1="576" y1="565.34" x2="796" y2="565.34" stroke="#CBD5E1" stroke-width="2"/><line x1="576" y1="490.68" x2="576" y2="565.34" stroke="#CBD5E1" stroke-width="2"/><rect x="796" y="490.68" width="220" height="74.66" fill="#FFFFFF"/><line x1="796" y1="490.68" x2="1016" y2="490.68" stroke="#CBD5E1" stroke-width="2"/><line x1="1016" y1="490.68" x2="1016" y2="565.34" stroke="#CBD5E1" stroke-width="2"/><line x1="796" y1="565.34" x2="1016" y2="565.34" stroke="#CBD5E1" stroke-width="2"/><line x1="796" y1="490.68" x2="796" y2="565.34" stroke="#CBD5E1" stroke-width="2"/><rect x="1016" y="490.68" width="136" height="74.66" fill="#FFFFFF"/><line x1="1016" y1="490.68" x2="1152" y2="490.68" stroke="#CBD5E1" stroke-width="2"/><line x1="1152" y1="490.68" x2="1152" y2="565.34" stroke="#CBD5E1" stroke-width="2"/><line x1="1016" y1="565.34" x2="1152" y2="565.34" stroke="#CBD5E1" stroke-width="2"/><line x1="1016" y1="490.68" x2="1016" y2="565.34" stroke="#CBD5E1" stroke-width="2"/><rect x="0" y="565.34" width="136" height="80" fill="#FFFFFF"/><line x1="0" y1="565.34" x2="136" y2="565.34" stroke="#CBD5E1" stroke-width="2"/><line x1="136" y1="565.34" x2="136" y2="645.34" stroke="#CBD5E1" stroke-width="2"/><line x1="0" y1="645.34" x2="136" y2="645.34" stroke="#CBD5E1" stroke-width="2"/><line x1="0" y1="565.34" x2="0" y2="645.34" stroke="#CBD5E1" stroke-width="2"/><rect x="136" y="565.34" width="880" height="80" fill="#F8FAFC"/><line x1="136" y1="565.34" x2="1016" y2="565.34" stroke="#CBD5E1" stroke-width="2"/><line x1="1016" y1="565.34" x2="1016" y2="645.34" stroke="#CBD5E1" stroke-width="2"/><line x1="136" y1="645.34" x2="1016" y2="645.34" stroke="#CBD5E1" stroke-width="2"/><line x1="136" y1="565.34" x2="136" y2="645.34" stroke="#CBD5E1" stroke-width="2"/><rect x="1016" y="565.34" width="136" height="80" fill="#FFFFFF"/><line x1="1016" y1="565.34" x2="1152" y2="565.34" stroke="#CBD5E1" stroke-width="2"/><line x1="1152" y1="565.34" x2="1152" y2="645.34" stroke="#CBD5E1" stroke-width="2"/><line x1="1016" y1="645.34" x2="1152" y2="645.34" stroke="#CBD5E1" stroke-width="2"/><line x1="1016" y1="565.34" x2="1016" y2="645.34" stroke="#CBD5E1" stroke-width="2"/><rect x="0" y="645.34" width="136" height="58.66" fill="#FFFFFF"/><line x1="0" y1="645.34" x2="136" y2="645.34" stroke="#CBD5E1" stroke-width="2"/><line x1="136" y1="645.34" x2="136" y2="704" stroke="#CBD5E1" stroke-width="2"/><line x1="0" y1="704" x2="136" y2="704" stroke="#CBD5E1" stroke-width="2"/><line x1="0" y1="645.34" x2="0" y2="704" stroke="#CBD5E1" stroke-width="2"/><rect x="136" y="645.34" width="220" height="58.66" fill="#FFFFFF"/><line x1="136" y1="645.34" x2="356" y2="645.34" stroke="#CBD5E1" stroke-width="2"/><line x1="356" y1="645.34" x2="356" y2="704" stroke="#CBD5E1" stroke-width="2"/><line x1="136" y1="704" x2="356" y2="704" stroke="#CBD5E1" stroke-width="2"/><line x1="136" y1="645.34" x2="136" y2="704" stroke="#CBD5E1" stroke-width="2"/><rect x="356" y="645.34" width="220" height="58.66" fill="#FFFFFF"/><line x1="356" y1="645.34" x2="576" y2="645.34" stroke="#CBD5E1" stroke-width="2"/><line x1="576" y1="645.34" x2="576" y2="704" stroke="#CBD5E1" stroke-width="2"/><line x1="356" y1="704" x2="576" y2="704" stroke="#CBD5E1" stroke-width="2"/><line x1="356" y1="645.34" x2="356" y2="704" stroke="#CBD5E1" stroke-width="2"/><rect x="576" y="645.34" width="220" height="58.66" fill="#FFFFFF"/><line x1="576" y1="645.34" x2="796" y2="645.34" stroke="#CBD5E1" stroke-width="2"/><line x1="796" y1="645.34" x2="796" y2="704" stroke="#CBD5E1" stroke-width="2"/><line x1="576" y1="704" x2="796" y2="704" stroke="#CBD5E1" stroke-width="2"/><line x1="576" y1="645.34" x2="576" y2="704" stroke="#CBD5E1" stroke-width="2"/><rect x="796" y="645.34" width="220" height="58.66" fill="#FFFFFF"/><line x1="796" y1="645.34" x2="1016" y2="645.34" stroke="#CBD5E1" stroke-width="2"/><line x1="1016" y1="645.34" x2="1016" y2="704" stroke="#CBD5E1" stroke-width="2"/><line x1="796" y1="704" x2="1016" y2="704" stroke="#CBD5E1" stroke-width="2"/><line x1="796" y1="645.34" x2="796" y2="704" stroke="#CBD5E1" stroke-width="2"/><rect x="1016" y="645.34" width="136" height="58.66" fill="#FFFFFF"/><line x1="1016" y1="645.34" x2="1152" y2="645.34" stroke="#CBD5E1" stroke-width="2"/><line x1="1152" y1="645.34" x2="1152" y2="704" stroke="#CBD5E1" stroke-width="2"/><line x1="1016" y1="704" x2="1152" y2="704" stroke="#CBD5E1" stroke-width="2"/><line x1="1016" y1="645.34" x2="1016" y2="704" stroke="#CBD5E1" stroke-width="2"/><clipPath id="xl-text-1-1"><rect x="0" y="0" width="1152" height="69.34"/></clipPath><g clip-path="url(#xl-text-1-1)"><text x="576" y="42.15" fill="#FFFFFF" font-family="Calibri, Arial, sans-serif" font-size="22" text-anchor="middle" font-weight="700">Rotated DrawingML preset</text></g><clipPath id="xl-text-7-2"><rect x="136" y="565.34" width="880" height="80"/></clipPath><g clip-path="url(#xl-text-7-2)"><text x="576" y="612.82" fill="#334155" font-family="Calibri, Arial, sans-serif" font-size="22" text-anchor="middle">Preset geometry, rotation, fill, outline, and clipping route through ...</text></g><svg x="305.138" y="92.161" width="541.723" height="487.698" viewBox="0 0 541.723 487.698"><path d="M202.4 287.686C61.6 210.351 0 160.857 8.8 95.895C17.6 34.027 83.6 0 149.6 18.56C180.4 27.841 198 52.588 202.4 80.428C206.8 52.588 224.4 27.841 255.2 18.56C321.2 0 387.2 34.027 396 95.895C404.8 160.857 343.2 210.351 202.4 287.686Z" fill="#FDBA74" stroke="#EA580C" stroke-width="4" fill-rule="evenodd" transform="matrix(0.883 0.469 -0.469 0.883 149.226 4)"/></svg></svg>