<svg xmlns="http://www.w3.org/2000/svg" width="468" height="790" viewBox="0 0 468 790"><rect x="0" y="0" width="468" height="790" fill="#FFFFFF"/><rect x="0" y="0" width="468" height="74.66" fill="#0F172A"/><line x1="0" y1="0" x2="468" y2="0" stroke="#CBD5E1" stroke-width="2"/><line x1="468" y1="0" x2="468" y2="74.66" stroke="#CBD5E1" stroke-width="2"/><line x1="0" y1="74.66" x2="468" y2="74.66" stroke="#CBD5E1" stroke-width="2"/><line x1="0" y1="0" x2="0" y2="74.66" stroke="#CBD5E1" stroke-width="2"/><rect x="0" y="74.66" width="206" height="74.66" fill="#E2E8F0"/><line x1="0" y1="74.66" x2="206" y2="74.66" stroke="#CBD5E1" stroke-width="2"/><line x1="206" y1="74.66" x2="206" y2="149.32" stroke="#CBD5E1" stroke-width="2"/><line x1="0" y1="149.32" x2="206" y2="149.32" stroke="#CBD5E1" stroke-width="2"/><line x1="0" y1="74.66" x2="0" y2="149.32" stroke="#CBD5E1" stroke-width="2"/><rect x="206" y="74.66" width="262" height="74.66" fill="#F8FAFC"/><line x1="206" y1="74.66" x2="468" y2="74.66" stroke="#CBD5E1" stroke-width="2"/><line x1="468" y1="74.66" x2="468" y2="149.32" stroke="#CBD5E1" stroke-width="2"/><line x1="206" y1="149.32" x2="468" y2="149.32" stroke="#CBD5E1" stroke-width="2"/><line x1="206" y1="74.66" x2="206" y2="149.32" stroke="#CBD5E1" stroke-width="2"/><rect x="0" y="149.32" width="206" height="122.66" fill="#E2E8F0"/><line x1="0" y1="149.32" x2="206" y2="149.32" stroke="#CBD5E1" stroke-width="2"/><line x1="206" y1="149.32" x2="206" y2="271.98" stroke="#CBD5E1" stroke-width="2"/><line x1="0" y1="271.98" x2="206" y2="271.98" stroke="#CBD5E1" stroke-width="2"/><line x1="0" y1="149.32" x2="0" y2="271.98" stroke="#CBD5E1" stroke-width="2"/><rect x="206" y="149.32" width="262" height="122.66" fill="#F8FAFC"/><line x1="206" y1="149.32" x2="468" y2="149.32" stroke="#CBD5E1" stroke-width="2"/><line x1="468" y1="149.32" x2="468" y2="271.98" stroke="#CBD5E1" stroke-width="2"/><line x1="206" y1="271.98" x2="468" y2="271.98" stroke="#CBD5E1" stroke-width="2"/><line x1="206" y1="149.32" x2="206" y2="271.98" stroke="#CBD5E1" stroke-width="2"/><rect x="0" y="271.98" width="206" height="154.66" fill="#E2E8F0"/><line x1="0" y1="271.98" x2="206" y2="271.98" stroke="#CBD5E1" stroke-width="2"/><line x1="206" y1="271.98" x2="206" y2="426.64" stroke="#CBD5E1" stroke-width="2"/><line x1="0" y1="426.64" x2="206" y2="426.64" stroke="#CBD5E1" stroke-width="2"/><line x1="0" y1="271.98" x2="0" y2="426.64" stroke="#CBD5E1" stroke-width="2"/><rect x="206" y="271.98" width="262" height="154.66" fill="#F8FAFC"/><line x1="206" y1="271.98" x2="468" y2="271.98" stroke="#CBD5E1" stroke-width="2"/><line x1="468" y1="271.98" x2="468" y2="426.64" stroke="#CBD5E1" stroke-width="2"/><line x1="206" y1="426.64" x2="468" y2="426.64" stroke="#CBD5E1" stroke-width="2"/><line x1="206" y1="271.98" x2="206" y2="426.64" stroke="#CBD5E1" stroke-width="2"/><rect x="0" y="426.64" width="206" height="74.66" fill="#E2E8F0"/><line x1="0" y1="426.64" x2="206" y2="426.64" stroke="#CBD5E1" stroke-width="2"/><line x1="206" y1="426.64" x2="206" y2="501.3" stroke="#CBD5E1" stroke-width="2"/><line x1="0" y1="501.3" x2="206" y2="501.3" stroke="#CBD5E1" stroke-width="2"/><line x1="0" y1="426.64" x2="0" y2="501.3" stroke="#CBD5E1" stroke-width="2"/><rect x="206" y="426.64" width="262" height="74.66" fill="#F8FAFC"/><line x1="206" y1="426.64" x2="468" y2="426.64" stroke="#CBD5E1" stroke-width="2"/><line x1="468" y1="426.64" x2="468" y2="501.3" stroke="#CBD5E1" stroke-width="2"/><line x1="206" y1="501.3" x2="468" y2="501.3" stroke="#CBD5E1" stroke-width="2"/><line x1="206" y1="426.64" x2="206" y2="501.3" stroke="#CBD5E1" stroke-width="2"/><rect x="0" y="501.3" width="206" height="64" fill="#E2E8F0"/><line x1="0" y1="501.3" x2="206" y2="501.3" stroke="#CBD5E1" stroke-width="2"/><line x1="206" y1="501.3" x2="206" y2="565.3" stroke="#CBD5E1" stroke-width="2"/><line x1="0" y1="565.3" x2="206" y2="565.3" stroke="#CBD5E1" stroke-width="2"/><line x1="0" y1="501.3" x2="0" y2="565.3" stroke="#CBD5E1" stroke-width="2"/><rect x="206" y="501.3" width="262" height="64" fill="#F8FAFC"/><line x1="206" y1="501.3" x2="468" y2="501.3" stroke="#CBD5E1" stroke-width="2"/><line x1="468" y1="501.3" x2="468" y2="565.3" stroke="#CBD5E1" stroke-width="2"/><line x1="206" y1="565.3" x2="468" y2="565.3" stroke="#CBD5E1" stroke-width="2"/><line x1="206" y1="501.3" x2="206" y2="565.3" stroke="#CBD5E1" stroke-width="2"/><rect x="0" y="565.3" width="206" height="128" fill="#E2E8F0"/><line x1="0" y1="565.3" x2="206" y2="565.3" stroke="#CBD5E1" stroke-width="2"/><line x1="206" y1="565.3" x2="206" y2="693.3" stroke="#CBD5E1" stroke-width="2"/><line x1="0" y1="693.3" x2="206" y2="693.3" stroke="#CBD5E1" stroke-width="2"/><line x1="0" y1="565.3" x2="0" y2="693.3" stroke="#CBD5E1" stroke-width="2"/><rect x="206" y="565.3" width="262" height="128" fill="#F8FAFC"/><line x1="206" y1="565.3" x2="468" y2="565.3" stroke="#CBD5E1" stroke-width="2"/><line x1="468" y1="565.3" x2="468" y2="693.3" stroke="#CBD5E1" stroke-width="2"/><line x1="206" y1="693.3" x2="468" y2="693.3" stroke="#CBD5E1" stroke-width="2"/><line x1="206" y1="565.3" x2="206" y2="693.3" stroke="#CBD5E1" stroke-width="2"/><rect x="0" y="693.3" width="206" height="96" fill="#E2E8F0"/><line x1="0" y1="693.3" x2="206" y2="693.3" stroke="#CBD5E1" stroke-width="2"/><line x1="206" y1="693.3" x2="206" y2="789.3" stroke="#CBD5E1" stroke-width="2"/><line x1="0" y1="789.3" x2="206" y2="789.3" stroke="#CBD5E1" stroke-width="2"/><line x1="0" y1="693.3" x2="0" y2="789.3" stroke="#CBD5E1" stroke-width="2"/><rect x="206" y="693.3" width="262" height="96" fill="#F8FAFC"/><line x1="206" y1="693.3" x2="468" y2="693.3" stroke="#CBD5E1" stroke-width="2"/><line x1="468" y1="693.3" x2="468" y2="789.3" stroke="#CBD5E1" stroke-width="2"/><line x1="206" y1="789.3" x2="468" y2="789.3" stroke="#CBD5E1" stroke-width="2"/><line x1="206" y1="693.3" x2="206" y2="789.3" stroke="#CBD5E1" stroke-width="2"/><clipPath id="xl-text-1-1"><rect x="0" y="0" width="468" height="74.66"/></clipPath><g clip-path="url(#xl-text-1-1)"><text x="234" y="44.81" fill="#FFFFFF" font-family="Calibri, Arial, sans-serif" font-size="22" text-anchor="middle" font-weight="700">Rich Text Fidelity</text></g><clipPath id="xl-text-2-1"><rect x="0" y="74.66" width="206" height="74.66"/></clipPath><g clip-path="url(#xl-text-2-1)"><text x="6" y="119.47" fill="#0F172A" font-family="Calibri, Arial, sans-serif" font-size="22" text-anchor="start" font-weight="700">Single</text></g><clipPath id="xl-text-2-2"><rect x="206" y="74.66" width="262" height="74.66"/></clipPath><g clip-path="url(#xl-text-2-2)"><text x="212" y="120.83" font-family="Calibri, Arial, sans-serif" font-size="26" text-anchor="start" fill="#0F766E" font-weight="700">Single</text><text x="308.179" y="120.83" font-family="Calibri, Arial, sans-serif" font-size="24" text-anchor="start" fill="#7C3AED" xml:space="preserve" font-style="italic"> styled</text><text x="403.411" y="120.83" font-family="Calibri, Arial, sans-serif" font-size="24" text-anchor="start" fill="#2563EB" xml:space="preserve" text-decoration="underline"> li...</text></g><clipPath id="xl-text-3-1"><rect x="0" y="149.32" width="206" height="122.66"/></clipPath><g clip-path="url(#xl-text-3-1)"><text x="6" y="218.13" fill="#0F172A" font-family="Calibri, Arial, sans-serif" font-size="22" text-anchor="start" font-weight="700">Hard break</text></g><clipPath id="xl-text-3-2"><rect x="206" y="149.32" width="262" height="122.66"/></clipPath><g clip-path="url(#xl-text-3-2)"><text x="212" y="204.31" font-family="Calibri, Arial, sans-serif" font-size="24" text-anchor="start" fill="#DC2626" font-weight="700">Hard</text><text x="212" y="233.31" font-family="Calibri, Arial, sans-serif" font-size="24" text-anchor="start" fill="#2563EB" font-style="italic">break</text></g><clipPath id="xl-text-4-1"><rect x="0" y="271.98" width="206" height="154.66"/></clipPath><g clip-path="url(#xl-text-4-1)"><text x="6" y="356.79" fill="#0F172A" font-family="Calibri, Arial, sans-serif" font-size="22" text-anchor="start" font-weight="700">Wrapped</text></g><clipPath id="xl-text-4-2"><rect x="206" y="271.98" width="262" height="154.66"/></clipPath><g clip-path="url(#xl-text-4-2)"><text x="212" y="389.3" font-family="Calibri, Arial, sans-serif" font-size="24" text-anchor="start" fill="#0F766E" xml:space="preserve" font-weight="700">Wrapped </text><text x="336.416" y="389.3" font-family="Calibri, Arial, sans-serif" font-size="24" text-anchor="start" fill="#7C3AED" xml:space="preserve" font-style="italic">rich text </text><text x="212" y="418.3" font-family="Calibri, Arial, sans-serif" font-size="24" text-anchor="start" fill="#7C3AED" font-style="italic">keeps</text><text x="296.48" y="418.3" font-family="Calibri, Arial, sans-serif" font-size="24" text-anchor="start" fill="#2563EB" xml:space="preserve" text-decoration="underline"> runs</text></g><clipPath id="xl-text-5-1"><rect x="0" y="426.64" width="206" height="74.66"/></clipPath><g clip-path="url(#xl-text-5-1)"><text x="6" y="471.45" fill="#0F172A" font-family="Calibri, Arial, sans-serif" font-size="22" text-anchor="start" font-weight="700">Shrink</text></g><clipPath id="xl-text-5-2"><rect x="206" y="426.64" width="262" height="74.66"/></clipPath><g clip-path="url(#xl-text-5-2)"><text x="212" y="476.21" font-family="Calibri, Arial, sans-serif" font-size="32" text-anchor="start" fill="#0F766E" font-weight="700">Shrink</text><text x="330.374" y="476.21" font-family="Calibri, Arial, sans-serif" font-size="36" text-anchor="start" fill="#7C3AED" xml:space="preserve" font-style="italic"> to fit</text></g><clipPath id="xl-text-6-1"><rect x="0" y="501.3" width="206" height="64"/></clipPath><g clip-path="url(#xl-text-6-1)"><text x="6" y="540.78" fill="#0F172A" font-family="Calibri, Arial, sans-serif" font-size="22" text-anchor="start" font-weight="700">Clipped</text></g><clipPath id="xl-text-6-2"><rect x="206" y="501.3" width="262" height="64"/></clipPath><g clip-path="url(#xl-text-6-2)"><text x="212" y="541.46" font-family="Calibri, Arial, sans-serif" font-size="24" text-anchor="start" fill="#DC2626" font-weight="700">Rich text stays ...</text></g><clipPath id="xl-text-7-1"><rect x="0" y="565.3" width="206" height="128"/></clipPath><g clip-path="url(#xl-text-7-1)"><text x="6" y="636.78" fill="#0F172A" font-family="Calibri, Arial, sans-serif" font-size="22" text-anchor="start" font-weight="700">Rotated</text></g><clipPath id="xl-text-7-2"><rect x="206" y="565.3" width="262" height="128"/></clipPath><g clip-path="url(#xl-text-7-2)" transform="rotate(-45 337 629.3)"><text x="266.319" y="636.474" font-family="Calibri, Arial, sans-serif" font-size="21.099" text-anchor="start" fill="#0F766E" font-weight="700">Tilt</text><text x="307.369" y="636.474" font-family="Calibri, Arial, sans-serif" font-size="19.592" text-anchor="start" fill="#7C3AED" xml:space="preserve" font-style="italic"> rich</text><text x="357.525" y="636.474" font-family="Calibri, Arial, sans-serif" font-size="19.592" text-anchor="start" fill="#2563EB" xml:space="preserve" text-decoration="underline"> text</text></g><clipPath id="xl-text-8-1"><rect x="0" y="693.3" width="206" height="96"/></clipPath><g clip-path="url(#xl-text-8-1)"><text x="6" y="748.78" fill="#0F172A" font-family="Calibri, Arial, sans-serif" font-size="22" text-anchor="start" font-weight="700">Mixed size</text></g><clipPath id="xl-text-8-2"><rect x="206" y="693.3" width="262" height="96"/></clipPath><g clip-path="url(#xl-text-8-2)"><text x="212" y="743.54" font-family="Calibri, Arial, sans-serif" font-size="36" text-anchor="start" fill="#0F766E" font-weight="700">Large line</text><text x="212" y="768.74" font-family="Calibri, Arial, sans-serif" font-size="16" text-anchor="start" fill="#7C3AED" font-style="italic">tiny line stays visible</text></g></svg>