<svg xmlns="http://www.w3.org/2000/svg" width="1016" height="416" viewBox="0 0 1016 416"><rect x="0" y="0" width="1016" height="416" fill="#FFFFFF"/><rect x="0" y="0" width="136" height="80" fill="#0F172A"/><line x1="0" y1="0" x2="136" y2="0" stroke="#CBD5E1" stroke-width="2"/><line x1="136" y1="0" x2="136" y2="80" stroke="#CBD5E1" stroke-width="2"/><line x1="0" y1="80" x2="136" y2="80" stroke="#CBD5E1" stroke-width="2"/><line x1="0" y1="0" x2="0" y2="80" stroke="#CBD5E1" stroke-width="2"/><rect x="136" y="0" width="234" height="80" fill="#0F172A"/><line x1="136" y1="0" x2="370" y2="0" stroke="#CBD5E1" stroke-width="2"/><line x1="370" y1="0" x2="370" y2="80" stroke="#CBD5E1" stroke-width="2"/><line x1="136" y1="80" x2="370" y2="80" stroke="#CBD5E1" stroke-width="2"/><line x1="136" y1="0" x2="136" y2="80" stroke="#CBD5E1" stroke-width="2"/><rect x="370" y="0" width="234" height="80" fill="#0F172A"/><line x1="370" y1="0" x2="604" y2="0" stroke="#CBD5E1" stroke-width="2"/><line x1="604" y1="0" x2="604" y2="80" stroke="#CBD5E1" stroke-width="2"/><line x1="370" y1="80" x2="604" y2="80" stroke="#CBD5E1" stroke-width="2"/><line x1="370" y1="0" x2="370" y2="80" stroke="#CBD5E1" stroke-width="2"/><rect x="604" y="0" width="150" height="80" fill="#0F172A"/><line x1="604" y1="0" x2="754" y2="0" stroke="#CBD5E1" stroke-width="2"/><line x1="754" y1="0" x2="754" y2="80" stroke="#CBD5E1" stroke-width="2"/><line x1="604" y1="80" x2="754" y2="80" stroke="#CBD5E1" stroke-width="2"/><line x1="604" y1="0" x2="604" y2="80" stroke="#CBD5E1" stroke-width="2"/><rect x="754" y="0" width="262" height="80" fill="#0F172A"/><line x1="754" y1="0" x2="1016" y2="0" stroke="#CBD5E1" stroke-width="2"/><line x1="1016" y1="0" x2="1016" y2="80" stroke="#CBD5E1" stroke-width="2"/><line x1="754" y1="80" x2="1016" y2="80" stroke="#CBD5E1" stroke-width="2"/><line x1="754" y1="0" x2="754" y2="80" stroke="#CBD5E1" stroke-width="2"/><rect x="0" y="80" width="136" height="74.66" fill="#F8FAFC"/><line x1="0" y1="80" x2="136" y2="80" stroke="#CBD5E1" stroke-width="2"/><line x1="136" y1="80" x2="136" y2="154.66" stroke="#CBD5E1" stroke-width="2"/><line x1="0" y1="154.66" x2="136" y2="154.66" stroke="#CBD5E1" stroke-width="2"/><line x1="0" y1="80" x2="0" y2="154.66" stroke="#CBD5E1" stroke-width="2"/><rect x="136" y="80" width="234" height="74.66" fill="#FFFFFF"/><line x1="136" y1="80" x2="370" y2="80" stroke="#CBD5E1" stroke-width="2"/><line x1="370" y1="80" x2="370" y2="154.66" stroke="#CBD5E1" stroke-width="2"/><line x1="136" y1="154.66" x2="370" y2="154.66" stroke="#CBD5E1" stroke-width="2"/><line x1="136" y1="80" x2="136" y2="154.66" stroke="#CBD5E1" stroke-width="2"/><rect x="370" y="80" width="234" height="74.66" fill="#FFFFFF"/><line x1="370" y1="80" x2="604" y2="80" stroke="#CBD5E1" stroke-width="2"/><line x1="604" y1="80" x2="604" y2="154.66" stroke="#CBD5E1" stroke-width="2"/><line x1="370" y1="154.66" x2="604" y2="154.66" stroke="#CBD5E1" stroke-width="2"/><line x1="370" y1="80" x2="370" y2="154.66" stroke="#CBD5E1" stroke-width="2"/><rect x="604" y="80" width="150" height="74.66" fill="#E2E8F0"/><line x1="604" y1="80" x2="754" y2="80" stroke="#CBD5E1" stroke-width="2"/><line x1="754" y1="80" x2="754" y2="154.66" stroke="#CBD5E1" stroke-width="2"/><line x1="604" y1="154.66" x2="754" y2="154.66" stroke="#CBD5E1" stroke-width="2"/><line x1="604" y1="80" x2="604" y2="154.66" stroke="#CBD5E1" stroke-width="2"/><rect x="754" y="80" width="262" height="74.66" fill="#FFFFFF"/><line x1="754" y1="80" x2="1016" y2="80" stroke="#CBD5E1" stroke-width="2"/><line x1="1016" y1="80" x2="1016" y2="154.66" stroke="#CBD5E1" stroke-width="2"/><line x1="754" y1="154.66" x2="1016" y2="154.66" stroke="#CBD5E1" stroke-width="2"/><line x1="754" y1="80" x2="754" y2="154.66" stroke="#CBD5E1" stroke-width="2"/><rect x="0" y="154.66" width="136" height="74.66" fill="#F8FAFC"/><line x1="0" y1="154.66" x2="136" y2="154.66" stroke="#CBD5E1" stroke-width="2"/><line x1="136" y1="154.66" x2="136" y2="229.32" stroke="#CBD5E1" stroke-width="2"/><line x1="0" y1="229.32" x2="136" y2="229.32" stroke="#CBD5E1" stroke-width="2"/><line x1="0" y1="154.66" x2="0" y2="229.32" stroke="#CBD5E1" stroke-width="2"/><rect x="136" y="154.66" width="234" height="74.66" fill="#FFFFFF"/><line x1="136" y1="154.66" x2="370" y2="154.66" stroke="#CBD5E1" stroke-width="2"/><line x1="370" y1="154.66" x2="370" y2="229.32" stroke="#CBD5E1" stroke-width="2"/><line x1="136" y1="229.32" x2="370" y2="229.32" stroke="#CBD5E1" stroke-width="2"/><line x1="136" y1="154.66" x2="136" y2="229.32" stroke="#CBD5E1" stroke-width="2"/><rect x="370" y="154.66" width="234" height="74.66" fill="#FFFFFF"/><line x1="370" y1="154.66" x2="604" y2="154.66" stroke="#CBD5E1" stroke-width="2"/><line x1="604" y1="154.66" x2="604" y2="229.32" stroke="#CBD5E1" stroke-width="2"/><line x1="370" y1="229.32" x2="604" y2="229.32" stroke="#CBD5E1" stroke-width="2"/><line x1="370" y1="154.66" x2="370" y2="229.32" stroke="#CBD5E1" stroke-width="2"/><rect x="604" y="154.66" width="150" height="74.66" fill="#E2E8F0"/><line x1="604" y1="154.66" x2="754" y2="154.66" stroke="#CBD5E1" stroke-width="2"/><line x1="754" y1="154.66" x2="754" y2="229.32" stroke="#CBD5E1" stroke-width="2"/><line x1="604" y1="229.32" x2="754" y2="229.32" stroke="#CBD5E1" stroke-width="2"/><line x1="604" y1="154.66" x2="604" y2="229.32" stroke="#CBD5E1" stroke-width="2"/><rect x="754" y="154.66" width="262" height="74.66" fill="#FFFFFF"/><line x1="754" y1="154.66" x2="1016" y2="154.66" stroke="#CBD5E1" stroke-width="2"/><line x1="1016" y1="154.66" x2="1016" y2="229.32" stroke="#CBD5E1" stroke-width="2"/><line x1="754" y1="229.32" x2="1016" y2="229.32" stroke="#CBD5E1" stroke-width="2"/><line x1="754" y1="154.66" x2="754" y2="229.32" stroke="#CBD5E1" stroke-width="2"/><rect x="0" y="229.32" width="136" height="112" fill="#F8FAFC"/><line x1="0" y1="229.32" x2="136" y2="229.32" stroke="#CBD5E1" stroke-width="2"/><line x1="136" y1="229.32" x2="136" y2="341.32" stroke="#CBD5E1" stroke-width="2"/><line x1="0" y1="341.32" x2="136" y2="341.32" stroke="#CBD5E1" stroke-width="2"/><line x1="0" y1="229.32" x2="0" y2="341.32" stroke="#CBD5E1" stroke-width="2"/><rect x="136" y="229.32" width="234" height="112" fill="#FFFFFF"/><line x1="136" y1="229.32" x2="370" y2="229.32" stroke="#CBD5E1" stroke-width="2"/><line x1="370" y1="229.32" x2="370" y2="341.32" stroke="#CBD5E1" stroke-width="2"/><line x1="136" y1="341.32" x2="370" y2="341.32" stroke="#CBD5E1" stroke-width="2"/><line x1="136" y1="229.32" x2="136" y2="341.32" stroke="#CBD5E1" stroke-width="2"/><rect x="370" y="229.32" width="234" height="112" fill="#FFFFFF"/><line x1="370" y1="229.32" x2="604" y2="229.32" stroke="#CBD5E1" stroke-width="2"/><line x1="604" y1="229.32" x2="604" y2="341.32" stroke="#CBD5E1" stroke-width="2"/><line x1="370" y1="341.32" x2="604" y2="341.32" stroke="#CBD5E1" stroke-width="2"/><line x1="370" y1="229.32" x2="370" y2="341.32" stroke="#CBD5E1" stroke-width="2"/><rect x="604" y="229.32" width="150" height="112" fill="#E2E8F0"/><line x1="604" y1="229.32" x2="754" y2="229.32" stroke="#CBD5E1" stroke-width="2"/><line x1="754" y1="229.32" x2="754" y2="341.32" stroke="#CBD5E1" stroke-width="2"/><line x1="604" y1="341.32" x2="754" y2="341.32" stroke="#CBD5E1" stroke-width="2"/><line x1="604" y1="229.32" x2="604" y2="341.32" stroke="#CBD5E1" stroke-width="2"/><rect x="754" y="229.32" width="262" height="112" fill="#FFFFFF"/><line x1="754" y1="229.32" x2="1016" y2="229.32" stroke="#CBD5E1" stroke-width="2"/><line x1="1016" y1="229.32" x2="1016" y2="341.32" stroke="#CBD5E1" stroke-width="2"/><line x1="754" y1="341.32" x2="1016" y2="341.32" stroke="#CBD5E1" stroke-width="2"/><line x1="754" y1="229.32" x2="754" y2="341.32" stroke="#CBD5E1" stroke-width="2"/><rect x="0" y="341.32" width="136" height="74.66" fill="#F8FAFC"/><line x1="0" y1="341.32" x2="136" y2="341.32" stroke="#CBD5E1" stroke-width="2"/><line x1="136" y1="341.32" x2="136" y2="415.98" stroke="#CBD5E1" stroke-width="2"/><line x1="0" y1="415.98" x2="136" y2="415.98" stroke="#CBD5E1" stroke-width="2"/><line x1="0" y1="341.32" x2="0" y2="415.98" stroke="#CBD5E1" stroke-width="2"/><rect x="136" y="341.32" width="234" height="74.66" fill="#FFFFFF"/><line x1="136" y1="341.32" x2="370" y2="341.32" stroke="#CBD5E1" stroke-width="2"/><line x1="370" y1="341.32" x2="370" y2="415.98" stroke="#CBD5E1" stroke-width="2"/><line x1="136" y1="415.98" x2="370" y2="415.98" stroke="#CBD5E1" stroke-width="2"/><line x1="136" y1="341.32" x2="136" y2="415.98" stroke="#CBD5E1" stroke-width="2"/><rect x="370" y="341.32" width="234" height="74.66" fill="#FFFFFF"/><line x1="370" y1="341.32" x2="604" y2="341.32" stroke="#CBD5E1" stroke-width="2"/><line x1="604" y1="341.32" x2="604" y2="415.98" stroke="#CBD5E1" stroke-width="2"/><line x1="370" y1="415.98" x2="604" y2="415.98" stroke="#CBD5E1" stroke-width="2"/><line x1="370" y1="341.32" x2="370" y2="415.98" stroke="#CBD5E1" stroke-width="2"/><rect x="604" y="341.32" width="150" height="74.66" fill="#E2E8F0"/><line x1="604" y1="341.32" x2="754" y2="341.32" stroke="#CBD5E1" stroke-width="2"/><line x1="754" y1="341.32" x2="754" y2="415.98" stroke="#CBD5E1" stroke-width="2"/><line x1="604" y1="415.98" x2="754" y2="415.98" stroke="#CBD5E1" stroke-width="2"/><line x1="604" y1="341.32" x2="604" y2="415.98" stroke="#CBD5E1" stroke-width="2"/><rect x="754" y="341.32" width="262" height="74.66" fill="#FFFFFF"/><line x1="754" y1="341.32" x2="1016" y2="341.32" stroke="#CBD5E1" stroke-width="2"/><line x1="1016" y1="341.32" x2="1016" y2="415.98" stroke="#CBD5E1" stroke-width="2"/><line x1="754" y1="415.98" x2="1016" y2="415.98" stroke="#CBD5E1" stroke-width="2"/><line x1="754" y1="341.32" x2="754" y2="415.98" stroke="#CBD5E1" stroke-width="2"/><clipPath id="xl-text-1-1"><rect x="0" y="0" width="1016" height="80"/></clipPath><g clip-path="url(#xl-text-1-1)"><text x="6" y="71.98" fill="#FFFFFF" font-family="Calibri, Arial, sans-serif" font-size="22" text-anchor="start" font-weight="700">Excel Text Spill</text></g><clipPath id="xl-text-2-1"><rect x="0" y="80" width="604" height="74.66"/></clipPath><g clip-path="url(#xl-text-2-1)"><text x="6" y="146.64" fill="#000000" font-family="Calibri, Arial, sans-serif" font-size="22" text-anchor="start">Plain text spills through blanks</text></g><clipPath id="xl-text-2-4"><rect x="604" y="80" width="150" height="74.66"/></clipPath><g clip-path="url(#xl-text-2-4)"><text x="610" y="146.64" fill="#000000" font-family="Calibri, Arial, sans-serif" font-size="22" text-anchor="start" font-weight="700">Stop</text></g><clipPath id="xl-text-2-5"><rect x="754" y="80" width="262" height="74.66"/></clipPath><g clip-path="url(#xl-text-2-5)"><text x="760" y="146.64" fill="#475569" font-family="Calibri, Arial, sans-serif" font-size="22" text-anchor="start">occupied cell blo...</text></g><clipPath id="xl-text-3-1"><rect x="0" y="154.66" width="604" height="74.66"/></clipPath><g clip-path="url(#xl-text-3-1)"><text x="6" y="220.98" font-family="Calibri, Arial, sans-serif" font-size="24" text-anchor="start" fill="#0F766E" font-weight="700">Rich</text><text x="69.283" y="220.98" font-family="Calibri, Arial, sans-serif" font-size="24" text-anchor="start" fill="#7C3AED" xml:space="preserve" font-style="italic"> spill keeps runs</text></g><clipPath id="xl-text-3-4"><rect x="604" y="154.66" width="150" height="74.66"/></clipPath><g clip-path="url(#xl-text-3-4)"><text x="610" y="221.3" fill="#000000" font-family="Calibri, Arial, sans-serif" font-size="22" text-anchor="start" font-weight="700">Stop</text></g><clipPath id="xl-text-3-5"><rect x="754" y="154.66" width="262" height="74.66"/></clipPath><g clip-path="url(#xl-text-3-5)"><text x="760" y="221.3" fill="#475569" font-family="Calibri, Arial, sans-serif" font-size="22" text-anchor="start">rich text path</text></g><clipPath id="xl-text-4-1"><rect x="0" y="229.32" width="136" height="112"/></clipPath><g clip-path="url(#xl-text-4-1)"><text x="6" y="306.3" fill="#000000" font-family="Calibri, Arial, sans-serif" font-size="22" text-anchor="start">Wrapped</text><text x="6" y="333.3" fill="#000000" font-family="Calibri, Arial, sans-serif" font-size="22" text-anchor="start">cell text</text></g><clipPath id="xl-text-4-4"><rect x="604" y="229.32" width="412" height="112"/></clipPath><g clip-path="url(#xl-text-4-4)"><text x="610" y="333.3" fill="#000000" font-family="Calibri, Arial, sans-serif" font-size="22" text-anchor="start" font-weight="700">No spill</text></g><clipPath id="xl-text-5-1"><rect x="0" y="341.32" width="136" height="74.66"/></clipPath><g clip-path="url(#xl-text-5-1)"><text x="68" y="407.96" fill="#000000" font-family="Calibri, Arial, sans-serif" font-size="22" text-anchor="middle">Centered</text></g><clipPath id="xl-text-5-4"><rect x="604" y="341.32" width="412" height="74.66"/></clipPath><g clip-path="url(#xl-text-5-4)"><text x="610" y="407.96" fill="#000000" font-family="Calibri, Arial, sans-serif" font-size="22" text-anchor="start" font-weight="700">Policy</text></g></svg>