<svg xmlns="http://www.w3.org/2000/svg" width="960px" height="540px" viewBox="0 0 960 540" role="img"><rect x="0" y="0" width="960" height="540" fill="#FFFFFF" stroke="none"/><text x="42.52" y="64.396" fill="#17365D" font-family="Calibri" font-size="32" text-anchor="start">A table that stays editable</text><text x="42.52" y="100.479" fill="#526179" font-family="Calibri" font-size="16" text-anchor="start">Generate slide cells from application data, then style the rows and columns.</text><rect x="42.52" y="141.732" width="212.598" height="51.024" fill="#17365D" stroke="none"/><line x1="42.52" y1="141.732" x2="255.118" y2="141.732" fill="none" stroke="#FFFFFF" stroke-width="1"/><line x1="255.118" y1="141.732" x2="255.118" y2="192.756" fill="none" stroke="#FFFFFF" stroke-width="1"/><line x1="42.52" y1="192.756" x2="255.118" y2="192.756" fill="none" stroke="#FFFFFF" stroke-width="3"/><line x1="42.52" y1="141.732" x2="42.52" y2="192.756" fill="none" stroke="#FFFFFF" stroke-width="1"/><text x="56.52" y="174.044" fill="#FFFFFF" font-family="Calibri" font-size="20" text-anchor="start" font-weight="700">Product</text><rect x="255.118" y="141.732" width="212.598" height="51.024" fill="#17365D" stroke="none"/><line x1="255.118" y1="141.732" x2="467.717" y2="141.732" fill="none" stroke="#FFFFFF" stroke-width="1"/><line x1="467.717" y1="141.732" x2="467.717" y2="192.756" fill="none" stroke="#FFFFFF" stroke-width="1"/><line x1="255.118" y1="192.756" x2="467.717" y2="192.756" fill="none" stroke="#FFFFFF" stroke-width="3"/><line x1="255.118" y1="141.732" x2="255.118" y2="192.756" fill="none" stroke="#FFFFFF" stroke-width="1"/><text x="366.617" y="174.044" fill="#FFFFFF" font-family="Calibri" font-size="20" text-anchor="middle" font-weight="700">Q1</text><rect x="467.717" y="141.732" width="212.598" height="51.024" fill="#17365D" stroke="none"/><line x1="467.717" y1="141.732" x2="680.315" y2="141.732" fill="none" stroke="#FFFFFF" stroke-width="1"/><line x1="680.315" y1="141.732" x2="680.315" y2="192.756" fill="none" stroke="#FFFFFF" stroke-width="1"/><line x1="467.717" y1="192.756" x2="680.315" y2="192.756" fill="none" stroke="#FFFFFF" stroke-width="3"/><line x1="467.717" y1="141.732" x2="467.717" y2="192.756" fill="none" stroke="#FFFFFF" stroke-width="1"/><text x="579.216" y="174.044" fill="#FFFFFF" font-family="Calibri" font-size="20" text-anchor="middle" font-weight="700">Q2</text><rect x="680.315" y="141.732" width="212.598" height="51.024" fill="#17365D" stroke="none"/><line x1="680.315" y1="141.732" x2="892.913" y2="141.732" fill="none" stroke="#FFFFFF" stroke-width="1"/><line x1="892.913" y1="141.732" x2="892.913" y2="192.756" fill="none" stroke="#FFFFFF" stroke-width="1"/><line x1="680.315" y1="192.756" x2="892.913" y2="192.756" fill="none" stroke="#FFFFFF" stroke-width="3"/><line x1="680.315" y1="141.732" x2="680.315" y2="192.756" fill="none" stroke="#FFFFFF" stroke-width="1"/><text x="791.814" y="174.044" fill="#FFFFFF" font-family="Calibri" font-size="20" text-anchor="middle" font-weight="700">Change</text><rect x="42.52" y="192.756" width="212.598" height="51.024" fill="#F8FAFC" stroke="none"/><line x1="42.52" y1="192.756" x2="255.118" y2="192.756" fill="none" stroke="#FFFFFF" stroke-width="1"/><line x1="255.118" y1="192.756" x2="255.118" y2="243.78" fill="none" stroke="#FFFFFF" stroke-width="1"/><line x1="42.52" y1="243.78" x2="255.118" y2="243.78" fill="none" stroke="#FFFFFF" stroke-width="1"/><line x1="42.52" y1="192.756" x2="42.52" y2="243.78" fill="none" stroke="#FFFFFF" stroke-width="1"/><text x="56.52" y="225.068" fill="#17365D" font-family="Calibri" font-size="20" text-anchor="start">Platform</text><rect x="255.118" y="192.756" width="212.598" height="51.024" fill="#F8FAFC" stroke="none"/><line x1="255.118" y1="192.756" x2="467.717" y2="192.756" fill="none" stroke="#FFFFFF" stroke-width="1"/><line x1="467.717" y1="192.756" x2="467.717" y2="243.78" fill="none" stroke="#FFFFFF" stroke-width="1"/><line x1="255.118" y1="243.78" x2="467.717" y2="243.78" fill="none" stroke="#FFFFFF" stroke-width="1"/><line x1="255.118" y1="192.756" x2="255.118" y2="243.78" fill="none" stroke="#FFFFFF" stroke-width="1"/><text x="366.617" y="225.068" fill="#17365D" font-family="Calibri" font-size="20" text-anchor="middle">120</text><rect x="467.717" y="192.756" width="212.598" height="51.024" fill="#F8FAFC" stroke="none"/><line x1="467.717" y1="192.756" x2="680.315" y2="192.756" fill="none" stroke="#FFFFFF" stroke-width="1"/><line x1="680.315" y1="192.756" x2="680.315" y2="243.78" fill="none" stroke="#FFFFFF" stroke-width="1"/><line x1="467.717" y1="243.78" x2="680.315" y2="243.78" fill="none" stroke="#FFFFFF" stroke-width="1"/><line x1="467.717" y1="192.756" x2="467.717" y2="243.78" fill="none" stroke="#FFFFFF" stroke-width="1"/><text x="579.216" y="225.068" fill="#17365D" font-family="Calibri" font-size="20" text-anchor="middle">148</text><rect x="680.315" y="192.756" width="212.598" height="51.024" fill="#F8FAFC" stroke="none"/><line x1="680.315" y1="192.756" x2="892.913" y2="192.756" fill="none" stroke="#FFFFFF" stroke-width="1"/><line x1="892.913" y1="192.756" x2="892.913" y2="243.78" fill="none" stroke="#FFFFFF" stroke-width="1"/><line x1="680.315" y1="243.78" x2="892.913" y2="243.78" fill="none" stroke="#FFFFFF" stroke-width="1"/><line x1="680.315" y1="192.756" x2="680.315" y2="243.78" fill="none" stroke="#FFFFFF" stroke-width="1"/><text x="791.814" y="225.068" fill="#17365D" font-family="Calibri" font-size="20" text-anchor="middle">+23%</text><rect x="42.52" y="243.78" width="212.598" height="51.024" fill="#EAF1FB" stroke="none"/><line x1="42.52" y1="243.78" x2="255.118" y2="243.78" fill="none" stroke="#FFFFFF" stroke-width="1"/><line x1="255.118" y1="243.78" x2="255.118" y2="294.803" fill="none" stroke="#FFFFFF" stroke-width="1"/><line x1="42.52" y1="294.803" x2="255.118" y2="294.803" fill="none" stroke="#FFFFFF" stroke-width="1"/><line x1="42.52" y1="243.78" x2="42.52" y2="294.803" fill="none" stroke="#FFFFFF" stroke-width="1"/><text x="56.52" y="276.091" fill="#17365D" font-family="Calibri" font-size="20" text-anchor="start">Support</text><rect x="255.118" y="243.78" width="212.598" height="51.024" fill="#EAF1FB" stroke="none"/><line x1="255.118" y1="243.78" x2="467.717" y2="243.78" fill="none" stroke="#FFFFFF" stroke-width="1"/><line x1="467.717" y1="243.78" x2="467.717" y2="294.803" fill="none" stroke="#FFFFFF" stroke-width="1"/><line x1="255.118" y1="294.803" x2="467.717" y2="294.803" fill="none" stroke="#FFFFFF" stroke-width="1"/><line x1="255.118" y1="243.78" x2="255.118" y2="294.803" fill="none" stroke="#FFFFFF" stroke-width="1"/><text x="366.617" y="276.091" fill="#17365D" font-family="Calibri" font-size="20" text-anchor="middle">86</text><rect x="467.717" y="243.78" width="212.598" height="51.024" fill="#EAF1FB" stroke="none"/><line x1="467.717" y1="243.78" x2="680.315" y2="243.78" fill="none" stroke="#FFFFFF" stroke-width="1"/><line x1="680.315" y1="243.78" x2="680.315" y2="294.803" fill="none" stroke="#FFFFFF" stroke-width="1"/><line x1="467.717" y1="294.803" x2="680.315" y2="294.803" fill="none" stroke="#FFFFFF" stroke-width="1"/><line x1="467.717" y1="243.78" x2="467.717" y2="294.803" fill="none" stroke="#FFFFFF" stroke-width="1"/><text x="579.216" y="276.091" fill="#17365D" font-family="Calibri" font-size="20" text-anchor="middle">99</text><rect x="680.315" y="243.78" width="212.598" height="51.024" fill="#EAF1FB" stroke="none"/><line x1="680.315" y1="243.78" x2="892.913" y2="243.78" fill="none" stroke="#FFFFFF" stroke-width="1"/><line x1="892.913" y1="243.78" x2="892.913" y2="294.803" fill="none" stroke="#FFFFFF" stroke-width="1"/><line x1="680.315" y1="294.803" x2="892.913" y2="294.803" fill="none" stroke="#FFFFFF" stroke-width="1"/><line x1="680.315" y1="243.78" x2="680.315" y2="294.803" fill="none" stroke="#FFFFFF" stroke-width="1"/><text x="791.814" y="276.091" fill="#17365D" font-family="Calibri" font-size="20" text-anchor="middle">+15%</text><rect x="42.52" y="294.803" width="212.598" height="51.024" fill="#F8FAFC" stroke="none"/><line x1="42.52" y1="294.803" x2="255.118" y2="294.803" fill="none" stroke="#FFFFFF" stroke-width="1"/><line x1="255.118" y1="294.803" x2="255.118" y2="345.827" fill="none" stroke="#FFFFFF" stroke-width="1"/><line x1="42.52" y1="345.827" x2="255.118" y2="345.827" fill="none" stroke="#FFFFFF" stroke-width="1"/><line x1="42.52" y1="294.803" x2="42.52" y2="345.827" fill="none" stroke="#FFFFFF" stroke-width="1"/><text x="56.52" y="327.115" fill="#17365D" font-family="Calibri" font-size="20" text-anchor="start">Training</text><rect x="255.118" y="294.803" width="212.598" height="51.024" fill="#F8FAFC" stroke="none"/><line x1="255.118" y1="294.803" x2="467.717" y2="294.803" fill="none" stroke="#FFFFFF" stroke-width="1"/><line x1="467.717" y1="294.803" x2="467.717" y2="345.827" fill="none" stroke="#FFFFFF" stroke-width="1"/><line x1="255.118" y1="345.827" x2="467.717" y2="345.827" fill="none" stroke="#FFFFFF" stroke-width="1"/><line x1="255.118" y1="294.803" x2="255.118" y2="345.827" fill="none" stroke="#FFFFFF" stroke-width="1"/><text x="366.617" y="327.115" fill="#17365D" font-family="Calibri" font-size="20" text-anchor="middle">42</text><rect x="467.717" y="294.803" width="212.598" height="51.024" fill="#F8FAFC" stroke="none"/><line x1="467.717" y1="294.803" x2="680.315" y2="294.803" fill="none" stroke="#FFFFFF" stroke-width="1"/><line x1="680.315" y1="294.803" x2="680.315" y2="345.827" fill="none" stroke="#FFFFFF" stroke-width="1"/><line x1="467.717" y1="345.827" x2="680.315" y2="345.827" fill="none" stroke="#FFFFFF" stroke-width="1"/><line x1="467.717" y1="294.803" x2="467.717" y2="345.827" fill="none" stroke="#FFFFFF" stroke-width="1"/><text x="579.216" y="327.115" fill="#17365D" font-family="Calibri" font-size="20" text-anchor="middle">61</text><rect x="680.315" y="294.803" width="212.598" height="51.024" fill="#F8FAFC" stroke="none"/><line x1="680.315" y1="294.803" x2="892.913" y2="294.803" fill="none" stroke="#FFFFFF" stroke-width="1"/><line x1="892.913" y1="294.803" x2="892.913" y2="345.827" fill="none" stroke="#FFFFFF" stroke-width="1"/><line x1="680.315" y1="345.827" x2="892.913" y2="345.827" fill="none" stroke="#FFFFFF" stroke-width="1"/><line x1="680.315" y1="294.803" x2="680.315" y2="345.827" fill="none" stroke="#FFFFFF" stroke-width="1"/><text x="791.814" y="327.115" fill="#17365D" font-family="Calibri" font-size="20" text-anchor="middle">+45%</text><rect x="42.52" y="345.827" width="212.598" height="51.024" fill="#EAF1FB" stroke="none"/><line x1="42.52" y1="345.827" x2="255.118" y2="345.827" fill="none" stroke="#FFFFFF" stroke-width="1"/><line x1="255.118" y1="345.827" x2="255.118" y2="396.85" fill="none" stroke="#FFFFFF" stroke-width="1"/><line x1="42.52" y1="396.85" x2="255.118" y2="396.85" fill="none" stroke="#FFFFFF" stroke-width="1"/><line x1="42.52" y1="345.827" x2="42.52" y2="396.85" fill="none" stroke="#FFFFFF" stroke-width="1"/><text x="56.52" y="378.139" fill="#17365D" font-family="Calibri" font-size="20" text-anchor="start">Services</text><rect x="255.118" y="345.827" width="212.598" height="51.024" fill="#EAF1FB" stroke="none"/><line x1="255.118" y1="345.827" x2="467.717" y2="345.827" fill="none" stroke="#FFFFFF" stroke-width="1"/><line x1="467.717" y1="345.827" x2="467.717" y2="396.85" fill="none" stroke="#FFFFFF" stroke-width="1"/><line x1="255.118" y1="396.85" x2="467.717" y2="396.85" fill="none" stroke="#FFFFFF" stroke-width="1"/><line x1="255.118" y1="345.827" x2="255.118" y2="396.85" fill="none" stroke="#FFFFFF" stroke-width="1"/><text x="366.617" y="378.139" fill="#17365D" font-family="Calibri" font-size="20" text-anchor="middle">75</text><rect x="467.717" y="345.827" width="212.598" height="51.024" fill="#EAF1FB" stroke="none"/><line x1="467.717" y1="345.827" x2="680.315" y2="345.827" fill="none" stroke="#FFFFFF" stroke-width="1"/><line x1="680.315" y1="345.827" x2="680.315" y2="396.85" fill="none" stroke="#FFFFFF" stroke-width="1"/><line x1="467.717" y1="396.85" x2="680.315" y2="396.85" fill="none" stroke="#FFFFFF" stroke-width="1"/><line x1="467.717" y1="345.827" x2="467.717" y2="396.85" fill="none" stroke="#FFFFFF" stroke-width="1"/><text x="579.216" y="378.139" fill="#17365D" font-family="Calibri" font-size="20" text-anchor="middle">84</text><rect x="680.315" y="345.827" width="212.598" height="51.024" fill="#EAF1FB" stroke="none"/><line x1="680.315" y1="345.827" x2="892.913" y2="345.827" fill="none" stroke="#FFFFFF" stroke-width="1"/><line x1="892.913" y1="345.827" x2="892.913" y2="396.85" fill="none" stroke="#FFFFFF" stroke-width="1"/><line x1="680.315" y1="396.85" x2="892.913" y2="396.85" fill="none" stroke="#FFFFFF" stroke-width="1"/><line x1="680.315" y1="345.827" x2="680.315" y2="396.85" fill="none" stroke="#FFFFFF" stroke-width="1"/><text x="791.814" y="378.139" fill="#17365D" font-family="Calibri" font-size="20" text-anchor="middle">+12%</text></svg>