<?xml version="1.0" encoding="UTF-8" standalone="no"?>
<!DOCTYPE svg PUBLIC "-//W3C//DTD SVG 1.1//EN" "http://www.w3.org/Graphics/SVG/1.1/DTD/svg11.dtd">
<!-- Generated by Microsoft Visio, SVG Export officeimo-visio-premium-incident-sequence-page1.svg Premium Incident Sequence -->
<svg xmlns="http://www.w3.org/2000/svg" xmlns:xlink="http://www.w3.org/1999/xlink" xmlns:ev="http://www.w3.org/2001/xml-events"
		xmlns:v="http://schemas.microsoft.com/visio/2003/SVGExtensions/" width="14.65in" height="9.54in"
		viewBox="0 0 1054.8 686.88" xml:space="preserve" color-interpolation-filters="sRGB" class="st25">
	<v:documentProperties v:langID="1033" v:metric="true" v:viewMarkup="false"/>

	<style type="text/css">
	<![CDATA[
		.st1 {fill:none;stroke:none;stroke-linecap:round;stroke-linejoin:round;stroke-width:1}
		.st2 {fill:#ffffff;font-family:Calibri;font-size:1.66667em;font-weight:bold}
		.st3 {fill:#047857;stroke:#6ee7b7;stroke-linecap:round;stroke-linejoin:round;stroke-width:1.44}
		.st4 {fill:#ffffff;font-family:Calibri;font-size:0.833336em;font-weight:bold}
		.st5 {fill:#1e40af;stroke:#93c5fd;stroke-linecap:round;stroke-linejoin:round;stroke-width:1.44}
		.st6 {fill:#1e293b;stroke:#cbd5e1;stroke-linecap:round;stroke-linejoin:round;stroke-width:1.44}
		.st7 {fill:#111827;stroke:#64748b;stroke-linecap:round;stroke-linejoin:round;stroke-width:1.008}
		.st8 {fill:#f1f5f9;font-family:Calibri;font-size:0.833336em;font-weight:bold}
		.st9 {fill:#6d28d9;stroke:#c4b5fd;stroke-linecap:round;stroke-linejoin:round;stroke-width:1.44}
		.st10 {fill:none;stroke:#d8b4fe;stroke-dasharray:10.08,7.2;stroke-linecap:round;stroke-linejoin:round;stroke-width:1.44}
		.st11 {fill:#111827;stroke:none;stroke-linecap:round;stroke-linejoin:round;stroke-width:1}
		.st12 {fill:#111827;stroke:none;stroke-linecap:butt;stroke-width:7.2}
		.st13 {fill:#111827;stroke:none;stroke-linecap:butt}
		.st14 {fill:#f1f5f9;font-family:Calibri;font-size:0.666664em}
		.st15 {fill:none}
		.st16 {stroke:#93c5fd;stroke-dasharray:7.56,5.4;stroke-linecap:round;stroke-linejoin:round;stroke-width:1.08}
		.st17 {stroke:#93c5fd;stroke-linecap:round;stroke-linejoin:round;stroke-width:1.44}
		.st18 {fill:#93c5fd;fill-opacity:1;stroke:#93c5fd;stroke-opacity:1;stroke-width:0.36363636363636}
		.st19 {fill:#1e293b;font-family:Calibri;font-size:0.75em}
		.st20 {stroke:#d8b4fe;stroke-dasharray:10.08,7.2;stroke-linecap:round;stroke-linejoin:round;stroke-width:1.44}
		.st21 {fill:#d8b4fe;fill-opacity:1;stroke:#d8b4fe;stroke-opacity:1;stroke-width:0.36363636363636}
		.st22 {stroke:#5eead4;stroke-linecap:round;stroke-linejoin:round;stroke-width:1.44}
		.st23 {fill:#5eead4;fill-opacity:1;stroke:#5eead4;stroke-opacity:1;stroke-width:0.36363636363636}
		.st24 {stroke:#d8b4fe;stroke-dasharray:7.56,5.4;stroke-linecap:round;stroke-linejoin:round;stroke-width:1.08}
		.st25 {fill:none;fill-rule:evenodd;font-size:12px;overflow:visible;stroke-linecap:square;stroke-miterlimit:3}
	]]>
	</style>

	<defs id="Markers">
		<g id="lend13">
			<path d="M 3 1 L 0 0 L 3 -1 L 3 1 " style="stroke:none"/>
		</g>
		<marker id="mrkr13-107" class="st18" v:arrowType="13" v:arrowSize="2" v:setback="8.25" refX="-8.25" orient="auto"
				markerUnits="strokeWidth" overflow="visible">
			<use xlink:href="#lend13" transform="scale(-2.75,-2.75) "/>
		</marker>
		<g id="lend1">
			<path d="M 1 -1 L 0 0 L 1 1 " style="stroke-linecap:round;stroke-linejoin:round;fill:none"/>
		</g>
		<marker id="mrkr1-118" class="st21" v:arrowType="1" v:arrowSize="2" orient="auto" markerUnits="strokeWidth"
				overflow="visible">
			<use xlink:href="#lend1" transform="scale(-2.75,-2.75) "/>
		</marker>
		<marker id="mrkr1-124" class="st23" v:arrowType="1" v:arrowSize="2" orient="auto" markerUnits="strokeWidth"
				overflow="visible">
			<use xlink:href="#lend1" transform="scale(-2.75,-2.75) "/>
		</marker>
	</defs>
	<g v:mID="0" v:index="1" v:groupContext="foregroundPage">
		<v:userDefs>
			<v:ud v:nameU="msvThemeOrder" v:val="VT0(0):26"/>
		</v:userDefs>
		<title>Premium Incident Sequence</title>
		<v:pageProperties v:drawingScale="1" v:pageScale="1" v:drawingUnits="0" v:shadowOffsetX="8.50394"
				v:shadowOffsetY="-8.50394"/>
		<v:layer v:name="Sequence Lifelines" v:index="0"/>
		<v:layer v:name="Sequence Messages" v:index="1"/>
		<v:layer v:name="Sequence Activations" v:index="2"/>
		<v:layer v:name="Sequence Fragments" v:index="3"/>
		<v:layer v:name="Sequence Notes" v:index="4"/>
		<v:layer v:name="Sequence Guides" v:index="5" v:print="false"/>
		<g id="shape1-1" v:mID="1" v:groupContext="shape" transform="translate(57.6,-600.48)">
			<title>Text Box</title>
			<desc>Payment Timeout - Detection and Recovery</desc>
			<v:textBlock v:margins="rect(0,0,0,0)" v:tabSpace="42.5197"/>
			<v:textRect cx="469.8" cy="670.68" width="939.6" height="32.4"/>
			<rect x="0" y="654.48" width="939.6" height="32.4" class="st1"/>
			<text x="289.01" y="676.68" class="st2" v:langID="1033"><v:paragraph v:horizAlign="1"/><v:tabList/>Payment Timeout - Detection and Recovery</text>		</g>
		<g id="shape2-4" v:mID="2" v:groupContext="shape" v:layerMember="0" transform="translate(57.6,-530.64)">
			<title>Circle</title>
			<desc>Support</desc>
			<v:textBlock v:margins="rect(0,0,0,0)" v:tabSpace="42.5197"/>
			<v:textRect cx="45" cy="664.56" width="90" height="44.64"/>
			<path d="M90 664.56 L88.47 658.78 L83.97 653.4 L76.82 648.78 L67.5 645.23 L56.65 643 L45 642.24 L33.35 643 L22.5 645.23
						 L13.18 648.78 L6.03 653.4 L1.53 658.78 L0 664.56 L1.53 670.34 L6.03 675.72 L13.18 680.34 L22.5 683.89 L33.35
						 686.12 L45 686.88 L56.65 686.12 L67.5 683.89 L76.82 680.34 L83.97 675.72 L88.47 670.34 L90 664.56 Z"
					class="st3"/>
			<text x="28.39" y="667.56" class="st4" v:langID="1033"><v:paragraph v:horizAlign="1"/><v:tabList/>Support</text>		</g>
		<g id="shape3-7" v:mID="3" v:groupContext="shape" v:layerMember="5" transform="translate(101.16,-54)">
			<title>Sheet.3</title>
			<path d="M2.88 685.44 L2.83 685.07 L2.69 684.72 L2.46 684.42 L2.16 684.19 L1.81 684.05 L1.44 684 L1.07 684.05 L0.72 684.19
						 L0.42 684.42 L0.19 684.72 L0.05 685.07 L0 685.44 L0.05 685.81 L0.19 686.16 L0.42 686.46 L0.72 686.69 L1.07
						 686.83 L1.44 686.88 L1.81 686.83 L2.16 686.69 L2.46 686.46 L2.69 686.16 L2.83 685.81 L2.88 685.44 Z"
					class="st1"/>
		</g>
		<g id="shape4-9" v:mID="4" v:groupContext="shape" v:layerMember="0" transform="translate(270,-530.64)">
			<title>Rectangle</title>
			<desc>Monitor</desc>
			<v:textBlock v:margins="rect(0,0,0,0)" v:tabSpace="42.5197"/>
			<v:textRect cx="45" cy="664.56" width="90" height="44.64"/>
			<rect x="0" y="642.24" width="90" height="44.64" class="st5"/>
			<text x="27.83" y="667.56" class="st4" v:langID="1033"><v:paragraph v:horizAlign="1"/><v:tabList/>Monitor</text>		</g>
		<g id="shape5-12" v:mID="5" v:groupContext="shape" v:layerMember="5" transform="translate(313.56,-54)">
			<title>Sheet.5</title>
			<path d="M2.88 685.44 L2.83 685.07 L2.69 684.72 L2.46 684.42 L2.16 684.19 L1.81 684.05 L1.44 684 L1.07 684.05 L0.72 684.19
						 L0.42 684.42 L0.19 684.72 L0.05 685.07 L0 685.44 L0.05 685.81 L0.19 686.16 L0.42 686.46 L0.72 686.69 L1.07
						 686.83 L1.44 686.88 L1.81 686.83 L2.16 686.69 L2.46 686.46 L2.69 686.16 L2.83 685.81 L2.88 685.44 Z"
					class="st1"/>
		</g>
		<g id="shape6-14" v:mID="6" v:groupContext="shape" v:layerMember="0" transform="translate(482.4,-530.64)">
			<title>Sheet.6</title>
			<desc>Payments API</desc>
			<v:textBlock v:margins="rect(0,0,0,0)" v:tabSpace="42.5197"/>
			<v:textRect cx="45" cy="664.56" width="90" height="44.64"/>
			<rect x="0" y="642.24" width="90" height="44.64" class="st6"/>
			<text x="16.35" y="667.56" class="st4" v:langID="1033"><v:paragraph v:horizAlign="1"/><v:tabList/>Payments API</text>		</g>
		<g id="shape7-17" v:mID="7" v:groupContext="shape" v:layerMember="5" transform="translate(525.96,-54)">
			<title>Sheet.7</title>
			<path d="M2.88 685.44 L2.83 685.07 L2.69 684.72 L2.46 684.42 L2.16 684.19 L1.81 684.05 L1.44 684 L1.07 684.05 L0.72 684.19
						 L0.42 684.42 L0.19 684.72 L0.05 685.07 L0 685.44 L0.05 685.81 L0.19 686.16 L0.42 686.46 L0.72 686.69 L1.07
						 686.83 L1.44 686.88 L1.81 686.83 L2.16 686.69 L2.46 686.46 L2.69 686.16 L2.83 685.81 L2.88 685.44 Z"
					class="st1"/>
		</g>
		<g id="shape8-19" v:mID="8" v:groupContext="shape" v:layerMember="0" transform="translate(694.8,-530.64)">
			<title>Sheet.8</title>
			<desc>Retry Queue</desc>
			<v:textBlock v:margins="rect(0,0,0,0)" v:tabSpace="42.5197"/>
			<v:textRect cx="45" cy="664.56" width="90" height="44.64"/>
			<rect x="0" y="642.24" width="90" height="44.64" class="st5"/>
			<text x="18.83" y="667.56" class="st4" v:langID="1033"><v:paragraph v:horizAlign="1"/><v:tabList/>Retry Queue</text>		</g>
		<g id="shape9-22" v:mID="9" v:groupContext="shape" v:layerMember="5" transform="translate(738.36,-54)">
			<title>Sheet.9</title>
			<path d="M2.88 685.44 L2.83 685.07 L2.69 684.72 L2.46 684.42 L2.16 684.19 L1.81 684.05 L1.44 684 L1.07 684.05 L0.72 684.19
						 L0.42 684.42 L0.19 684.72 L0.05 685.07 L0 685.44 L0.05 685.81 L0.19 686.16 L0.42 686.46 L0.72 686.69 L1.07
						 686.83 L1.44 686.88 L1.81 686.83 L2.16 686.69 L2.46 686.46 L2.69 686.16 L2.83 685.81 L2.88 685.44 Z"
					class="st1"/>
		</g>
		<g id="shape10-24" v:mID="10" v:groupContext="shape" v:layerMember="0" transform="translate(907.2,-530.64)">
			<title>Data</title>
			<desc>Ledger</desc>
			<v:textBlock v:margins="rect(0,0,0,0)" v:tabSpace="42.5197"/>
			<v:textRect cx="45" cy="664.56" width="90" height="44.64"/>
			<path d="M14.88 686.88 L90 686.88 L75.12 642.24 L0 642.24 L14.88 686.88 Z" class="st7"/>
			<text x="31.02" y="667.56" class="st8" v:langID="1033"><v:paragraph v:horizAlign="1"/><v:tabList/>Ledger</text>		</g>
		<g id="shape11-27" v:mID="11" v:groupContext="shape" v:layerMember="5" transform="translate(950.76,-54)">
			<title>Sheet.11</title>
			<path d="M2.88 685.44 L2.83 685.07 L2.69 684.72 L2.46 684.42 L2.16 684.19 L1.81 684.05 L1.44 684 L1.07 684.05 L0.72 684.19
						 L0.42 684.42 L0.19 684.72 L0.05 685.07 L0 685.44 L0.05 685.81 L0.19 686.16 L0.42 686.46 L0.72 686.69 L1.07
						 686.83 L1.44 686.88 L1.81 686.83 L2.16 686.69 L2.46 686.46 L2.69 686.16 L2.83 685.81 L2.88 685.44 Z"
					class="st1"/>
		</g>
		<g id="shape12-29" v:mID="12" v:groupContext="shape" v:layerMember="2" transform="translate(96.84,-91.6704)">
			<title>Sheet.12</title>
			<rect x="0" y="279.821" width="11.52" height="407.059" class="st9"/>
		</g>
		<g id="shape13-31" v:mID="13" v:groupContext="shape" v:layerMember="2" transform="translate(521.64,-144.95)">
			<title>Sheet.13</title>
			<rect x="0" y="386.381" width="11.52" height="300.499" class="st9"/>
		</g>
		<g id="shape14-33" v:mID="14" v:groupContext="shape" v:layerMember="2" transform="translate(734.04,-144.95)">
			<title>Sheet.14</title>
			<rect x="0" y="492.941" width="11.52" height="193.939" class="st9"/>
		</g>
		<g id="shape15-35" v:mID="15" v:groupContext="shape" v:layerMember="5" transform="translate(313.56,-480.24)">
			<title>Sheet.15</title>
			<path d="M2.88 685.44 L2.83 685.07 L2.69 684.72 L2.46 684.42 L2.16 684.19 L1.81 684.05 L1.44 684 L1.07 684.05 L0.72 684.19
						 L0.42 684.42 L0.19 684.72 L0.05 685.07 L0 685.44 L0.05 685.81 L0.19 686.16 L0.42 686.46 L0.72 686.69 L1.07
						 686.83 L1.44 686.88 L1.81 686.83 L2.16 686.69 L2.46 686.46 L2.69 686.16 L2.83 685.81 L2.88 685.44 Z"
					class="st1"/>
		</g>
		<g id="shape16-37" v:mID="16" v:groupContext="shape" v:layerMember="5" transform="translate(101.16,-480.24)">
			<title>Sheet.16</title>
			<path d="M2.88 685.44 L2.83 685.07 L2.69 684.72 L2.46 684.42 L2.16 684.19 L1.81 684.05 L1.44 684 L1.07 684.05 L0.72 684.19
						 L0.42 684.42 L0.19 684.72 L0.05 685.07 L0 685.44 L0.05 685.81 L0.19 686.16 L0.42 686.46 L0.72 686.69 L1.07
						 686.83 L1.44 686.88 L1.81 686.83 L2.16 686.69 L2.46 686.46 L2.69 686.16 L2.83 685.81 L2.88 685.44 Z"
					class="st1"/>
		</g>
		<g id="shape17-39" v:mID="17" v:groupContext="shape" v:layerMember="5" transform="translate(101.16,-426.96)">
			<title>Sheet.17</title>
			<path d="M2.88 685.44 L2.83 685.07 L2.69 684.72 L2.46 684.42 L2.16 684.19 L1.81 684.05 L1.44 684 L1.07 684.05 L0.72 684.19
						 L0.42 684.42 L0.19 684.72 L0.05 685.07 L0 685.44 L0.05 685.81 L0.19 686.16 L0.42 686.46 L0.72 686.69 L1.07
						 686.83 L1.44 686.88 L1.81 686.83 L2.16 686.69 L2.46 686.46 L2.69 686.16 L2.83 685.81 L2.88 685.44 Z"
					class="st1"/>
		</g>
		<g id="shape18-41" v:mID="18" v:groupContext="shape" v:layerMember="5" transform="translate(525.96,-426.96)">
			<title>Sheet.18</title>
			<path d="M2.88 685.44 L2.83 685.07 L2.69 684.72 L2.46 684.42 L2.16 684.19 L1.81 684.05 L1.44 684 L1.07 684.05 L0.72 684.19
						 L0.42 684.42 L0.19 684.72 L0.05 685.07 L0 685.44 L0.05 685.81 L0.19 686.16 L0.42 686.46 L0.72 686.69 L1.07
						 686.83 L1.44 686.88 L1.81 686.83 L2.16 686.69 L2.46 686.46 L2.69 686.16 L2.83 685.81 L2.88 685.44 Z"
					class="st1"/>
		</g>
		<g id="shape19-43" v:mID="19" v:groupContext="shape" v:layerMember="5" transform="translate(525.96,-373.68)">
			<title>Sheet.19</title>
			<path d="M2.88 685.44 L2.83 685.07 L2.69 684.72 L2.46 684.42 L2.16 684.19 L1.81 684.05 L1.44 684 L1.07 684.05 L0.72 684.19
						 L0.42 684.42 L0.19 684.72 L0.05 685.07 L0 685.44 L0.05 685.81 L0.19 686.16 L0.42 686.46 L0.72 686.69 L1.07
						 686.83 L1.44 686.88 L1.81 686.83 L2.16 686.69 L2.46 686.46 L2.69 686.16 L2.83 685.81 L2.88 685.44 Z"
					class="st1"/>
		</g>
		<g id="shape20-45" v:mID="20" v:groupContext="shape" v:layerMember="5" transform="translate(101.16,-373.68)">
			<title>Sheet.20</title>
			<path d="M2.88 685.44 L2.83 685.07 L2.69 684.72 L2.46 684.42 L2.16 684.19 L1.81 684.05 L1.44 684 L1.07 684.05 L0.72 684.19
						 L0.42 684.42 L0.19 684.72 L0.05 685.07 L0 685.44 L0.05 685.81 L0.19 686.16 L0.42 686.46 L0.72 686.69 L1.07
						 686.83 L1.44 686.88 L1.81 686.83 L2.16 686.69 L2.46 686.46 L2.69 686.16 L2.83 685.81 L2.88 685.44 Z"
					class="st1"/>
		</g>
		<g id="shape21-47" v:mID="21" v:groupContext="shape" v:layerMember="5" transform="translate(101.16,-320.4)">
			<title>Sheet.21</title>
			<path d="M2.88 685.44 L2.83 685.07 L2.69 684.72 L2.46 684.42 L2.16 684.19 L1.81 684.05 L1.44 684 L1.07 684.05 L0.72 684.19
						 L0.42 684.42 L0.19 684.72 L0.05 685.07 L0 685.44 L0.05 685.81 L0.19 686.16 L0.42 686.46 L0.72 686.69 L1.07
						 686.83 L1.44 686.88 L1.81 686.83 L2.16 686.69 L2.46 686.46 L2.69 686.16 L2.83 685.81 L2.88 685.44 Z"
					class="st1"/>
		</g>
		<g id="shape22-49" v:mID="22" v:groupContext="shape" v:layerMember="5" transform="translate(738.36,-320.4)">
			<title>Sheet.22</title>
			<path d="M2.88 685.44 L2.83 685.07 L2.69 684.72 L2.46 684.42 L2.16 684.19 L1.81 684.05 L1.44 684 L1.07 684.05 L0.72 684.19
						 L0.42 684.42 L0.19 684.72 L0.05 685.07 L0 685.44 L0.05 685.81 L0.19 686.16 L0.42 686.46 L0.72 686.69 L1.07
						 686.83 L1.44 686.88 L1.81 686.83 L2.16 686.69 L2.46 686.46 L2.69 686.16 L2.83 685.81 L2.88 685.44 Z"
					class="st1"/>
		</g>
		<g id="shape23-51" v:mID="23" v:groupContext="shape" v:layerMember="5" transform="translate(525.96,-267.12)">
			<title>Sheet.23</title>
			<path d="M2.88 685.44 L2.83 685.07 L2.69 684.72 L2.46 684.42 L2.16 684.19 L1.81 684.05 L1.44 684 L1.07 684.05 L0.72 684.19
						 L0.42 684.42 L0.19 684.72 L0.05 685.07 L0 685.44 L0.05 685.81 L0.19 686.16 L0.42 686.46 L0.72 686.69 L1.07
						 686.83 L1.44 686.88 L1.81 686.83 L2.16 686.69 L2.46 686.46 L2.69 686.16 L2.83 685.81 L2.88 685.44 Z"
					class="st1"/>
		</g>
		<g id="shape24-53" v:mID="24" v:groupContext="shape" v:layerMember="5" transform="translate(950.76,-267.12)">
			<title>Sheet.24</title>
			<path d="M2.88 685.44 L2.83 685.07 L2.69 684.72 L2.46 684.42 L2.16 684.19 L1.81 684.05 L1.44 684 L1.07 684.05 L0.72 684.19
						 L0.42 684.42 L0.19 684.72 L0.05 685.07 L0 685.44 L0.05 685.81 L0.19 686.16 L0.42 686.46 L0.72 686.69 L1.07
						 686.83 L1.44 686.88 L1.81 686.83 L2.16 686.69 L2.46 686.46 L2.69 686.16 L2.83 685.81 L2.88 685.44 Z"
					class="st1"/>
		</g>
		<g id="shape25-55" v:mID="25" v:groupContext="shape" v:layerMember="5" transform="translate(950.76,-213.84)">
			<title>Sheet.25</title>
			<path d="M2.88 685.44 L2.83 685.07 L2.69 684.72 L2.46 684.42 L2.16 684.19 L1.81 684.05 L1.44 684 L1.07 684.05 L0.72 684.19
						 L0.42 684.42 L0.19 684.72 L0.05 685.07 L0 685.44 L0.05 685.81 L0.19 686.16 L0.42 686.46 L0.72 686.69 L1.07
						 686.83 L1.44 686.88 L1.81 686.83 L2.16 686.69 L2.46 686.46 L2.69 686.16 L2.83 685.81 L2.88 685.44 Z"
					class="st1"/>
		</g>
		<g id="shape26-57" v:mID="26" v:groupContext="shape" v:layerMember="5" transform="translate(525.96,-213.84)">
			<title>Sheet.26</title>
			<path d="M2.88 685.44 L2.83 685.07 L2.69 684.72 L2.46 684.42 L2.16 684.19 L1.81 684.05 L1.44 684 L1.07 684.05 L0.72 684.19
						 L0.42 684.42 L0.19 684.72 L0.05 685.07 L0 685.44 L0.05 685.81 L0.19 686.16 L0.42 686.46 L0.72 686.69 L1.07
						 686.83 L1.44 686.88 L1.81 686.83 L2.16 686.69 L2.46 686.46 L2.69 686.16 L2.83 685.81 L2.88 685.44 Z"
					class="st1"/>
		</g>
		<g id="shape27-59" v:mID="27" v:groupContext="shape" v:layerMember="5" transform="translate(738.36,-160.56)">
			<title>Sheet.27</title>
			<path d="M2.88 685.44 L2.83 685.07 L2.69 684.72 L2.46 684.42 L2.16 684.19 L1.81 684.05 L1.44 684 L1.07 684.05 L0.72 684.19
						 L0.42 684.42 L0.19 684.72 L0.05 685.07 L0 685.44 L0.05 685.81 L0.19 686.16 L0.42 686.46 L0.72 686.69 L1.07
						 686.83 L1.44 686.88 L1.81 686.83 L2.16 686.69 L2.46 686.46 L2.69 686.16 L2.83 685.81 L2.88 685.44 Z"
					class="st1"/>
		</g>
		<g id="shape28-61" v:mID="28" v:groupContext="shape" v:layerMember="5" transform="translate(525.96,-160.56)">
			<title>Sheet.28</title>
			<path d="M2.88 685.44 L2.83 685.07 L2.69 684.72 L2.46 684.42 L2.16 684.19 L1.81 684.05 L1.44 684 L1.07 684.05 L0.72 684.19
						 L0.42 684.42 L0.19 684.72 L0.05 685.07 L0 685.44 L0.05 685.81 L0.19 686.16 L0.42 686.46 L0.72 686.69 L1.07
						 686.83 L1.44 686.88 L1.81 686.83 L2.16 686.69 L2.46 686.46 L2.69 686.16 L2.83 685.81 L2.88 685.44 Z"
					class="st1"/>
		</g>
		<g id="shape29-63" v:mID="29" v:groupContext="shape" v:layerMember="5" transform="translate(101.16,-107.28)">
			<title>Sheet.29</title>
			<path d="M2.88 685.44 L2.83 685.07 L2.69 684.72 L2.46 684.42 L2.16 684.19 L1.81 684.05 L1.44 684 L1.07 684.05 L0.72 684.19
						 L0.42 684.42 L0.19 684.72 L0.05 685.07 L0 685.44 L0.05 685.81 L0.19 686.16 L0.42 686.46 L0.72 686.69 L1.07
						 686.83 L1.44 686.88 L1.81 686.83 L2.16 686.69 L2.46 686.46 L2.69 686.16 L2.83 685.81 L2.88 685.44 Z"
					class="st1"/>
		</g>
		<g id="shape30-65" v:mID="30" v:groupContext="shape" v:layerMember="5" transform="translate(101.16,-81.36)">
			<title>Sheet.30</title>
			<path d="M2.88 685.44 L2.83 685.07 L2.69 684.72 L2.46 684.42 L2.16 684.19 L1.81 684.05 L1.44 684 L1.07 684.05 L0.72 684.19
						 L0.42 684.42 L0.19 684.72 L0.05 685.07 L0 685.44 L0.05 685.81 L0.19 686.16 L0.42 686.46 L0.72 686.69 L1.07
						 686.83 L1.44 686.88 L1.81 686.83 L2.16 686.69 L2.46 686.46 L2.69 686.16 L2.83 685.81 L2.88 685.44 Z"
					class="st1"/>
		</g>
		<g id="shape31-67" v:mID="31" v:groupContext="shape" v:layerMember="3" transform="translate(57.6,-121.651)">
			<title>Sheet.31</title>
			<path d="M0 686.88 L939.6 686.88 L939.6 393.06 L0 393.06 L0 686.88 Z" class="st10"/>
		</g>
		<g id="shape32-69" v:mID="32" v:groupContext="shape" v:layerMember="3" transform="translate(114.12,-390.989)">
			<title>Sheet.32</title>
			<desc>alt recovery</desc>
			<v:textBlock v:margins="rect(1.44,2.88,1.44,4.32)" v:tabSpace="42.5197"/>
			<v:textRect cx="47.52" cy="676.08" width="95.04" height="21.6"/>
			<rect x="0" y="665.28" width="95.04" height="21.6" class="st11"/>
			<rect v:rectContext="textBkgnd" x="4.3201" y="670.08" width="49.3259" height="12.0001" class="st12"/>
			<text x="4.32" y="679.08" class="st8" v:langID="1033"><v:paragraph/><v:tabList/>alt recovery</text>		</g>
		<g id="shape33-73" v:mID="33" v:groupContext="shape" v:layerMember="3" transform="translate(117,-372.269)">
			<title>Sheet.33</title>
			<desc>[timeout elevated]</desc>
			<v:textBlock v:margins="rect(1.44,2.88,1.44,4.32)" v:tabSpace="42.5197"/>
			<v:textRect cx="50.76" cy="678.24" width="101.52" height="17.28"/>
			<rect x="0" y="669.6" width="101.52" height="17.28" class="st11"/>
			<rect v:rectContext="textBkgnd" x="4.3201" y="673.44" width="60.8077" height="9.59985" class="st13"/>
			<text x="4.32" y="680.64" class="st14" v:langID="1033"><v:paragraph/><v:tabList/>[timeout elevated]</text>		</g>
		<g id="shape34-77" v:mID="34" v:groupContext="shape" v:layerMember="5" transform="translate(59.04,-238.349)">
			<title>Sheet.34</title>
			<path d="M2.88 685.44 L2.83 685.07 L2.69 684.72 L2.46 684.42 L2.16 684.19 L1.81 684.05 L1.44 684 L1.07 684.05 L0.72 684.19
						 L0.42 684.42 L0.19 684.72 L0.05 685.07 L0 685.44 L0.05 685.81 L0.19 686.16 L0.42 686.46 L0.72 686.69 L1.07
						 686.83 L1.44 686.88 L1.81 686.83 L2.16 686.69 L2.46 686.46 L2.69 686.16 L2.83 685.81 L2.88 685.44 Z"
					class="st1"/>
		</g>
		<g id="shape35-79" v:mID="35" v:groupContext="shape" v:layerMember="5" transform="translate(992.88,-238.349)">
			<title>Sheet.35</title>
			<path d="M2.88 685.44 L2.83 685.07 L2.69 684.72 L2.46 684.42 L2.16 684.19 L1.81 684.05 L1.44 684 L1.07 684.05 L0.72 684.19
						 L0.42 684.42 L0.19 684.72 L0.05 685.07 L0 685.44 L0.05 685.81 L0.19 686.16 L0.42 686.46 L0.72 686.69 L1.07
						 686.83 L1.44 686.88 L1.81 686.83 L2.16 686.69 L2.46 686.46 L2.69 686.16 L2.83 685.81 L2.88 685.44 Z"
					class="st1"/>
		</g>
		<g id="shape36-81" v:mID="36" v:groupContext="shape" v:layerMember="3" transform="translate(117,-217.469)">
			<title>Sheet.36</title>
			<desc>[settlement confirmed]</desc>
			<v:textBlock v:margins="rect(1.44,2.88,1.44,4.32)" v:tabSpace="42.5197"/>
			<v:textRect cx="58.68" cy="678.24" width="117.36" height="17.28"/>
			<rect x="0" y="669.6" width="117.36" height="17.28" class="st11"/>
			<rect v:rectContext="textBkgnd" x="4.3201" y="673.44" width="75.698" height="9.59985" class="st12"/>
			<text x="4.32" y="680.64" class="st14" v:langID="1033"><v:paragraph/><v:tabList/>[settlement confirmed]</text>		</g>
		<g id="shape37-85" v:mID="37" v:groupContext="shape" v:layerMember="4" transform="translate(163.44,-247.68)">
			<title>Sheet.37</title>
			<desc>Runbook active</desc>
			<v:textBlock v:margins="rect(0,0,0,0)" v:tabSpace="42.5197"/>
			<v:textRect cx="66.6" cy="660.96" width="133.21" height="51.84"/>
			<rect x="0" y="635.04" width="133.2" height="51.84" class="st7"/>
			<text x="34.42" y="663.96" class="st8" v:langID="1033"><v:paragraph v:horizAlign="1"/><v:tabList/>Runbook active</text>		</g>
		<g id="shape38-88" v:mID="38" v:groupContext="shape" v:layerMember="0">
			<title>Connector</title>
			<path d="M102.6 156.24 L102.6 630 L102.6 156.24 Z" class="st15"/>
			<path d="M102.6 156.24 L102.6 630" class="st16"/>
		</g>
		<g id="shape39-91" v:mID="39" v:groupContext="shape" v:layerMember="0">
			<title>Sheet.39</title>
			<path d="M315 156.24 L315 630 L315 156.24 Z" class="st15"/>
			<path d="M315 156.24 L315 630" class="st16"/>
		</g>
		<g id="shape40-94" v:mID="40" v:groupContext="shape" v:layerMember="0">
			<title>Sheet.40</title>
			<path d="M527.4 156.24 L527.4 630 L527.4 156.24 Z" class="st15"/>
			<path d="M527.4 156.24 L527.4 630" class="st16"/>
		</g>
		<g id="shape41-97" v:mID="41" v:groupContext="shape" v:layerMember="0">
			<title>Sheet.41</title>
			<path d="M739.8 156.24 L739.8 630 L739.8 156.24 Z" class="st15"/>
			<path d="M739.8 156.24 L739.8 630" class="st16"/>
		</g>
		<g id="shape42-100" v:mID="42" v:groupContext="shape" v:layerMember="0">
			<title>Sheet.42</title>
			<path d="M952.2 156.24 L952.2 630 L952.2 156.24 Z" class="st15"/>
			<path d="M952.2 156.24 L952.2 630" class="st16"/>
		</g>
		<g id="shape43-103" v:mID="43" v:groupContext="shape" v:layerMember="1">
			<title>Sheet.43</title>
			<desc>Alert: timeout spike</desc>
			<v:textBlock v:margins="rect(0,0,0,0)" v:tabSpace="42.5197"/>
			<v:textRect cx="208.8" cy="193.68" width="128.16" height="20.16"/>
			<path d="M313.56 205.2 L104.04 205.2 L313.56 205.2 Z" class="st15"/>
			<path d="M313.56 205.2 L104.04 205.2" class="st17"/>
			<text x="172.55" y="196.38" class="st19" v:langID="1033"><v:paragraph v:horizAlign="1"/><v:tabList/>Alert: timeout spike</text>		</g>
		<g id="shape44-109" v:mID="44" v:groupContext="shape" v:layerMember="1">
			<title>Sheet.44</title>
			<desc>Check health</desc>
			<v:textBlock v:margins="rect(0,0,0,0)" v:tabSpace="42.5197"/>
			<v:textRect cx="208.8" cy="246.96" width="90.72" height="20.16"/>
			<path d="M104.04 258.48 L525.96 258.48 L104.04 258.48 Z" class="st15"/>
			<path d="M104.04 258.48 L525.96 258.48" class="st17"/>
			<text x="185.17" y="249.66" class="st19" v:langID="1033"><v:paragraph v:horizAlign="1"/><v:tabList/>Check health</text>		</g>
		<g id="shape45-114" v:mID="45" v:groupContext="shape" v:layerMember="1">
			<title>Sheet.45</title>
			<desc>Gateway latency</desc>
			<v:textBlock v:margins="rect(0,0,0,0)" v:tabSpace="42.5197"/>
			<v:textRect cx="421.2" cy="300.24" width="104.76" height="20.16"/>
			<path d="M525.96 311.76 L104.04 311.76 L525.96 311.76 Z" class="st15"/>
			<path d="M525.96 311.76 L104.04 311.76" class="st20"/>
			<text x="390.79" y="302.94" class="st19" v:langID="1033"><v:paragraph v:horizAlign="1"/><v:tabList/>Gateway latency</text>		</g>
		<g id="shape46-120" v:mID="46" v:groupContext="shape" v:layerMember="1">
			<title>Sheet.46</title>
			<desc>Pause retries</desc>
			<v:textBlock v:margins="rect(0,0,0,0)" v:tabSpace="42.5197"/>
			<v:textRect cx="421.2" cy="353.52" width="95.4" height="20.16"/>
			<path d="M104.04 365.04 L738.36 365.04 L104.04 365.04 Z" class="st15"/>
			<path d="M104.04 365.04 L738.36 365.04" class="st22"/>
			<text x="397.42" y="356.22" class="st19" v:langID="1033"><v:paragraph v:horizAlign="1"/><v:tabList/>Pause retries</text>		</g>
		<g id="shape47-126" v:mID="47" v:groupContext="shape" v:layerMember="1">
			<title>Sheet.47</title>
			<desc>Verify settlement</desc>
			<v:textBlock v:margins="rect(0,0,0,0)" v:tabSpace="42.5197"/>
			<v:textRect cx="633.6" cy="406.8" width="114.12" height="20.16"/>
			<path d="M528.84 418.32 L950.76 418.32 L528.84 418.32 Z" class="st15"/>
			<path d="M528.84 418.32 L950.76 418.32" class="st17"/>
			<text x="601.79" y="409.5" class="st19" v:langID="1033"><v:paragraph v:horizAlign="1"/><v:tabList/>Verify settlement</text>		</g>
		<g id="shape48-131" v:mID="48" v:groupContext="shape" v:layerMember="1">
			<title>Sheet.48</title>
			<desc>Consistent</desc>
			<v:textBlock v:margins="rect(0,0,0,0)" v:tabSpace="42.5197"/>
			<v:textRect cx="633.6" cy="460.08" width="81.36" height="20.16"/>
			<path d="M950.76 471.6 L528.84 471.6 L950.76 471.6 Z" class="st15"/>
			<path d="M950.76 471.6 L528.84 471.6" class="st20"/>
			<text x="614.29" y="462.78" class="st19" v:langID="1033"><v:paragraph v:horizAlign="1"/><v:tabList/>Consistent</text>		</g>
		<g id="shape49-136" v:mID="49" v:groupContext="shape" v:layerMember="1">
			<title>Sheet.49</title>
			<desc>Resume controlled drain</desc>
			<v:textBlock v:margins="rect(0,0,0,0)" v:tabSpace="42.5197"/>
			<v:textRect cx="633.6" cy="513.36" width="142.21" height="20.16"/>
			<path d="M738.36 524.88 L528.84 524.88 L738.36 524.88 Z" class="st15"/>
			<path d="M738.36 524.88 L528.84 524.88" class="st22"/>
			<text x="588.68" y="516.06" class="st19" v:langID="1033"><v:paragraph v:horizAlign="1"/><v:tabList/>Resume controlled drain</text>		</g>
		<g id="shape50-141" v:mID="50" v:groupContext="shape" v:layerMember="1">
			<title>Sheet.50</title>
			<desc>Update incident record</desc>
			<v:textBlock v:margins="rect(0,0,0,0)" v:tabSpace="42.5197"/>
			<v:textRect cx="213.3" cy="594.72" width="87.48" height="33.12"/>
			<path d="M104.04 578.16 L156.6 578.16 L156.6 604.08 L104.04 604.08 L104.04 578.16 Z" class="st15"/>
			<path d="M104.04 578.16 L156.6 578.16 L156.6 604.08 L104.04 604.08" class="st17"/>
			<text x="170.92" y="597.42" class="st19" v:langID="1033"><v:paragraph v:horizAlign="1"/><v:tabList/>Update incident record</text>		</g>
		<g id="shape51-146" v:mID="51" v:groupContext="shape" v:layerMember="3">
			<title>Sheet.51</title>
			<path d="M61.92 447.09 L992.88 447.09 L61.92 447.09 Z" class="st15"/>
			<path d="M61.92 447.09 L992.88 447.09" class="st24"/>
		</g>
	</g>
</svg>
