<?xml version="1.0" encoding="UTF-8" standalone="no"?>
<!DOCTYPE svg PUBLIC "-//W3C//DTD SVG 1.1//EN" "http://www.w3.org/Graphics/SVG/1.1/DTD/svg11.dtd">
<!-- Generated by Microsoft Visio, SVG Export officeimo-visio-premium-print-audit-trail-page1.svg Premium Print Audit Trail -->
<svg xmlns="http://www.w3.org/2000/svg" xmlns:xlink="http://www.w3.org/1999/xlink" xmlns:ev="http://www.w3.org/2001/xml-events"
		xmlns:v="http://schemas.microsoft.com/visio/2003/SVGExtensions/" width="8.5in" height="13.5in" viewBox="0 0 612 972"
		xml:space="preserve" color-interpolation-filters="sRGB" class="st9">
	<v:documentProperties v:langID="1033" v:metric="true" v:viewMarkup="false"/>

	<style type="text/css">
	<![CDATA[
		.st1 {fill:#f5f5f5;stroke:#1f2937;stroke-linecap:round;stroke-linejoin:round;stroke-width:1.152}
		.st2 {fill:#000000;font-family:Calibri;font-size:0.833336em;font-weight:bold}
		.st3 {fill:#ffffff;stroke:#1f2937;stroke-linecap:round;stroke-linejoin:round;stroke-width:1.152}
		.st4 {fill:#e8e8e8;stroke:#111827;stroke-linecap:round;stroke-linejoin:round;stroke-width:1.152}
		.st5 {fill:none;stroke:none;stroke-linecap:round;stroke-linejoin:round;stroke-width:1}
		.st6 {fill:none}
		.st7 {stroke:#1f2937;stroke-linecap:round;stroke-linejoin:round;stroke-width:1.152}
		.st8 {fill:#1f2937;fill-opacity:1;stroke:#1f2937;stroke-opacity:1;stroke-width:0.31372549019608}
		.st9 {fill:none;fill-rule:evenodd;font-size:12px;overflow:visible;stroke-linecap:square;stroke-miterlimit:3}
	]]>
	</style>

	<defs id="Markers">
		<g id="lend13">
			<path d="M 3 1 L 0 0 L 3 -1 L 3 1 " style="stroke:none"/>
		</g>
		<marker id="mrkr13-29" class="st8" v:arrowType="13" v:arrowSize="2" v:setback="9.5625" refX="-9.5625" orient="auto"
				markerUnits="strokeWidth" overflow="visible">
			<use xlink:href="#lend13" transform="scale(-3.1875,-3.1875) "/>
		</marker>
	</defs>
	<g v:mID="0" v:index="1" v:groupContext="foregroundPage">
		<v:userDefs>
			<v:ud v:nameU="msvThemeOrder" v:val="VT0(0):26"/>
		</v:userDefs>
		<title>Premium Print Audit Trail</title>
		<v:pageProperties v:drawingScale="1" v:pageScale="1" v:drawingUnits="0" v:shadowOffsetX="8.50394"
				v:shadowOffsetY="-8.50394"/>
		<g id="shape1-1" v:mID="1" v:groupContext="shape" transform="translate(221.4,-795.6)">
			<title>Ellipse</title>
			<desc>Review window opens</desc>
			<v:textBlock v:margins="rect(0,0,0,0)" v:tabSpace="42.5197"/>
			<v:textRect cx="84.6" cy="939.6" width="169.2" height="64.8"/>
			<path d="M169.2 939.6 L166.32 931.21 L157.87 923.4 L144.42 916.69 L126.9 911.54 L106.5 908.3 L84.6 907.2 L62.7 908.3
						 L42.3 911.54 L24.78 916.69 L11.33 923.4 L2.88 931.21 L0 939.6 L2.88 947.99 L11.33 955.8 L24.78 962.51 L42.3
						 967.66 L62.7 970.9 L84.6 972 L106.5 970.9 L126.9 967.66 L144.42 962.51 L157.87 955.8 L166.32 947.99 L169.2
						 939.6 Z" class="st1"/>
			<text x="37.87" y="942.6" class="st2" v:langID="1033"><v:paragraph v:horizAlign="1"/><v:tabList/>Review window opens</text>		</g>
		<g id="shape2-4" v:mID="2" v:groupContext="shape" transform="translate(221.4,-694.08)">
			<title>Data</title>
			<desc>Export access snapshot</desc>
			<v:textBlock v:margins="rect(0,0,0,0)" v:tabSpace="42.5197"/>
			<v:textRect cx="84.6" cy="934.2" width="169.2" height="75.6"/>
			<path d="M25.2 972 L169.2 972 L144 896.4 L0 896.4 L25.2 972 Z" class="st3"/>
			<text x="36.63" y="937.2" class="st2" v:langID="1033"><v:paragraph v:horizAlign="1"/><v:tabList/>Export access snapshot</text>		</g>
		<g id="shape3-7" v:mID="3" v:groupContext="shape" transform="translate(221.4,-592.56)">
			<title>Process</title>
			<desc>Owner review</desc>
			<v:textBlock v:margins="rect(0,0,0,0)" v:tabSpace="42.5197"/>
			<v:textRect cx="84.6" cy="934.2" width="169.2" height="75.6"/>
			<rect x="0" y="896.4" width="169.2" height="75.6" class="st3"/>
			<text x="55.25" y="937.2" class="st2" v:langID="1033"><v:paragraph v:horizAlign="1"/><v:tabList/>Owner review</text>		</g>
		<g id="shape4-10" v:mID="4" v:groupContext="shape" transform="translate(221.4,-462.24)">
			<title>Decision</title>
			<desc>Evidence complete?</desc>
			<v:textBlock v:margins="rect(0,0,0,0)" v:tabSpace="42.5197"/>
			<v:textRect cx="84.6" cy="919.8" width="169.2" height="104.4"/>
			<path d="M84.6 972 L169.2 919.8 L84.6 867.6 L0 919.8 L84.6 972 Z" class="st4"/>
			<text x="43.1" y="922.8" class="st2" v:langID="1033"><v:paragraph v:horizAlign="1"/><v:tabList/>Evidence complete?</text>		</g>
		<g id="shape5-13" v:mID="5" v:groupContext="shape" transform="translate(221.4,-360.72)">
			<title>Sheet.5</title>
			<desc>Remediate gaps</desc>
			<v:textBlock v:margins="rect(0,0,0,0)" v:tabSpace="42.5197"/>
			<v:textRect cx="84.6" cy="934.2" width="169.2" height="75.6"/>
			<rect x="0" y="896.4" width="169.2" height="75.6" class="st3"/>
			<text x="51.41" y="937.2" class="st2" v:langID="1033"><v:paragraph v:horizAlign="1"/><v:tabList/>Remediate gaps</text>		</g>
		<g id="shape6-16" v:mID="6" v:groupContext="shape" transform="translate(221.4,-259.2)">
			<title>Sheet.6</title>
			<desc>Attach evidence</desc>
			<v:textBlock v:margins="rect(0,0,0,0)" v:tabSpace="42.5197"/>
			<v:textRect cx="84.6" cy="934.2" width="169.2" height="75.6"/>
			<rect x="0" y="896.4" width="169.2" height="75.6" class="st3"/>
			<text x="51.13" y="937.2" class="st2" v:langID="1033"><v:paragraph v:horizAlign="1"/><v:tabList/>Attach evidence</text>		</g>
		<g id="shape7-19" v:mID="7" v:groupContext="shape" transform="translate(221.4,-168.48)">
			<title>Sheet.7</title>
			<desc>Archive signed record</desc>
			<v:textBlock v:margins="rect(0,0,0,0)" v:tabSpace="42.5197"/>
			<v:textRect cx="84.6" cy="939.6" width="169.2" height="64.8"/>
			<path d="M169.2 939.6 L166.32 931.21 L157.87 923.4 L144.42 916.69 L126.9 911.54 L106.5 908.3 L84.6 907.2 L62.7 908.3
						 L42.3 911.54 L24.78 916.69 L11.33 923.4 L2.88 931.21 L0 939.6 L2.88 947.99 L11.33 955.8 L24.78 962.51 L42.3
						 967.66 L62.7 970.9 L84.6 972 L106.5 970.9 L126.9 967.66 L144.42 962.51 L157.87 955.8 L166.32 947.99 L169.2
						 939.6 Z" class="st1"/>
			<text x="39.63" y="942.6" class="st2" v:langID="1033"><v:paragraph v:horizAlign="1"/><v:tabList/>Archive signed record</text>		</g>
		<g id="shape8-22" v:mID="8" v:groupContext="shape" transform="translate(43.2,-885.6)">
			<title>Text Box</title>
			<desc>Quarter-End Access Review - Print Audit Trail</desc>
			<v:textBlock v:margins="rect(0,0,0,0)" v:tabSpace="42.5197"/>
			<v:textRect cx="262.8" cy="955.8" width="525.6" height="32.4"/>
			<rect x="0" y="939.6" width="525.6" height="32.4" class="st5"/>
			<text x="169.26" y="958.8" class="st2" v:langID="1033"><v:paragraph v:horizAlign="1"/><v:tabList/>Quarter-End Access Review - Print Audit Trail</text>		</g>
		<g id="shape9-25" v:mID="9" v:groupContext="shape">
			<title>Connector</title>
			<path d="M306 176.4 L306 202.32 L306 176.4 Z" class="st6"/>
			<path d="M306 176.4 L306 202.32" class="st7"/>
		</g>
		<g id="shape10-30" v:mID="10" v:groupContext="shape">
			<title>Sheet.10</title>
			<path d="M306 277.92 L306 303.84 L306 277.92 Z" class="st6"/>
			<path d="M306 277.92 L306 303.84" class="st7"/>
		</g>
		<g id="shape11-34" v:mID="11" v:groupContext="shape">
			<title>Sheet.11</title>
			<path d="M306 379.44 L306 405.36 L306 379.44 Z" class="st6"/>
			<path d="M306 379.44 L306 405.36" class="st7"/>
		</g>
		<g id="shape12-38" v:mID="12" v:groupContext="shape">
			<title>Sheet.12</title>
			<path d="M306 509.76 L306 535.68 L306 509.76 Z" class="st6"/>
			<path d="M306 509.76 L306 535.68" class="st7"/>
		</g>
		<g id="shape13-42" v:mID="13" v:groupContext="shape">
			<title>Sheet.13</title>
			<path d="M306 611.28 L306 637.2 L306 611.28 Z" class="st6"/>
			<path d="M306 611.28 L306 637.2" class="st7"/>
		</g>
		<g id="shape14-46" v:mID="14" v:groupContext="shape">
			<title>Sheet.14</title>
			<path d="M306 712.8 L306 738.72 L306 712.8 Z" class="st6"/>
			<path d="M306 712.8 L306 738.72" class="st7"/>
		</g>
	</g>
</svg>
