<?xml version="1.0" encoding="UTF-8" standalone="no"?>
<!DOCTYPE svg PUBLIC "-//W3C//DTD SVG 1.1//EN" "http://www.w3.org/Graphics/SVG/1.1/DTD/svg11.dtd">
<!-- Generated by Microsoft Visio, SVG Export officeimo-visio-premium-governed-process-page1.svg Premium Governed Process -->
<svg xmlns="http://www.w3.org/2000/svg" xmlns:xlink="http://www.w3.org/1999/xlink" xmlns:ev="http://www.w3.org/2001/xml-events"
		xmlns:v="http://schemas.microsoft.com/visio/2003/SVGExtensions/" width="14in" height="8.95in" viewBox="0 0 1008 644.4"
		xml:space="preserve" color-interpolation-filters="sRGB" class="st21">
	<v:documentProperties v:langID="1033" v:metric="true" v:viewMarkup="false"/>

	<style type="text/css">
	<![CDATA[
		.st1 {fill:#7e57c2;stroke:#573d8e;stroke-linecap:round;stroke-linejoin:round;stroke-width:1.296}
		.st2 {fill:#ffffff;font-family:Calibri;font-size:0.833336em;font-weight:bold}
		.st3 {fill:#f5f7fa;stroke:#bec6d3;stroke-linecap:round;stroke-linejoin:round;stroke-width:0.864}
		.st4 {fill:#f8fafc;stroke:#bec6d3;stroke-linecap:round;stroke-linejoin:round;stroke-width:0.864}
		.st5 {fill:#2d3748;font-family:Calibri;font-size:0.833336em;font-weight:bold}
		.st6 {fill:#5d9a46;stroke:#3f6f2d;stroke-linecap:round;stroke-linejoin:round;stroke-width:1.296}
		.st7 {fill:#267e74;stroke:#185953;stroke-linecap:round;stroke-linejoin:round;stroke-width:1.296}
		.st8 {fill:#e89c30;stroke:#ab6614;stroke-linecap:round;stroke-linejoin:round;stroke-width:1.296}
		.st9 {fill:#37260c;font-family:Calibri;font-size:0.833336em;font-weight:bold}
		.st10 {fill:none;stroke:none;stroke-linecap:round;stroke-linejoin:round;stroke-width:1}
		.st11 {fill:#ffffff;font-family:Calibri;font-size:1.66667em;font-weight:bold}
		.st12 {fill:none}
		.st13 {stroke:#4169e1;stroke-linecap:round;stroke-linejoin:round;stroke-width:1.296}
		.st14 {fill:#4169e1;fill-opacity:1;stroke:#4169e1;stroke-opacity:1;stroke-width:0.33962264150943}
		.st15 {fill:#2a4bb1;font-family:Calibri;font-size:0.75em}
		.st16 {stroke:#267e74;stroke-linecap:round;stroke-linejoin:round;stroke-width:1.296}
		.st17 {fill:#267e74;fill-opacity:1;stroke:#267e74;stroke-opacity:1;stroke-width:0.33962264150943}
		.st18 {stroke:#7e57c2;stroke-dasharray:9.072,6.48;stroke-linecap:round;stroke-linejoin:round;stroke-width:1.296}
		.st19 {fill:#7e57c2;fill-opacity:1;stroke:#7e57c2;stroke-opacity:1;stroke-width:0.33962264150943}
		.st20 {stroke:#267e74;stroke-dasharray:9.072,6.48;stroke-linecap:round;stroke-linejoin:round;stroke-width:1.296}
		.st21 {fill:none;fill-rule:evenodd;font-size:12px;overflow:visible;stroke-linecap:square;stroke-miterlimit:3}
	]]>
	</style>

	<defs id="Markers">
		<g id="lend13">
			<path d="M 3 1 L 0 0 L 3 -1 L 3 1 " style="stroke:none"/>
		</g>
		<marker id="mrkr13-61" class="st14" v:arrowType="13" v:arrowSize="2" v:setback="8.83333" refX="-8.8333333333333"
				orient="auto" markerUnits="strokeWidth" overflow="visible">
			<use xlink:href="#lend13" transform="scale(-2.9444444444444,-2.9444444444444) "/>
		</marker>
		<marker id="mrkr13-67" class="st17" v:arrowType="13" v:arrowSize="2" v:setback="8.83333" refX="-8.8333333333333"
				orient="auto" markerUnits="strokeWidth" overflow="visible">
			<use xlink:href="#lend13" transform="scale(-2.9444444444444,-2.9444444444444) "/>
		</marker>
		<marker id="mrkr13-72" class="st19" v:arrowType="13" v:arrowSize="2" v:setback="8.83333" refX="-8.8333333333333"
				orient="auto" markerUnits="strokeWidth" overflow="visible">
			<use xlink:href="#lend13" transform="scale(-2.9444444444444,-2.9444444444444) "/>
		</marker>
	</defs>
	<g v:mID="0" v:index="1" v:groupContext="foregroundPage">
		<v:userDefs>
			<v:ud v:nameU="msvThemeOrder" v:val="VT0(0):26"/>
		</v:userDefs>
		<title>Premium Governed Process</title>
		<v:pageProperties v:drawingScale="1" v:pageScale="1" v:drawingUnits="0" v:shadowOffsetX="8.50394"
				v:shadowOffsetY="-8.50394"/>
		<v:layer v:name="Annotations" v:index="0"/>
		<g id="shape1-1" v:mID="1" v:groupContext="shape" transform="translate(50.4,-385.2)">
			<title>Rectangle</title>
			<desc>Requester</desc>
			<v:textBlock v:margins="rect(0,0,0,0)" v:tabSpace="42.5197"/>
			<v:textRect cx="52.2" cy="588.6" width="104.4" height="111.6"/>
			<rect x="0" y="532.8" width="104.4" height="111.6" class="st1"/>
			<text x="30.96" y="591.6" class="st2" v:langID="1033"><v:paragraph v:horizAlign="1"/><v:tabList/>Requester</text>		</g>
		<g id="shape2-4" v:mID="2" v:groupContext="shape" transform="translate(154.8,-385.2)">
			<title>Sheet.2</title>
			<rect x="0" y="532.8" width="763.2" height="111.6" class="st3"/>
		</g>
		<g id="shape3-6" v:mID="3" v:groupContext="shape" transform="translate(50.4,-273.6)">
			<title>Sheet.3</title>
			<desc>Manager</desc>
			<v:textBlock v:margins="rect(0,0,0,0)" v:tabSpace="42.5197"/>
			<v:textRect cx="52.2" cy="588.6" width="104.4" height="111.6"/>
			<rect x="0" y="532.8" width="104.4" height="111.6" class="st1"/>
			<text x="33.55" y="591.6" class="st2" v:langID="1033"><v:paragraph v:horizAlign="1"/><v:tabList/>Manager</text>		</g>
		<g id="shape4-9" v:mID="4" v:groupContext="shape" transform="translate(154.8,-273.6)">
			<title>Sheet.4</title>
			<rect x="0" y="532.8" width="763.2" height="111.6" class="st4"/>
		</g>
		<g id="shape5-11" v:mID="5" v:groupContext="shape" transform="translate(50.4,-162)">
			<title>Sheet.5</title>
			<desc>Identity</desc>
			<v:textBlock v:margins="rect(0,0,0,0)" v:tabSpace="42.5197"/>
			<v:textRect cx="52.2" cy="588.6" width="104.4" height="111.6"/>
			<rect x="0" y="532.8" width="104.4" height="111.6" class="st1"/>
			<text x="35.92" y="591.6" class="st2" v:langID="1033"><v:paragraph v:horizAlign="1"/><v:tabList/>Identity</text>		</g>
		<g id="shape6-14" v:mID="6" v:groupContext="shape" transform="translate(154.8,-162)">
			<title>Sheet.6</title>
			<rect x="0" y="532.8" width="763.2" height="111.6" class="st3"/>
		</g>
		<g id="shape7-16" v:mID="7" v:groupContext="shape" transform="translate(50.4,-50.4)">
			<title>Sheet.7</title>
			<desc>Security</desc>
			<v:textBlock v:margins="rect(0,0,0,0)" v:tabSpace="42.5197"/>
			<v:textRect cx="52.2" cy="588.6" width="104.4" height="111.6"/>
			<rect x="0" y="532.8" width="104.4" height="111.6" class="st1"/>
			<text x="35.44" y="591.6" class="st2" v:langID="1033"><v:paragraph v:horizAlign="1"/><v:tabList/>Security</text>		</g>
		<g id="shape8-19" v:mID="8" v:groupContext="shape" transform="translate(154.8,-50.4)">
			<title>Sheet.8</title>
			<rect x="0" y="532.8" width="763.2" height="111.6" class="st4"/>
		</g>
		<g id="shape9-21" v:mID="9" v:groupContext="shape" transform="translate(154.8,-496.8)">
			<title>Sheet.9</title>
			<desc>Submit</desc>
			<v:textBlock v:margins="rect(0,0,0,0)" v:tabSpace="42.5197"/>
			<v:textRect cx="95.4" cy="624.6" width="190.8" height="39.6"/>
			<rect x="0" y="604.8" width="190.8" height="39.6" class="st3"/>
			<text x="80.64" y="627.6" class="st5" v:langID="1033"><v:paragraph v:horizAlign="1"/><v:tabList/>Submit</text>		</g>
		<g id="shape10-24" v:mID="10" v:groupContext="shape" transform="translate(345.6,-496.8)">
			<title>Sheet.10</title>
			<desc>Approve</desc>
			<v:textBlock v:margins="rect(0,0,0,0)" v:tabSpace="42.5197"/>
			<v:textRect cx="95.4" cy="624.6" width="190.8" height="39.6"/>
			<rect x="0" y="604.8" width="190.8" height="39.6" class="st3"/>
			<text x="77.66" y="627.6" class="st5" v:langID="1033"><v:paragraph v:horizAlign="1"/><v:tabList/>Approve</text>		</g>
		<g id="shape11-27" v:mID="11" v:groupContext="shape" transform="translate(536.4,-496.8)">
			<title>Sheet.11</title>
			<desc>Provision</desc>
			<v:textBlock v:margins="rect(0,0,0,0)" v:tabSpace="42.5197"/>
			<v:textRect cx="95.4" cy="624.6" width="190.8" height="39.6"/>
			<rect x="0" y="604.8" width="190.8" height="39.6" class="st3"/>
			<text x="76.09" y="627.6" class="st5" v:langID="1033"><v:paragraph v:horizAlign="1"/><v:tabList/>Provision</text>		</g>
		<g id="shape12-30" v:mID="12" v:groupContext="shape" transform="translate(727.2,-496.8)">
			<title>Sheet.12</title>
			<desc>Review</desc>
			<v:textBlock v:margins="rect(0,0,0,0)" v:tabSpace="42.5197"/>
			<v:textRect cx="95.4" cy="624.6" width="190.8" height="39.6"/>
			<rect x="0" y="604.8" width="190.8" height="39.6" class="st3"/>
			<text x="80.23" y="627.6" class="st5" v:langID="1033"><v:paragraph v:horizAlign="1"/><v:tabList/>Review</text>		</g>
		<g id="shape13-33" v:mID="13" v:groupContext="shape" transform="translate(191.376,-414.36)">
			<title>Ellipse</title>
			<desc>Submit request</desc>
			<v:textBlock v:margins="rect(0,0,0,0)" v:tabSpace="42.5197"/>
			<v:textRect cx="58.824" cy="617.76" width="117.65" height="53.28"/>
			<path d="M117.65 617.76 L115.64 610.87 L109.77 604.44 L100.42 598.92 L88.24 594.69 L74.05 592.03 L58.82 591.12 L43.6
						 592.03 L29.41 594.69 L17.23 598.92 L7.88 604.44 L2 610.87 L0 617.76 L2 624.65 L7.88 631.08 L17.23 636.6
						 L29.41 640.83 L43.6 643.49 L58.82 644.4 L74.05 643.49 L88.24 640.83 L100.42 636.6 L109.77 631.08 L115.64
						 624.65 L117.65 617.76 Z" class="st6"/>
			<text x="27.03" y="620.76" class="st2" v:langID="1033"><v:paragraph v:horizAlign="1"/><v:tabList/>Submit request</text>		</g>
		<g id="shape14-36" v:mID="14" v:groupContext="shape" transform="translate(379.08,-302.76)">
			<title>Process</title>
			<desc>Business approval</desc>
			<v:textBlock v:margins="rect(0,0,0,0)" v:tabSpace="42.5197"/>
			<v:textRect cx="61.92" cy="617.76" width="123.84" height="53.28"/>
			<rect x="0" y="591.12" width="123.84" height="53.28" class="st7"/>
			<text x="24.53" y="620.76" class="st2" v:langID="1033"><v:paragraph v:horizAlign="1"/><v:tabList/>Business approval</text>		</g>
		<g id="shape15-39" v:mID="15" v:groupContext="shape" transform="translate(385.272,-70.236)">
			<title>Decision</title>
			<desc>Sensitive?</desc>
			<v:textBlock v:margins="rect(0,0,0,0)" v:tabSpace="42.5197"/>
			<v:textRect cx="55.728" cy="608.436" width="111.46" height="71.928"/>
			<path d="M55.73 644.4 L111.46 608.44 L55.73 572.47 L0 608.44 L55.73 644.4 Z" class="st8"/>
			<text x="34.78" y="611.44" class="st9" v:langID="1033"><v:paragraph v:horizAlign="1"/><v:tabList/>Sensitive?</text>		</g>
		<g id="shape16-42" v:mID="16" v:groupContext="shape" transform="translate(569.88,-191.16)">
			<title>Sheet.16</title>
			<desc>Provision access</desc>
			<v:textBlock v:margins="rect(0,0,0,0)" v:tabSpace="42.5197"/>
			<v:textRect cx="61.92" cy="617.76" width="123.84" height="53.28"/>
			<rect x="0" y="591.12" width="123.84" height="53.28" class="st7"/>
			<text x="28.32" y="620.76" class="st2" v:langID="1033"><v:paragraph v:horizAlign="1"/><v:tabList/>Provision access</text>		</g>
		<g id="shape17-45" v:mID="17" v:groupContext="shape" transform="translate(760.68,-191.16)">
			<title>Data</title>
			<desc>Record evidence</desc>
			<v:textBlock v:margins="rect(0,0,0,0)" v:tabSpace="42.5197"/>
			<v:textRect cx="61.92" cy="617.76" width="123.84" height="53.28"/>
			<path d="M17.76 644.4 L123.84 644.4 L106.08 591.12 L0 591.12 L17.76 644.4 Z" class="st1"/>
			<text x="27.61" y="620.76" class="st2" v:langID="1033"><v:paragraph v:horizAlign="1"/><v:tabList/>Record evidence</text>		</g>
		<g id="shape18-48" v:mID="18" v:groupContext="shape" transform="translate(763.776,-414.36)">
			<title>Sheet.18</title>
			<desc>Notify requester</desc>
			<v:textBlock v:margins="rect(0,0,0,0)" v:tabSpace="42.5197"/>
			<v:textRect cx="58.824" cy="617.76" width="117.65" height="53.28"/>
			<path d="M117.65 617.76 L115.64 610.87 L109.77 604.44 L100.42 598.92 L88.24 594.69 L74.05 592.03 L58.82 591.12 L43.6
						 592.03 L29.41 594.69 L17.23 598.92 L7.88 604.44 L2 610.87 L0 617.76 L2 624.65 L7.88 631.08 L17.23 636.6
						 L29.41 640.83 L43.6 643.49 L58.82 644.4 L74.05 643.49 L88.24 640.83 L100.42 636.6 L109.77 631.08 L115.64
						 624.65 L117.65 617.76 Z" class="st6"/>
			<text x="24.6" y="620.76" class="st2" v:langID="1033"><v:paragraph v:horizAlign="1"/><v:tabList/>Notify requester</text>		</g>
		<g id="shape19-51" v:mID="19" v:groupContext="shape" v:layerMember="0" transform="translate(743.4,-111.96)">
			<title>Callout</title>
			<desc>Retention: 1 year</desc>
			<v:textBlock v:margins="rect(0,0,0,0)" v:tabSpace="42.5197"/>
			<v:textRect cx="79.2" cy="617.4" width="158.4" height="54"/>
			<rect x="0" y="590.4" width="158.4" height="54" class="st3"/>
			<text x="43.3" y="620.4" class="st5" v:langID="1033"><v:paragraph v:horizAlign="1"/><v:tabList/>Retention: 1 year</text>		</g>
		<g id="shape20-54" v:mID="20" v:groupContext="shape" transform="translate(50.4,-561.6)">
			<title>Text Box</title>
			<desc>Access Request - Governed Fulfillment</desc>
			<v:textBlock v:margins="rect(0,0,0,0)" v:tabSpace="42.5197"/>
			<v:textRect cx="453.6" cy="628.2" width="907.2" height="32.4"/>
			<rect x="0" y="612" width="907.2" height="32.4" class="st10"/>
			<text x="294.39" y="634.2" class="st11" v:langID="1033"><v:paragraph v:horizAlign="1"/><v:tabList/>Access Request - Governed Fulfillment</text>		</g>
		<g id="shape21-57" v:mID="21" v:groupContext="shape">
			<title>Connector</title>
			<desc>handoff</desc>
			<v:textBlock v:margins="rect(0,0,0,0)" v:tabSpace="42.5197"/>
			<v:textRect cx="344.052" cy="247.68" width="79.2" height="21.6"/>
			<path d="M309.02 203.4 L344.05 203.4 L344.05 315 L379.08 315 L309.02 203.4 Z" class="st12"/>
			<path d="M309.02 203.4 L344.05 203.4 L344.05 315 L379.08 315" class="st13"/>
			<text x="329.68" y="250.38" class="st15" v:langID="1033"><v:paragraph v:horizAlign="1"/><v:tabList/>handoff</text>		</g>
		<g id="shape22-63" v:mID="22" v:groupContext="shape">
			<title>Sheet.22</title>
			<path d="M441 341.64 L441 419.06 L441 502.24 L441 341.64 Z" class="st12"/>
			<path d="M441 341.64 L441 419.06 L441 502.24" class="st16"/>
		</g>
		<g id="shape23-68" v:mID="23" v:groupContext="shape">
			<title>Sheet.23</title>
			<path d="M441 502.24 L441 416.18 L441 341.64 L441 502.24 Z" class="st12"/>
			<path d="M441 502.24 L441 416.18 L441 341.64" class="st18"/>
		</g>
		<g id="shape24-73" v:mID="24" v:groupContext="shape">
			<title>Sheet.24</title>
			<path d="M496.73 538.2 L533.3 538.2 L533.3 426.6 L569.88 426.6 L496.73 538.2 Z" class="st12"/>
			<path d="M496.73 538.2 L533.3 538.2 L533.3 426.6 L569.88 426.6" class="st13"/>
		</g>
		<g id="shape25-77" v:mID="25" v:groupContext="shape">
			<title>Sheet.25</title>
			<path d="M693.72 426.6 L730.08 426.6 L760.68 426.6 L693.72 426.6 Z" class="st12"/>
			<path d="M693.72 426.6 L730.08 426.6 L760.68 426.6" class="st16"/>
		</g>
		<g id="shape26-81" v:mID="26" v:groupContext="shape">
			<title>Sheet.26</title>
			<path d="M822.6 399.96 L822.6 309.24 L822.6 230.04 L822.6 399.96 Z" class="st12"/>
			<path d="M822.6 399.96 L822.6 309.24 L822.6 230.04" class="st16"/>
		</g>
		<g id="shape27-85" v:mID="27" v:groupContext="shape" v:layerMember="0">
			<title>Sheet.27</title>
			<path d="M822.6 478.44 L822.6 460.08 L822.6 453.24 L822.6 478.44 Z" class="st12"/>
			<path d="M822.6 478.44 L822.6 460.08 L822.6 453.24" class="st20"/>
		</g>
	</g>
</svg>
