<svg xmlns="http://www.w3.org/2000/svg" width="1368" height="651" viewBox="0 0 1368 651"><rect x="0" y="0" width="1368" height="651" fill="#FFFFFF"/><rect x="0" y="0" width="1368" height="74.66" fill="#0F172A"/><line x1="0" y1="0" x2="1368" y2="0" stroke="#CBD5E1" stroke-width="2"/><line x1="1368" y1="0" x2="1368" y2="74.66" stroke="#CBD5E1" stroke-width="2"/><line x1="0" y1="74.66" x2="1368" y2="74.66" stroke="#CBD5E1" stroke-width="2"/><line x1="0" y1="0" x2="0" y2="74.66" stroke="#CBD5E1" stroke-width="2"/><rect x="0" y="74.66" width="192" height="64" fill="#E2E8F0"/><line x1="0" y1="74.66" x2="192" y2="74.66" stroke="#CBD5E1" stroke-width="2"/><line x1="192" y1="74.66" x2="192" y2="138.66" stroke="#CBD5E1" stroke-width="2"/><line x1="0" y1="138.66" x2="192" y2="138.66" stroke="#CBD5E1" stroke-width="2"/><line x1="0" y1="74.66" x2="0" y2="138.66" stroke="#CBD5E1" stroke-width="2"/><rect x="192" y="74.66" width="192" height="64" fill="#E2E8F0"/><line x1="192" y1="74.66" x2="384" y2="74.66" stroke="#CBD5E1" stroke-width="2"/><line x1="384" y1="74.66" x2="384" y2="138.66" stroke="#CBD5E1" stroke-width="2"/><line x1="192" y1="138.66" x2="384" y2="138.66" stroke="#CBD5E1" stroke-width="2"/><line x1="192" y1="74.66" x2="192" y2="138.66" stroke="#CBD5E1" stroke-width="2"/><rect x="384" y="74.66" width="164" height="64" fill="#FFFFFF"/><line x1="384" y1="74.66" x2="548" y2="74.66" stroke="#CBD5E1" stroke-width="2"/><line x1="548" y1="74.66" x2="548" y2="138.66" stroke="#CBD5E1" stroke-width="2"/><line x1="384" y1="138.66" x2="548" y2="138.66" stroke="#CBD5E1" stroke-width="2"/><line x1="384" y1="74.66" x2="384" y2="138.66" stroke="#CBD5E1" stroke-width="2"/><rect x="548" y="74.66" width="164" height="64" fill="#FFFFFF"/><line x1="548" y1="74.66" x2="712" y2="74.66" stroke="#CBD5E1" stroke-width="2"/><line x1="712" y1="74.66" x2="712" y2="138.66" stroke="#CBD5E1" stroke-width="2"/><line x1="548" y1="138.66" x2="712" y2="138.66" stroke="#CBD5E1" stroke-width="2"/><line x1="548" y1="74.66" x2="548" y2="138.66" stroke="#CBD5E1" stroke-width="2"/><rect x="712" y="74.66" width="164" height="64" fill="#FFFFFF"/><line x1="712" y1="74.66" x2="876" y2="74.66" stroke="#CBD5E1" stroke-width="2"/><line x1="876" y1="74.66" x2="876" y2="138.66" stroke="#CBD5E1" stroke-width="2"/><line x1="712" y1="138.66" x2="876" y2="138.66" stroke="#CBD5E1" stroke-width="2"/><line x1="712" y1="74.66" x2="712" y2="138.66" stroke="#CBD5E1" stroke-width="2"/><rect x="876" y="74.66" width="164" height="64" fill="#FFFFFF"/><line x1="876" y1="74.66" x2="1040" y2="74.66" stroke="#CBD5E1" stroke-width="2"/><line x1="1040" y1="74.66" x2="1040" y2="138.66" stroke="#CBD5E1" stroke-width="2"/><line x1="876" y1="138.66" x2="1040" y2="138.66" stroke="#CBD5E1" stroke-width="2"/><line x1="876" y1="74.66" x2="876" y2="138.66" stroke="#CBD5E1" stroke-width="2"/><rect x="1040" y="74.66" width="164" height="64" fill="#FFFFFF"/><line x1="1040" y1="74.66" x2="1204" y2="74.66" stroke="#CBD5E1" stroke-width="2"/><line x1="1204" y1="74.66" x2="1204" y2="138.66" stroke="#CBD5E1" stroke-width="2"/><line x1="1040" y1="138.66" x2="1204" y2="138.66" stroke="#CBD5E1" stroke-width="2"/><line x1="1040" y1="74.66" x2="1040" y2="138.66" stroke="#CBD5E1" stroke-width="2"/><rect x="1204" y="74.66" width="164" height="64" fill="#FFFFFF"/><line x1="1204" y1="74.66" x2="1368" y2="74.66" stroke="#CBD5E1" stroke-width="2"/><line x1="1368" y1="74.66" x2="1368" y2="138.66" stroke="#CBD5E1" stroke-width="2"/><line x1="1204" y1="138.66" x2="1368" y2="138.66" stroke="#CBD5E1" stroke-width="2"/><line x1="1204" y1="74.66" x2="1204" y2="138.66" stroke="#CBD5E1" stroke-width="2"/><rect x="0" y="138.66" width="192" height="64" fill="#F8FAFC"/><line x1="0" y1="138.66" x2="192" y2="138.66" stroke="#CBD5E1" stroke-width="2"/><line x1="192" y1="138.66" x2="192" y2="202.66" stroke="#CBD5E1" stroke-width="2"/><line x1="0" y1="202.66" x2="192" y2="202.66" stroke="#CBD5E1" stroke-width="2"/><line x1="0" y1="138.66" x2="0" y2="202.66" stroke="#CBD5E1" stroke-width="2"/><rect x="192" y="138.66" width="192" height="64" fill="#F8FAFC"/><line x1="192" y1="138.66" x2="384" y2="138.66" stroke="#CBD5E1" stroke-width="2"/><line x1="384" y1="138.66" x2="384" y2="202.66" stroke="#CBD5E1" stroke-width="2"/><line x1="192" y1="202.66" x2="384" y2="202.66" stroke="#CBD5E1" stroke-width="2"/><line x1="192" y1="138.66" x2="192" y2="202.66" stroke="#CBD5E1" stroke-width="2"/><rect x="384" y="138.66" width="164" height="64" fill="#FFFFFF"/><line x1="384" y1="138.66" x2="548" y2="138.66" stroke="#CBD5E1" stroke-width="2"/><line x1="548" y1="138.66" x2="548" y2="202.66" stroke="#CBD5E1" stroke-width="2"/><line x1="384" y1="202.66" x2="548" y2="202.66" stroke="#CBD5E1" stroke-width="2"/><line x1="384" y1="138.66" x2="384" y2="202.66" stroke="#CBD5E1" stroke-width="2"/><rect x="548" y="138.66" width="164" height="64" fill="#FFFFFF"/><line x1="548" y1="138.66" x2="712" y2="138.66" stroke="#CBD5E1" stroke-width="2"/><line x1="712" y1="138.66" x2="712" y2="202.66" stroke="#CBD5E1" stroke-width="2"/><line x1="548" y1="202.66" x2="712" y2="202.66" stroke="#CBD5E1" stroke-width="2"/><line x1="548" y1="138.66" x2="548" y2="202.66" stroke="#CBD5E1" stroke-width="2"/><rect x="712" y="138.66" width="164" height="64" fill="#FFFFFF"/><line x1="712" y1="138.66" x2="876" y2="138.66" stroke="#CBD5E1" stroke-width="2"/><line x1="876" y1="138.66" x2="876" y2="202.66" stroke="#CBD5E1" stroke-width="2"/><line x1="712" y1="202.66" x2="876" y2="202.66" stroke="#CBD5E1" stroke-width="2"/><line x1="712" y1="138.66" x2="712" y2="202.66" stroke="#CBD5E1" stroke-width="2"/><rect x="876" y="138.66" width="164" height="64" fill="#FFFFFF"/><line x1="876" y1="138.66" x2="1040" y2="138.66" stroke="#CBD5E1" stroke-width="2"/><line x1="1040" y1="138.66" x2="1040" y2="202.66" stroke="#CBD5E1" stroke-width="2"/><line x1="876" y1="202.66" x2="1040" y2="202.66" stroke="#CBD5E1" stroke-width="2"/><line x1="876" y1="138.66" x2="876" y2="202.66" stroke="#CBD5E1" stroke-width="2"/><rect x="1040" y="138.66" width="164" height="64" fill="#FFFFFF"/><line x1="1040" y1="138.66" x2="1204" y2="138.66" stroke="#CBD5E1" stroke-width="2"/><line x1="1204" y1="138.66" x2="1204" y2="202.66" stroke="#CBD5E1" stroke-width="2"/><line x1="1040" y1="202.66" x2="1204" y2="202.66" stroke="#CBD5E1" stroke-width="2"/><line x1="1040" y1="138.66" x2="1040" y2="202.66" stroke="#CBD5E1" stroke-width="2"/><rect x="1204" y="138.66" width="164" height="64" fill="#FFFFFF"/><line x1="1204" y1="138.66" x2="1368" y2="138.66" stroke="#CBD5E1" stroke-width="2"/><line x1="1368" y1="138.66" x2="1368" y2="202.66" stroke="#CBD5E1" stroke-width="2"/><line x1="1204" y1="202.66" x2="1368" y2="202.66" stroke="#CBD5E1" stroke-width="2"/><line x1="1204" y1="138.66" x2="1204" y2="202.66" stroke="#CBD5E1" stroke-width="2"/><rect x="0" y="202.66" width="192" height="64" fill="#F8FAFC"/><line x1="0" y1="202.66" x2="192" y2="202.66" stroke="#CBD5E1" stroke-width="2"/><line x1="192" y1="202.66" x2="192" y2="266.66" stroke="#CBD5E1" stroke-width="2"/><line x1="0" y1="266.66" x2="192" y2="266.66" stroke="#CBD5E1" stroke-width="2"/><line x1="0" y1="202.66" x2="0" y2="266.66" stroke="#CBD5E1" stroke-width="2"/><rect x="192" y="202.66" width="192" height="64" fill="#F8FAFC"/><line x1="192" y1="202.66" x2="384" y2="202.66" stroke="#CBD5E1" stroke-width="2"/><line x1="384" y1="202.66" x2="384" y2="266.66" stroke="#CBD5E1" stroke-width="2"/><line x1="192" y1="266.66" x2="384" y2="266.66" stroke="#CBD5E1" stroke-width="2"/><line x1="192" y1="202.66" x2="192" y2="266.66" stroke="#CBD5E1" stroke-width="2"/><rect x="384" y="202.66" width="164" height="64" fill="#FFFFFF"/><line x1="384" y1="202.66" x2="548" y2="202.66" stroke="#CBD5E1" stroke-width="2"/><line x1="548" y1="202.66" x2="548" y2="266.66" stroke="#CBD5E1" stroke-width="2"/><line x1="384" y1="266.66" x2="548" y2="266.66" stroke="#CBD5E1" stroke-width="2"/><line x1="384" y1="202.66" x2="384" y2="266.66" stroke="#CBD5E1" stroke-width="2"/><rect x="548" y="202.66" width="164" height="64" fill="#FFFFFF"/><line x1="548" y1="202.66" x2="712" y2="202.66" stroke="#CBD5E1" stroke-width="2"/><line x1="712" y1="202.66" x2="712" y2="266.66" stroke="#CBD5E1" stroke-width="2"/><line x1="548" y1="266.66" x2="712" y2="266.66" stroke="#CBD5E1" stroke-width="2"/><line x1="548" y1="202.66" x2="548" y2="266.66" stroke="#CBD5E1" stroke-width="2"/><rect x="712" y="202.66" width="164" height="64" fill="#FFFFFF"/><line x1="712" y1="202.66" x2="876" y2="202.66" stroke="#CBD5E1" stroke-width="2"/><line x1="876" y1="202.66" x2="876" y2="266.66" stroke="#CBD5E1" stroke-width="2"/><line x1="712" y1="266.66" x2="876" y2="266.66" stroke="#CBD5E1" stroke-width="2"/><line x1="712" y1="202.66" x2="712" y2="266.66" stroke="#CBD5E1" stroke-width="2"/><rect x="876" y="202.66" width="164" height="64" fill="#FFFFFF"/><line x1="876" y1="202.66" x2="1040" y2="202.66" stroke="#CBD5E1" stroke-width="2"/><line x1="1040" y1="202.66" x2="1040" y2="266.66" stroke="#CBD5E1" stroke-width="2"/><line x1="876" y1="266.66" x2="1040" y2="266.66" stroke="#CBD5E1" stroke-width="2"/><line x1="876" y1="202.66" x2="876" y2="266.66" stroke="#CBD5E1" stroke-width="2"/><rect x="1040" y="202.66" width="164" height="64" fill="#FFFFFF"/><line x1="1040" y1="202.66" x2="1204" y2="202.66" stroke="#CBD5E1" stroke-width="2"/><line x1="1204" y1="202.66" x2="1204" y2="266.66" stroke="#CBD5E1" stroke-width="2"/><line x1="1040" y1="266.66" x2="1204" y2="266.66" stroke="#CBD5E1" stroke-width="2"/><line x1="1040" y1="202.66" x2="1040" y2="266.66" stroke="#CBD5E1" stroke-width="2"/><rect x="1204" y="202.66" width="164" height="64" fill="#FFFFFF"/><line x1="1204" y1="202.66" x2="1368" y2="202.66" stroke="#CBD5E1" stroke-width="2"/><line x1="1368" y1="202.66" x2="1368" y2="266.66" stroke="#CBD5E1" stroke-width="2"/><line x1="1204" y1="266.66" x2="1368" y2="266.66" stroke="#CBD5E1" stroke-width="2"/><line x1="1204" y1="202.66" x2="1204" y2="266.66" stroke="#CBD5E1" stroke-width="2"/><rect x="0" y="266.66" width="192" height="64" fill="#F8FAFC"/><line x1="0" y1="266.66" x2="192" y2="266.66" stroke="#CBD5E1" stroke-width="2"/><line x1="192" y1="266.66" x2="192" y2="330.66" stroke="#CBD5E1" stroke-width="2"/><line x1="0" y1="330.66" x2="192" y2="330.66" stroke="#CBD5E1" stroke-width="2"/><line x1="0" y1="266.66" x2="0" y2="330.66" stroke="#CBD5E1" stroke-width="2"/><rect x="192" y="266.66" width="192" height="64" fill="#F8FAFC"/><line x1="192" y1="266.66" x2="384" y2="266.66" stroke="#CBD5E1" stroke-width="2"/><line x1="384" y1="266.66" x2="384" y2="330.66" stroke="#CBD5E1" stroke-width="2"/><line x1="192" y1="330.66" x2="384" y2="330.66" stroke="#CBD5E1" stroke-width="2"/><line x1="192" y1="266.66" x2="192" y2="330.66" stroke="#CBD5E1" stroke-width="2"/><rect x="384" y="266.66" width="164" height="64" fill="#FFFFFF"/><line x1="384" y1="266.66" x2="548" y2="266.66" stroke="#CBD5E1" stroke-width="2"/><line x1="548" y1="266.66" x2="548" y2="330.66" stroke="#CBD5E1" stroke-width="2"/><line x1="384" y1="330.66" x2="548" y2="330.66" stroke="#CBD5E1" stroke-width="2"/><line x1="384" y1="266.66" x2="384" y2="330.66" stroke="#CBD5E1" stroke-width="2"/><rect x="548" y="266.66" width="164" height="64" fill="#FFFFFF"/><line x1="548" y1="266.66" x2="712" y2="266.66" stroke="#CBD5E1" stroke-width="2"/><line x1="712" y1="266.66" x2="712" y2="330.66" stroke="#CBD5E1" stroke-width="2"/><line x1="548" y1="330.66" x2="712" y2="330.66" stroke="#CBD5E1" stroke-width="2"/><line x1="548" y1="266.66" x2="548" y2="330.66" stroke="#CBD5E1" stroke-width="2"/><rect x="712" y="266.66" width="164" height="64" fill="#FFFFFF"/><line x1="712" y1="266.66" x2="876" y2="266.66" stroke="#CBD5E1" stroke-width="2"/><line x1="876" y1="266.66" x2="876" y2="330.66" stroke="#CBD5E1" stroke-width="2"/><line x1="712" y1="330.66" x2="876" y2="330.66" stroke="#CBD5E1" stroke-width="2"/><line x1="712" y1="266.66" x2="712" y2="330.66" stroke="#CBD5E1" stroke-width="2"/><rect x="876" y="266.66" width="164" height="64" fill="#FFFFFF"/><line x1="876" y1="266.66" x2="1040" y2="266.66" stroke="#CBD5E1" stroke-width="2"/><line x1="1040" y1="266.66" x2="1040" y2="330.66" stroke="#CBD5E1" stroke-width="2"/><line x1="876" y1="330.66" x2="1040" y2="330.66" stroke="#CBD5E1" stroke-width="2"/><line x1="876" y1="266.66" x2="876" y2="330.66" stroke="#CBD5E1" stroke-width="2"/><rect x="1040" y="266.66" width="164" height="64" fill="#FFFFFF"/><line x1="1040" y1="266.66" x2="1204" y2="266.66" stroke="#CBD5E1" stroke-width="2"/><line x1="1204" y1="266.66" x2="1204" y2="330.66" stroke="#CBD5E1" stroke-width="2"/><line x1="1040" y1="330.66" x2="1204" y2="330.66" stroke="#CBD5E1" stroke-width="2"/><line x1="1040" y1="266.66" x2="1040" y2="330.66" stroke="#CBD5E1" stroke-width="2"/><rect x="1204" y="266.66" width="164" height="64" fill="#FFFFFF"/><line x1="1204" y1="266.66" x2="1368" y2="266.66" stroke="#CBD5E1" stroke-width="2"/><line x1="1368" y1="266.66" x2="1368" y2="330.66" stroke="#CBD5E1" stroke-width="2"/><line x1="1204" y1="330.66" x2="1368" y2="330.66" stroke="#CBD5E1" stroke-width="2"/><line x1="1204" y1="266.66" x2="1204" y2="330.66" stroke="#CBD5E1" stroke-width="2"/><rect x="0" y="330.66" width="192" height="64" fill="#F8FAFC"/><line x1="0" y1="330.66" x2="192" y2="330.66" stroke="#CBD5E1" stroke-width="2"/><line x1="192" y1="330.66" x2="192" y2="394.66" stroke="#CBD5E1" stroke-width="2"/><line x1="0" y1="394.66" x2="192" y2="394.66" stroke="#CBD5E1" stroke-width="2"/><line x1="0" y1="330.66" x2="0" y2="394.66" stroke="#CBD5E1" stroke-width="2"/><rect x="192" y="330.66" width="192" height="64" fill="#F8FAFC"/><line x1="192" y1="330.66" x2="384" y2="330.66" stroke="#CBD5E1" stroke-width="2"/><line x1="384" y1="330.66" x2="384" y2="394.66" stroke="#CBD5E1" stroke-width="2"/><line x1="192" y1="394.66" x2="384" y2="394.66" stroke="#CBD5E1" stroke-width="2"/><line x1="192" y1="330.66" x2="192" y2="394.66" stroke="#CBD5E1" stroke-width="2"/><rect x="384" y="330.66" width="164" height="64" fill="#FFFFFF"/><line x1="384" y1="330.66" x2="548" y2="330.66" stroke="#CBD5E1" stroke-width="2"/><line x1="548" y1="330.66" x2="548" y2="394.66" stroke="#CBD5E1" stroke-width="2"/><line x1="384" y1="394.66" x2="548" y2="394.66" stroke="#CBD5E1" stroke-width="2"/><line x1="384" y1="330.66" x2="384" y2="394.66" stroke="#CBD5E1" stroke-width="2"/><rect x="548" y="330.66" width="164" height="64" fill="#FFFFFF"/><line x1="548" y1="330.66" x2="712" y2="330.66" stroke="#CBD5E1" stroke-width="2"/><line x1="712" y1="330.66" x2="712" y2="394.66" stroke="#CBD5E1" stroke-width="2"/><line x1="548" y1="394.66" x2="712" y2="394.66" stroke="#CBD5E1" stroke-width="2"/><line x1="548" y1="330.66" x2="548" y2="394.66" stroke="#CBD5E1" stroke-width="2"/><rect x="712" y="330.66" width="164" height="64" fill="#FFFFFF"/><line x1="712" y1="330.66" x2="876" y2="330.66" stroke="#CBD5E1" stroke-width="2"/><line x1="876" y1="330.66" x2="876" y2="394.66" stroke="#CBD5E1" stroke-width="2"/><line x1="712" y1="394.66" x2="876" y2="394.66" stroke="#CBD5E1" stroke-width="2"/><line x1="712" y1="330.66" x2="712" y2="394.66" stroke="#CBD5E1" stroke-width="2"/><rect x="876" y="330.66" width="164" height="64" fill="#FFFFFF"/><line x1="876" y1="330.66" x2="1040" y2="330.66" stroke="#CBD5E1" stroke-width="2"/><line x1="1040" y1="330.66" x2="1040" y2="394.66" stroke="#CBD5E1" stroke-width="2"/><line x1="876" y1="394.66" x2="1040" y2="394.66" stroke="#CBD5E1" stroke-width="2"/><line x1="876" y1="330.66" x2="876" y2="394.66" stroke="#CBD5E1" stroke-width="2"/><rect x="1040" y="330.66" width="164" height="64" fill="#FFFFFF"/><line x1="1040" y1="330.66" x2="1204" y2="330.66" stroke="#CBD5E1" stroke-width="2"/><line x1="1204" y1="330.66" x2="1204" y2="394.66" stroke="#CBD5E1" stroke-width="2"/><line x1="1040" y1="394.66" x2="1204" y2="394.66" stroke="#CBD5E1" stroke-width="2"/><line x1="1040" y1="330.66" x2="1040" y2="394.66" stroke="#CBD5E1" stroke-width="2"/><rect x="1204" y="330.66" width="164" height="64" fill="#FFFFFF"/><line x1="1204" y1="330.66" x2="1368" y2="330.66" stroke="#CBD5E1" stroke-width="2"/><line x1="1368" y1="330.66" x2="1368" y2="394.66" stroke="#CBD5E1" stroke-width="2"/><line x1="1204" y1="394.66" x2="1368" y2="394.66" stroke="#CBD5E1" stroke-width="2"/><line x1="1204" y1="330.66" x2="1204" y2="394.66" stroke="#CBD5E1" stroke-width="2"/><rect x="0" y="394.66" width="192" height="64" fill="#FFFFFF"/><line x1="0" y1="394.66" x2="192" y2="394.66" stroke="#CBD5E1" stroke-width="2"/><line x1="192" y1="394.66" x2="192" y2="458.66" stroke="#CBD5E1" stroke-width="2"/><line x1="0" y1="458.66" x2="192" y2="458.66" stroke="#CBD5E1" stroke-width="2"/><line x1="0" y1="394.66" x2="0" y2="458.66" stroke="#CBD5E1" stroke-width="2"/><rect x="192" y="394.66" width="192" height="64" fill="#FFFFFF"/><line x1="192" y1="394.66" x2="384" y2="394.66" stroke="#CBD5E1" stroke-width="2"/><line x1="384" y1="394.66" x2="384" y2="458.66" stroke="#CBD5E1" stroke-width="2"/><line x1="192" y1="458.66" x2="384" y2="458.66" stroke="#CBD5E1" stroke-width="2"/><line x1="192" y1="394.66" x2="192" y2="458.66" stroke="#CBD5E1" stroke-width="2"/><rect x="384" y="394.66" width="164" height="64" fill="#FFFFFF"/><line x1="384" y1="394.66" x2="548" y2="394.66" stroke="#CBD5E1" stroke-width="2"/><line x1="548" y1="394.66" x2="548" y2="458.66" stroke="#CBD5E1" stroke-width="2"/><line x1="384" y1="458.66" x2="548" y2="458.66" stroke="#CBD5E1" stroke-width="2"/><line x1="384" y1="394.66" x2="384" y2="458.66" stroke="#CBD5E1" stroke-width="2"/><rect x="548" y="394.66" width="164" height="64" fill="#FFFFFF"/><line x1="548" y1="394.66" x2="712" y2="394.66" stroke="#CBD5E1" stroke-width="2"/><line x1="712" y1="394.66" x2="712" y2="458.66" stroke="#CBD5E1" stroke-width="2"/><line x1="548" y1="458.66" x2="712" y2="458.66" stroke="#CBD5E1" stroke-width="2"/><line x1="548" y1="394.66" x2="548" y2="458.66" stroke="#CBD5E1" stroke-width="2"/><rect x="712" y="394.66" width="164" height="64" fill="#FFFFFF"/><line x1="712" y1="394.66" x2="876" y2="394.66" stroke="#CBD5E1" stroke-width="2"/><line x1="876" y1="394.66" x2="876" y2="458.66" stroke="#CBD5E1" stroke-width="2"/><line x1="712" y1="458.66" x2="876" y2="458.66" stroke="#CBD5E1" stroke-width="2"/><line x1="712" y1="394.66" x2="712" y2="458.66" stroke="#CBD5E1" stroke-width="2"/><rect x="876" y="394.66" width="164" height="64" fill="#FFFFFF"/><line x1="876" y1="394.66" x2="1040" y2="394.66" stroke="#CBD5E1" stroke-width="2"/><line x1="1040" y1="394.66" x2="1040" y2="458.66" stroke="#CBD5E1" stroke-width="2"/><line x1="876" y1="458.66" x2="1040" y2="458.66" stroke="#CBD5E1" stroke-width="2"/><line x1="876" y1="394.66" x2="876" y2="458.66" stroke="#CBD5E1" stroke-width="2"/><rect x="1040" y="394.66" width="164" height="64" fill="#FFFFFF"/><line x1="1040" y1="394.66" x2="1204" y2="394.66" stroke="#CBD5E1" stroke-width="2"/><line x1="1204" y1="394.66" x2="1204" y2="458.66" stroke="#CBD5E1" stroke-width="2"/><line x1="1040" y1="458.66" x2="1204" y2="458.66" stroke="#CBD5E1" stroke-width="2"/><line x1="1040" y1="394.66" x2="1040" y2="458.66" stroke="#CBD5E1" stroke-width="2"/><rect x="1204" y="394.66" width="164" height="64" fill="#FFFFFF"/><line x1="1204" y1="394.66" x2="1368" y2="394.66" stroke="#CBD5E1" stroke-width="2"/><line x1="1368" y1="394.66" x2="1368" y2="458.66" stroke="#CBD5E1" stroke-width="2"/><line x1="1204" y1="458.66" x2="1368" y2="458.66" stroke="#CBD5E1" stroke-width="2"/><line x1="1204" y1="394.66" x2="1204" y2="458.66" stroke="#CBD5E1" stroke-width="2"/><rect x="0" y="458.66" width="192" height="64" fill="#FFFFFF"/><line x1="0" y1="458.66" x2="192" y2="458.66" stroke="#CBD5E1" stroke-width="2"/><line x1="192" y1="458.66" x2="192" y2="522.66" stroke="#CBD5E1" stroke-width="2"/><line x1="0" y1="522.66" x2="192" y2="522.66" stroke="#CBD5E1" stroke-width="2"/><line x1="0" y1="458.66" x2="0" y2="522.66" stroke="#CBD5E1" stroke-width="2"/><rect x="192" y="458.66" width="192" height="64" fill="#FFFFFF"/><line x1="192" y1="458.66" x2="384" y2="458.66" stroke="#CBD5E1" stroke-width="2"/><line x1="384" y1="458.66" x2="384" y2="522.66" stroke="#CBD5E1" stroke-width="2"/><line x1="192" y1="522.66" x2="384" y2="522.66" stroke="#CBD5E1" stroke-width="2"/><line x1="192" y1="458.66" x2="192" y2="522.66" stroke="#CBD5E1" stroke-width="2"/><rect x="384" y="458.66" width="164" height="64" fill="#FFFFFF"/><line x1="384" y1="458.66" x2="548" y2="458.66" stroke="#CBD5E1" stroke-width="2"/><line x1="548" y1="458.66" x2="548" y2="522.66" stroke="#CBD5E1" stroke-width="2"/><line x1="384" y1="522.66" x2="548" y2="522.66" stroke="#CBD5E1" stroke-width="2"/><line x1="384" y1="458.66" x2="384" y2="522.66" stroke="#CBD5E1" stroke-width="2"/><rect x="548" y="458.66" width="164" height="64" fill="#FFFFFF"/><line x1="548" y1="458.66" x2="712" y2="458.66" stroke="#CBD5E1" stroke-width="2"/><line x1="712" y1="458.66" x2="712" y2="522.66" stroke="#CBD5E1" stroke-width="2"/><line x1="548" y1="522.66" x2="712" y2="522.66" stroke="#CBD5E1" stroke-width="2"/><line x1="548" y1="458.66" x2="548" y2="522.66" stroke="#CBD5E1" stroke-width="2"/><rect x="712" y="458.66" width="164" height="64" fill="#FFFFFF"/><line x1="712" y1="458.66" x2="876" y2="458.66" stroke="#CBD5E1" stroke-width="2"/><line x1="876" y1="458.66" x2="876" y2="522.66" stroke="#CBD5E1" stroke-width="2"/><line x1="712" y1="522.66" x2="876" y2="522.66" stroke="#CBD5E1" stroke-width="2"/><line x1="712" y1="458.66" x2="712" y2="522.66" stroke="#CBD5E1" stroke-width="2"/><rect x="876" y="458.66" width="164" height="64" fill="#FFFFFF"/><line x1="876" y1="458.66" x2="1040" y2="458.66" stroke="#CBD5E1" stroke-width="2"/><line x1="1040" y1="458.66" x2="1040" y2="522.66" stroke="#CBD5E1" stroke-width="2"/><line x1="876" y1="522.66" x2="1040" y2="522.66" stroke="#CBD5E1" stroke-width="2"/><line x1="876" y1="458.66" x2="876" y2="522.66" stroke="#CBD5E1" stroke-width="2"/><rect x="1040" y="458.66" width="164" height="64" fill="#FFFFFF"/><line x1="1040" y1="458.66" x2="1204" y2="458.66" stroke="#CBD5E1" stroke-width="2"/><line x1="1204" y1="458.66" x2="1204" y2="522.66" stroke="#CBD5E1" stroke-width="2"/><line x1="1040" y1="522.66" x2="1204" y2="522.66" stroke="#CBD5E1" stroke-width="2"/><line x1="1040" y1="458.66" x2="1040" y2="522.66" stroke="#CBD5E1" stroke-width="2"/><rect x="1204" y="458.66" width="164" height="64" fill="#FFFFFF"/><line x1="1204" y1="458.66" x2="1368" y2="458.66" stroke="#CBD5E1" stroke-width="2"/><line x1="1368" y1="458.66" x2="1368" y2="522.66" stroke="#CBD5E1" stroke-width="2"/><line x1="1204" y1="522.66" x2="1368" y2="522.66" stroke="#CBD5E1" stroke-width="2"/><line x1="1204" y1="458.66" x2="1204" y2="522.66" stroke="#CBD5E1" stroke-width="2"/><rect x="0" y="522.66" width="192" height="64" fill="#FFFFFF"/><line x1="0" y1="522.66" x2="192" y2="522.66" stroke="#CBD5E1" stroke-width="2"/><line x1="192" y1="522.66" x2="192" y2="586.66" stroke="#CBD5E1" stroke-width="2"/><line x1="0" y1="586.66" x2="192" y2="586.66" stroke="#CBD5E1" stroke-width="2"/><line x1="0" y1="522.66" x2="0" y2="586.66" stroke="#CBD5E1" stroke-width="2"/><rect x="192" y="522.66" width="192" height="64" fill="#FFFFFF"/><line x1="192" y1="522.66" x2="384" y2="522.66" stroke="#CBD5E1" stroke-width="2"/><line x1="384" y1="522.66" x2="384" y2="586.66" stroke="#CBD5E1" stroke-width="2"/><line x1="192" y1="586.66" x2="384" y2="586.66" stroke="#CBD5E1" stroke-width="2"/><line x1="192" y1="522.66" x2="192" y2="586.66" stroke="#CBD5E1" stroke-width="2"/><rect x="384" y="522.66" width="164" height="64" fill="#FFFFFF"/><line x1="384" y1="522.66" x2="548" y2="522.66" stroke="#CBD5E1" stroke-width="2"/><line x1="548" y1="522.66" x2="548" y2="586.66" stroke="#CBD5E1" stroke-width="2"/><line x1="384" y1="586.66" x2="548" y2="586.66" stroke="#CBD5E1" stroke-width="2"/><line x1="384" y1="522.66" x2="384" y2="586.66" stroke="#CBD5E1" stroke-width="2"/><rect x="548" y="522.66" width="164" height="64" fill="#FFFFFF"/><line x1="548" y1="522.66" x2="712" y2="522.66" stroke="#CBD5E1" stroke-width="2"/><line x1="712" y1="522.66" x2="712" y2="586.66" stroke="#CBD5E1" stroke-width="2"/><line x1="548" y1="586.66" x2="712" y2="586.66" stroke="#CBD5E1" stroke-width="2"/><line x1="548" y1="522.66" x2="548" y2="586.66" stroke="#CBD5E1" stroke-width="2"/><rect x="712" y="522.66" width="164" height="64" fill="#FFFFFF"/><line x1="712" y1="522.66" x2="876" y2="522.66" stroke="#CBD5E1" stroke-width="2"/><line x1="876" y1="522.66" x2="876" y2="586.66" stroke="#CBD5E1" stroke-width="2"/><line x1="712" y1="586.66" x2="876" y2="586.66" stroke="#CBD5E1" stroke-width="2"/><line x1="712" y1="522.66" x2="712" y2="586.66" stroke="#CBD5E1" stroke-width="2"/><rect x="876" y="522.66" width="164" height="64" fill="#FFFFFF"/><line x1="876" y1="522.66" x2="1040" y2="522.66" stroke="#CBD5E1" stroke-width="2"/><line x1="1040" y1="522.66" x2="1040" y2="586.66" stroke="#CBD5E1" stroke-width="2"/><line x1="876" y1="586.66" x2="1040" y2="586.66" stroke="#CBD5E1" stroke-width="2"/><line x1="876" y1="522.66" x2="876" y2="586.66" stroke="#CBD5E1" stroke-width="2"/><rect x="1040" y="522.66" width="164" height="64" fill="#FFFFFF"/><line x1="1040" y1="522.66" x2="1204" y2="522.66" stroke="#CBD5E1" stroke-width="2"/><line x1="1204" y1="522.66" x2="1204" y2="586.66" stroke="#CBD5E1" stroke-width="2"/><line x1="1040" y1="586.66" x2="1204" y2="586.66" stroke="#CBD5E1" stroke-width="2"/><line x1="1040" y1="522.66" x2="1040" y2="586.66" stroke="#CBD5E1" stroke-width="2"/><rect x="1204" y="522.66" width="164" height="64" fill="#FFFFFF"/><line x1="1204" y1="522.66" x2="1368" y2="522.66" stroke="#CBD5E1" stroke-width="2"/><line x1="1368" y1="522.66" x2="1368" y2="586.66" stroke="#CBD5E1" stroke-width="2"/><line x1="1204" y1="586.66" x2="1368" y2="586.66" stroke="#CBD5E1" stroke-width="2"/><line x1="1204" y1="522.66" x2="1204" y2="586.66" stroke="#CBD5E1" stroke-width="2"/><rect x="0" y="586.66" width="192" height="64" fill="#FFFFFF"/><line x1="0" y1="586.66" x2="192" y2="586.66" stroke="#CBD5E1" stroke-width="2"/><line x1="192" y1="586.66" x2="192" y2="650.66" stroke="#CBD5E1" stroke-width="2"/><line x1="0" y1="650.66" x2="192" y2="650.66" stroke="#CBD5E1" stroke-width="2"/><line x1="0" y1="586.66" x2="0" y2="650.66" stroke="#CBD5E1" stroke-width="2"/><rect x="192" y="586.66" width="192" height="64" fill="#FFFFFF"/><line x1="192" y1="586.66" x2="384" y2="586.66" stroke="#CBD5E1" stroke-width="2"/><line x1="384" y1="586.66" x2="384" y2="650.66" stroke="#CBD5E1" stroke-width="2"/><line x1="192" y1="650.66" x2="384" y2="650.66" stroke="#CBD5E1" stroke-width="2"/><line x1="192" y1="586.66" x2="192" y2="650.66" stroke="#CBD5E1" stroke-width="2"/><rect x="384" y="586.66" width="164" height="64" fill="#FFFFFF"/><line x1="384" y1="586.66" x2="548" y2="586.66" stroke="#CBD5E1" stroke-width="2"/><line x1="548" y1="586.66" x2="548" y2="650.66" stroke="#CBD5E1" stroke-width="2"/><line x1="384" y1="650.66" x2="548" y2="650.66" stroke="#CBD5E1" stroke-width="2"/><line x1="384" y1="586.66" x2="384" y2="650.66" stroke="#CBD5E1" stroke-width="2"/><rect x="548" y="586.66" width="164" height="64" fill="#FFFFFF"/><line x1="548" y1="586.66" x2="712" y2="586.66" stroke="#CBD5E1" stroke-width="2"/><line x1="712" y1="586.66" x2="712" y2="650.66" stroke="#CBD5E1" stroke-width="2"/><line x1="548" y1="650.66" x2="712" y2="650.66" stroke="#CBD5E1" stroke-width="2"/><line x1="548" y1="586.66" x2="548" y2="650.66" stroke="#CBD5E1" stroke-width="2"/><rect x="712" y="586.66" width="164" height="64" fill="#FFFFFF"/><line x1="712" y1="586.66" x2="876" y2="586.66" stroke="#CBD5E1" stroke-width="2"/><line x1="876" y1="586.66" x2="876" y2="650.66" stroke="#CBD5E1" stroke-width="2"/><line x1="712" y1="650.66" x2="876" y2="650.66" stroke="#CBD5E1" stroke-width="2"/><line x1="712" y1="586.66" x2="712" y2="650.66" stroke="#CBD5E1" stroke-width="2"/><rect x="876" y="586.66" width="164" height="64" fill="#FFFFFF"/><line x1="876" y1="586.66" x2="1040" y2="586.66" stroke="#CBD5E1" stroke-width="2"/><line x1="1040" y1="586.66" x2="1040" y2="650.66" stroke="#CBD5E1" stroke-width="2"/><line x1="876" y1="650.66" x2="1040" y2="650.66" stroke="#CBD5E1" stroke-width="2"/><line x1="876" y1="586.66" x2="876" y2="650.66" stroke="#CBD5E1" stroke-width="2"/><rect x="1040" y="586.66" width="164" height="64" fill="#FFFFFF"/><line x1="1040" y1="586.66" x2="1204" y2="586.66" stroke="#CBD5E1" stroke-width="2"/><line x1="1204" y1="586.66" x2="1204" y2="650.66" stroke="#CBD5E1" stroke-width="2"/><line x1="1040" y1="650.66" x2="1204" y2="650.66" stroke="#CBD5E1" stroke-width="2"/><line x1="1040" y1="586.66" x2="1040" y2="650.66" stroke="#CBD5E1" stroke-width="2"/><rect x="1204" y="586.66" width="164" height="64" fill="#FFFFFF"/><line x1="1204" y1="586.66" x2="1368" y2="586.66" stroke="#CBD5E1" stroke-width="2"/><line x1="1368" y1="586.66" x2="1368" y2="650.66" stroke="#CBD5E1" stroke-width="2"/><line x1="1204" y1="650.66" x2="1368" y2="650.66" stroke="#CBD5E1" stroke-width="2"/><line x1="1204" y1="586.66" x2="1204" y2="650.66" stroke="#CBD5E1" stroke-width="2"/><clipPath id="xl-text-1-1"><rect x="0" y="0" width="1368" height="74.66"/></clipPath><g clip-path="url(#xl-text-1-1)"><text x="684" y="44.81" fill="#FFFFFF" font-family="Calibri, Arial, sans-serif" font-size="22" text-anchor="middle" font-weight="700">Chart Axis Label Density</text></g><clipPath id="xl-text-2-1"><rect x="0" y="74.66" width="192" height="64"/></clipPath><g clip-path="url(#xl-text-2-1)"><text x="6" y="114.14" fill="#000000" font-family="Calibri, Arial, sans-serif" font-size="22" text-anchor="start" font-weight="700">Month</text></g><clipPath id="xl-text-2-2"><rect x="192" y="74.66" width="356" height="64"/></clipPath><g clip-path="url(#xl-text-2-2)"><text x="198" y="114.14" fill="#000000" font-family="Calibri, Arial, sans-serif" font-size="22" text-anchor="start" font-weight="700">Actual</text></g><clipPath id="xl-text-3-1"><rect x="0" y="138.66" width="192" height="64"/></clipPath><g clip-path="url(#xl-text-3-1)"><text x="6" y="178.14" fill="#000000" font-family="Calibri, Arial, sans-serif" font-size="22" text-anchor="start">Jan</text></g><clipPath id="xl-text-3-2"><rect x="192" y="138.66" width="192" height="64"/></clipPath><g clip-path="url(#xl-text-3-2)"><text x="378" y="178.14" fill="#000000" font-family="Calibri, Arial, sans-serif" font-size="22" text-anchor="end">1200</text></g><clipPath id="xl-text-4-1"><rect x="0" y="202.66" width="192" height="64"/></clipPath><g clip-path="url(#xl-text-4-1)"><text x="6" y="242.14" fill="#000000" font-family="Calibri, Arial, sans-serif" font-size="22" text-anchor="start">Feb</text></g><clipPath id="xl-text-4-2"><rect x="192" y="202.66" width="192" height="64"/></clipPath><g clip-path="url(#xl-text-4-2)"><text x="378" y="242.14" fill="#000000" font-family="Calibri, Arial, sans-serif" font-size="22" text-anchor="end">1800</text></g><clipPath id="xl-text-5-1"><rect x="0" y="266.66" width="192" height="64"/></clipPath><g clip-path="url(#xl-text-5-1)"><text x="6" y="306.14" fill="#000000" font-family="Calibri, Arial, sans-serif" font-size="22" text-anchor="start">Mar</text></g><clipPath id="xl-text-5-2"><rect x="192" y="266.66" width="192" height="64"/></clipPath><g clip-path="url(#xl-text-5-2)"><text x="378" y="306.14" fill="#000000" font-family="Calibri, Arial, sans-serif" font-size="22" text-anchor="end">1600</text></g><clipPath id="xl-text-6-1"><rect x="0" y="330.66" width="192" height="64"/></clipPath><g clip-path="url(#xl-text-6-1)"><text x="6" y="370.14" fill="#000000" font-family="Calibri, Arial, sans-serif" font-size="22" text-anchor="start">Apr</text></g><clipPath id="xl-text-6-2"><rect x="192" y="330.66" width="192" height="64"/></clipPath><g clip-path="url(#xl-text-6-2)"><text x="378" y="370.14" fill="#000000" font-family="Calibri, Arial, sans-serif" font-size="22" text-anchor="end">2000</text></g><svg x="548" y="74.66" width="680" height="440" viewBox="0 0 680 440"><rect x="0" y="0" width="680" height="440" fill="#FAFCFF" stroke="#B7C2CF" stroke-width="0.75"/><text x="340" y="17" font-family="Aptos" font-size="12" text-anchor="middle" fill="#1F4E79" font-weight="700">Axis Label Density</text><line x1="36" y1="384" x2="668" y2="384" fill="none" stroke="#505A64" stroke-width="0.75"/><line x1="36" y1="40" x2="36" y2="384" fill="none" stroke="#505A64" stroke-width="0.75"/><line x1="36" y1="126" x2="668" y2="126" fill="none" stroke="#E2E8F0" stroke-width="0.5"/><line x1="36" y1="212" x2="668" y2="212" fill="none" stroke="#E2E8F0" stroke-width="0.5"/><line x1="36" y1="298" x2="668" y2="298" fill="none" stroke="#E2E8F0" stroke-width="0.5"/><rect x="61.28" y="177.6" width="94.547" height="206.4" fill="#1F4E79" stroke="none"/><rect x="219.28" y="74.4" width="94.547" height="309.6" fill="#1F4E79" stroke="none"/><rect x="377.28" y="108.8" width="94.547" height="275.2" fill="#1F4E79" stroke="none"/><rect x="535.28" y="40" width="94.547" height="344" fill="#1F4E79" stroke="none"/><text x="30" y="42.6" font-family="Aptos" font-size="8.2" text-anchor="end" fill="#64748B">2,000</text><text x="30" y="128.6" font-family="Aptos" font-size="8.2" text-anchor="end" fill="#64748B">1,500</text><text x="30" y="214.6" font-family="Aptos" font-size="8.2" text-anchor="end" fill="#64748B">1,000</text><text x="30" y="300.6" font-family="Aptos" font-size="8.2" text-anchor="end" fill="#64748B">500</text><text x="30" y="386.6" font-family="Aptos" font-size="8.2" text-anchor="end" fill="#64748B">0</text><text x="115" y="399.2" font-family="Aptos" font-size="8.2" text-anchor="middle" fill="#64748B">Jan</text><text x="273" y="399.2" font-family="Aptos" font-size="8.2" text-anchor="middle" fill="#64748B">Feb</text><text x="431" y="399.2" font-family="Aptos" font-size="8.2" text-anchor="middle" fill="#64748B">Mar</text><text x="589" y="399.2" font-family="Aptos" font-size="8.2" text-anchor="middle" fill="#64748B">Apr</text><rect x="8" y="429" width="6" height="6" fill="#1F4E79" stroke="none"/><text x="18" y="434.4" font-family="Aptos" font-size="8.4" text-anchor="start" fill="#334155">Actual</text></svg></svg>