<svg xmlns="http://www.w3.org/2000/svg" width="1344" height="454" viewBox="0 0 1344 454"><rect x="0" y="0" width="1344" height="454" fill="#FFFFFF"/><rect x="0" y="0" width="1344" height="69.34" fill="#0F172A"/><rect x="0" y="69.34" width="206" height="64" fill="#E2E8F0"/><line x1="0" y1="69.34" x2="206" y2="69.34" stroke="#CBD5E1" stroke-width="2"/><line x1="206" y1="69.34" x2="206" y2="133.34" stroke="#CBD5E1" stroke-width="2"/><line x1="0" y1="133.34" x2="206" y2="133.34" stroke="#CBD5E1" stroke-width="2"/><line x1="0" y1="69.34" x2="0" y2="133.34" stroke="#CBD5E1" stroke-width="2"/><rect x="206" y="69.34" width="164" height="64" fill="#E2E8F0"/><line x1="206" y1="69.34" x2="370" y2="69.34" stroke="#CBD5E1" stroke-width="2"/><line x1="370" y1="69.34" x2="370" y2="133.34" stroke="#CBD5E1" stroke-width="2"/><line x1="206" y1="133.34" x2="370" y2="133.34" stroke="#CBD5E1" stroke-width="2"/><line x1="206" y1="69.34" x2="206" y2="133.34" stroke="#CBD5E1" stroke-width="2"/><rect x="370" y="69.34" width="234" height="64" fill="#E2E8F0"/><line x1="370" y1="69.34" x2="604" y2="69.34" stroke="#CBD5E1" stroke-width="2"/><line x1="604" y1="69.34" x2="604" y2="133.34" stroke="#CBD5E1" stroke-width="2"/><line x1="370" y1="133.34" x2="604" y2="133.34" stroke="#CBD5E1" stroke-width="2"/><line x1="370" y1="69.34" x2="370" y2="133.34" stroke="#CBD5E1" stroke-width="2"/><rect x="604" y="69.34" width="234" height="64" fill="#E2E8F0"/><line x1="604" y1="69.34" x2="838" y2="69.34" stroke="#CBD5E1" stroke-width="2"/><line x1="838" y1="69.34" x2="838" y2="133.34" stroke="#CBD5E1" stroke-width="2"/><line x1="604" y1="133.34" x2="838" y2="133.34" stroke="#CBD5E1" stroke-width="2"/><line x1="604" y1="69.34" x2="604" y2="133.34" stroke="#CBD5E1" stroke-width="2"/><rect x="838" y="69.34" width="192" height="64" fill="#E2E8F0"/><line x1="838" y1="69.34" x2="1030" y2="69.34" stroke="#CBD5E1" stroke-width="2"/><line x1="1030" y1="69.34" x2="1030" y2="133.34" stroke="#CBD5E1" stroke-width="2"/><line x1="838" y1="133.34" x2="1030" y2="133.34" stroke="#CBD5E1" stroke-width="2"/><line x1="838" y1="69.34" x2="838" y2="133.34" stroke="#CBD5E1" stroke-width="2"/><rect x="1030" y="69.34" width="150" height="64" fill="#E2E8F0"/><line x1="1030" y1="69.34" x2="1180" y2="69.34" stroke="#CBD5E1" stroke-width="2"/><line x1="1180" y1="69.34" x2="1180" y2="133.34" stroke="#CBD5E1" stroke-width="2"/><line x1="1030" y1="133.34" x2="1180" y2="133.34" stroke="#CBD5E1" stroke-width="2"/><line x1="1030" y1="69.34" x2="1030" y2="133.34" stroke="#CBD5E1" stroke-width="2"/><rect x="1180" y="69.34" width="164" height="64" fill="#E2E8F0"/><line x1="1180" y1="69.34" x2="1344" y2="69.34" stroke="#CBD5E1" stroke-width="2"/><line x1="1344" y1="69.34" x2="1344" y2="133.34" stroke="#CBD5E1" stroke-width="2"/><line x1="1180" y1="133.34" x2="1344" y2="133.34" stroke="#CBD5E1" stroke-width="2"/><line x1="1180" y1="69.34" x2="1180" y2="133.34" stroke="#CBD5E1" stroke-width="2"/><rect x="0" y="133.34" width="206" height="64" fill="#FFFFFF"/><line x1="0" y1="133.34" x2="206" y2="133.34" stroke="#CBD5E1" stroke-width="2"/><line x1="206" y1="133.34" x2="206" y2="197.34" stroke="#CBD5E1" stroke-width="2"/><line x1="0" y1="197.34" x2="206" y2="197.34" stroke="#CBD5E1" stroke-width="2"/><line x1="0" y1="133.34" x2="0" y2="197.34" stroke="#CBD5E1" stroke-width="2"/><rect x="206" y="133.34" width="164" height="64" fill="#FECACA"/><line x1="206" y1="133.34" x2="370" y2="133.34" stroke="#CBD5E1" stroke-width="2"/><line x1="370" y1="133.34" x2="370" y2="197.34" stroke="#CBD5E1" stroke-width="2"/><line x1="206" y1="197.34" x2="370" y2="197.34" stroke="#CBD5E1" stroke-width="2"/><line x1="206" y1="133.34" x2="206" y2="197.34" stroke="#CBD5E1" stroke-width="2"/><rect x="370" y="133.34" width="234" height="64" fill="#FFFFFF"/><line x1="370" y1="133.34" x2="604" y2="133.34" stroke="#CBD5E1" stroke-width="2"/><line x1="604" y1="133.34" x2="604" y2="197.34" stroke="#CBD5E1" stroke-width="2"/><line x1="370" y1="197.34" x2="604" y2="197.34" stroke="#CBD5E1" stroke-width="2"/><line x1="370" y1="133.34" x2="370" y2="197.34" stroke="#CBD5E1" stroke-width="2"/><rect x="604" y="133.34" width="234" height="64" fill="#FFFFFF"/><rect x="604" y="137.34" width="91.565" height="56" fill="#7C3AED"/><line x1="604" y1="133.34" x2="838" y2="133.34" stroke="#CBD5E1" stroke-width="2"/><line x1="838" y1="133.34" x2="838" y2="197.34" stroke="#CBD5E1" stroke-width="2"/><line x1="604" y1="197.34" x2="838" y2="197.34" stroke="#CBD5E1" stroke-width="2"/><line x1="604" y1="133.34" x2="604" y2="197.34" stroke="#CBD5E1" stroke-width="2"/><rect x="838" y="133.34" width="192" height="64" fill="#F8FAFC"/><line x1="838" y1="133.34" x2="1030" y2="133.34" stroke="#CBD5E1" stroke-width="2"/><line x1="1030" y1="133.34" x2="1030" y2="197.34" stroke="#CBD5E1" stroke-width="2"/><line x1="838" y1="197.34" x2="1030" y2="197.34" stroke="#CBD5E1" stroke-width="2"/><line x1="838" y1="133.34" x2="838" y2="197.34" stroke="#CBD5E1" stroke-width="2"/><rect x="1030" y="133.34" width="150" height="64" fill="#FFFFFF"/><line x1="1030" y1="133.34" x2="1180" y2="133.34" stroke="#CBD5E1" stroke-width="2"/><line x1="1180" y1="133.34" x2="1180" y2="197.34" stroke="#CBD5E1" stroke-width="2"/><line x1="1030" y1="197.34" x2="1180" y2="197.34" stroke="#CBD5E1" stroke-width="2"/><line x1="1030" y1="133.34" x2="1030" y2="197.34" stroke="#CBD5E1" stroke-width="2"/><rect x="1180" y="133.34" width="164" height="64" fill="#FFFFFF"/><line x1="1180" y1="133.34" x2="1344" y2="133.34" stroke="#CBD5E1" stroke-width="2"/><line x1="1344" y1="133.34" x2="1344" y2="197.34" stroke="#CBD5E1" stroke-width="2"/><line x1="1180" y1="197.34" x2="1344" y2="197.34" stroke="#CBD5E1" stroke-width="2"/><line x1="1180" y1="133.34" x2="1180" y2="197.34" stroke="#CBD5E1" stroke-width="2"/><rect x="0" y="197.34" width="206" height="64" fill="#FFFFFF"/><line x1="0" y1="197.34" x2="206" y2="197.34" stroke="#CBD5E1" stroke-width="2"/><line x1="206" y1="197.34" x2="206" y2="261.34" stroke="#CBD5E1" stroke-width="2"/><line x1="0" y1="261.34" x2="206" y2="261.34" stroke="#CBD5E1" stroke-width="2"/><line x1="0" y1="197.34" x2="0" y2="261.34" stroke="#CBD5E1" stroke-width="2"/><rect x="206" y="197.34" width="164" height="64" fill="#B0C8A4"/><line x1="206" y1="197.34" x2="370" y2="197.34" stroke="#CBD5E1" stroke-width="2"/><line x1="370" y1="197.34" x2="370" y2="261.34" stroke="#CBD5E1" stroke-width="2"/><line x1="206" y1="261.34" x2="370" y2="261.34" stroke="#CBD5E1" stroke-width="2"/><line x1="206" y1="197.34" x2="206" y2="261.34" stroke="#CBD5E1" stroke-width="2"/><rect x="370" y="197.34" width="234" height="64" fill="#FFFFFF"/><rect x="370" y="201.34" width="63" height="56" fill="#63B3ED"/><line x1="370" y1="197.34" x2="604" y2="197.34" stroke="#CBD5E1" stroke-width="2"/><line x1="604" y1="197.34" x2="604" y2="261.34" stroke="#CBD5E1" stroke-width="2"/><line x1="370" y1="261.34" x2="604" y2="261.34" stroke="#CBD5E1" stroke-width="2"/><line x1="370" y1="197.34" x2="370" y2="261.34" stroke="#CBD5E1" stroke-width="2"/><rect x="604" y="197.34" width="234" height="64" fill="#FFFFFF"/><rect x="665.043" y="201.34" width="30.522" height="56" fill="#7C3AED"/><line x1="604" y1="197.34" x2="838" y2="197.34" stroke="#CBD5E1" stroke-width="2"/><line x1="838" y1="197.34" x2="838" y2="261.34" stroke="#CBD5E1" stroke-width="2"/><line x1="604" y1="261.34" x2="838" y2="261.34" stroke="#CBD5E1" stroke-width="2"/><line x1="604" y1="197.34" x2="604" y2="261.34" stroke="#CBD5E1" stroke-width="2"/><rect x="838" y="197.34" width="192" height="64" fill="#F8FAFC"/><line x1="838" y1="197.34" x2="1030" y2="197.34" stroke="#CBD5E1" stroke-width="2"/><line x1="1030" y1="197.34" x2="1030" y2="261.34" stroke="#CBD5E1" stroke-width="2"/><line x1="838" y1="261.34" x2="1030" y2="261.34" stroke="#CBD5E1" stroke-width="2"/><line x1="838" y1="197.34" x2="838" y2="261.34" stroke="#CBD5E1" stroke-width="2"/><rect x="1030" y="197.34" width="150" height="64" fill="#FFFFFF"/><line x1="1030" y1="197.34" x2="1180" y2="197.34" stroke="#CBD5E1" stroke-width="2"/><line x1="1180" y1="197.34" x2="1180" y2="261.34" stroke="#CBD5E1" stroke-width="2"/><line x1="1030" y1="261.34" x2="1180" y2="261.34" stroke="#CBD5E1" stroke-width="2"/><line x1="1030" y1="197.34" x2="1030" y2="261.34" stroke="#CBD5E1" stroke-width="2"/><rect x="1180" y="197.34" width="164" height="64" fill="#C6EFCE"/><line x1="1180" y1="197.34" x2="1344" y2="197.34" stroke="#CBD5E1" stroke-width="2"/><line x1="1344" y1="197.34" x2="1344" y2="261.34" stroke="#CBD5E1" stroke-width="2"/><line x1="1180" y1="261.34" x2="1344" y2="261.34" stroke="#CBD5E1" stroke-width="2"/><line x1="1180" y1="197.34" x2="1180" y2="261.34" stroke="#CBD5E1" stroke-width="2"/><rect x="0" y="261.34" width="206" height="64" fill="#FFFFFF"/><line x1="0" y1="261.34" x2="206" y2="261.34" stroke="#CBD5E1" stroke-width="2"/><line x1="206" y1="261.34" x2="206" y2="325.34" stroke="#CBD5E1" stroke-width="2"/><line x1="0" y1="325.34" x2="206" y2="325.34" stroke="#CBD5E1" stroke-width="2"/><line x1="0" y1="261.34" x2="0" y2="325.34" stroke="#CBD5E1" stroke-width="2"/><rect x="206" y="261.34" width="164" height="64" fill="#75C787"/><line x1="206" y1="261.34" x2="370" y2="261.34" stroke="#CBD5E1" stroke-width="2"/><line x1="370" y1="261.34" x2="370" y2="325.34" stroke="#CBD5E1" stroke-width="2"/><line x1="206" y1="325.34" x2="370" y2="325.34" stroke="#CBD5E1" stroke-width="2"/><line x1="206" y1="261.34" x2="206" y2="325.34" stroke="#CBD5E1" stroke-width="2"/><rect x="370" y="261.34" width="234" height="64" fill="#FFFFFF"/><rect x="370" y="265.34" width="117" height="56" fill="#63B3ED"/><line x1="370" y1="261.34" x2="604" y2="261.34" stroke="#CBD5E1" stroke-width="2"/><line x1="604" y1="261.34" x2="604" y2="325.34" stroke="#CBD5E1" stroke-width="2"/><line x1="370" y1="325.34" x2="604" y2="325.34" stroke="#CBD5E1" stroke-width="2"/><line x1="370" y1="261.34" x2="370" y2="325.34" stroke="#CBD5E1" stroke-width="2"/><rect x="604" y="261.34" width="234" height="64" fill="#FFFFFF"/><rect x="695.565" y="265.34" width="20.348" height="56" fill="#7C3AED"/><line x1="604" y1="261.34" x2="838" y2="261.34" stroke="#CBD5E1" stroke-width="2"/><line x1="838" y1="261.34" x2="838" y2="325.34" stroke="#CBD5E1" stroke-width="2"/><line x1="604" y1="325.34" x2="838" y2="325.34" stroke="#CBD5E1" stroke-width="2"/><line x1="604" y1="261.34" x2="604" y2="325.34" stroke="#CBD5E1" stroke-width="2"/><rect x="838" y="261.34" width="192" height="64" fill="#F8FAFC"/><line x1="838" y1="261.34" x2="1030" y2="261.34" stroke="#CBD5E1" stroke-width="2"/><line x1="1030" y1="261.34" x2="1030" y2="325.34" stroke="#CBD5E1" stroke-width="2"/><line x1="838" y1="325.34" x2="1030" y2="325.34" stroke="#CBD5E1" stroke-width="2"/><line x1="838" y1="261.34" x2="838" y2="325.34" stroke="#CBD5E1" stroke-width="2"/><rect x="1030" y="261.34" width="150" height="64" fill="#FFFFFF"/><line x1="1030" y1="261.34" x2="1180" y2="261.34" stroke="#CBD5E1" stroke-width="2"/><line x1="1180" y1="261.34" x2="1180" y2="325.34" stroke="#CBD5E1" stroke-width="2"/><line x1="1030" y1="325.34" x2="1180" y2="325.34" stroke="#CBD5E1" stroke-width="2"/><line x1="1030" y1="261.34" x2="1030" y2="325.34" stroke="#CBD5E1" stroke-width="2"/><rect x="1180" y="261.34" width="164" height="64" fill="#C6EFCE"/><line x1="1180" y1="261.34" x2="1344" y2="261.34" stroke="#CBD5E1" stroke-width="2"/><line x1="1344" y1="261.34" x2="1344" y2="325.34" stroke="#CBD5E1" stroke-width="2"/><line x1="1180" y1="325.34" x2="1344" y2="325.34" stroke="#CBD5E1" stroke-width="2"/><line x1="1180" y1="261.34" x2="1180" y2="325.34" stroke="#CBD5E1" stroke-width="2"/><rect x="0" y="325.34" width="206" height="64" fill="#FFFFFF"/><line x1="0" y1="325.34" x2="206" y2="325.34" stroke="#CBD5E1" stroke-width="2"/><line x1="206" y1="325.34" x2="206" y2="389.34" stroke="#CBD5E1" stroke-width="2"/><line x1="0" y1="389.34" x2="206" y2="389.34" stroke="#CBD5E1" stroke-width="2"/><line x1="0" y1="325.34" x2="0" y2="389.34" stroke="#CBD5E1" stroke-width="2"/><rect x="206" y="325.34" width="164" height="64" fill="#4DC673"/><line x1="206" y1="325.34" x2="370" y2="325.34" stroke="#CBD5E1" stroke-width="2"/><line x1="370" y1="325.34" x2="370" y2="389.34" stroke="#CBD5E1" stroke-width="2"/><line x1="206" y1="389.34" x2="370" y2="389.34" stroke="#CBD5E1" stroke-width="2"/><line x1="206" y1="325.34" x2="206" y2="389.34" stroke="#CBD5E1" stroke-width="2"/><rect x="370" y="325.34" width="234" height="64" fill="#FFFFFF"/><rect x="370" y="329.34" width="168" height="56" fill="#63B3ED"/><line x1="370" y1="325.34" x2="604" y2="325.34" stroke="#CBD5E1" stroke-width="2"/><line x1="604" y1="325.34" x2="604" y2="389.34" stroke="#CBD5E1" stroke-width="2"/><line x1="370" y1="389.34" x2="604" y2="389.34" stroke="#CBD5E1" stroke-width="2"/><line x1="370" y1="325.34" x2="370" y2="389.34" stroke="#CBD5E1" stroke-width="2"/><rect x="604" y="325.34" width="234" height="64" fill="#FFFFFF"/><rect x="695.565" y="329.34" width="81.391" height="56" fill="#7C3AED"/><line x1="604" y1="325.34" x2="838" y2="325.34" stroke="#CBD5E1" stroke-width="2"/><line x1="838" y1="325.34" x2="838" y2="389.34" stroke="#CBD5E1" stroke-width="2"/><line x1="604" y1="389.34" x2="838" y2="389.34" stroke="#CBD5E1" stroke-width="2"/><line x1="604" y1="325.34" x2="604" y2="389.34" stroke="#CBD5E1" stroke-width="2"/><rect x="838" y="325.34" width="192" height="64" fill="#FEE2E2"/><line x1="838" y1="325.34" x2="1030" y2="325.34" stroke="#CBD5E1" stroke-width="2"/><line x1="1030" y1="325.34" x2="1030" y2="389.34" stroke="#CBD5E1" stroke-width="2"/><line x1="838" y1="389.34" x2="1030" y2="389.34" stroke="#CBD5E1" stroke-width="2"/><line x1="838" y1="325.34" x2="838" y2="389.34" stroke="#CBD5E1" stroke-width="2"/><rect x="1030" y="325.34" width="150" height="64" fill="#FFFFFF"/><line x1="1030" y1="325.34" x2="1180" y2="325.34" stroke="#CBD5E1" stroke-width="2"/><line x1="1180" y1="325.34" x2="1180" y2="389.34" stroke="#CBD5E1" stroke-width="2"/><line x1="1030" y1="389.34" x2="1180" y2="389.34" stroke="#CBD5E1" stroke-width="2"/><line x1="1030" y1="325.34" x2="1030" y2="389.34" stroke="#CBD5E1" stroke-width="2"/><rect x="1180" y="325.34" width="164" height="64" fill="#FFFFFF"/><line x1="1180" y1="325.34" x2="1344" y2="325.34" stroke="#CBD5E1" stroke-width="2"/><line x1="1344" y1="325.34" x2="1344" y2="389.34" stroke="#CBD5E1" stroke-width="2"/><line x1="1180" y1="389.34" x2="1344" y2="389.34" stroke="#CBD5E1" stroke-width="2"/><line x1="1180" y1="325.34" x2="1180" y2="389.34" stroke="#CBD5E1" stroke-width="2"/><rect x="0" y="389.34" width="206" height="64" fill="#FFFFFF"/><line x1="0" y1="389.34" x2="206" y2="389.34" stroke="#CBD5E1" stroke-width="2"/><line x1="206" y1="389.34" x2="206" y2="453.34" stroke="#CBD5E1" stroke-width="2"/><line x1="0" y1="453.34" x2="206" y2="453.34" stroke="#CBD5E1" stroke-width="2"/><line x1="0" y1="389.34" x2="0" y2="453.34" stroke="#CBD5E1" stroke-width="2"/><rect x="206" y="389.34" width="164" height="64" fill="#22C55E"/><line x1="206" y1="389.34" x2="370" y2="389.34" stroke="#CBD5E1" stroke-width="2"/><line x1="370" y1="389.34" x2="370" y2="453.34" stroke="#CBD5E1" stroke-width="2"/><line x1="206" y1="453.34" x2="370" y2="453.34" stroke="#CBD5E1" stroke-width="2"/><line x1="206" y1="389.34" x2="206" y2="453.34" stroke="#CBD5E1" stroke-width="2"/><rect x="370" y="389.34" width="234" height="64" fill="#FFFFFF"/><rect x="370" y="393.34" width="234" height="56" fill="#63B3ED"/><line x1="370" y1="389.34" x2="604" y2="389.34" stroke="#CBD5E1" stroke-width="2"/><line x1="604" y1="389.34" x2="604" y2="453.34" stroke="#CBD5E1" stroke-width="2"/><line x1="370" y1="453.34" x2="604" y2="453.34" stroke="#CBD5E1" stroke-width="2"/><line x1="370" y1="389.34" x2="370" y2="453.34" stroke="#CBD5E1" stroke-width="2"/><rect x="604" y="389.34" width="234" height="64" fill="#FFFFFF"/><rect x="695.565" y="393.34" width="142.435" height="56" fill="#7C3AED"/><line x1="604" y1="389.34" x2="838" y2="389.34" stroke="#CBD5E1" stroke-width="2"/><line x1="838" y1="389.34" x2="838" y2="453.34" stroke="#CBD5E1" stroke-width="2"/><line x1="604" y1="453.34" x2="838" y2="453.34" stroke="#CBD5E1" stroke-width="2"/><line x1="604" y1="389.34" x2="604" y2="453.34" stroke="#CBD5E1" stroke-width="2"/><rect x="838" y="389.34" width="192" height="64" fill="#FEE2E2"/><line x1="838" y1="389.34" x2="1030" y2="389.34" stroke="#CBD5E1" stroke-width="2"/><line x1="1030" y1="389.34" x2="1030" y2="453.34" stroke="#CBD5E1" stroke-width="2"/><line x1="838" y1="453.34" x2="1030" y2="453.34" stroke="#CBD5E1" stroke-width="2"/><line x1="838" y1="389.34" x2="838" y2="453.34" stroke="#CBD5E1" stroke-width="2"/><rect x="1030" y="389.34" width="150" height="64" fill="#FFFFFF"/><line x1="1030" y1="389.34" x2="1180" y2="389.34" stroke="#CBD5E1" stroke-width="2"/><line x1="1180" y1="389.34" x2="1180" y2="453.34" stroke="#CBD5E1" stroke-width="2"/><line x1="1030" y1="453.34" x2="1180" y2="453.34" stroke="#CBD5E1" stroke-width="2"/><line x1="1030" y1="389.34" x2="1030" y2="453.34" stroke="#CBD5E1" stroke-width="2"/><rect x="1180" y="389.34" width="164" height="64" fill="#C6EFCE"/><line x1="1180" y1="389.34" x2="1344" y2="389.34" stroke="#CBD5E1" stroke-width="2"/><line x1="1344" y1="389.34" x2="1344" y2="453.34" stroke="#CBD5E1" stroke-width="2"/><line x1="1180" y1="453.34" x2="1344" y2="453.34" stroke="#CBD5E1" stroke-width="2"/><line x1="1180" y1="389.34" x2="1180" y2="453.34" stroke="#CBD5E1" stroke-width="2"/><clipPath id="xl-text-1-1"><rect x="0" y="0" width="1344" height="69.34"/></clipPath><g clip-path="url(#xl-text-1-1)"><text x="672" y="42.15" fill="#FFFFFF" font-family="Calibri, Arial, sans-serif" font-size="22" text-anchor="middle" font-weight="700">Conditional Signals</text></g><clipPath id="xl-text-2-1"><rect x="0" y="69.34" width="206" height="64"/></clipPath><g clip-path="url(#xl-text-2-1)"><text x="6" y="108.82" fill="#1F2937" font-family="Calibri, Arial, sans-serif" font-size="22" text-anchor="start" font-weight="700">Service</text></g><clipPath id="xl-text-2-2"><rect x="206" y="69.34" width="164" height="64"/></clipPath><g clip-path="url(#xl-text-2-2)"><text x="288" y="108.82" fill="#1F2937" font-family="Calibri, Arial, sans-serif" font-size="22" text-anchor="middle" font-weight="700">Heat</text></g><clipPath id="xl-text-2-3"><rect x="370" y="69.34" width="234" height="64"/></clipPath><g clip-path="url(#xl-text-2-3)"><text x="487" y="108.82" fill="#1F2937" font-family="Calibri, Arial, sans-serif" font-size="22" text-anchor="middle" font-weight="700">Load</text></g><clipPath id="xl-text-2-4"><rect x="604" y="69.34" width="234" height="64"/></clipPath><g clip-path="url(#xl-text-2-4)"><text x="721" y="108.82" fill="#1F2937" font-family="Calibri, Arial, sans-serif" font-size="22" text-anchor="middle" font-weight="700">Delta</text></g><clipPath id="xl-text-2-5"><rect x="838" y="69.34" width="192" height="64"/></clipPath><g clip-path="url(#xl-text-2-5)"><text x="844" y="108.82" fill="#1F2937" font-family="Calibri, Arial, sans-serif" font-size="22" text-anchor="start" font-weight="700">State</text></g><clipPath id="xl-text-2-6"><rect x="1030" y="69.34" width="150" height="64"/></clipPath><g clip-path="url(#xl-text-2-6)"><text x="1105" y="108.82" fill="#1F2937" font-family="Calibri, Arial, sans-serif" font-size="22" text-anchor="middle" font-weight="700">Icons</text></g><clipPath id="xl-text-2-7"><rect x="1180" y="69.34" width="164" height="64"/></clipPath><g clip-path="url(#xl-text-2-7)"><text x="1262" y="108.82" fill="#1F2937" font-family="Calibri, Arial, sans-serif" font-size="22" text-anchor="middle" font-weight="700">Rule</text></g><clipPath id="xl-text-3-1"><rect x="0" y="133.34" width="206" height="64"/></clipPath><g clip-path="url(#xl-text-3-1)"><text x="6" y="172.82" fill="#000000" font-family="Calibri, Arial, sans-serif" font-size="22" text-anchor="start">Auth</text></g><clipPath id="xl-text-3-2"><rect x="206" y="133.34" width="164" height="64"/></clipPath><g clip-path="url(#xl-text-3-2)"><text x="288" y="172.82" fill="#000000" font-family="Calibri, Arial, sans-serif" font-size="22" text-anchor="middle">12</text></g><clipPath id="xl-text-3-3"><rect x="370" y="133.34" width="234" height="64"/></clipPath><g clip-path="url(#xl-text-3-3)"><text x="487" y="172.82" fill="#000000" font-family="Calibri, Arial, sans-serif" font-size="22" text-anchor="middle">18</text></g><clipPath id="xl-text-3-4"><rect x="604" y="133.34" width="234" height="64"/></clipPath><g clip-path="url(#xl-text-3-4)"><text x="721" y="172.82" fill="#000000" font-family="Calibri, Arial, sans-serif" font-size="22" text-anchor="middle">-18</text></g><clipPath id="xl-text-3-5"><rect x="838" y="133.34" width="192" height="64"/></clipPath><g clip-path="url(#xl-text-3-5)"><text x="844" y="172.82" fill="#000000" font-family="Calibri, Arial, sans-serif" font-size="22" text-anchor="start">Quiet</text></g><clipPath id="xl-text-3-6"><rect x="1030" y="133.34" width="150" height="64"/></clipPath><g clip-path="url(#xl-text-3-6)"><text x="1105" y="172.82" fill="#000000" font-family="Calibri, Arial, sans-serif" font-size="22" text-anchor="middle">1</text></g><clipPath id="xl-text-3-7"><rect x="1180" y="133.34" width="164" height="64"/></clipPath><g clip-path="url(#xl-text-3-7)"><text x="1262" y="172.82" fill="#000000" font-family="Calibri, Arial, sans-serif" font-size="22" text-anchor="middle">5</text></g><clipPath id="xl-text-4-1"><rect x="0" y="197.34" width="206" height="64"/></clipPath><g clip-path="url(#xl-text-4-1)"><text x="6" y="236.82" fill="#000000" font-family="Calibri, Arial, sans-serif" font-size="22" text-anchor="start">Mail</text></g><clipPath id="xl-text-4-2"><rect x="206" y="197.34" width="164" height="64"/></clipPath><g clip-path="url(#xl-text-4-2)"><text x="288" y="236.82" fill="#000000" font-family="Calibri, Arial, sans-serif" font-size="22" text-anchor="middle">41</text></g><clipPath id="xl-text-4-3"><rect x="370" y="197.34" width="234" height="64"/></clipPath><g clip-path="url(#xl-text-4-3)"><text x="487" y="236.82" fill="#000000" font-family="Calibri, Arial, sans-serif" font-size="22" text-anchor="middle">39</text></g><clipPath id="xl-text-4-4"><rect x="604" y="197.34" width="234" height="64"/></clipPath><g clip-path="url(#xl-text-4-4)"><text x="721" y="236.82" fill="#000000" font-family="Calibri, Arial, sans-serif" font-size="22" text-anchor="middle">-6</text></g><clipPath id="xl-text-4-5"><rect x="838" y="197.34" width="192" height="64"/></clipPath><g clip-path="url(#xl-text-4-5)"><text x="844" y="236.82" fill="#000000" font-family="Calibri, Arial, sans-serif" font-size="22" text-anchor="start">Normal</text></g><clipPath id="xl-text-4-6"><rect x="1030" y="197.34" width="150" height="64"/></clipPath><g clip-path="url(#xl-text-4-6)"><text x="1105" y="236.82" fill="#000000" font-family="Calibri, Arial, sans-serif" font-size="22" text-anchor="middle">2</text></g><clipPath id="xl-text-4-7"><rect x="1180" y="197.34" width="164" height="64"/></clipPath><g clip-path="url(#xl-text-4-7)"><text x="1262" y="236.82" fill="#000000" font-family="Calibri, Arial, sans-serif" font-size="22" text-anchor="middle">20</text></g><clipPath id="xl-text-5-1"><rect x="0" y="261.34" width="206" height="64"/></clipPath><g clip-path="url(#xl-text-5-1)"><text x="6" y="300.82" fill="#000000" font-family="Calibri, Arial, sans-serif" font-size="22" text-anchor="start">Files</text></g><clipPath id="xl-text-5-2"><rect x="206" y="261.34" width="164" height="64"/></clipPath><g clip-path="url(#xl-text-5-2)"><text x="288" y="300.82" fill="#000000" font-family="Calibri, Arial, sans-serif" font-size="22" text-anchor="middle">63</text></g><clipPath id="xl-text-5-3"><rect x="370" y="261.34" width="234" height="64"/></clipPath><g clip-path="url(#xl-text-5-3)"><text x="487" y="300.82" fill="#000000" font-family="Calibri, Arial, sans-serif" font-size="22" text-anchor="middle">57</text></g><clipPath id="xl-text-5-4"><rect x="604" y="261.34" width="234" height="64"/></clipPath><g clip-path="url(#xl-text-5-4)"><text x="721" y="300.82" fill="#000000" font-family="Calibri, Arial, sans-serif" font-size="22" text-anchor="middle">4</text></g><clipPath id="xl-text-5-5"><rect x="838" y="261.34" width="192" height="64"/></clipPath><g clip-path="url(#xl-text-5-5)"><text x="844" y="300.82" fill="#000000" font-family="Calibri, Arial, sans-serif" font-size="22" text-anchor="start">Busy</text></g><clipPath id="xl-text-5-6"><rect x="1030" y="261.34" width="150" height="64"/></clipPath><g clip-path="url(#xl-text-5-6)"><text x="1105" y="300.82" fill="#000000" font-family="Calibri, Arial, sans-serif" font-size="22" text-anchor="middle">3</text></g><clipPath id="xl-text-5-7"><rect x="1180" y="261.34" width="164" height="64"/></clipPath><g clip-path="url(#xl-text-5-7)"><text x="1262" y="300.82" fill="#000000" font-family="Calibri, Arial, sans-serif" font-size="22" text-anchor="middle">30</text></g><clipPath id="xl-text-6-1"><rect x="0" y="325.34" width="206" height="64"/></clipPath><g clip-path="url(#xl-text-6-1)"><text x="6" y="364.82" fill="#000000" font-family="Calibri, Arial, sans-serif" font-size="22" text-anchor="start">Sync</text></g><clipPath id="xl-text-6-2"><rect x="206" y="325.34" width="164" height="64"/></clipPath><g clip-path="url(#xl-text-6-2)"><text x="288" y="364.82" fill="#000000" font-family="Calibri, Arial, sans-serif" font-size="22" text-anchor="middle">78</text></g><clipPath id="xl-text-6-3"><rect x="370" y="325.34" width="234" height="64"/></clipPath><g clip-path="url(#xl-text-6-3)"><text x="487" y="364.82" fill="#000000" font-family="Calibri, Arial, sans-serif" font-size="22" text-anchor="middle">74</text></g><clipPath id="xl-text-6-4"><rect x="604" y="325.34" width="234" height="64"/></clipPath><g clip-path="url(#xl-text-6-4)"><text x="721" y="364.82" fill="#000000" font-family="Calibri, Arial, sans-serif" font-size="22" text-anchor="middle">16</text></g><clipPath id="xl-text-6-5"><rect x="838" y="325.34" width="192" height="64"/></clipPath><g clip-path="url(#xl-text-6-5)"><text x="844" y="364.82" fill="#000000" font-family="Calibri, Arial, sans-serif" font-size="22" text-anchor="start">Hot</text></g><clipPath id="xl-text-6-6"><rect x="1030" y="325.34" width="150" height="64"/></clipPath><g clip-path="url(#xl-text-6-6)"><text x="1105" y="364.82" fill="#000000" font-family="Calibri, Arial, sans-serif" font-size="22" text-anchor="middle">4</text></g><clipPath id="xl-text-6-7"><rect x="1180" y="325.34" width="164" height="64"/></clipPath><g clip-path="url(#xl-text-6-7)"><text x="1262" y="364.82" fill="#000000" font-family="Calibri, Arial, sans-serif" font-size="22" text-anchor="middle">8</text></g><clipPath id="xl-text-7-1"><rect x="0" y="389.34" width="206" height="64"/></clipPath><g clip-path="url(#xl-text-7-1)"><text x="6" y="428.82" fill="#000000" font-family="Calibri, Arial, sans-serif" font-size="22" text-anchor="start">Edge</text></g><clipPath id="xl-text-7-2"><rect x="206" y="389.34" width="164" height="64"/></clipPath><g clip-path="url(#xl-text-7-2)"><text x="288" y="428.82" fill="#000000" font-family="Calibri, Arial, sans-serif" font-size="22" text-anchor="middle">94</text></g><clipPath id="xl-text-7-3"><rect x="370" y="389.34" width="234" height="64"/></clipPath><g clip-path="url(#xl-text-7-3)"><text x="487" y="428.82" fill="#000000" font-family="Calibri, Arial, sans-serif" font-size="22" text-anchor="middle">96</text></g><clipPath id="xl-text-7-4"><rect x="604" y="389.34" width="234" height="64"/></clipPath><g clip-path="url(#xl-text-7-4)"><text x="721" y="428.82" fill="#000000" font-family="Calibri, Arial, sans-serif" font-size="22" text-anchor="middle">28</text></g><clipPath id="xl-text-7-5"><rect x="838" y="389.34" width="192" height="64"/></clipPath><g clip-path="url(#xl-text-7-5)"><text x="844" y="428.82" fill="#000000" font-family="Calibri, Arial, sans-serif" font-size="22" text-anchor="start">Critical</text></g><clipPath id="xl-text-7-6"><rect x="1030" y="389.34" width="150" height="64"/></clipPath><g clip-path="url(#xl-text-7-6)"><text x="1105" y="428.82" fill="#000000" font-family="Calibri, Arial, sans-serif" font-size="22" text-anchor="middle">5</text></g><clipPath id="xl-text-7-7"><rect x="1180" y="389.34" width="164" height="64"/></clipPath><g clip-path="url(#xl-text-7-7)"><text x="1262" y="428.82" fill="#000000" font-family="Calibri, Arial, sans-serif" font-size="22" text-anchor="middle">16</text></g></svg>