<svg xmlns="http://www.w3.org/2000/svg" width="960" height="454" viewBox="0 0 960 454"><rect x="0" y="0" width="960" height="454" fill="#FFFFFF"/><rect x="0" y="0" width="960" height="69.34" fill="#0F172A"/><rect x="0" y="69.34" width="192" height="64" fill="#E2E8F0"/><line x1="0" y1="69.34" x2="192" y2="69.34" stroke="#CBD5E1" stroke-width="2"/><line x1="192" y1="69.34" x2="192" y2="133.34" stroke="#CBD5E1" stroke-width="2"/><line x1="0" y1="133.34" x2="192" y2="133.34" stroke="#CBD5E1" stroke-width="2"/><line x1="0" y1="69.34" x2="0" y2="133.34" stroke="#CBD5E1" stroke-width="2"/><rect x="192" y="69.34" width="192" height="64" fill="#E2E8F0"/><line x1="192" y1="69.34" x2="384" y2="69.34" stroke="#CBD5E1" stroke-width="2"/><line x1="384" y1="69.34" x2="384" y2="133.34" stroke="#CBD5E1" stroke-width="2"/><line x1="192" y1="133.34" x2="384" y2="133.34" stroke="#CBD5E1" stroke-width="2"/><line x1="192" y1="69.34" x2="192" y2="133.34" stroke="#CBD5E1" stroke-width="2"/><rect x="384" y="69.34" width="192" height="64" fill="#E2E8F0"/><line x1="384" y1="69.34" x2="576" y2="69.34" stroke="#CBD5E1" stroke-width="2"/><line x1="576" y1="69.34" x2="576" y2="133.34" stroke="#CBD5E1" stroke-width="2"/><line x1="384" y1="133.34" x2="576" y2="133.34" stroke="#CBD5E1" stroke-width="2"/><line x1="384" y1="69.34" x2="384" y2="133.34" stroke="#CBD5E1" stroke-width="2"/><rect x="576" y="69.34" width="192" height="64" fill="#E2E8F0"/><line x1="576" y1="69.34" x2="768" y2="69.34" stroke="#CBD5E1" stroke-width="2"/><line x1="768" y1="69.34" x2="768" y2="133.34" stroke="#CBD5E1" stroke-width="2"/><line x1="576" y1="133.34" x2="768" y2="133.34" stroke="#CBD5E1" stroke-width="2"/><line x1="576" y1="69.34" x2="576" y2="133.34" stroke="#CBD5E1" stroke-width="2"/><rect x="768" y="69.34" width="192" height="64" fill="#E2E8F0"/><line x1="768" y1="69.34" x2="960" y2="69.34" stroke="#CBD5E1" stroke-width="2"/><line x1="960" y1="69.34" x2="960" y2="133.34" stroke="#CBD5E1" stroke-width="2"/><line x1="768" y1="133.34" x2="960" y2="133.34" stroke="#CBD5E1" stroke-width="2"/><line x1="768" y1="69.34" x2="768" y2="133.34" stroke="#CBD5E1" stroke-width="2"/><rect x="0" y="133.34" width="192" height="64" fill="#FFFFFF"/><line x1="0" y1="133.34" x2="192" y2="133.34" stroke="#CBD5E1" stroke-width="2"/><line x1="192" y1="133.34" x2="192" y2="197.34" stroke="#CBD5E1" stroke-width="2"/><line x1="0" y1="197.34" x2="192" y2="197.34" stroke="#CBD5E1" stroke-width="2"/><line x1="0" y1="133.34" x2="0" y2="197.34" stroke="#CBD5E1" stroke-width="2"/><rect x="192" y="133.34" width="192" height="64" fill="#FFFFFF"/><line x1="192" y1="133.34" x2="384" y2="133.34" stroke="#CBD5E1" stroke-width="2"/><line x1="384" y1="133.34" x2="384" y2="197.34" stroke="#CBD5E1" stroke-width="2"/><line x1="192" y1="197.34" x2="384" y2="197.34" stroke="#CBD5E1" stroke-width="2"/><line x1="192" y1="133.34" x2="192" y2="197.34" stroke="#CBD5E1" stroke-width="2"/><rect x="384" y="133.34" width="192" height="64" fill="#FFFFFF"/><line x1="384" y1="133.34" x2="576" y2="133.34" stroke="#CBD5E1" stroke-width="2"/><line x1="576" y1="133.34" x2="576" y2="197.34" stroke="#CBD5E1" stroke-width="2"/><line x1="384" y1="197.34" x2="576" y2="197.34" stroke="#CBD5E1" stroke-width="2"/><line x1="384" y1="133.34" x2="384" y2="197.34" stroke="#CBD5E1" stroke-width="2"/><rect x="576" y="133.34" width="192" height="64" fill="#FFFFFF"/><line x1="576" y1="133.34" x2="768" y2="133.34" stroke="#CBD5E1" stroke-width="2"/><line x1="768" y1="133.34" x2="768" y2="197.34" stroke="#CBD5E1" stroke-width="2"/><line x1="576" y1="197.34" x2="768" y2="197.34" stroke="#CBD5E1" stroke-width="2"/><line x1="576" y1="133.34" x2="576" y2="197.34" stroke="#CBD5E1" stroke-width="2"/><rect x="768" y="133.34" width="192" height="64" fill="#FFFFFF"/><line x1="768" y1="133.34" x2="960" y2="133.34" stroke="#CBD5E1" stroke-width="2"/><line x1="960" y1="133.34" x2="960" y2="197.34" stroke="#CBD5E1" stroke-width="2"/><line x1="768" y1="197.34" x2="960" y2="197.34" stroke="#CBD5E1" stroke-width="2"/><line x1="768" y1="133.34" x2="768" y2="197.34" stroke="#CBD5E1" stroke-width="2"/><rect x="0" y="197.34" width="192" height="64" fill="#FFFFFF"/><line x1="0" y1="197.34" x2="192" y2="197.34" stroke="#CBD5E1" stroke-width="2"/><line x1="192" y1="197.34" x2="192" y2="261.34" stroke="#CBD5E1" stroke-width="2"/><line x1="0" y1="261.34" x2="192" y2="261.34" stroke="#CBD5E1" stroke-width="2"/><line x1="0" y1="197.34" x2="0" y2="261.34" stroke="#CBD5E1" stroke-width="2"/><rect x="192" y="197.34" width="192" height="64" fill="#FFFFFF"/><line x1="192" y1="197.34" x2="384" y2="197.34" stroke="#CBD5E1" stroke-width="2"/><line x1="384" y1="197.34" x2="384" y2="261.34" stroke="#CBD5E1" stroke-width="2"/><line x1="192" y1="261.34" x2="384" y2="261.34" stroke="#CBD5E1" stroke-width="2"/><line x1="192" y1="197.34" x2="192" y2="261.34" stroke="#CBD5E1" stroke-width="2"/><rect x="384" y="197.34" width="192" height="64" fill="#FFFFFF"/><line x1="384" y1="197.34" x2="576" y2="197.34" stroke="#CBD5E1" stroke-width="2"/><line x1="576" y1="197.34" x2="576" y2="261.34" stroke="#CBD5E1" stroke-width="2"/><line x1="384" y1="261.34" x2="576" y2="261.34" stroke="#CBD5E1" stroke-width="2"/><line x1="384" y1="197.34" x2="384" y2="261.34" stroke="#CBD5E1" stroke-width="2"/><rect x="576" y="197.34" width="192" height="64" fill="#FFFFFF"/><line x1="576" y1="197.34" x2="768" y2="197.34" stroke="#CBD5E1" stroke-width="2"/><line x1="768" y1="197.34" x2="768" y2="261.34" stroke="#CBD5E1" stroke-width="2"/><line x1="576" y1="261.34" x2="768" y2="261.34" stroke="#CBD5E1" stroke-width="2"/><line x1="576" y1="197.34" x2="576" y2="261.34" stroke="#CBD5E1" stroke-width="2"/><rect x="768" y="197.34" width="192" height="64" fill="#FFFFFF"/><line x1="768" y1="197.34" x2="960" y2="197.34" stroke="#CBD5E1" stroke-width="2"/><line x1="960" y1="197.34" x2="960" y2="261.34" stroke="#CBD5E1" stroke-width="2"/><line x1="768" y1="261.34" x2="960" y2="261.34" stroke="#CBD5E1" stroke-width="2"/><line x1="768" y1="197.34" x2="768" y2="261.34" stroke="#CBD5E1" stroke-width="2"/><rect x="0" y="261.34" width="192" height="64" fill="#FFFFFF"/><line x1="0" y1="261.34" x2="192" y2="261.34" stroke="#CBD5E1" stroke-width="2"/><line x1="192" y1="261.34" x2="192" y2="325.34" stroke="#CBD5E1" stroke-width="2"/><line x1="0" y1="325.34" x2="192" y2="325.34" stroke="#CBD5E1" stroke-width="2"/><line x1="0" y1="261.34" x2="0" y2="325.34" stroke="#CBD5E1" stroke-width="2"/><rect x="192" y="261.34" width="192" height="64" fill="#FFFFFF"/><line x1="192" y1="261.34" x2="384" y2="261.34" stroke="#CBD5E1" stroke-width="2"/><line x1="384" y1="261.34" x2="384" y2="325.34" stroke="#CBD5E1" stroke-width="2"/><line x1="192" y1="325.34" x2="384" y2="325.34" stroke="#CBD5E1" stroke-width="2"/><line x1="192" y1="261.34" x2="192" y2="325.34" stroke="#CBD5E1" stroke-width="2"/><rect x="384" y="261.34" width="192" height="64" fill="#FFFFFF"/><line x1="384" y1="261.34" x2="576" y2="261.34" stroke="#CBD5E1" stroke-width="2"/><line x1="576" y1="261.34" x2="576" y2="325.34" stroke="#CBD5E1" stroke-width="2"/><line x1="384" y1="325.34" x2="576" y2="325.34" stroke="#CBD5E1" stroke-width="2"/><line x1="384" y1="261.34" x2="384" y2="325.34" stroke="#CBD5E1" stroke-width="2"/><rect x="576" y="261.34" width="192" height="64" fill="#FFFFFF"/><line x1="576" y1="261.34" x2="768" y2="261.34" stroke="#CBD5E1" stroke-width="2"/><line x1="768" y1="261.34" x2="768" y2="325.34" stroke="#CBD5E1" stroke-width="2"/><line x1="576" y1="325.34" x2="768" y2="325.34" stroke="#CBD5E1" stroke-width="2"/><line x1="576" y1="261.34" x2="576" y2="325.34" stroke="#CBD5E1" stroke-width="2"/><rect x="768" y="261.34" width="192" height="64" fill="#FFFFFF"/><line x1="768" y1="261.34" x2="960" y2="261.34" stroke="#CBD5E1" stroke-width="2"/><line x1="960" y1="261.34" x2="960" y2="325.34" stroke="#CBD5E1" stroke-width="2"/><line x1="768" y1="325.34" x2="960" y2="325.34" stroke="#CBD5E1" stroke-width="2"/><line x1="768" y1="261.34" x2="768" y2="325.34" stroke="#CBD5E1" stroke-width="2"/><rect x="0" y="325.34" width="192" height="64" fill="#FFFFFF"/><line x1="0" y1="325.34" x2="192" y2="325.34" stroke="#CBD5E1" stroke-width="2"/><line x1="192" y1="325.34" x2="192" y2="389.34" stroke="#CBD5E1" stroke-width="2"/><line x1="0" y1="389.34" x2="192" y2="389.34" stroke="#CBD5E1" stroke-width="2"/><line x1="0" y1="325.34" x2="0" y2="389.34" stroke="#CBD5E1" stroke-width="2"/><rect x="192" y="325.34" width="192" height="64" fill="#FFFFFF"/><line x1="192" y1="325.34" x2="384" y2="325.34" stroke="#CBD5E1" stroke-width="2"/><line x1="384" y1="325.34" x2="384" y2="389.34" stroke="#CBD5E1" stroke-width="2"/><line x1="192" y1="389.34" x2="384" y2="389.34" stroke="#CBD5E1" stroke-width="2"/><line x1="192" y1="325.34" x2="192" y2="389.34" stroke="#CBD5E1" stroke-width="2"/><rect x="384" y="325.34" width="192" height="64" fill="#FFFFFF"/><line x1="384" y1="325.34" x2="576" y2="325.34" stroke="#CBD5E1" stroke-width="2"/><line x1="576" y1="325.34" x2="576" y2="389.34" stroke="#CBD5E1" stroke-width="2"/><line x1="384" y1="389.34" x2="576" y2="389.34" stroke="#CBD5E1" stroke-width="2"/><line x1="384" y1="325.34" x2="384" y2="389.34" stroke="#CBD5E1" stroke-width="2"/><rect x="576" y="325.34" width="192" height="64" fill="#FFFFFF"/><line x1="576" y1="325.34" x2="768" y2="325.34" stroke="#CBD5E1" stroke-width="2"/><line x1="768" y1="325.34" x2="768" y2="389.34" stroke="#CBD5E1" stroke-width="2"/><line x1="576" y1="389.34" x2="768" y2="389.34" stroke="#CBD5E1" stroke-width="2"/><line x1="576" y1="325.34" x2="576" y2="389.34" stroke="#CBD5E1" stroke-width="2"/><rect x="768" y="325.34" width="192" height="64" fill="#FFFFFF"/><line x1="768" y1="325.34" x2="960" y2="325.34" stroke="#CBD5E1" stroke-width="2"/><line x1="960" y1="325.34" x2="960" y2="389.34" stroke="#CBD5E1" stroke-width="2"/><line x1="768" y1="389.34" x2="960" y2="389.34" stroke="#CBD5E1" stroke-width="2"/><line x1="768" y1="325.34" x2="768" y2="389.34" stroke="#CBD5E1" stroke-width="2"/><rect x="0" y="389.34" width="192" height="64" fill="#FFFFFF"/><line x1="0" y1="389.34" x2="192" y2="389.34" stroke="#CBD5E1" stroke-width="2"/><line x1="192" y1="389.34" x2="192" y2="453.34" stroke="#CBD5E1" stroke-width="2"/><line x1="0" y1="453.34" x2="192" y2="453.34" stroke="#CBD5E1" stroke-width="2"/><line x1="0" y1="389.34" x2="0" y2="453.34" stroke="#CBD5E1" stroke-width="2"/><rect x="192" y="389.34" width="192" height="64" fill="#FFFFFF"/><line x1="192" y1="389.34" x2="384" y2="389.34" stroke="#CBD5E1" stroke-width="2"/><line x1="384" y1="389.34" x2="384" y2="453.34" stroke="#CBD5E1" stroke-width="2"/><line x1="192" y1="453.34" x2="384" y2="453.34" stroke="#CBD5E1" stroke-width="2"/><line x1="192" y1="389.34" x2="192" y2="453.34" stroke="#CBD5E1" stroke-width="2"/><rect x="384" y="389.34" width="192" height="64" fill="#FFFFFF"/><line x1="384" y1="389.34" x2="576" y2="389.34" stroke="#CBD5E1" stroke-width="2"/><line x1="576" y1="389.34" x2="576" y2="453.34" stroke="#CBD5E1" stroke-width="2"/><line x1="384" y1="453.34" x2="576" y2="453.34" stroke="#CBD5E1" stroke-width="2"/><line x1="384" y1="389.34" x2="384" y2="453.34" stroke="#CBD5E1" stroke-width="2"/><rect x="576" y="389.34" width="192" height="64" fill="#FFFFFF"/><line x1="576" y1="389.34" x2="768" y2="389.34" stroke="#CBD5E1" stroke-width="2"/><line x1="768" y1="389.34" x2="768" y2="453.34" stroke="#CBD5E1" stroke-width="2"/><line x1="576" y1="453.34" x2="768" y2="453.34" stroke="#CBD5E1" stroke-width="2"/><line x1="576" y1="389.34" x2="576" y2="453.34" stroke="#CBD5E1" stroke-width="2"/><rect x="768" y="389.34" width="192" height="64" fill="#FFFFFF"/><line x1="768" y1="389.34" x2="960" y2="389.34" stroke="#CBD5E1" stroke-width="2"/><line x1="960" y1="389.34" x2="960" y2="453.34" stroke="#CBD5E1" stroke-width="2"/><line x1="768" y1="453.34" x2="960" y2="453.34" stroke="#CBD5E1" stroke-width="2"/><line x1="768" y1="389.34" x2="768" y2="453.34" stroke="#CBD5E1" stroke-width="2"/><clipPath id="xl-text-1-1"><rect x="0" y="0" width="960" height="69.34"/></clipPath><g clip-path="url(#xl-text-1-1)"><text x="480" y="42.15" fill="#FFFFFF" font-family="Calibri, Arial, sans-serif" font-size="22" text-anchor="middle" font-weight="700">Expanded Icon Sets</text></g><clipPath id="xl-text-2-1"><rect x="0" y="69.34" width="192" height="64"/></clipPath><g clip-path="url(#xl-text-2-1)"><text x="6" y="108.82" fill="#1F2937" font-family="Calibri, Arial, sans-serif" font-size="22" text-anchor="start" font-weight="700">Tier</text></g><clipPath id="xl-text-2-2"><rect x="192" y="69.34" width="192" height="64"/></clipPath><g clip-path="url(#xl-text-2-2)"><text x="288" y="108.82" fill="#1F2937" font-family="Calibri, Arial, sans-serif" font-size="22" text-anchor="middle" font-weight="700">Five arrows</text></g><clipPath id="xl-text-2-3"><rect x="384" y="69.34" width="192" height="64"/></clipPath><g clip-path="url(#xl-text-2-3)"><text x="480" y="108.82" fill="#1F2937" font-family="Calibri, Arial, sans-serif" font-size="22" text-anchor="middle" font-weight="700">Arrow value</text></g><clipPath id="xl-text-2-4"><rect x="576" y="69.34" width="192" height="64"/></clipPath><g clip-path="url(#xl-text-2-4)"><text x="672" y="108.82" fill="#1F2937" font-family="Calibri, Arial, sans-serif" font-size="22" text-anchor="middle" font-weight="700">Four traffic</text></g><clipPath id="xl-text-2-5"><rect x="768" y="69.34" width="192" height="64"/></clipPath><g clip-path="url(#xl-text-2-5)"><text x="864" y="108.82" fill="#1F2937" font-family="Calibri, Arial, sans-serif" font-size="22" text-anchor="middle" font-weight="700">Traffic value</text></g><clipPath id="xl-text-3-1"><rect x="0" y="133.34" width="192" height="64"/></clipPath><g clip-path="url(#xl-text-3-1)"><text x="6" y="172.82" fill="#000000" font-family="Calibri, Arial, sans-serif" font-size="22" text-anchor="start">Lowest</text></g><clipPath id="xl-text-3-2"><rect x="247.36" y="133.34" width="136.64" height="64"/></clipPath><g clip-path="url(#xl-text-3-2)"><text x="315.68" y="172.82" fill="#000000" font-family="Calibri, Arial, sans-serif" font-size="22" text-anchor="middle">1</text></g><clipPath id="xl-text-3-3"><rect x="384" y="133.34" width="192" height="64"/></clipPath><g clip-path="url(#xl-text-3-3)"><text x="480" y="172.82" fill="#000000" font-family="Calibri, Arial, sans-serif" font-size="22" text-anchor="middle">1</text></g><clipPath id="xl-text-3-4"><rect x="631.36" y="133.34" width="136.64" height="64"/></clipPath><g clip-path="url(#xl-text-3-4)"><text x="699.68" y="172.82" fill="#000000" font-family="Calibri, Arial, sans-serif" font-size="22" text-anchor="middle">1</text></g><clipPath id="xl-text-3-5"><rect x="768" y="133.34" width="192" height="64"/></clipPath><g clip-path="url(#xl-text-3-5)"><text x="864" y="172.82" fill="#000000" font-family="Calibri, Arial, sans-serif" font-size="22" text-anchor="middle">1</text></g><clipPath id="xl-text-4-1"><rect x="0" y="197.34" width="192" height="64"/></clipPath><g clip-path="url(#xl-text-4-1)"><text x="6" y="236.82" fill="#000000" font-family="Calibri, Arial, sans-serif" font-size="22" text-anchor="start">Low</text></g><clipPath id="xl-text-4-2"><rect x="247.36" y="197.34" width="136.64" height="64"/></clipPath><g clip-path="url(#xl-text-4-2)"><text x="315.68" y="236.82" fill="#000000" font-family="Calibri, Arial, sans-serif" font-size="22" text-anchor="middle">2</text></g><clipPath id="xl-text-4-3"><rect x="384" y="197.34" width="192" height="64"/></clipPath><g clip-path="url(#xl-text-4-3)"><text x="480" y="236.82" fill="#000000" font-family="Calibri, Arial, sans-serif" font-size="22" text-anchor="middle">2</text></g><clipPath id="xl-text-4-4"><rect x="631.36" y="197.34" width="136.64" height="64"/></clipPath><g clip-path="url(#xl-text-4-4)"><text x="699.68" y="236.82" fill="#000000" font-family="Calibri, Arial, sans-serif" font-size="22" text-anchor="middle">2</text></g><clipPath id="xl-text-4-5"><rect x="768" y="197.34" width="192" height="64"/></clipPath><g clip-path="url(#xl-text-4-5)"><text x="864" y="236.82" fill="#000000" font-family="Calibri, Arial, sans-serif" font-size="22" text-anchor="middle">2</text></g><clipPath id="xl-text-5-1"><rect x="0" y="261.34" width="192" height="64"/></clipPath><g clip-path="url(#xl-text-5-1)"><text x="6" y="300.82" fill="#000000" font-family="Calibri, Arial, sans-serif" font-size="22" text-anchor="start">Middle</text></g><clipPath id="xl-text-5-2"><rect x="247.36" y="261.34" width="136.64" height="64"/></clipPath><g clip-path="url(#xl-text-5-2)"><text x="315.68" y="300.82" fill="#000000" font-family="Calibri, Arial, sans-serif" font-size="22" text-anchor="middle">3</text></g><clipPath id="xl-text-5-3"><rect x="384" y="261.34" width="192" height="64"/></clipPath><g clip-path="url(#xl-text-5-3)"><text x="480" y="300.82" fill="#000000" font-family="Calibri, Arial, sans-serif" font-size="22" text-anchor="middle">3</text></g><clipPath id="xl-text-5-4"><rect x="631.36" y="261.34" width="136.64" height="64"/></clipPath><g clip-path="url(#xl-text-5-4)"><text x="699.68" y="300.82" fill="#000000" font-family="Calibri, Arial, sans-serif" font-size="22" text-anchor="middle">3</text></g><clipPath id="xl-text-5-5"><rect x="768" y="261.34" width="192" height="64"/></clipPath><g clip-path="url(#xl-text-5-5)"><text x="864" y="300.82" fill="#000000" font-family="Calibri, Arial, sans-serif" font-size="22" text-anchor="middle">3</text></g><clipPath id="xl-text-6-1"><rect x="0" y="325.34" width="192" height="64"/></clipPath><g clip-path="url(#xl-text-6-1)"><text x="6" y="364.82" fill="#000000" font-family="Calibri, Arial, sans-serif" font-size="22" text-anchor="start">High</text></g><clipPath id="xl-text-6-2"><rect x="247.36" y="325.34" width="136.64" height="64"/></clipPath><g clip-path="url(#xl-text-6-2)"><text x="315.68" y="364.82" fill="#000000" font-family="Calibri, Arial, sans-serif" font-size="22" text-anchor="middle">4</text></g><clipPath id="xl-text-6-3"><rect x="384" y="325.34" width="192" height="64"/></clipPath><g clip-path="url(#xl-text-6-3)"><text x="480" y="364.82" fill="#000000" font-family="Calibri, Arial, sans-serif" font-size="22" text-anchor="middle">4</text></g><clipPath id="xl-text-6-4"><rect x="631.36" y="325.34" width="136.64" height="64"/></clipPath><g clip-path="url(#xl-text-6-4)"><text x="699.68" y="364.82" fill="#000000" font-family="Calibri, Arial, sans-serif" font-size="22" text-anchor="middle">4</text></g><clipPath id="xl-text-6-5"><rect x="768" y="325.34" width="192" height="64"/></clipPath><g clip-path="url(#xl-text-6-5)"><text x="864" y="364.82" fill="#000000" font-family="Calibri, Arial, sans-serif" font-size="22" text-anchor="middle">4</text></g><clipPath id="xl-text-7-1"><rect x="0" y="389.34" width="192" height="64"/></clipPath><g clip-path="url(#xl-text-7-1)"><text x="6" y="428.82" fill="#000000" font-family="Calibri, Arial, sans-serif" font-size="22" text-anchor="start">Highest</text></g><clipPath id="xl-text-7-2"><rect x="247.36" y="389.34" width="136.64" height="64"/></clipPath><g clip-path="url(#xl-text-7-2)"><text x="315.68" y="428.82" fill="#000000" font-family="Calibri, Arial, sans-serif" font-size="22" text-anchor="middle">5</text></g><clipPath id="xl-text-7-3"><rect x="384" y="389.34" width="192" height="64"/></clipPath><g clip-path="url(#xl-text-7-3)"><text x="480" y="428.82" fill="#000000" font-family="Calibri, Arial, sans-serif" font-size="22" text-anchor="middle">5</text></g><clipPath id="xl-text-7-4"><rect x="631.36" y="389.34" width="136.64" height="64"/></clipPath><g clip-path="url(#xl-text-7-4)"><text x="699.68" y="428.82" fill="#000000" font-family="Calibri, Arial, sans-serif" font-size="22" text-anchor="middle">4</text></g><clipPath id="xl-text-7-5"><rect x="768" y="389.34" width="192" height="64"/></clipPath><g clip-path="url(#xl-text-7-5)"><text x="864" y="428.82" fill="#000000" font-family="Calibri, Arial, sans-serif" font-size="22" text-anchor="middle">4</text></g><path d="M 218.88 151.9 L 227.84 151.9 L 227.84 166.62 L 234.88 166.62 L 223.36 178.78 L 211.84 166.62 L 218.88 166.62 Z" fill="#DC2626" stroke="#B91C1C" stroke-width="2"/><path d="M 218.88 215.9 L 227.84 215.9 L 227.84 230.62 L 234.88 230.62 L 223.36 242.78 L 211.84 230.62 L 218.88 230.62 Z" fill="#F59E0B" stroke="#B45309" stroke-width="2"/><path d="M 210.56 288.86 L 225.28 288.86 L 225.28 281.82 L 236.8 293.34 L 225.28 304.86 L 225.28 297.82 L 210.56 297.82 Z" fill="#F59E0B" stroke="#B45309" stroke-width="2"/><path d="M 218.88 370.78 L 227.84 370.78 L 227.84 356.06 L 234.88 356.06 L 223.36 343.9 L 211.84 356.06 L 218.88 356.06 Z" fill="#F59E0B" stroke="#B45309" stroke-width="2"/><path d="M 218.88 434.78 L 227.84 434.78 L 227.84 420.06 L 234.88 420.06 L 223.36 407.9 L 211.84 420.06 L 218.88 420.06 Z" fill="#16A34A" stroke="#15803D" stroke-width="2"/><circle cx="607.36" cy="165.34" r="16" fill="#DC2626" stroke="#B91C1C" stroke-width="2.286"/><circle cx="607.36" cy="229.34" r="16" fill="#F97316" stroke="#C2410C" stroke-width="2.286"/><circle cx="607.36" cy="293.34" r="16" fill="#F59E0B" stroke="#B45309" stroke-width="2.286"/><circle cx="607.36" cy="357.34" r="16" fill="#16A34A" stroke="#15803D" stroke-width="2.286"/><circle cx="607.36" cy="421.34" r="16" fill="#16A34A" stroke="#15803D" stroke-width="2.286"/></svg>