<svg xmlns="http://www.w3.org/2000/svg" width="1056" height="872" viewBox="0 0 1056 872"><rect x="0" y="0" width="1056" height="872" fill="#FFFFFF"/><defs><clipPath id="xl-header-footer-header-center"><rect x="356" y="0" width="344" height="28"/></clipPath></defs><g clip-path="url(#xl-header-footer-header-center)"><text x="439.066" y="20" font-family="Calibri, Arial, sans-serif" font-size="12" text-anchor="start" fill="#1F2937" font-weight="700">Page 2 / 2 - PageLayout</text></g><defs><clipPath id="xl-header-footer-footer-right"><rect x="704" y="844" width="344" height="28"/></clipPath></defs><g clip-path="url(#xl-header-footer-footer-right)"><text x="978.419" y="864" font-family="Calibri, Arial, sans-serif" font-size="12" text-anchor="start" fill="#1F2937" font-style="italic">Reviewed</text></g><svg x="0" y="28" width="1056" height="816" viewBox="0 0 1056 816"><rect x="0" y="0" width="1056" height="816" fill="#FFFFFF"/><svg x="33.6" y="33.6" width="972" height="444" viewBox="0 0 972 444"><rect x="0" y="0" width="972" height="444" fill="#FFFFFF"/><svg x="0" y="0" width="972" height="43" viewBox="0 0 972 43"><rect x="0" y="0" width="972" height="43" fill="#FFFFFF"/><rect x="0" y="0" width="299" height="42.67" fill="#0F172A"/><line x1="0" y1="0" x2="299" y2="0" stroke="#94A3B8" stroke-width="1"/><line x1="299" y1="0" x2="299" y2="42.67" stroke="#94A3B8" stroke-width="1"/><line x1="0" y1="42.67" x2="299" y2="42.67" stroke="#94A3B8" stroke-width="1"/><line x1="0" y1="0" x2="0" y2="42.67" stroke="#94A3B8" stroke-width="1"/><rect x="299" y="0" width="271" height="42.67" fill="#0F172A"/><line x1="299" y1="0" x2="570" y2="0" stroke="#94A3B8" stroke-width="1"/><line x1="570" y1="0" x2="570" y2="42.67" stroke="#94A3B8" stroke-width="1"/><line x1="299" y1="42.67" x2="570" y2="42.67" stroke="#94A3B8" stroke-width="1"/><line x1="299" y1="0" x2="299" y2="42.67" stroke="#94A3B8" stroke-width="1"/><rect x="570" y="0" width="215" height="42.67" fill="#0F172A"/><line x1="570" y1="0" x2="785" y2="0" stroke="#94A3B8" stroke-width="1"/><line x1="785" y1="0" x2="785" y2="42.67" stroke="#94A3B8" stroke-width="1"/><line x1="570" y1="42.67" x2="785" y2="42.67" stroke="#94A3B8" stroke-width="1"/><line x1="570" y1="0" x2="570" y2="42.67" stroke="#94A3B8" stroke-width="1"/><rect x="785" y="0" width="187" height="42.67" fill="#0F172A"/><line x1="785" y1="0" x2="972" y2="0" stroke="#94A3B8" stroke-width="1"/><line x1="972" y1="0" x2="972" y2="42.67" stroke="#94A3B8" stroke-width="1"/><line x1="785" y1="42.67" x2="972" y2="42.67" stroke="#94A3B8" stroke-width="1"/><line x1="785" y1="0" x2="785" y2="42.67" stroke="#94A3B8" stroke-width="1"/><clipPath id="xl-text-1-1"><rect x="0" y="0" width="299" height="42.67"/></clipPath><g clip-path="url(#xl-text-1-1)"><text x="149.5" y="25.415" fill="#FFFFFF" font-family="Calibri, Arial, sans-serif" font-size="12" text-anchor="middle" font-weight="700">Region</text></g><clipPath id="xl-text-1-2"><rect x="299" y="0" width="271" height="42.67"/></clipPath><g clip-path="url(#xl-text-1-2)"><text x="434.5" y="25.415" fill="#FFFFFF" font-family="Calibri, Arial, sans-serif" font-size="12" text-anchor="middle" font-weight="700">Owner</text></g><clipPath id="xl-text-1-3"><rect x="570" y="0" width="215" height="42.67"/></clipPath><g clip-path="url(#xl-text-1-3)"><text x="677.5" y="25.415" fill="#FFFFFF" font-family="Calibri, Arial, sans-serif" font-size="12" text-anchor="middle" font-weight="700">Status</text></g><clipPath id="xl-text-1-4"><rect x="785" y="0" width="187" height="42.67"/></clipPath><g clip-path="url(#xl-text-1-4)"><text x="878.5" y="25.415" fill="#FFFFFF" font-family="Calibri, Arial, sans-serif" font-size="12" text-anchor="middle" font-weight="700">Score</text></g></svg><svg x="0" y="43" width="972" height="401" viewBox="0 0 972 401"><rect x="0" y="0" width="972" height="401" fill="#FFFFFF"/><rect x="0" y="0" width="299" height="66.67" fill="#FFFFFF"/><line x1="0" y1="0" x2="299" y2="0" stroke="#94A3B8" stroke-width="1"/><line x1="299" y1="0" x2="299" y2="66.67" stroke="#94A3B8" stroke-width="1"/><line x1="0" y1="66.67" x2="299" y2="66.67" stroke="#94A3B8" stroke-width="1"/><line x1="0" y1="0" x2="0" y2="66.67" stroke="#94A3B8" stroke-width="1"/><rect x="299" y="0" width="271" height="66.67" fill="#FFFFFF"/><line x1="299" y1="0" x2="570" y2="0" stroke="#94A3B8" stroke-width="1"/><line x1="570" y1="0" x2="570" y2="66.67" stroke="#94A3B8" stroke-width="1"/><line x1="299" y1="66.67" x2="570" y2="66.67" stroke="#94A3B8" stroke-width="1"/><line x1="299" y1="0" x2="299" y2="66.67" stroke="#94A3B8" stroke-width="1"/><rect x="570" y="0" width="215" height="66.67" fill="#E7F6E7"/><line x1="570" y1="0" x2="785" y2="0" stroke="#94A3B8" stroke-width="1"/><line x1="785" y1="0" x2="785" y2="66.67" stroke="#94A3B8" stroke-width="1"/><line x1="570" y1="66.67" x2="785" y2="66.67" stroke="#94A3B8" stroke-width="1"/><line x1="570" y1="0" x2="570" y2="66.67" stroke="#94A3B8" stroke-width="1"/><rect x="785" y="0" width="187" height="66.67" fill="#FFFFFF"/><line x1="785" y1="0" x2="972" y2="0" stroke="#94A3B8" stroke-width="1"/><line x1="972" y1="0" x2="972" y2="66.67" stroke="#94A3B8" stroke-width="1"/><line x1="785" y1="66.67" x2="972" y2="66.67" stroke="#94A3B8" stroke-width="1"/><line x1="785" y1="0" x2="785" y2="66.67" stroke="#94A3B8" stroke-width="1"/><rect x="0" y="66.67" width="299" height="66.67" fill="#FFFFFF"/><line x1="0" y1="66.67" x2="299" y2="66.67" stroke="#94A3B8" stroke-width="1"/><line x1="299" y1="66.67" x2="299" y2="133.34" stroke="#94A3B8" stroke-width="1"/><line x1="0" y1="133.34" x2="299" y2="133.34" stroke="#94A3B8" stroke-width="1"/><line x1="0" y1="66.67" x2="0" y2="133.34" stroke="#94A3B8" stroke-width="1"/><rect x="299" y="66.67" width="271" height="66.67" fill="#FFFFFF"/><line x1="299" y1="66.67" x2="570" y2="66.67" stroke="#94A3B8" stroke-width="1"/><line x1="570" y1="66.67" x2="570" y2="133.34" stroke="#94A3B8" stroke-width="1"/><line x1="299" y1="133.34" x2="570" y2="133.34" stroke="#94A3B8" stroke-width="1"/><line x1="299" y1="66.67" x2="299" y2="133.34" stroke="#94A3B8" stroke-width="1"/><rect x="570" y="66.67" width="215" height="66.67" fill="#FFF4CC"/><line x1="570" y1="66.67" x2="785" y2="66.67" stroke="#94A3B8" stroke-width="1"/><line x1="785" y1="66.67" x2="785" y2="133.34" stroke="#94A3B8" stroke-width="1"/><line x1="570" y1="133.34" x2="785" y2="133.34" stroke="#94A3B8" stroke-width="1"/><line x1="570" y1="66.67" x2="570" y2="133.34" stroke="#94A3B8" stroke-width="1"/><rect x="785" y="66.67" width="187" height="66.67" fill="#FFFFFF"/><line x1="785" y1="66.67" x2="972" y2="66.67" stroke="#94A3B8" stroke-width="1"/><line x1="972" y1="66.67" x2="972" y2="133.34" stroke="#94A3B8" stroke-width="1"/><line x1="785" y1="133.34" x2="972" y2="133.34" stroke="#94A3B8" stroke-width="1"/><line x1="785" y1="66.67" x2="785" y2="133.34" stroke="#94A3B8" stroke-width="1"/><rect x="0" y="133.34" width="299" height="66.67" fill="#FFFFFF"/><line x1="0" y1="133.34" x2="299" y2="133.34" stroke="#94A3B8" stroke-width="1"/><line x1="299" y1="133.34" x2="299" y2="200.01" stroke="#94A3B8" stroke-width="1"/><line x1="0" y1="200.01" x2="299" y2="200.01" stroke="#94A3B8" stroke-width="1"/><line x1="0" y1="133.34" x2="0" y2="200.01" stroke="#94A3B8" stroke-width="1"/><rect x="299" y="133.34" width="271" height="66.67" fill="#FFFFFF"/><line x1="299" y1="133.34" x2="570" y2="133.34" stroke="#94A3B8" stroke-width="1"/><line x1="570" y1="133.34" x2="570" y2="200.01" stroke="#94A3B8" stroke-width="1"/><line x1="299" y1="200.01" x2="570" y2="200.01" stroke="#94A3B8" stroke-width="1"/><line x1="299" y1="133.34" x2="299" y2="200.01" stroke="#94A3B8" stroke-width="1"/><rect x="570" y="133.34" width="215" height="66.67" fill="#FFF4CC"/><line x1="570" y1="133.34" x2="785" y2="133.34" stroke="#94A3B8" stroke-width="1"/><line x1="785" y1="133.34" x2="785" y2="200.01" stroke="#94A3B8" stroke-width="1"/><line x1="570" y1="200.01" x2="785" y2="200.01" stroke="#94A3B8" stroke-width="1"/><line x1="570" y1="133.34" x2="570" y2="200.01" stroke="#94A3B8" stroke-width="1"/><rect x="785" y="133.34" width="187" height="66.67" fill="#FFFFFF"/><line x1="785" y1="133.34" x2="972" y2="133.34" stroke="#94A3B8" stroke-width="1"/><line x1="972" y1="133.34" x2="972" y2="200.01" stroke="#94A3B8" stroke-width="1"/><line x1="785" y1="200.01" x2="972" y2="200.01" stroke="#94A3B8" stroke-width="1"/><line x1="785" y1="133.34" x2="785" y2="200.01" stroke="#94A3B8" stroke-width="1"/><rect x="0" y="200.01" width="299" height="66.67" fill="#FFFFFF"/><line x1="0" y1="200.01" x2="299" y2="200.01" stroke="#94A3B8" stroke-width="1"/><line x1="299" y1="200.01" x2="299" y2="266.68" stroke="#94A3B8" stroke-width="1"/><line x1="0" y1="266.68" x2="299" y2="266.68" stroke="#94A3B8" stroke-width="1"/><line x1="0" y1="200.01" x2="0" y2="266.68" stroke="#94A3B8" stroke-width="1"/><rect x="299" y="200.01" width="271" height="66.67" fill="#FFFFFF"/><line x1="299" y1="200.01" x2="570" y2="200.01" stroke="#94A3B8" stroke-width="1"/><line x1="570" y1="200.01" x2="570" y2="266.68" stroke="#94A3B8" stroke-width="1"/><line x1="299" y1="266.68" x2="570" y2="266.68" stroke="#94A3B8" stroke-width="1"/><line x1="299" y1="200.01" x2="299" y2="266.68" stroke="#94A3B8" stroke-width="1"/><rect x="570" y="200.01" width="215" height="66.67" fill="#FCE4E4"/><line x1="570" y1="200.01" x2="785" y2="200.01" stroke="#94A3B8" stroke-width="1"/><line x1="785" y1="200.01" x2="785" y2="266.68" stroke="#94A3B8" stroke-width="1"/><line x1="570" y1="266.68" x2="785" y2="266.68" stroke="#94A3B8" stroke-width="1"/><line x1="570" y1="200.01" x2="570" y2="266.68" stroke="#94A3B8" stroke-width="1"/><rect x="785" y="200.01" width="187" height="66.67" fill="#FFFFFF"/><line x1="785" y1="200.01" x2="972" y2="200.01" stroke="#94A3B8" stroke-width="1"/><line x1="972" y1="200.01" x2="972" y2="266.68" stroke="#94A3B8" stroke-width="1"/><line x1="785" y1="266.68" x2="972" y2="266.68" stroke="#94A3B8" stroke-width="1"/><line x1="785" y1="200.01" x2="785" y2="266.68" stroke="#94A3B8" stroke-width="1"/><rect x="0" y="266.68" width="299" height="66.67" fill="#FFFFFF"/><line x1="0" y1="266.68" x2="299" y2="266.68" stroke="#94A3B8" stroke-width="1"/><line x1="299" y1="266.68" x2="299" y2="333.35" stroke="#94A3B8" stroke-width="1"/><line x1="0" y1="333.35" x2="299" y2="333.35" stroke="#94A3B8" stroke-width="1"/><line x1="0" y1="266.68" x2="0" y2="333.35" stroke="#94A3B8" stroke-width="1"/><rect x="299" y="266.68" width="271" height="66.67" fill="#FFFFFF"/><line x1="299" y1="266.68" x2="570" y2="266.68" stroke="#94A3B8" stroke-width="1"/><line x1="570" y1="266.68" x2="570" y2="333.35" stroke="#94A3B8" stroke-width="1"/><line x1="299" y1="333.35" x2="570" y2="333.35" stroke="#94A3B8" stroke-width="1"/><line x1="299" y1="266.68" x2="299" y2="333.35" stroke="#94A3B8" stroke-width="1"/><rect x="570" y="266.68" width="215" height="66.67" fill="#E7F6E7"/><line x1="570" y1="266.68" x2="785" y2="266.68" stroke="#94A3B8" stroke-width="1"/><line x1="785" y1="266.68" x2="785" y2="333.35" stroke="#94A3B8" stroke-width="1"/><line x1="570" y1="333.35" x2="785" y2="333.35" stroke="#94A3B8" stroke-width="1"/><line x1="570" y1="266.68" x2="570" y2="333.35" stroke="#94A3B8" stroke-width="1"/><rect x="785" y="266.68" width="187" height="66.67" fill="#FFFFFF"/><line x1="785" y1="266.68" x2="972" y2="266.68" stroke="#94A3B8" stroke-width="1"/><line x1="972" y1="266.68" x2="972" y2="333.35" stroke="#94A3B8" stroke-width="1"/><line x1="785" y1="333.35" x2="972" y2="333.35" stroke="#94A3B8" stroke-width="1"/><line x1="785" y1="266.68" x2="785" y2="333.35" stroke="#94A3B8" stroke-width="1"/><rect x="0" y="333.35" width="299" height="66.67" fill="#FFFFFF"/><line x1="0" y1="333.35" x2="299" y2="333.35" stroke="#94A3B8" stroke-width="1"/><line x1="299" y1="333.35" x2="299" y2="400.02" stroke="#94A3B8" stroke-width="1"/><line x1="0" y1="400.02" x2="299" y2="400.02" stroke="#94A3B8" stroke-width="1"/><line x1="0" y1="333.35" x2="0" y2="400.02" stroke="#94A3B8" stroke-width="1"/><rect x="299" y="333.35" width="271" height="66.67" fill="#FFFFFF"/><line x1="299" y1="333.35" x2="570" y2="333.35" stroke="#94A3B8" stroke-width="1"/><line x1="570" y1="333.35" x2="570" y2="400.02" stroke="#94A3B8" stroke-width="1"/><line x1="299" y1="400.02" x2="570" y2="400.02" stroke="#94A3B8" stroke-width="1"/><line x1="299" y1="333.35" x2="299" y2="400.02" stroke="#94A3B8" stroke-width="1"/><rect x="570" y="333.35" width="215" height="66.67" fill="#FCE4E4"/><line x1="570" y1="333.35" x2="785" y2="333.35" stroke="#94A3B8" stroke-width="1"/><line x1="785" y1="333.35" x2="785" y2="400.02" stroke="#94A3B8" stroke-width="1"/><line x1="570" y1="400.02" x2="785" y2="400.02" stroke="#94A3B8" stroke-width="1"/><line x1="570" y1="333.35" x2="570" y2="400.02" stroke="#94A3B8" stroke-width="1"/><rect x="785" y="333.35" width="187" height="66.67" fill="#FFFFFF"/><line x1="785" y1="333.35" x2="972" y2="333.35" stroke="#94A3B8" stroke-width="1"/><line x1="972" y1="333.35" x2="972" y2="400.02" stroke="#94A3B8" stroke-width="1"/><line x1="785" y1="400.02" x2="972" y2="400.02" stroke="#94A3B8" stroke-width="1"/><line x1="785" y1="333.35" x2="785" y2="400.02" stroke="#94A3B8" stroke-width="1"/><clipPath id="xl-text-3-1"><rect x="0" y="0" width="299" height="66.67"/></clipPath><g clip-path="url(#xl-text-3-1)"><text x="3" y="37.415" fill="#000000" font-family="Calibri, Arial, sans-serif" font-size="12" text-anchor="start">West</text></g><clipPath id="xl-text-3-2"><rect x="299" y="0" width="271" height="66.67"/></clipPath><g clip-path="url(#xl-text-3-2)"><text x="302" y="37.415" fill="#000000" font-family="Calibri, Arial, sans-serif" font-size="12" text-anchor="start">Morgan</text></g><clipPath id="xl-text-3-3"><rect x="570" y="0" width="215" height="66.67"/></clipPath><g clip-path="url(#xl-text-3-3)"><text x="573" y="37.415" fill="#226B22" font-family="Calibri, Arial, sans-serif" font-size="12" text-anchor="start" font-weight="700">Ready</text></g><clipPath id="xl-text-3-4"><rect x="785" y="0" width="187" height="66.67"/></clipPath><g clip-path="url(#xl-text-3-4)"><text x="969" y="37.415" fill="#000000" font-family="Calibri, Arial, sans-serif" font-size="12" text-anchor="end" font-weight="700">89%</text></g><clipPath id="xl-text-4-1"><rect x="0" y="66.67" width="299" height="66.67"/></clipPath><g clip-path="url(#xl-text-4-1)"><text x="3" y="104.085" fill="#000000" font-family="Calibri, Arial, sans-serif" font-size="12" text-anchor="start">Central</text></g><clipPath id="xl-text-4-2"><rect x="299" y="66.67" width="271" height="66.67"/></clipPath><g clip-path="url(#xl-text-4-2)"><text x="302" y="104.085" fill="#000000" font-family="Calibri, Arial, sans-serif" font-size="12" text-anchor="start">Quinn</text></g><clipPath id="xl-text-4-3"><rect x="570" y="66.67" width="215" height="66.67"/></clipPath><g clip-path="url(#xl-text-4-3)"><text x="573" y="104.085" fill="#7A4D00" font-family="Calibri, Arial, sans-serif" font-size="12" text-anchor="start" font-weight="700">Watch</text></g><clipPath id="xl-text-4-4"><rect x="785" y="66.67" width="187" height="66.67"/></clipPath><g clip-path="url(#xl-text-4-4)"><text x="969" y="104.085" fill="#000000" font-family="Calibri, Arial, sans-serif" font-size="12" text-anchor="end" font-weight="700">77%</text></g><clipPath id="xl-text-5-1"><rect x="0" y="133.34" width="299" height="66.67"/></clipPath><g clip-path="url(#xl-text-5-1)"><text x="3" y="170.755" fill="#000000" font-family="Calibri, Arial, sans-serif" font-size="12" text-anchor="start">East</text></g><clipPath id="xl-text-5-2"><rect x="299" y="133.34" width="271" height="66.67"/></clipPath><g clip-path="url(#xl-text-5-2)"><text x="302" y="170.755" fill="#000000" font-family="Calibri, Arial, sans-serif" font-size="12" text-anchor="start">Blake</text></g><clipPath id="xl-text-5-3"><rect x="570" y="133.34" width="215" height="66.67"/></clipPath><g clip-path="url(#xl-text-5-3)"><text x="573" y="170.755" fill="#7A4D00" font-family="Calibri, Arial, sans-serif" font-size="12" text-anchor="start" font-weight="700">Watch</text></g><clipPath id="xl-text-5-4"><rect x="785" y="133.34" width="187" height="66.67"/></clipPath><g clip-path="url(#xl-text-5-4)"><text x="969" y="170.755" fill="#000000" font-family="Calibri, Arial, sans-serif" font-size="12" text-anchor="end" font-weight="700">71%</text></g><clipPath id="xl-text-6-1"><rect x="0" y="200.01" width="299" height="66.67"/></clipPath><g clip-path="url(#xl-text-6-1)"><text x="3" y="237.425" fill="#000000" font-family="Calibri, Arial, sans-serif" font-size="12" text-anchor="start">South</text></g><clipPath id="xl-text-6-2"><rect x="299" y="200.01" width="271" height="66.67"/></clipPath><g clip-path="url(#xl-text-6-2)"><text x="302" y="237.425" fill="#000000" font-family="Calibri, Arial, sans-serif" font-size="12" text-anchor="start">Casey</text></g><clipPath id="xl-text-6-3"><rect x="570" y="200.01" width="215" height="66.67"/></clipPath><g clip-path="url(#xl-text-6-3)"><text x="573" y="237.425" fill="#9C0006" font-family="Calibri, Arial, sans-serif" font-size="12" text-anchor="start" font-weight="700">Risk</text></g><clipPath id="xl-text-6-4"><rect x="785" y="200.01" width="187" height="66.67"/></clipPath><g clip-path="url(#xl-text-6-4)"><text x="969" y="237.425" fill="#000000" font-family="Calibri, Arial, sans-serif" font-size="12" text-anchor="end" font-weight="700">82%</text></g><clipPath id="xl-text-7-1"><rect x="0" y="266.68" width="299" height="66.67"/></clipPath><g clip-path="url(#xl-text-7-1)"><text x="3" y="304.095" fill="#000000" font-family="Calibri, Arial, sans-serif" font-size="12" text-anchor="start">Global</text></g><clipPath id="xl-text-7-2"><rect x="299" y="266.68" width="271" height="66.67"/></clipPath><g clip-path="url(#xl-text-7-2)"><text x="302" y="304.095" fill="#000000" font-family="Calibri, Arial, sans-serif" font-size="12" text-anchor="start">Devon</text></g><clipPath id="xl-text-7-3"><rect x="570" y="266.68" width="215" height="66.67"/></clipPath><g clip-path="url(#xl-text-7-3)"><text x="573" y="304.095" fill="#226B22" font-family="Calibri, Arial, sans-serif" font-size="12" text-anchor="start" font-weight="700">Ready</text></g><clipPath id="xl-text-7-4"><rect x="785" y="266.68" width="187" height="66.67"/></clipPath><g clip-path="url(#xl-text-7-4)"><text x="969" y="304.095" fill="#000000" font-family="Calibri, Arial, sans-serif" font-size="12" text-anchor="end" font-weight="700">91%</text></g><clipPath id="xl-text-8-1"><rect x="0" y="333.35" width="299" height="66.67"/></clipPath><g clip-path="url(#xl-text-8-1)"><text x="3" y="370.765" fill="#000000" font-family="Calibri, Arial, sans-serif" font-size="12" text-anchor="start">Partner</text></g><clipPath id="xl-text-8-2"><rect x="299" y="333.35" width="271" height="66.67"/></clipPath><g clip-path="url(#xl-text-8-2)"><text x="302" y="370.765" fill="#000000" font-family="Calibri, Arial, sans-serif" font-size="12" text-anchor="start">Emery</text></g><clipPath id="xl-text-8-3"><rect x="570" y="333.35" width="215" height="66.67"/></clipPath><g clip-path="url(#xl-text-8-3)"><text x="573" y="370.765" fill="#9C0006" font-family="Calibri, Arial, sans-serif" font-size="12" text-anchor="start" font-weight="700">Risk</text></g><clipPath id="xl-text-8-4"><rect x="785" y="333.35" width="187" height="66.67"/></clipPath><g clip-path="url(#xl-text-8-4)"><text x="969" y="370.765" fill="#000000" font-family="Calibri, Arial, sans-serif" font-size="12" text-anchor="end" font-weight="700">64%</text></g></svg></svg></svg></svg>