<svg xmlns="http://www.w3.org/2000/svg" width="1260" height="454" viewBox="0 0 1260 454"><rect x="0" y="0" width="1260" height="454" fill="#FFFFFF"/><rect x="0" y="0" width="1260" height="69.34" fill="#0F172A"/><rect x="0" y="69.34" width="192" height="64" fill="#E2E8F0"/><line x1="0" y1="69.34" x2="192" y2="69.34" stroke="#CBD5E1" stroke-width="2"/><line x1="192" y1="69.34" x2="192" y2="133.34" stroke="#CBD5E1" stroke-width="2"/><line x1="0" y1="133.34" x2="192" y2="133.34" stroke="#CBD5E1" stroke-width="2"/><line x1="0" y1="69.34" x2="0" y2="133.34" stroke="#CBD5E1" stroke-width="2"/><rect x="192" y="69.34" width="178" height="64" fill="#E2E8F0"/><line x1="192" y1="69.34" x2="370" y2="69.34" stroke="#CBD5E1" stroke-width="2"/><line x1="370" y1="69.34" x2="370" y2="133.34" stroke="#CBD5E1" stroke-width="2"/><line x1="192" y1="133.34" x2="370" y2="133.34" stroke="#CBD5E1" stroke-width="2"/><line x1="192" y1="69.34" x2="192" y2="133.34" stroke="#CBD5E1" stroke-width="2"/><rect x="370" y="69.34" width="178" height="64" fill="#E2E8F0"/><line x1="370" y1="69.34" x2="548" y2="69.34" stroke="#CBD5E1" stroke-width="2"/><line x1="548" y1="69.34" x2="548" y2="133.34" stroke="#CBD5E1" stroke-width="2"/><line x1="370" y1="133.34" x2="548" y2="133.34" stroke="#CBD5E1" stroke-width="2"/><line x1="370" y1="69.34" x2="370" y2="133.34" stroke="#CBD5E1" stroke-width="2"/><rect x="548" y="69.34" width="178" height="64" fill="#E2E8F0"/><line x1="548" y1="69.34" x2="726" y2="69.34" stroke="#CBD5E1" stroke-width="2"/><line x1="726" y1="69.34" x2="726" y2="133.34" stroke="#CBD5E1" stroke-width="2"/><line x1="548" y1="133.34" x2="726" y2="133.34" stroke="#CBD5E1" stroke-width="2"/><line x1="548" y1="69.34" x2="548" y2="133.34" stroke="#CBD5E1" stroke-width="2"/><rect x="726" y="69.34" width="178" height="64" fill="#E2E8F0"/><line x1="726" y1="69.34" x2="904" y2="69.34" stroke="#CBD5E1" stroke-width="2"/><line x1="904" y1="69.34" x2="904" y2="133.34" stroke="#CBD5E1" stroke-width="2"/><line x1="726" y1="133.34" x2="904" y2="133.34" stroke="#CBD5E1" stroke-width="2"/><line x1="726" y1="69.34" x2="726" y2="133.34" stroke="#CBD5E1" stroke-width="2"/><rect x="904" y="69.34" width="178" height="64" fill="#E2E8F0"/><line x1="904" y1="69.34" x2="1082" y2="69.34" stroke="#CBD5E1" stroke-width="2"/><line x1="1082" y1="69.34" x2="1082" y2="133.34" stroke="#CBD5E1" stroke-width="2"/><line x1="904" y1="133.34" x2="1082" y2="133.34" stroke="#CBD5E1" stroke-width="2"/><line x1="904" y1="69.34" x2="904" y2="133.34" stroke="#CBD5E1" stroke-width="2"/><rect x="1082" y="69.34" width="178" height="64" fill="#E2E8F0"/><line x1="1082" y1="69.34" x2="1260" y2="69.34" stroke="#CBD5E1" stroke-width="2"/><line x1="1260" y1="69.34" x2="1260" y2="133.34" stroke="#CBD5E1" stroke-width="2"/><line x1="1082" y1="133.34" x2="1260" y2="133.34" stroke="#CBD5E1" stroke-width="2"/><line x1="1082" y1="69.34" x2="1082" y2="133.34" stroke="#CBD5E1" stroke-width="2"/><rect x="0" y="133.34" width="192" height="64" fill="#FFFFFF"/><line x1="0" y1="133.34" x2="192" y2="133.34" stroke="#CBD5E1" stroke-width="2"/><line x1="192" y1="133.34" x2="192" y2="197.34" stroke="#CBD5E1" stroke-width="2"/><line x1="0" y1="197.34" x2="192" y2="197.34" stroke="#CBD5E1" stroke-width="2"/><line x1="0" y1="133.34" x2="0" y2="197.34" stroke="#CBD5E1" stroke-width="2"/><rect x="192" y="133.34" width="178" height="64" fill="#FFFFFF"/><line x1="192" y1="133.34" x2="370" y2="133.34" stroke="#CBD5E1" stroke-width="2"/><line x1="370" y1="133.34" x2="370" y2="197.34" stroke="#CBD5E1" stroke-width="2"/><line x1="192" y1="197.34" x2="370" y2="197.34" stroke="#CBD5E1" stroke-width="2"/><line x1="192" y1="133.34" x2="192" y2="197.34" stroke="#CBD5E1" stroke-width="2"/><rect x="370" y="133.34" width="178" height="64" fill="#FFFFFF"/><line x1="370" y1="133.34" x2="548" y2="133.34" stroke="#CBD5E1" stroke-width="2"/><line x1="548" y1="133.34" x2="548" y2="197.34" stroke="#CBD5E1" stroke-width="2"/><line x1="370" y1="197.34" x2="548" y2="197.34" stroke="#CBD5E1" stroke-width="2"/><line x1="370" y1="133.34" x2="370" y2="197.34" stroke="#CBD5E1" stroke-width="2"/><rect x="548" y="133.34" width="178" height="64" fill="#FFFFFF"/><line x1="548" y1="133.34" x2="726" y2="133.34" stroke="#CBD5E1" stroke-width="2"/><line x1="726" y1="133.34" x2="726" y2="197.34" stroke="#CBD5E1" stroke-width="2"/><line x1="548" y1="197.34" x2="726" y2="197.34" stroke="#CBD5E1" stroke-width="2"/><line x1="548" y1="133.34" x2="548" y2="197.34" stroke="#CBD5E1" stroke-width="2"/><rect x="726" y="133.34" width="178" height="64" fill="#FFFFFF"/><line x1="726" y1="133.34" x2="904" y2="133.34" stroke="#CBD5E1" stroke-width="2"/><line x1="904" y1="133.34" x2="904" y2="197.34" stroke="#CBD5E1" stroke-width="2"/><line x1="726" y1="197.34" x2="904" y2="197.34" stroke="#CBD5E1" stroke-width="2"/><line x1="726" y1="133.34" x2="726" y2="197.34" stroke="#CBD5E1" stroke-width="2"/><rect x="904" y="133.34" width="178" height="64" fill="#FFFFFF"/><line x1="904" y1="133.34" x2="1082" y2="133.34" stroke="#CBD5E1" stroke-width="2"/><line x1="1082" y1="133.34" x2="1082" y2="197.34" stroke="#CBD5E1" stroke-width="2"/><line x1="904" y1="197.34" x2="1082" y2="197.34" stroke="#CBD5E1" stroke-width="2"/><line x1="904" y1="133.34" x2="904" y2="197.34" stroke="#CBD5E1" stroke-width="2"/><rect x="1082" y="133.34" width="178" height="64" fill="#FFFFFF"/><line x1="1082" y1="133.34" x2="1260" y2="133.34" stroke="#CBD5E1" stroke-width="2"/><line x1="1260" y1="133.34" x2="1260" y2="197.34" stroke="#CBD5E1" stroke-width="2"/><line x1="1082" y1="197.34" x2="1260" y2="197.34" stroke="#CBD5E1" stroke-width="2"/><line x1="1082" y1="133.34" x2="1082" y2="197.34" stroke="#CBD5E1" stroke-width="2"/><rect x="0" y="197.34" width="192" height="64" fill="#FFFFFF"/><line x1="0" y1="197.34" x2="192" y2="197.34" stroke="#CBD5E1" stroke-width="2"/><line x1="192" y1="197.34" x2="192" y2="261.34" stroke="#CBD5E1" stroke-width="2"/><line x1="0" y1="261.34" x2="192" y2="261.34" stroke="#CBD5E1" stroke-width="2"/><line x1="0" y1="197.34" x2="0" y2="261.34" stroke="#CBD5E1" stroke-width="2"/><rect x="192" y="197.34" width="178" height="64" fill="#FFFFFF"/><line x1="192" y1="197.34" x2="370" y2="197.34" stroke="#CBD5E1" stroke-width="2"/><line x1="370" y1="197.34" x2="370" y2="261.34" stroke="#CBD5E1" stroke-width="2"/><line x1="192" y1="261.34" x2="370" y2="261.34" stroke="#CBD5E1" stroke-width="2"/><line x1="192" y1="197.34" x2="192" y2="261.34" stroke="#CBD5E1" stroke-width="2"/><rect x="370" y="197.34" width="178" height="64" fill="#FFFFFF"/><line x1="370" y1="197.34" x2="548" y2="197.34" stroke="#CBD5E1" stroke-width="2"/><line x1="548" y1="197.34" x2="548" y2="261.34" stroke="#CBD5E1" stroke-width="2"/><line x1="370" y1="261.34" x2="548" y2="261.34" stroke="#CBD5E1" stroke-width="2"/><line x1="370" y1="197.34" x2="370" y2="261.34" stroke="#CBD5E1" stroke-width="2"/><rect x="548" y="197.34" width="178" height="64" fill="#FFFFFF"/><line x1="548" y1="197.34" x2="726" y2="197.34" stroke="#CBD5E1" stroke-width="2"/><line x1="726" y1="197.34" x2="726" y2="261.34" stroke="#CBD5E1" stroke-width="2"/><line x1="548" y1="261.34" x2="726" y2="261.34" stroke="#CBD5E1" stroke-width="2"/><line x1="548" y1="197.34" x2="548" y2="261.34" stroke="#CBD5E1" stroke-width="2"/><rect x="726" y="197.34" width="178" height="64" fill="#FFFFFF"/><line x1="726" y1="197.34" x2="904" y2="197.34" stroke="#CBD5E1" stroke-width="2"/><line x1="904" y1="197.34" x2="904" y2="261.34" stroke="#CBD5E1" stroke-width="2"/><line x1="726" y1="261.34" x2="904" y2="261.34" stroke="#CBD5E1" stroke-width="2"/><line x1="726" y1="197.34" x2="726" y2="261.34" stroke="#CBD5E1" stroke-width="2"/><rect x="904" y="197.34" width="178" height="64" fill="#FFFFFF"/><line x1="904" y1="197.34" x2="1082" y2="197.34" stroke="#CBD5E1" stroke-width="2"/><line x1="1082" y1="197.34" x2="1082" y2="261.34" stroke="#CBD5E1" stroke-width="2"/><line x1="904" y1="261.34" x2="1082" y2="261.34" stroke="#CBD5E1" stroke-width="2"/><line x1="904" y1="197.34" x2="904" y2="261.34" stroke="#CBD5E1" stroke-width="2"/><rect x="1082" y="197.34" width="178" height="64" fill="#FFFFFF"/><line x1="1082" y1="197.34" x2="1260" y2="197.34" stroke="#CBD5E1" stroke-width="2"/><line x1="1260" y1="197.34" x2="1260" y2="261.34" stroke="#CBD5E1" stroke-width="2"/><line x1="1082" y1="261.34" x2="1260" y2="261.34" stroke="#CBD5E1" stroke-width="2"/><line x1="1082" y1="197.34" x2="1082" y2="261.34" stroke="#CBD5E1" stroke-width="2"/><rect x="0" y="261.34" width="192" height="64" fill="#FFFFFF"/><line x1="0" y1="261.34" x2="192" y2="261.34" stroke="#CBD5E1" stroke-width="2"/><line x1="192" y1="261.34" x2="192" y2="325.34" stroke="#CBD5E1" stroke-width="2"/><line x1="0" y1="325.34" x2="192" y2="325.34" stroke="#CBD5E1" stroke-width="2"/><line x1="0" y1="261.34" x2="0" y2="325.34" stroke="#CBD5E1" stroke-width="2"/><rect x="192" y="261.34" width="178" height="64" fill="#FFFFFF"/><line x1="192" y1="261.34" x2="370" y2="261.34" stroke="#CBD5E1" stroke-width="2"/><line x1="370" y1="261.34" x2="370" y2="325.34" stroke="#CBD5E1" stroke-width="2"/><line x1="192" y1="325.34" x2="370" y2="325.34" stroke="#CBD5E1" stroke-width="2"/><line x1="192" y1="261.34" x2="192" y2="325.34" stroke="#CBD5E1" stroke-width="2"/><rect x="370" y="261.34" width="178" height="64" fill="#FFFFFF"/><line x1="370" y1="261.34" x2="548" y2="261.34" stroke="#CBD5E1" stroke-width="2"/><line x1="548" y1="261.34" x2="548" y2="325.34" stroke="#CBD5E1" stroke-width="2"/><line x1="370" y1="325.34" x2="548" y2="325.34" stroke="#CBD5E1" stroke-width="2"/><line x1="370" y1="261.34" x2="370" y2="325.34" stroke="#CBD5E1" stroke-width="2"/><rect x="548" y="261.34" width="178" height="64" fill="#FFFFFF"/><line x1="548" y1="261.34" x2="726" y2="261.34" stroke="#CBD5E1" stroke-width="2"/><line x1="726" y1="261.34" x2="726" y2="325.34" stroke="#CBD5E1" stroke-width="2"/><line x1="548" y1="325.34" x2="726" y2="325.34" stroke="#CBD5E1" stroke-width="2"/><line x1="548" y1="261.34" x2="548" y2="325.34" stroke="#CBD5E1" stroke-width="2"/><rect x="726" y="261.34" width="178" height="64" fill="#FFFFFF"/><line x1="726" y1="261.34" x2="904" y2="261.34" stroke="#CBD5E1" stroke-width="2"/><line x1="904" y1="261.34" x2="904" y2="325.34" stroke="#CBD5E1" stroke-width="2"/><line x1="726" y1="325.34" x2="904" y2="325.34" stroke="#CBD5E1" stroke-width="2"/><line x1="726" y1="261.34" x2="726" y2="325.34" stroke="#CBD5E1" stroke-width="2"/><rect x="904" y="261.34" width="178" height="64" fill="#FFFFFF"/><line x1="904" y1="261.34" x2="1082" y2="261.34" stroke="#CBD5E1" stroke-width="2"/><line x1="1082" y1="261.34" x2="1082" y2="325.34" stroke="#CBD5E1" stroke-width="2"/><line x1="904" y1="325.34" x2="1082" y2="325.34" stroke="#CBD5E1" stroke-width="2"/><line x1="904" y1="261.34" x2="904" y2="325.34" stroke="#CBD5E1" stroke-width="2"/><rect x="1082" y="261.34" width="178" height="64" fill="#FFFFFF"/><line x1="1082" y1="261.34" x2="1260" y2="261.34" stroke="#CBD5E1" stroke-width="2"/><line x1="1260" y1="261.34" x2="1260" y2="325.34" stroke="#CBD5E1" stroke-width="2"/><line x1="1082" y1="325.34" x2="1260" y2="325.34" stroke="#CBD5E1" stroke-width="2"/><line x1="1082" y1="261.34" x2="1082" y2="325.34" stroke="#CBD5E1" stroke-width="2"/><rect x="0" y="325.34" width="192" height="64" fill="#FFFFFF"/><line x1="0" y1="325.34" x2="192" y2="325.34" stroke="#CBD5E1" stroke-width="2"/><line x1="192" y1="325.34" x2="192" y2="389.34" stroke="#CBD5E1" stroke-width="2"/><line x1="0" y1="389.34" x2="192" y2="389.34" stroke="#CBD5E1" stroke-width="2"/><line x1="0" y1="325.34" x2="0" y2="389.34" stroke="#CBD5E1" stroke-width="2"/><rect x="192" y="325.34" width="178" height="64" fill="#FFFFFF"/><line x1="192" y1="325.34" x2="370" y2="325.34" stroke="#CBD5E1" stroke-width="2"/><line x1="370" y1="325.34" x2="370" y2="389.34" stroke="#CBD5E1" stroke-width="2"/><line x1="192" y1="389.34" x2="370" y2="389.34" stroke="#CBD5E1" stroke-width="2"/><line x1="192" y1="325.34" x2="192" y2="389.34" stroke="#CBD5E1" stroke-width="2"/><rect x="370" y="325.34" width="178" height="64" fill="#FFFFFF"/><line x1="370" y1="325.34" x2="548" y2="325.34" stroke="#CBD5E1" stroke-width="2"/><line x1="548" y1="325.34" x2="548" y2="389.34" stroke="#CBD5E1" stroke-width="2"/><line x1="370" y1="389.34" x2="548" y2="389.34" stroke="#CBD5E1" stroke-width="2"/><line x1="370" y1="325.34" x2="370" y2="389.34" stroke="#CBD5E1" stroke-width="2"/><rect x="548" y="325.34" width="178" height="64" fill="#FFFFFF"/><line x1="548" y1="325.34" x2="726" y2="325.34" stroke="#CBD5E1" stroke-width="2"/><line x1="726" y1="325.34" x2="726" y2="389.34" stroke="#CBD5E1" stroke-width="2"/><line x1="548" y1="389.34" x2="726" y2="389.34" stroke="#CBD5E1" stroke-width="2"/><line x1="548" y1="325.34" x2="548" y2="389.34" stroke="#CBD5E1" stroke-width="2"/><rect x="726" y="325.34" width="178" height="64" fill="#FFFFFF"/><line x1="726" y1="325.34" x2="904" y2="325.34" stroke="#CBD5E1" stroke-width="2"/><line x1="904" y1="325.34" x2="904" y2="389.34" stroke="#CBD5E1" stroke-width="2"/><line x1="726" y1="389.34" x2="904" y2="389.34" stroke="#CBD5E1" stroke-width="2"/><line x1="726" y1="325.34" x2="726" y2="389.34" stroke="#CBD5E1" stroke-width="2"/><rect x="904" y="325.34" width="178" height="64" fill="#FFFFFF"/><line x1="904" y1="325.34" x2="1082" y2="325.34" stroke="#CBD5E1" stroke-width="2"/><line x1="1082" y1="325.34" x2="1082" y2="389.34" stroke="#CBD5E1" stroke-width="2"/><line x1="904" y1="389.34" x2="1082" y2="389.34" stroke="#CBD5E1" stroke-width="2"/><line x1="904" y1="325.34" x2="904" y2="389.34" stroke="#CBD5E1" stroke-width="2"/><rect x="1082" y="325.34" width="178" height="64" fill="#FFFFFF"/><line x1="1082" y1="325.34" x2="1260" y2="325.34" stroke="#CBD5E1" stroke-width="2"/><line x1="1260" y1="325.34" x2="1260" y2="389.34" stroke="#CBD5E1" stroke-width="2"/><line x1="1082" y1="389.34" x2="1260" y2="389.34" stroke="#CBD5E1" stroke-width="2"/><line x1="1082" y1="325.34" x2="1082" y2="389.34" stroke="#CBD5E1" stroke-width="2"/><rect x="0" y="389.34" width="192" height="64" fill="#FFFFFF"/><line x1="0" y1="389.34" x2="192" y2="389.34" stroke="#CBD5E1" stroke-width="2"/><line x1="192" y1="389.34" x2="192" y2="453.34" stroke="#CBD5E1" stroke-width="2"/><line x1="0" y1="453.34" x2="192" y2="453.34" stroke="#CBD5E1" stroke-width="2"/><line x1="0" y1="389.34" x2="0" y2="453.34" stroke="#CBD5E1" stroke-width="2"/><rect x="192" y="389.34" width="178" height="64" fill="#FFFFFF"/><line x1="192" y1="389.34" x2="370" y2="389.34" stroke="#CBD5E1" stroke-width="2"/><line x1="370" y1="389.34" x2="370" y2="453.34" stroke="#CBD5E1" stroke-width="2"/><line x1="192" y1="453.34" x2="370" y2="453.34" stroke="#CBD5E1" stroke-width="2"/><line x1="192" y1="389.34" x2="192" y2="453.34" stroke="#CBD5E1" stroke-width="2"/><rect x="370" y="389.34" width="178" height="64" fill="#FFFFFF"/><line x1="370" y1="389.34" x2="548" y2="389.34" stroke="#CBD5E1" stroke-width="2"/><line x1="548" y1="389.34" x2="548" y2="453.34" stroke="#CBD5E1" stroke-width="2"/><line x1="370" y1="453.34" x2="548" y2="453.34" stroke="#CBD5E1" stroke-width="2"/><line x1="370" y1="389.34" x2="370" y2="453.34" stroke="#CBD5E1" stroke-width="2"/><rect x="548" y="389.34" width="178" height="64" fill="#FFFFFF"/><line x1="548" y1="389.34" x2="726" y2="389.34" stroke="#CBD5E1" stroke-width="2"/><line x1="726" y1="389.34" x2="726" y2="453.34" stroke="#CBD5E1" stroke-width="2"/><line x1="548" y1="453.34" x2="726" y2="453.34" stroke="#CBD5E1" stroke-width="2"/><line x1="548" y1="389.34" x2="548" y2="453.34" stroke="#CBD5E1" stroke-width="2"/><rect x="726" y="389.34" width="178" height="64" fill="#FFFFFF"/><line x1="726" y1="389.34" x2="904" y2="389.34" stroke="#CBD5E1" stroke-width="2"/><line x1="904" y1="389.34" x2="904" y2="453.34" stroke="#CBD5E1" stroke-width="2"/><line x1="726" y1="453.34" x2="904" y2="453.34" stroke="#CBD5E1" stroke-width="2"/><line x1="726" y1="389.34" x2="726" y2="453.34" stroke="#CBD5E1" stroke-width="2"/><rect x="904" y="389.34" width="178" height="64" fill="#FFFFFF"/><line x1="904" y1="389.34" x2="1082" y2="389.34" stroke="#CBD5E1" stroke-width="2"/><line x1="1082" y1="389.34" x2="1082" y2="453.34" stroke="#CBD5E1" stroke-width="2"/><line x1="904" y1="453.34" x2="1082" y2="453.34" stroke="#CBD5E1" stroke-width="2"/><line x1="904" y1="389.34" x2="904" y2="453.34" stroke="#CBD5E1" stroke-width="2"/><rect x="1082" y="389.34" width="178" height="64" fill="#FFFFFF"/><line x1="1082" y1="389.34" x2="1260" y2="389.34" stroke="#CBD5E1" stroke-width="2"/><line x1="1260" y1="389.34" x2="1260" y2="453.34" stroke="#CBD5E1" stroke-width="2"/><line x1="1082" y1="453.34" x2="1260" y2="453.34" stroke="#CBD5E1" stroke-width="2"/><line x1="1082" y1="389.34" x2="1082" y2="453.34" stroke="#CBD5E1" stroke-width="2"/><clipPath id="xl-text-1-1"><rect x="0" y="0" width="1260" height="69.34"/></clipPath><g clip-path="url(#xl-text-1-1)"><text x="630" y="42.15" fill="#FFFFFF" font-family="Calibri, Arial, sans-serif" font-size="22" text-anchor="middle" font-weight="700">Expanded Icon Sets</text></g><clipPath id="xl-text-2-1"><rect x="0" y="69.34" width="192" height="64"/></clipPath><g clip-path="url(#xl-text-2-1)"><text x="6" y="108.82" fill="#1F2937" font-family="Calibri, Arial, sans-serif" font-size="22" text-anchor="start" font-weight="700">Tier</text></g><clipPath id="xl-text-2-2"><rect x="192" y="69.34" width="178" height="64"/></clipPath><g clip-path="url(#xl-text-2-2)"><text x="281" y="108.82" fill="#1F2937" font-family="Calibri, Arial, sans-serif" font-size="22" text-anchor="middle" font-weight="700">Five arrows</text></g><clipPath id="xl-text-2-3"><rect x="370" y="69.34" width="178" height="64"/></clipPath><g clip-path="url(#xl-text-2-3)"><text x="459" y="108.82" fill="#1F2937" font-family="Calibri, Arial, sans-serif" font-size="22" text-anchor="middle" font-weight="700">Arrow value</text></g><clipPath id="xl-text-2-4"><rect x="548" y="69.34" width="178" height="64"/></clipPath><g clip-path="url(#xl-text-2-4)"><text x="637" y="108.82" fill="#1F2937" font-family="Calibri, Arial, sans-serif" font-size="22" text-anchor="middle" font-weight="700">Four traffic</text></g><clipPath id="xl-text-2-5"><rect x="726" y="69.34" width="178" height="64"/></clipPath><g clip-path="url(#xl-text-2-5)"><text x="815" y="108.82" fill="#1F2937" font-family="Calibri, Arial, sans-serif" font-size="22" text-anchor="middle" font-weight="700">Traffic value</text></g><clipPath id="xl-text-2-6"><rect x="904" y="69.34" width="178" height="64"/></clipPath><g clip-path="url(#xl-text-2-6)"><text x="993" y="108.82" fill="#1F2937" font-family="Calibri, Arial, sans-serif" font-size="22" text-anchor="middle" font-weight="700">Five rating</text></g><clipPath id="xl-text-2-7"><rect x="1082" y="69.34" width="178" height="64"/></clipPath><g clip-path="url(#xl-text-2-7)"><text x="1171" y="108.82" fill="#1F2937" font-family="Calibri, Arial, sans-serif" font-size="22" text-anchor="middle" font-weight="700">Five quarters</text></g><clipPath id="xl-text-3-1"><rect x="0" y="133.34" width="192" height="64"/></clipPath><g clip-path="url(#xl-text-3-1)"><text x="6" y="172.82" fill="#000000" font-family="Calibri, Arial, sans-serif" font-size="22" text-anchor="start">Lowest</text></g><clipPath id="xl-text-3-2"><rect x="246.24" y="133.34" width="123.76" height="64"/></clipPath><g clip-path="url(#xl-text-3-2)"><text x="308.12" y="172.82" fill="#000000" font-family="Calibri, Arial, sans-serif" font-size="22" text-anchor="middle">1</text></g><clipPath id="xl-text-3-3"><rect x="370" y="133.34" width="178" height="64"/></clipPath><g clip-path="url(#xl-text-3-3)"><text x="459" y="172.82" fill="#000000" font-family="Calibri, Arial, sans-serif" font-size="22" text-anchor="middle">1</text></g><clipPath id="xl-text-3-4"><rect x="602.24" y="133.34" width="123.76" height="64"/></clipPath><g clip-path="url(#xl-text-3-4)"><text x="664.12" y="172.82" fill="#000000" font-family="Calibri, Arial, sans-serif" font-size="22" text-anchor="middle">1</text></g><clipPath id="xl-text-3-5"><rect x="726" y="133.34" width="178" height="64"/></clipPath><g clip-path="url(#xl-text-3-5)"><text x="815" y="172.82" fill="#000000" font-family="Calibri, Arial, sans-serif" font-size="22" text-anchor="middle">1</text></g><clipPath id="xl-text-3-6"><rect x="958.24" y="133.34" width="123.76" height="64"/></clipPath><g clip-path="url(#xl-text-3-6)"><text x="1020.12" y="172.82" fill="#000000" font-family="Calibri, Arial, sans-serif" font-size="22" text-anchor="middle">1</text></g><clipPath id="xl-text-3-7"><rect x="1136.24" y="133.34" width="123.76" height="64"/></clipPath><g clip-path="url(#xl-text-3-7)"><text x="1198.12" y="172.82" fill="#000000" font-family="Calibri, Arial, sans-serif" font-size="22" text-anchor="middle">1</text></g><clipPath id="xl-text-4-1"><rect x="0" y="197.34" width="192" height="64"/></clipPath><g clip-path="url(#xl-text-4-1)"><text x="6" y="236.82" fill="#000000" font-family="Calibri, Arial, sans-serif" font-size="22" text-anchor="start">Low</text></g><clipPath id="xl-text-4-2"><rect x="246.24" y="197.34" width="123.76" height="64"/></clipPath><g clip-path="url(#xl-text-4-2)"><text x="308.12" y="236.82" fill="#000000" font-family="Calibri, Arial, sans-serif" font-size="22" text-anchor="middle">2</text></g><clipPath id="xl-text-4-3"><rect x="370" y="197.34" width="178" height="64"/></clipPath><g clip-path="url(#xl-text-4-3)"><text x="459" y="236.82" fill="#000000" font-family="Calibri, Arial, sans-serif" font-size="22" text-anchor="middle">2</text></g><clipPath id="xl-text-4-4"><rect x="602.24" y="197.34" width="123.76" height="64"/></clipPath><g clip-path="url(#xl-text-4-4)"><text x="664.12" y="236.82" fill="#000000" font-family="Calibri, Arial, sans-serif" font-size="22" text-anchor="middle">2</text></g><clipPath id="xl-text-4-5"><rect x="726" y="197.34" width="178" height="64"/></clipPath><g clip-path="url(#xl-text-4-5)"><text x="815" y="236.82" fill="#000000" font-family="Calibri, Arial, sans-serif" font-size="22" text-anchor="middle">2</text></g><clipPath id="xl-text-4-6"><rect x="958.24" y="197.34" width="123.76" height="64"/></clipPath><g clip-path="url(#xl-text-4-6)"><text x="1020.12" y="236.82" fill="#000000" font-family="Calibri, Arial, sans-serif" font-size="22" text-anchor="middle">2</text></g><clipPath id="xl-text-4-7"><rect x="1136.24" y="197.34" width="123.76" height="64"/></clipPath><g clip-path="url(#xl-text-4-7)"><text x="1198.12" y="236.82" fill="#000000" font-family="Calibri, Arial, sans-serif" font-size="22" text-anchor="middle">2</text></g><clipPath id="xl-text-5-1"><rect x="0" y="261.34" width="192" height="64"/></clipPath><g clip-path="url(#xl-text-5-1)"><text x="6" y="300.82" fill="#000000" font-family="Calibri, Arial, sans-serif" font-size="22" text-anchor="start">Middle</text></g><clipPath id="xl-text-5-2"><rect x="246.24" y="261.34" width="123.76" height="64"/></clipPath><g clip-path="url(#xl-text-5-2)"><text x="308.12" y="300.82" fill="#000000" font-family="Calibri, Arial, sans-serif" font-size="22" text-anchor="middle">3</text></g><clipPath id="xl-text-5-3"><rect x="370" y="261.34" width="178" height="64"/></clipPath><g clip-path="url(#xl-text-5-3)"><text x="459" y="300.82" fill="#000000" font-family="Calibri, Arial, sans-serif" font-size="22" text-anchor="middle">3</text></g><clipPath id="xl-text-5-4"><rect x="602.24" y="261.34" width="123.76" height="64"/></clipPath><g clip-path="url(#xl-text-5-4)"><text x="664.12" y="300.82" fill="#000000" font-family="Calibri, Arial, sans-serif" font-size="22" text-anchor="middle">3</text></g><clipPath id="xl-text-5-5"><rect x="726" y="261.34" width="178" height="64"/></clipPath><g clip-path="url(#xl-text-5-5)"><text x="815" y="300.82" fill="#000000" font-family="Calibri, Arial, sans-serif" font-size="22" text-anchor="middle">3</text></g><clipPath id="xl-text-5-6"><rect x="958.24" y="261.34" width="123.76" height="64"/></clipPath><g clip-path="url(#xl-text-5-6)"><text x="1020.12" y="300.82" fill="#000000" font-family="Calibri, Arial, sans-serif" font-size="22" text-anchor="middle">3</text></g><clipPath id="xl-text-5-7"><rect x="1136.24" y="261.34" width="123.76" height="64"/></clipPath><g clip-path="url(#xl-text-5-7)"><text x="1198.12" y="300.82" fill="#000000" font-family="Calibri, Arial, sans-serif" font-size="22" text-anchor="middle">3</text></g><clipPath id="xl-text-6-1"><rect x="0" y="325.34" width="192" height="64"/></clipPath><g clip-path="url(#xl-text-6-1)"><text x="6" y="364.82" fill="#000000" font-family="Calibri, Arial, sans-serif" font-size="22" text-anchor="start">High</text></g><clipPath id="xl-text-6-2"><rect x="246.24" y="325.34" width="123.76" height="64"/></clipPath><g clip-path="url(#xl-text-6-2)"><text x="308.12" y="364.82" fill="#000000" font-family="Calibri, Arial, sans-serif" font-size="22" text-anchor="middle">4</text></g><clipPath id="xl-text-6-3"><rect x="370" y="325.34" width="178" height="64"/></clipPath><g clip-path="url(#xl-text-6-3)"><text x="459" y="364.82" fill="#000000" font-family="Calibri, Arial, sans-serif" font-size="22" text-anchor="middle">4</text></g><clipPath id="xl-text-6-4"><rect x="602.24" y="325.34" width="123.76" height="64"/></clipPath><g clip-path="url(#xl-text-6-4)"><text x="664.12" y="364.82" fill="#000000" font-family="Calibri, Arial, sans-serif" font-size="22" text-anchor="middle">4</text></g><clipPath id="xl-text-6-5"><rect x="726" y="325.34" width="178" height="64"/></clipPath><g clip-path="url(#xl-text-6-5)"><text x="815" y="364.82" fill="#000000" font-family="Calibri, Arial, sans-serif" font-size="22" text-anchor="middle">4</text></g><clipPath id="xl-text-6-6"><rect x="958.24" y="325.34" width="123.76" height="64"/></clipPath><g clip-path="url(#xl-text-6-6)"><text x="1020.12" y="364.82" fill="#000000" font-family="Calibri, Arial, sans-serif" font-size="22" text-anchor="middle">4</text></g><clipPath id="xl-text-6-7"><rect x="1136.24" y="325.34" width="123.76" height="64"/></clipPath><g clip-path="url(#xl-text-6-7)"><text x="1198.12" y="364.82" fill="#000000" font-family="Calibri, Arial, sans-serif" font-size="22" text-anchor="middle">4</text></g><clipPath id="xl-text-7-1"><rect x="0" y="389.34" width="192" height="64"/></clipPath><g clip-path="url(#xl-text-7-1)"><text x="6" y="428.82" fill="#000000" font-family="Calibri, Arial, sans-serif" font-size="22" text-anchor="start">Highest</text></g><clipPath id="xl-text-7-2"><rect x="246.24" y="389.34" width="123.76" height="64"/></clipPath><g clip-path="url(#xl-text-7-2)"><text x="308.12" y="428.82" fill="#000000" font-family="Calibri, Arial, sans-serif" font-size="22" text-anchor="middle">5</text></g><clipPath id="xl-text-7-3"><rect x="370" y="389.34" width="178" height="64"/></clipPath><g clip-path="url(#xl-text-7-3)"><text x="459" y="428.82" fill="#000000" font-family="Calibri, Arial, sans-serif" font-size="22" text-anchor="middle">5</text></g><clipPath id="xl-text-7-4"><rect x="602.24" y="389.34" width="123.76" height="64"/></clipPath><g clip-path="url(#xl-text-7-4)"><text x="664.12" y="428.82" fill="#000000" font-family="Calibri, Arial, sans-serif" font-size="22" text-anchor="middle">4</text></g><clipPath id="xl-text-7-5"><rect x="726" y="389.34" width="178" height="64"/></clipPath><g clip-path="url(#xl-text-7-5)"><text x="815" y="428.82" fill="#000000" font-family="Calibri, Arial, sans-serif" font-size="22" text-anchor="middle">4</text></g><clipPath id="xl-text-7-6"><rect x="958.24" y="389.34" width="123.76" height="64"/></clipPath><g clip-path="url(#xl-text-7-6)"><text x="1020.12" y="428.82" fill="#000000" font-family="Calibri, Arial, sans-serif" font-size="22" text-anchor="middle">5</text></g><clipPath id="xl-text-7-7"><rect x="1136.24" y="389.34" width="123.76" height="64"/></clipPath><g clip-path="url(#xl-text-7-7)"><text x="1198.12" y="428.82" fill="#000000" font-family="Calibri, Arial, sans-serif" font-size="22" text-anchor="middle">5</text></g><path d="M 217.76 151.9 L 226.72 151.9 L 226.72 166.62 L 233.76 166.62 L 222.24 178.78 L 210.72 166.62 L 217.76 166.62 Z" fill="#DC2626" stroke="#B91C1C" stroke-width="2"/><path d="M 217.76 215.9 L 226.72 215.9 L 226.72 230.62 L 233.76 230.62 L 222.24 242.78 L 210.72 230.62 L 217.76 230.62 Z" fill="#F59E0B" stroke="#B45309" stroke-width="2"/><path d="M 209.44 288.86 L 224.16 288.86 L 224.16 281.82 L 235.68 293.34 L 224.16 304.86 L 224.16 297.82 L 209.44 297.82 Z" fill="#F59E0B" stroke="#B45309" stroke-width="2"/><path d="M 217.76 370.78 L 226.72 370.78 L 226.72 356.06 L 233.76 356.06 L 222.24 343.9 L 210.72 356.06 L 217.76 356.06 Z" fill="#F59E0B" stroke="#B45309" stroke-width="2"/><path d="M 217.76 434.78 L 226.72 434.78 L 226.72 420.06 L 233.76 420.06 L 222.24 407.9 L 210.72 420.06 L 217.76 420.06 Z" fill="#16A34A" stroke="#15803D" stroke-width="2"/><circle cx="578.24" cy="165.34" r="16" fill="#DC2626" stroke="#B91C1C" stroke-width="2.286"/><circle cx="578.24" cy="229.34" r="16" fill="#F97316" stroke="#C2410C" stroke-width="2.286"/><circle cx="578.24" cy="293.34" r="16" fill="#F59E0B" stroke="#B45309" stroke-width="2.286"/><circle cx="578.24" cy="357.34" r="16" fill="#16A34A" stroke="#15803D" stroke-width="2.286"/><circle cx="578.24" cy="421.34" r="16" fill="#16A34A" stroke="#15803D" stroke-width="2.286"/><rect x="918.24" y="167.9" width="4.992" height="8.96" rx="0.899" ry="0.899" fill="#DC2626" stroke="#B91C1C" stroke-width="1.5"/><rect x="924.992" y="163.74" width="4.992" height="13.12" rx="0.899" ry="0.899" fill="#E2E8F0" stroke="#94A3B8" stroke-width="1.5"/><rect x="931.744" y="159.58" width="4.992" height="17.28" rx="0.899" ry="0.899" fill="#E2E8F0" stroke="#94A3B8" stroke-width="1.5"/><rect x="938.496" y="155.42" width="4.992" height="21.44" rx="0.899" ry="0.899" fill="#E2E8F0" stroke="#94A3B8" stroke-width="1.5"/><rect x="945.248" y="151.26" width="4.992" height="25.6" rx="0.899" ry="0.899" fill="#E2E8F0" stroke="#94A3B8" stroke-width="1.5"/><rect x="918.24" y="231.9" width="4.992" height="8.96" rx="0.899" ry="0.899" fill="#F97316" stroke="#C2410C" stroke-width="1.5"/><rect x="924.992" y="227.74" width="4.992" height="13.12" rx="0.899" ry="0.899" fill="#F97316" stroke="#C2410C" stroke-width="1.5"/><rect x="931.744" y="223.58" width="4.992" height="17.28" rx="0.899" ry="0.899" fill="#E2E8F0" stroke="#94A3B8" stroke-width="1.5"/><rect x="938.496" y="219.42" width="4.992" height="21.44" rx="0.899" ry="0.899" fill="#E2E8F0" stroke="#94A3B8" stroke-width="1.5"/><rect x="945.248" y="215.26" width="4.992" height="25.6" rx="0.899" ry="0.899" fill="#E2E8F0" stroke="#94A3B8" stroke-width="1.5"/><rect x="918.24" y="295.9" width="4.992" height="8.96" rx="0.899" ry="0.899" fill="#F59E0B" stroke="#B45309" stroke-width="1.5"/><rect x="924.992" y="291.74" width="4.992" height="13.12" rx="0.899" ry="0.899" fill="#F59E0B" stroke="#B45309" stroke-width="1.5"/><rect x="931.744" y="287.58" width="4.992" height="17.28" rx="0.899" ry="0.899" fill="#F59E0B" stroke="#B45309" stroke-width="1.5"/><rect x="938.496" y="283.42" width="4.992" height="21.44" rx="0.899" ry="0.899" fill="#E2E8F0" stroke="#94A3B8" stroke-width="1.5"/><rect x="945.248" y="279.26" width="4.992" height="25.6" rx="0.899" ry="0.899" fill="#E2E8F0" stroke="#94A3B8" stroke-width="1.5"/><rect x="918.24" y="359.9" width="4.992" height="8.96" rx="0.899" ry="0.899" fill="#84CC16" stroke="#4D7C0F" stroke-width="1.5"/><rect x="924.992" y="355.74" width="4.992" height="13.12" rx="0.899" ry="0.899" fill="#84CC16" stroke="#4D7C0F" stroke-width="1.5"/><rect x="931.744" y="351.58" width="4.992" height="17.28" rx="0.899" ry="0.899" fill="#84CC16" stroke="#4D7C0F" stroke-width="1.5"/><rect x="938.496" y="347.42" width="4.992" height="21.44" rx="0.899" ry="0.899" fill="#84CC16" stroke="#4D7C0F" stroke-width="1.5"/><rect x="945.248" y="343.26" width="4.992" height="25.6" rx="0.899" ry="0.899" fill="#E2E8F0" stroke="#94A3B8" stroke-width="1.5"/><rect x="918.24" y="423.9" width="4.992" height="8.96" rx="0.899" ry="0.899" fill="#16A34A" stroke="#15803D" stroke-width="1.5"/><rect x="924.992" y="419.74" width="4.992" height="13.12" rx="0.899" ry="0.899" fill="#16A34A" stroke="#15803D" stroke-width="1.5"/><rect x="931.744" y="415.58" width="4.992" height="17.28" rx="0.899" ry="0.899" fill="#16A34A" stroke="#15803D" stroke-width="1.5"/><rect x="938.496" y="411.42" width="4.992" height="21.44" rx="0.899" ry="0.899" fill="#16A34A" stroke="#15803D" stroke-width="1.5"/><rect x="945.248" y="407.26" width="4.992" height="25.6" rx="0.899" ry="0.899" fill="#16A34A" stroke="#15803D" stroke-width="1.5"/><circle cx="1112.24" cy="165.34" r="16" fill="#F1F5F9" stroke="#64748B" stroke-width="2"/><circle cx="1112.24" cy="229.34" r="16" fill="#F1F5F9" stroke="#C2410C" stroke-width="2"/><polygon points="1112.24,229.34 1112.24,215.54 1117.521,216.59 1121.998,219.582 1124.99,224.059 1126.04,229.34" fill="#F97316"/><circle cx="1112.24" cy="293.34" r="16" fill="#F1F5F9" stroke="#B45309" stroke-width="2"/><polygon points="1112.24,293.34 1112.24,279.54 1117.521,280.59 1121.998,283.582 1124.99,288.059 1126.04,293.34 1124.99,298.621 1121.998,303.098 1117.521,306.09 1112.24,307.14" fill="#F59E0B"/><circle cx="1112.24" cy="357.34" r="16" fill="#F1F5F9" stroke="#4D7C0F" stroke-width="2"/><polygon points="1112.24,357.34 1112.24,343.54 1117.521,344.59 1121.998,347.582 1124.99,352.059 1126.04,357.34 1124.99,362.621 1121.998,367.098 1117.521,370.09 1112.24,371.14 1106.959,370.09 1102.482,367.098 1099.49,362.621 1098.44,357.34" fill="#84CC16"/><circle cx="1112.24" cy="421.34" r="16" fill="#F1F5F9" stroke="#15803D" stroke-width="2"/><circle cx="1112.24" cy="421.34" r="15" fill="#16A34A"/></svg>