<svg xmlns="http://www.w3.org/2000/svg" width="1368" height="651" viewBox="0 0 1368 651"><rect x="0" y="0" width="1368" height="651" fill="#FFFFFF"/><rect x="0" y="0" width="1368" height="74.66" fill="#0F172A"/><rect x="0" y="74.66" width="192" height="64" fill="#E2E8F0"/><line x1="0" y1="74.66" x2="192" y2="74.66" stroke="#CBD5E1" stroke-width="2"/><line x1="192" y1="74.66" x2="192" y2="138.66" stroke="#CBD5E1" stroke-width="2"/><line x1="0" y1="138.66" x2="192" y2="138.66" stroke="#CBD5E1" stroke-width="2"/><line x1="0" y1="74.66" x2="0" y2="138.66" stroke="#CBD5E1" stroke-width="2"/><rect x="192" y="74.66" width="192" height="64" fill="#E2E8F0"/><line x1="192" y1="74.66" x2="384" y2="74.66" stroke="#CBD5E1" stroke-width="2"/><line x1="384" y1="74.66" x2="384" y2="138.66" stroke="#CBD5E1" stroke-width="2"/><line x1="192" y1="138.66" x2="384" y2="138.66" stroke="#CBD5E1" stroke-width="2"/><line x1="192" y1="74.66" x2="192" y2="138.66" stroke="#CBD5E1" stroke-width="2"/><rect x="384" y="74.66" width="164" height="64" fill="#FFFFFF"/><line x1="384" y1="74.66" x2="548" y2="74.66" stroke="#CBD5E1" stroke-width="2"/><line x1="548" y1="74.66" x2="548" y2="138.66" stroke="#CBD5E1" stroke-width="2"/><line x1="384" y1="138.66" x2="548" y2="138.66" stroke="#CBD5E1" stroke-width="2"/><line x1="384" y1="74.66" x2="384" y2="138.66" stroke="#CBD5E1" stroke-width="2"/><rect x="548" y="74.66" width="164" height="64" fill="#FFFFFF"/><line x1="548" y1="74.66" x2="712" y2="74.66" stroke="#CBD5E1" stroke-width="2"/><line x1="712" y1="74.66" x2="712" y2="138.66" stroke="#CBD5E1" stroke-width="2"/><line x1="548" y1="138.66" x2="712" y2="138.66" stroke="#CBD5E1" stroke-width="2"/><line x1="548" y1="74.66" x2="548" y2="138.66" stroke="#CBD5E1" stroke-width="2"/><rect x="712" y="74.66" width="164" height="64" fill="#FFFFFF"/><line x1="712" y1="74.66" x2="876" y2="74.66" stroke="#CBD5E1" stroke-width="2"/><line x1="876" y1="74.66" x2="876" y2="138.66" stroke="#CBD5E1" stroke-width="2"/><line x1="712" y1="138.66" x2="876" y2="138.66" stroke="#CBD5E1" stroke-width="2"/><line x1="712" y1="74.66" x2="712" y2="138.66" stroke="#CBD5E1" stroke-width="2"/><rect x="876" y="74.66" width="164" height="64" fill="#FFFFFF"/><line x1="876" y1="74.66" x2="1040" y2="74.66" stroke="#CBD5E1" stroke-width="2"/><line x1="1040" y1="74.66" x2="1040" y2="138.66" stroke="#CBD5E1" stroke-width="2"/><line x1="876" y1="138.66" x2="1040" y2="138.66" stroke="#CBD5E1" stroke-width="2"/><line x1="876" y1="74.66" x2="876" y2="138.66" stroke="#CBD5E1" stroke-width="2"/><rect x="1040" y="74.66" width="164" height="64" fill="#FFFFFF"/><line x1="1040" y1="74.66" x2="1204" y2="74.66" stroke="#CBD5E1" stroke-width="2"/><line x1="1204" y1="74.66" x2="1204" y2="138.66" stroke="#CBD5E1" stroke-width="2"/><line x1="1040" y1="138.66" x2="1204" y2="138.66" stroke="#CBD5E1" stroke-width="2"/><line x1="1040" y1="74.66" x2="1040" y2="138.66" stroke="#CBD5E1" stroke-width="2"/><rect x="1204" y="74.66" width="164" height="64" fill="#FFFFFF"/><line x1="1204" y1="74.66" x2="1368" y2="74.66" stroke="#CBD5E1" stroke-width="2"/><line x1="1368" y1="74.66" x2="1368" y2="138.66" stroke="#CBD5E1" stroke-width="2"/><line x1="1204" y1="138.66" x2="1368" y2="138.66" stroke="#CBD5E1" stroke-width="2"/><line x1="1204" y1="74.66" x2="1204" y2="138.66" stroke="#CBD5E1" stroke-width="2"/><rect x="0" y="138.66" width="192" height="64" fill="#F8FAFC"/><line x1="0" y1="138.66" x2="192" y2="138.66" stroke="#CBD5E1" stroke-width="2"/><line x1="192" y1="138.66" x2="192" y2="202.66" stroke="#CBD5E1" stroke-width="2"/><line x1="0" y1="202.66" x2="192" y2="202.66" stroke="#CBD5E1" stroke-width="2"/><line x1="0" y1="138.66" x2="0" y2="202.66" stroke="#CBD5E1" stroke-width="2"/><rect x="192" y="138.66" width="192" height="64" fill="#F8FAFC"/><line x1="192" y1="138.66" x2="384" y2="138.66" stroke="#CBD5E1" stroke-width="2"/><line x1="384" y1="138.66" x2="384" y2="202.66" stroke="#CBD5E1" stroke-width="2"/><line x1="192" y1="202.66" x2="384" y2="202.66" stroke="#CBD5E1" stroke-width="2"/><line x1="192" y1="138.66" x2="192" y2="202.66" stroke="#CBD5E1" stroke-width="2"/><rect x="384" y="138.66" width="164" height="64" fill="#FFFFFF"/><line x1="384" y1="138.66" x2="548" y2="138.66" stroke="#CBD5E1" stroke-width="2"/><line x1="548" y1="138.66" x2="548" y2="202.66" stroke="#CBD5E1" stroke-width="2"/><line x1="384" y1="202.66" x2="548" y2="202.66" stroke="#CBD5E1" stroke-width="2"/><line x1="384" y1="138.66" x2="384" y2="202.66" stroke="#CBD5E1" stroke-width="2"/><rect x="548" y="138.66" width="164" height="64" fill="#FFFFFF"/><line x1="548" y1="138.66" x2="712" y2="138.66" stroke="#CBD5E1" stroke-width="2"/><line x1="712" y1="138.66" x2="712" y2="202.66" stroke="#CBD5E1" stroke-width="2"/><line x1="548" y1="202.66" x2="712" y2="202.66" stroke="#CBD5E1" stroke-width="2"/><line x1="548" y1="138.66" x2="548" y2="202.66" stroke="#CBD5E1" stroke-width="2"/><rect x="712" y="138.66" width="164" height="64" fill="#FFFFFF"/><line x1="712" y1="138.66" x2="876" y2="138.66" stroke="#CBD5E1" stroke-width="2"/><line x1="876" y1="138.66" x2="876" y2="202.66" stroke="#CBD5E1" stroke-width="2"/><line x1="712" y1="202.66" x2="876" y2="202.66" stroke="#CBD5E1" stroke-width="2"/><line x1="712" y1="138.66" x2="712" y2="202.66" stroke="#CBD5E1" stroke-width="2"/><rect x="876" y="138.66" width="164" height="64" fill="#FFFFFF"/><line x1="876" y1="138.66" x2="1040" y2="138.66" stroke="#CBD5E1" stroke-width="2"/><line x1="1040" y1="138.66" x2="1040" y2="202.66" stroke="#CBD5E1" stroke-width="2"/><line x1="876" y1="202.66" x2="1040" y2="202.66" stroke="#CBD5E1" stroke-width="2"/><line x1="876" y1="138.66" x2="876" y2="202.66" stroke="#CBD5E1" stroke-width="2"/><rect x="1040" y="138.66" width="164" height="64" fill="#FFFFFF"/><line x1="1040" y1="138.66" x2="1204" y2="138.66" stroke="#CBD5E1" stroke-width="2"/><line x1="1204" y1="138.66" x2="1204" y2="202.66" stroke="#CBD5E1" stroke-width="2"/><line x1="1040" y1="202.66" x2="1204" y2="202.66" stroke="#CBD5E1" stroke-width="2"/><line x1="1040" y1="138.66" x2="1040" y2="202.66" stroke="#CBD5E1" stroke-width="2"/><rect x="1204" y="138.66" width="164" height="64" fill="#FFFFFF"/><line x1="1204" y1="138.66" x2="1368" y2="138.66" stroke="#CBD5E1" stroke-width="2"/><line x1="1368" y1="138.66" x2="1368" y2="202.66" stroke="#CBD5E1" stroke-width="2"/><line x1="1204" y1="202.66" x2="1368" y2="202.66" stroke="#CBD5E1" stroke-width="2"/><line x1="1204" y1="138.66" x2="1204" y2="202.66" stroke="#CBD5E1" stroke-width="2"/><rect x="0" y="202.66" width="192" height="64" fill="#F8FAFC"/><line x1="0" y1="202.66" x2="192" y2="202.66" stroke="#CBD5E1" stroke-width="2"/><line x1="192" y1="202.66" x2="192" y2="266.66" stroke="#CBD5E1" stroke-width="2"/><line x1="0" y1="266.66" x2="192" y2="266.66" stroke="#CBD5E1" stroke-width="2"/><line x1="0" y1="202.66" x2="0" y2="266.66" stroke="#CBD5E1" stroke-width="2"/><rect x="192" y="202.66" width="192" height="64" fill="#F8FAFC"/><line x1="192" y1="202.66" x2="384" y2="202.66" stroke="#CBD5E1" stroke-width="2"/><line x1="384" y1="202.66" x2="384" y2="266.66" stroke="#CBD5E1" stroke-width="2"/><line x1="192" y1="266.66" x2="384" y2="266.66" stroke="#CBD5E1" stroke-width="2"/><line x1="192" y1="202.66" x2="192" y2="266.66" stroke="#CBD5E1" stroke-width="2"/><rect x="384" y="202.66" width="164" height="64" fill="#FFFFFF"/><line x1="384" y1="202.66" x2="548" y2="202.66" stroke="#CBD5E1" stroke-width="2"/><line x1="548" y1="202.66" x2="548" y2="266.66" stroke="#CBD5E1" stroke-width="2"/><line x1="384" y1="266.66" x2="548" y2="266.66" stroke="#CBD5E1" stroke-width="2"/><line x1="384" y1="202.66" x2="384" y2="266.66" stroke="#CBD5E1" stroke-width="2"/><rect x="548" y="202.66" width="164" height="64" fill="#FFFFFF"/><line x1="548" y1="202.66" x2="712" y2="202.66" stroke="#CBD5E1" stroke-width="2"/><line x1="712" y1="202.66" x2="712" y2="266.66" stroke="#CBD5E1" stroke-width="2"/><line x1="548" y1="266.66" x2="712" y2="266.66" stroke="#CBD5E1" stroke-width="2"/><line x1="548" y1="202.66" x2="548" y2="266.66" stroke="#CBD5E1" stroke-width="2"/><rect x="712" y="202.66" width="164" height="64" fill="#FFFFFF"/><line x1="712" y1="202.66" x2="876" y2="202.66" stroke="#CBD5E1" stroke-width="2"/><line x1="876" y1="202.66" x2="876" y2="266.66" stroke="#CBD5E1" stroke-width="2"/><line x1="712" y1="266.66" x2="876" y2="266.66" stroke="#CBD5E1" stroke-width="2"/><line x1="712" y1="202.66" x2="712" y2="266.66" stroke="#CBD5E1" stroke-width="2"/><rect x="876" y="202.66" width="164" height="64" fill="#FFFFFF"/><line x1="876" y1="202.66" x2="1040" y2="202.66" stroke="#CBD5E1" stroke-width="2"/><line x1="1040" y1="202.66" x2="1040" y2="266.66" stroke="#CBD5E1" stroke-width="2"/><line x1="876" y1="266.66" x2="1040" y2="266.66" stroke="#CBD5E1" stroke-width="2"/><line x1="876" y1="202.66" x2="876" y2="266.66" stroke="#CBD5E1" stroke-width="2"/><rect x="1040" y="202.66" width="164" height="64" fill="#FFFFFF"/><line x1="1040" y1="202.66" x2="1204" y2="202.66" stroke="#CBD5E1" stroke-width="2"/><line x1="1204" y1="202.66" x2="1204" y2="266.66" stroke="#CBD5E1" stroke-width="2"/><line x1="1040" y1="266.66" x2="1204" y2="266.66" stroke="#CBD5E1" stroke-width="2"/><line x1="1040" y1="202.66" x2="1040" y2="266.66" stroke="#CBD5E1" stroke-width="2"/><rect x="1204" y="202.66" width="164" height="64" fill="#FFFFFF"/><line x1="1204" y1="202.66" x2="1368" y2="202.66" stroke="#CBD5E1" stroke-width="2"/><line x1="1368" y1="202.66" x2="1368" y2="266.66" stroke="#CBD5E1" stroke-width="2"/><line x1="1204" y1="266.66" x2="1368" y2="266.66" stroke="#CBD5E1" stroke-width="2"/><line x1="1204" y1="202.66" x2="1204" y2="266.66" stroke="#CBD5E1" stroke-width="2"/><rect x="0" y="266.66" width="192" height="64" fill="#F8FAFC"/><line x1="0" y1="266.66" x2="192" y2="266.66" stroke="#CBD5E1" stroke-width="2"/><line x1="192" y1="266.66" x2="192" y2="330.66" stroke="#CBD5E1" stroke-width="2"/><line x1="0" y1="330.66" x2="192" y2="330.66" stroke="#CBD5E1" stroke-width="2"/><line x1="0" y1="266.66" x2="0" y2="330.66" stroke="#CBD5E1" stroke-width="2"/><rect x="192" y="266.66" width="192" height="64" fill="#F8FAFC"/><line x1="192" y1="266.66" x2="384" y2="266.66" stroke="#CBD5E1" stroke-width="2"/><line x1="384" y1="266.66" x2="384" y2="330.66" stroke="#CBD5E1" stroke-width="2"/><line x1="192" y1="330.66" x2="384" y2="330.66" stroke="#CBD5E1" stroke-width="2"/><line x1="192" y1="266.66" x2="192" y2="330.66" stroke="#CBD5E1" stroke-width="2"/><rect x="384" y="266.66" width="164" height="64" fill="#FFFFFF"/><line x1="384" y1="266.66" x2="548" y2="266.66" stroke="#CBD5E1" stroke-width="2"/><line x1="548" y1="266.66" x2="548" y2="330.66" stroke="#CBD5E1" stroke-width="2"/><line x1="384" y1="330.66" x2="548" y2="330.66" stroke="#CBD5E1" stroke-width="2"/><line x1="384" y1="266.66" x2="384" y2="330.66" stroke="#CBD5E1" stroke-width="2"/><rect x="548" y="266.66" width="164" height="64" fill="#FFFFFF"/><line x1="548" y1="266.66" x2="712" y2="266.66" stroke="#CBD5E1" stroke-width="2"/><line x1="712" y1="266.66" x2="712" y2="330.66" stroke="#CBD5E1" stroke-width="2"/><line x1="548" y1="330.66" x2="712" y2="330.66" stroke="#CBD5E1" stroke-width="2"/><line x1="548" y1="266.66" x2="548" y2="330.66" stroke="#CBD5E1" stroke-width="2"/><rect x="712" y="266.66" width="164" height="64" fill="#FFFFFF"/><line x1="712" y1="266.66" x2="876" y2="266.66" stroke="#CBD5E1" stroke-width="2"/><line x1="876" y1="266.66" x2="876" y2="330.66" stroke="#CBD5E1" stroke-width="2"/><line x1="712" y1="330.66" x2="876" y2="330.66" stroke="#CBD5E1" stroke-width="2"/><line x1="712" y1="266.66" x2="712" y2="330.66" stroke="#CBD5E1" stroke-width="2"/><rect x="876" y="266.66" width="164" height="64" fill="#FFFFFF"/><line x1="876" y1="266.66" x2="1040" y2="266.66" stroke="#CBD5E1" stroke-width="2"/><line x1="1040" y1="266.66" x2="1040" y2="330.66" stroke="#CBD5E1" stroke-width="2"/><line x1="876" y1="330.66" x2="1040" y2="330.66" stroke="#CBD5E1" stroke-width="2"/><line x1="876" y1="266.66" x2="876" y2="330.66" stroke="#CBD5E1" stroke-width="2"/><rect x="1040" y="266.66" width="164" height="64" fill="#FFFFFF"/><line x1="1040" y1="266.66" x2="1204" y2="266.66" stroke="#CBD5E1" stroke-width="2"/><line x1="1204" y1="266.66" x2="1204" y2="330.66" stroke="#CBD5E1" stroke-width="2"/><line x1="1040" y1="330.66" x2="1204" y2="330.66" stroke="#CBD5E1" stroke-width="2"/><line x1="1040" y1="266.66" x2="1040" y2="330.66" stroke="#CBD5E1" stroke-width="2"/><rect x="1204" y="266.66" width="164" height="64" fill="#FFFFFF"/><line x1="1204" y1="266.66" x2="1368" y2="266.66" stroke="#CBD5E1" stroke-width="2"/><line x1="1368" y1="266.66" x2="1368" y2="330.66" stroke="#CBD5E1" stroke-width="2"/><line x1="1204" y1="330.66" x2="1368" y2="330.66" stroke="#CBD5E1" stroke-width="2"/><line x1="1204" y1="266.66" x2="1204" y2="330.66" stroke="#CBD5E1" stroke-width="2"/><rect x="0" y="330.66" width="192" height="64" fill="#FFFFFF"/><line x1="0" y1="330.66" x2="192" y2="330.66" stroke="#CBD5E1" stroke-width="2"/><line x1="192" y1="330.66" x2="192" y2="394.66" stroke="#CBD5E1" stroke-width="2"/><line x1="0" y1="394.66" x2="192" y2="394.66" stroke="#CBD5E1" stroke-width="2"/><line x1="0" y1="330.66" x2="0" y2="394.66" stroke="#CBD5E1" stroke-width="2"/><rect x="192" y="330.66" width="192" height="64" fill="#FFFFFF"/><line x1="192" y1="330.66" x2="384" y2="330.66" stroke="#CBD5E1" stroke-width="2"/><line x1="384" y1="330.66" x2="384" y2="394.66" stroke="#CBD5E1" stroke-width="2"/><line x1="192" y1="394.66" x2="384" y2="394.66" stroke="#CBD5E1" stroke-width="2"/><line x1="192" y1="330.66" x2="192" y2="394.66" stroke="#CBD5E1" stroke-width="2"/><rect x="384" y="330.66" width="164" height="64" fill="#FFFFFF"/><line x1="384" y1="330.66" x2="548" y2="330.66" stroke="#CBD5E1" stroke-width="2"/><line x1="548" y1="330.66" x2="548" y2="394.66" stroke="#CBD5E1" stroke-width="2"/><line x1="384" y1="394.66" x2="548" y2="394.66" stroke="#CBD5E1" stroke-width="2"/><line x1="384" y1="330.66" x2="384" y2="394.66" stroke="#CBD5E1" stroke-width="2"/><rect x="548" y="330.66" width="164" height="64" fill="#FFFFFF"/><line x1="548" y1="330.66" x2="712" y2="330.66" stroke="#CBD5E1" stroke-width="2"/><line x1="712" y1="330.66" x2="712" y2="394.66" stroke="#CBD5E1" stroke-width="2"/><line x1="548" y1="394.66" x2="712" y2="394.66" stroke="#CBD5E1" stroke-width="2"/><line x1="548" y1="330.66" x2="548" y2="394.66" stroke="#CBD5E1" stroke-width="2"/><rect x="712" y="330.66" width="164" height="64" fill="#FFFFFF"/><line x1="712" y1="330.66" x2="876" y2="330.66" stroke="#CBD5E1" stroke-width="2"/><line x1="876" y1="330.66" x2="876" y2="394.66" stroke="#CBD5E1" stroke-width="2"/><line x1="712" y1="394.66" x2="876" y2="394.66" stroke="#CBD5E1" stroke-width="2"/><line x1="712" y1="330.66" x2="712" y2="394.66" stroke="#CBD5E1" stroke-width="2"/><rect x="876" y="330.66" width="164" height="64" fill="#FFFFFF"/><line x1="876" y1="330.66" x2="1040" y2="330.66" stroke="#CBD5E1" stroke-width="2"/><line x1="1040" y1="330.66" x2="1040" y2="394.66" stroke="#CBD5E1" stroke-width="2"/><line x1="876" y1="394.66" x2="1040" y2="394.66" stroke="#CBD5E1" stroke-width="2"/><line x1="876" y1="330.66" x2="876" y2="394.66" stroke="#CBD5E1" stroke-width="2"/><rect x="1040" y="330.66" width="164" height="64" fill="#FFFFFF"/><line x1="1040" y1="330.66" x2="1204" y2="330.66" stroke="#CBD5E1" stroke-width="2"/><line x1="1204" y1="330.66" x2="1204" y2="394.66" stroke="#CBD5E1" stroke-width="2"/><line x1="1040" y1="394.66" x2="1204" y2="394.66" stroke="#CBD5E1" stroke-width="2"/><line x1="1040" y1="330.66" x2="1040" y2="394.66" stroke="#CBD5E1" stroke-width="2"/><rect x="1204" y="330.66" width="164" height="64" fill="#FFFFFF"/><line x1="1204" y1="330.66" x2="1368" y2="330.66" stroke="#CBD5E1" stroke-width="2"/><line x1="1368" y1="330.66" x2="1368" y2="394.66" stroke="#CBD5E1" stroke-width="2"/><line x1="1204" y1="394.66" x2="1368" y2="394.66" stroke="#CBD5E1" stroke-width="2"/><line x1="1204" y1="330.66" x2="1204" y2="394.66" stroke="#CBD5E1" stroke-width="2"/><rect x="0" y="394.66" width="192" height="64" fill="#FFFFFF"/><line x1="0" y1="394.66" x2="192" y2="394.66" stroke="#CBD5E1" stroke-width="2"/><line x1="192" y1="394.66" x2="192" y2="458.66" stroke="#CBD5E1" stroke-width="2"/><line x1="0" y1="458.66" x2="192" y2="458.66" stroke="#CBD5E1" stroke-width="2"/><line x1="0" y1="394.66" x2="0" y2="458.66" stroke="#CBD5E1" stroke-width="2"/><rect x="192" y="394.66" width="192" height="64" fill="#FFFFFF"/><line x1="192" y1="394.66" x2="384" y2="394.66" stroke="#CBD5E1" stroke-width="2"/><line x1="384" y1="394.66" x2="384" y2="458.66" stroke="#CBD5E1" stroke-width="2"/><line x1="192" y1="458.66" x2="384" y2="458.66" stroke="#CBD5E1" stroke-width="2"/><line x1="192" y1="394.66" x2="192" y2="458.66" stroke="#CBD5E1" stroke-width="2"/><rect x="384" y="394.66" width="164" height="64" fill="#FFFFFF"/><line x1="384" y1="394.66" x2="548" y2="394.66" stroke="#CBD5E1" stroke-width="2"/><line x1="548" y1="394.66" x2="548" y2="458.66" stroke="#CBD5E1" stroke-width="2"/><line x1="384" y1="458.66" x2="548" y2="458.66" stroke="#CBD5E1" stroke-width="2"/><line x1="384" y1="394.66" x2="384" y2="458.66" stroke="#CBD5E1" stroke-width="2"/><rect x="548" y="394.66" width="164" height="64" fill="#FFFFFF"/><line x1="548" y1="394.66" x2="712" y2="394.66" stroke="#CBD5E1" stroke-width="2"/><line x1="712" y1="394.66" x2="712" y2="458.66" stroke="#CBD5E1" stroke-width="2"/><line x1="548" y1="458.66" x2="712" y2="458.66" stroke="#CBD5E1" stroke-width="2"/><line x1="548" y1="394.66" x2="548" y2="458.66" stroke="#CBD5E1" stroke-width="2"/><rect x="712" y="394.66" width="164" height="64" fill="#FFFFFF"/><line x1="712" y1="394.66" x2="876" y2="394.66" stroke="#CBD5E1" stroke-width="2"/><line x1="876" y1="394.66" x2="876" y2="458.66" stroke="#CBD5E1" stroke-width="2"/><line x1="712" y1="458.66" x2="876" y2="458.66" stroke="#CBD5E1" stroke-width="2"/><line x1="712" y1="394.66" x2="712" y2="458.66" stroke="#CBD5E1" stroke-width="2"/><rect x="876" y="394.66" width="164" height="64" fill="#FFFFFF"/><line x1="876" y1="394.66" x2="1040" y2="394.66" stroke="#CBD5E1" stroke-width="2"/><line x1="1040" y1="394.66" x2="1040" y2="458.66" stroke="#CBD5E1" stroke-width="2"/><line x1="876" y1="458.66" x2="1040" y2="458.66" stroke="#CBD5E1" stroke-width="2"/><line x1="876" y1="394.66" x2="876" y2="458.66" stroke="#CBD5E1" stroke-width="2"/><rect x="1040" y="394.66" width="164" height="64" fill="#FFFFFF"/><line x1="1040" y1="394.66" x2="1204" y2="394.66" stroke="#CBD5E1" stroke-width="2"/><line x1="1204" y1="394.66" x2="1204" y2="458.66" stroke="#CBD5E1" stroke-width="2"/><line x1="1040" y1="458.66" x2="1204" y2="458.66" stroke="#CBD5E1" stroke-width="2"/><line x1="1040" y1="394.66" x2="1040" y2="458.66" stroke="#CBD5E1" stroke-width="2"/><rect x="1204" y="394.66" width="164" height="64" fill="#FFFFFF"/><line x1="1204" y1="394.66" x2="1368" y2="394.66" stroke="#CBD5E1" stroke-width="2"/><line x1="1368" y1="394.66" x2="1368" y2="458.66" stroke="#CBD5E1" stroke-width="2"/><line x1="1204" y1="458.66" x2="1368" y2="458.66" stroke="#CBD5E1" stroke-width="2"/><line x1="1204" y1="394.66" x2="1204" y2="458.66" stroke="#CBD5E1" stroke-width="2"/><rect x="0" y="458.66" width="192" height="64" fill="#FFFFFF"/><line x1="0" y1="458.66" x2="192" y2="458.66" stroke="#CBD5E1" stroke-width="2"/><line x1="192" y1="458.66" x2="192" y2="522.66" stroke="#CBD5E1" stroke-width="2"/><line x1="0" y1="522.66" x2="192" y2="522.66" stroke="#CBD5E1" stroke-width="2"/><line x1="0" y1="458.66" x2="0" y2="522.66" stroke="#CBD5E1" stroke-width="2"/><rect x="192" y="458.66" width="192" height="64" fill="#FFFFFF"/><line x1="192" y1="458.66" x2="384" y2="458.66" stroke="#CBD5E1" stroke-width="2"/><line x1="384" y1="458.66" x2="384" y2="522.66" stroke="#CBD5E1" stroke-width="2"/><line x1="192" y1="522.66" x2="384" y2="522.66" stroke="#CBD5E1" stroke-width="2"/><line x1="192" y1="458.66" x2="192" y2="522.66" stroke="#CBD5E1" stroke-width="2"/><rect x="384" y="458.66" width="164" height="64" fill="#FFFFFF"/><line x1="384" y1="458.66" x2="548" y2="458.66" stroke="#CBD5E1" stroke-width="2"/><line x1="548" y1="458.66" x2="548" y2="522.66" stroke="#CBD5E1" stroke-width="2"/><line x1="384" y1="522.66" x2="548" y2="522.66" stroke="#CBD5E1" stroke-width="2"/><line x1="384" y1="458.66" x2="384" y2="522.66" stroke="#CBD5E1" stroke-width="2"/><rect x="548" y="458.66" width="164" height="64" fill="#FFFFFF"/><line x1="548" y1="458.66" x2="712" y2="458.66" stroke="#CBD5E1" stroke-width="2"/><line x1="712" y1="458.66" x2="712" y2="522.66" stroke="#CBD5E1" stroke-width="2"/><line x1="548" y1="522.66" x2="712" y2="522.66" stroke="#CBD5E1" stroke-width="2"/><line x1="548" y1="458.66" x2="548" y2="522.66" stroke="#CBD5E1" stroke-width="2"/><rect x="712" y="458.66" width="164" height="64" fill="#FFFFFF"/><line x1="712" y1="458.66" x2="876" y2="458.66" stroke="#CBD5E1" stroke-width="2"/><line x1="876" y1="458.66" x2="876" y2="522.66" stroke="#CBD5E1" stroke-width="2"/><line x1="712" y1="522.66" x2="876" y2="522.66" stroke="#CBD5E1" stroke-width="2"/><line x1="712" y1="458.66" x2="712" y2="522.66" stroke="#CBD5E1" stroke-width="2"/><rect x="876" y="458.66" width="164" height="64" fill="#FFFFFF"/><line x1="876" y1="458.66" x2="1040" y2="458.66" stroke="#CBD5E1" stroke-width="2"/><line x1="1040" y1="458.66" x2="1040" y2="522.66" stroke="#CBD5E1" stroke-width="2"/><line x1="876" y1="522.66" x2="1040" y2="522.66" stroke="#CBD5E1" stroke-width="2"/><line x1="876" y1="458.66" x2="876" y2="522.66" stroke="#CBD5E1" stroke-width="2"/><rect x="1040" y="458.66" width="164" height="64" fill="#FFFFFF"/><line x1="1040" y1="458.66" x2="1204" y2="458.66" stroke="#CBD5E1" stroke-width="2"/><line x1="1204" y1="458.66" x2="1204" y2="522.66" stroke="#CBD5E1" stroke-width="2"/><line x1="1040" y1="522.66" x2="1204" y2="522.66" stroke="#CBD5E1" stroke-width="2"/><line x1="1040" y1="458.66" x2="1040" y2="522.66" stroke="#CBD5E1" stroke-width="2"/><rect x="1204" y="458.66" width="164" height="64" fill="#FFFFFF"/><line x1="1204" y1="458.66" x2="1368" y2="458.66" stroke="#CBD5E1" stroke-width="2"/><line x1="1368" y1="458.66" x2="1368" y2="522.66" stroke="#CBD5E1" stroke-width="2"/><line x1="1204" y1="522.66" x2="1368" y2="522.66" stroke="#CBD5E1" stroke-width="2"/><line x1="1204" y1="458.66" x2="1204" y2="522.66" stroke="#CBD5E1" stroke-width="2"/><rect x="0" y="522.66" width="192" height="64" fill="#FFFFFF"/><line x1="0" y1="522.66" x2="192" y2="522.66" stroke="#CBD5E1" stroke-width="2"/><line x1="192" y1="522.66" x2="192" y2="586.66" stroke="#CBD5E1" stroke-width="2"/><line x1="0" y1="586.66" x2="192" y2="586.66" stroke="#CBD5E1" stroke-width="2"/><line x1="0" y1="522.66" x2="0" y2="586.66" stroke="#CBD5E1" stroke-width="2"/><rect x="192" y="522.66" width="192" height="64" fill="#FFFFFF"/><line x1="192" y1="522.66" x2="384" y2="522.66" stroke="#CBD5E1" stroke-width="2"/><line x1="384" y1="522.66" x2="384" y2="586.66" stroke="#CBD5E1" stroke-width="2"/><line x1="192" y1="586.66" x2="384" y2="586.66" stroke="#CBD5E1" stroke-width="2"/><line x1="192" y1="522.66" x2="192" y2="586.66" stroke="#CBD5E1" stroke-width="2"/><rect x="384" y="522.66" width="164" height="64" fill="#FFFFFF"/><line x1="384" y1="522.66" x2="548" y2="522.66" stroke="#CBD5E1" stroke-width="2"/><line x1="548" y1="522.66" x2="548" y2="586.66" stroke="#CBD5E1" stroke-width="2"/><line x1="384" y1="586.66" x2="548" y2="586.66" stroke="#CBD5E1" stroke-width="2"/><line x1="384" y1="522.66" x2="384" y2="586.66" stroke="#CBD5E1" stroke-width="2"/><rect x="548" y="522.66" width="164" height="64" fill="#FFFFFF"/><line x1="548" y1="522.66" x2="712" y2="522.66" stroke="#CBD5E1" stroke-width="2"/><line x1="712" y1="522.66" x2="712" y2="586.66" stroke="#CBD5E1" stroke-width="2"/><line x1="548" y1="586.66" x2="712" y2="586.66" stroke="#CBD5E1" stroke-width="2"/><line x1="548" y1="522.66" x2="548" y2="586.66" stroke="#CBD5E1" stroke-width="2"/><rect x="712" y="522.66" width="164" height="64" fill="#FFFFFF"/><line x1="712" y1="522.66" x2="876" y2="522.66" stroke="#CBD5E1" stroke-width="2"/><line x1="876" y1="522.66" x2="876" y2="586.66" stroke="#CBD5E1" stroke-width="2"/><line x1="712" y1="586.66" x2="876" y2="586.66" stroke="#CBD5E1" stroke-width="2"/><line x1="712" y1="522.66" x2="712" y2="586.66" stroke="#CBD5E1" stroke-width="2"/><rect x="876" y="522.66" width="164" height="64" fill="#FFFFFF"/><line x1="876" y1="522.66" x2="1040" y2="522.66" stroke="#CBD5E1" stroke-width="2"/><line x1="1040" y1="522.66" x2="1040" y2="586.66" stroke="#CBD5E1" stroke-width="2"/><line x1="876" y1="586.66" x2="1040" y2="586.66" stroke="#CBD5E1" stroke-width="2"/><line x1="876" y1="522.66" x2="876" y2="586.66" stroke="#CBD5E1" stroke-width="2"/><rect x="1040" y="522.66" width="164" height="64" fill="#FFFFFF"/><line x1="1040" y1="522.66" x2="1204" y2="522.66" stroke="#CBD5E1" stroke-width="2"/><line x1="1204" y1="522.66" x2="1204" y2="586.66" stroke="#CBD5E1" stroke-width="2"/><line x1="1040" y1="586.66" x2="1204" y2="586.66" stroke="#CBD5E1" stroke-width="2"/><line x1="1040" y1="522.66" x2="1040" y2="586.66" stroke="#CBD5E1" stroke-width="2"/><rect x="1204" y="522.66" width="164" height="64" fill="#FFFFFF"/><line x1="1204" y1="522.66" x2="1368" y2="522.66" stroke="#CBD5E1" stroke-width="2"/><line x1="1368" y1="522.66" x2="1368" y2="586.66" stroke="#CBD5E1" stroke-width="2"/><line x1="1204" y1="586.66" x2="1368" y2="586.66" stroke="#CBD5E1" stroke-width="2"/><line x1="1204" y1="522.66" x2="1204" y2="586.66" stroke="#CBD5E1" stroke-width="2"/><rect x="0" y="586.66" width="192" height="64" fill="#FFFFFF"/><line x1="0" y1="586.66" x2="192" y2="586.66" stroke="#CBD5E1" stroke-width="2"/><line x1="192" y1="586.66" x2="192" y2="650.66" stroke="#CBD5E1" stroke-width="2"/><line x1="0" y1="650.66" x2="192" y2="650.66" stroke="#CBD5E1" stroke-width="2"/><line x1="0" y1="586.66" x2="0" y2="650.66" stroke="#CBD5E1" stroke-width="2"/><rect x="192" y="586.66" width="192" height="64" fill="#FFFFFF"/><line x1="192" y1="586.66" x2="384" y2="586.66" stroke="#CBD5E1" stroke-width="2"/><line x1="384" y1="586.66" x2="384" y2="650.66" stroke="#CBD5E1" stroke-width="2"/><line x1="192" y1="650.66" x2="384" y2="650.66" stroke="#CBD5E1" stroke-width="2"/><line x1="192" y1="586.66" x2="192" y2="650.66" stroke="#CBD5E1" stroke-width="2"/><rect x="384" y="586.66" width="164" height="64" fill="#FFFFFF"/><line x1="384" y1="586.66" x2="548" y2="586.66" stroke="#CBD5E1" stroke-width="2"/><line x1="548" y1="586.66" x2="548" y2="650.66" stroke="#CBD5E1" stroke-width="2"/><line x1="384" y1="650.66" x2="548" y2="650.66" stroke="#CBD5E1" stroke-width="2"/><line x1="384" y1="586.66" x2="384" y2="650.66" stroke="#CBD5E1" stroke-width="2"/><rect x="548" y="586.66" width="164" height="64" fill="#FFFFFF"/><line x1="548" y1="586.66" x2="712" y2="586.66" stroke="#CBD5E1" stroke-width="2"/><line x1="712" y1="586.66" x2="712" y2="650.66" stroke="#CBD5E1" stroke-width="2"/><line x1="548" y1="650.66" x2="712" y2="650.66" stroke="#CBD5E1" stroke-width="2"/><line x1="548" y1="586.66" x2="548" y2="650.66" stroke="#CBD5E1" stroke-width="2"/><rect x="712" y="586.66" width="164" height="64" fill="#FFFFFF"/><line x1="712" y1="586.66" x2="876" y2="586.66" stroke="#CBD5E1" stroke-width="2"/><line x1="876" y1="586.66" x2="876" y2="650.66" stroke="#CBD5E1" stroke-width="2"/><line x1="712" y1="650.66" x2="876" y2="650.66" stroke="#CBD5E1" stroke-width="2"/><line x1="712" y1="586.66" x2="712" y2="650.66" stroke="#CBD5E1" stroke-width="2"/><rect x="876" y="586.66" width="164" height="64" fill="#FFFFFF"/><line x1="876" y1="586.66" x2="1040" y2="586.66" stroke="#CBD5E1" stroke-width="2"/><line x1="1040" y1="586.66" x2="1040" y2="650.66" stroke="#CBD5E1" stroke-width="2"/><line x1="876" y1="650.66" x2="1040" y2="650.66" stroke="#CBD5E1" stroke-width="2"/><line x1="876" y1="586.66" x2="876" y2="650.66" stroke="#CBD5E1" stroke-width="2"/><rect x="1040" y="586.66" width="164" height="64" fill="#FFFFFF"/><line x1="1040" y1="586.66" x2="1204" y2="586.66" stroke="#CBD5E1" stroke-width="2"/><line x1="1204" y1="586.66" x2="1204" y2="650.66" stroke="#CBD5E1" stroke-width="2"/><line x1="1040" y1="650.66" x2="1204" y2="650.66" stroke="#CBD5E1" stroke-width="2"/><line x1="1040" y1="586.66" x2="1040" y2="650.66" stroke="#CBD5E1" stroke-width="2"/><rect x="1204" y="586.66" width="164" height="64" fill="#FFFFFF"/><line x1="1204" y1="586.66" x2="1368" y2="586.66" stroke="#CBD5E1" stroke-width="2"/><line x1="1368" y1="586.66" x2="1368" y2="650.66" stroke="#CBD5E1" stroke-width="2"/><line x1="1204" y1="650.66" x2="1368" y2="650.66" stroke="#CBD5E1" stroke-width="2"/><line x1="1204" y1="586.66" x2="1204" y2="650.66" stroke="#CBD5E1" stroke-width="2"/><clipPath id="xl-text-1-1"><rect x="0" y="0" width="1368" height="74.66"/></clipPath><g clip-path="url(#xl-text-1-1)"><text x="684" y="44.81" fill="#FFFFFF" font-family="Calibri, Arial, sans-serif" font-size="22" text-anchor="middle" font-weight="700">Data Label Box Fidelity</text></g><clipPath id="xl-text-2-1"><rect x="0" y="74.66" width="192" height="64"/></clipPath><g clip-path="url(#xl-text-2-1)"><text x="6" y="114.14" fill="#000000" font-family="Calibri, Arial, sans-serif" font-size="22" text-anchor="start" font-weight="700">Month</text></g><clipPath id="xl-text-2-2"><rect x="192" y="74.66" width="356" height="64"/></clipPath><g clip-path="url(#xl-text-2-2)"><text x="198" y="114.14" fill="#000000" font-family="Calibri, Arial, sans-serif" font-size="22" text-anchor="start" font-weight="700">Actual</text></g><clipPath id="xl-text-3-1"><rect x="0" y="138.66" width="192" height="64"/></clipPath><g clip-path="url(#xl-text-3-1)"><text x="6" y="178.14" fill="#000000" font-family="Calibri, Arial, sans-serif" font-size="22" text-anchor="start">Jan</text></g><clipPath id="xl-text-3-2"><rect x="192" y="138.66" width="192" height="64"/></clipPath><g clip-path="url(#xl-text-3-2)"><text x="378" y="178.14" fill="#000000" font-family="Calibri, Arial, sans-serif" font-size="22" text-anchor="end">120</text></g><clipPath id="xl-text-4-1"><rect x="0" y="202.66" width="192" height="64"/></clipPath><g clip-path="url(#xl-text-4-1)"><text x="6" y="242.14" fill="#000000" font-family="Calibri, Arial, sans-serif" font-size="22" text-anchor="start">Feb</text></g><clipPath id="xl-text-4-2"><rect x="192" y="202.66" width="192" height="64"/></clipPath><g clip-path="url(#xl-text-4-2)"><text x="378" y="242.14" fill="#000000" font-family="Calibri, Arial, sans-serif" font-size="22" text-anchor="end">180</text></g><clipPath id="xl-text-5-1"><rect x="0" y="266.66" width="192" height="64"/></clipPath><g clip-path="url(#xl-text-5-1)"><text x="6" y="306.14" fill="#000000" font-family="Calibri, Arial, sans-serif" font-size="22" text-anchor="start">Mar</text></g><clipPath id="xl-text-5-2"><rect x="192" y="266.66" width="192" height="64"/></clipPath><g clip-path="url(#xl-text-5-2)"><text x="378" y="306.14" fill="#000000" font-family="Calibri, Arial, sans-serif" font-size="22" text-anchor="end">160</text></g><svg x="548" y="74.66" width="680" height="440" viewBox="0 0 680 440"><rect x="0" y="0" width="680" height="440" fill="#FAFCFF" stroke="#B7C2CF" stroke-width="0.75"/><text x="340" y="17" font-family="Aptos" font-size="12" text-anchor="middle" fill="#1F4E79" font-weight="700">Data Label Boxes</text><line x1="42" y1="384" x2="668" y2="384" fill="none" stroke="#505A64" stroke-width="0.75"/><line x1="42" y1="40" x2="42" y2="384" fill="none" stroke="#505A64" stroke-width="0.75"/><line x1="42" y1="126" x2="668" y2="126" fill="none" stroke="#E2E8F0" stroke-width="0.5"/><line x1="42" y1="212" x2="668" y2="212" fill="none" stroke="#E2E8F0" stroke-width="0.5"/><line x1="42" y1="298" x2="668" y2="298" fill="none" stroke="#E2E8F0" stroke-width="0.5"/><rect x="75.387" y="154.667" width="124.866" height="229.333" fill="#1F4E79" stroke="none"/><rect x="125.424" y="139.467" width="24.792" height="14.2" fill="#FDE68A" stroke="#B45309" stroke-width="1.5"/><text x="137.82" y="147.667" font-family="Aptos" font-size="8.2" text-anchor="middle" fill="#7C2D12" font-weight="700">120</text><rect x="284.053" y="40" width="124.866" height="344" fill="#1F4E79" stroke="none"/><rect x="334.09" y="24.8" width="24.792" height="14.2" fill="#FDE68A" stroke="#B45309" stroke-width="1.5"/><text x="346.486" y="33" font-family="Aptos" font-size="8.2" text-anchor="middle" fill="#7C2D12" font-weight="700">180</text><rect x="492.72" y="78.222" width="124.866" height="305.778" fill="#1F4E79" stroke="none"/><rect x="542.757" y="63.022" width="24.792" height="14.2" fill="#FDE68A" stroke="#B45309" stroke-width="1.5"/><text x="555.153" y="71.222" font-family="Aptos" font-size="8.2" text-anchor="middle" fill="#7C2D12" font-weight="700">160</text><text x="36" y="42.6" font-family="Aptos" font-size="8.2" text-anchor="end" fill="#64748B">180</text><text x="36" y="128.6" font-family="Aptos" font-size="8.2" text-anchor="end" fill="#64748B">135</text><text x="36" y="214.6" font-family="Aptos" font-size="8.2" text-anchor="end" fill="#64748B">90</text><text x="36" y="300.6" font-family="Aptos" font-size="8.2" text-anchor="end" fill="#64748B">45</text><text x="36" y="386.6" font-family="Aptos" font-size="8.2" text-anchor="end" fill="#64748B">0</text><text x="146.333" y="399.2" font-family="Aptos" font-size="8.2" text-anchor="middle" fill="#64748B">Jan</text><text x="355" y="399.2" font-family="Aptos" font-size="8.2" text-anchor="middle" fill="#64748B">Feb</text><text x="563.667" y="399.2" font-family="Aptos" font-size="8.2" text-anchor="middle" fill="#64748B">Mar</text><rect x="8" y="429" width="6" height="6" fill="#1F4E79" stroke="none"/><text x="18" y="434.4" font-family="Aptos" font-size="8.4" text-anchor="start" fill="#334155">Actual</text></svg></svg>