<svg xmlns="http://www.w3.org/2000/svg" width="1096" height="486" viewBox="0 0 1096 486"><rect x="0" y="0" width="1096" height="486" fill="#FFFFFF"/><rect x="0" y="0" width="1096" height="69.34" fill="#0F172A"/><line x1="0" y1="0" x2="1096" y2="0" stroke="#CBD5E1" stroke-width="2"/><line x1="1096" y1="0" x2="1096" y2="69.34" stroke="#CBD5E1" stroke-width="2"/><line x1="0" y1="69.34" x2="1096" y2="69.34" stroke="#CBD5E1" stroke-width="2"/><line x1="0" y1="0" x2="0" y2="69.34" stroke="#CBD5E1" stroke-width="2"/><clipPath id="xl-text-1-1"><rect x="0" y="0" width="1096" height="69.34"/></clipPath><g clip-path="url(#xl-text-1-1)"><text x="548" y="42.15" fill="#FFFFFF" font-family="Calibri, Arial, sans-serif" font-size="22" text-anchor="middle" font-weight="700">Worksheet drawing object</text></g><rect x="0" y="69.34" width="136" height="101.34" fill="#FFFFFF"/><line x1="0" y1="69.34" x2="136" y2="69.34" stroke="#CBD5E1" stroke-width="2"/><line x1="136" y1="69.34" x2="136" y2="170.68" stroke="#CBD5E1" stroke-width="2"/><line x1="0" y1="170.68" x2="136" y2="170.68" stroke="#CBD5E1" stroke-width="2"/><line x1="0" y1="69.34" x2="0" y2="170.68" stroke="#CBD5E1" stroke-width="2"/><rect x="136" y="69.34" width="206" height="101.34" fill="#FFFFFF"/><line x1="136" y1="69.34" x2="342" y2="69.34" stroke="#CBD5E1" stroke-width="2"/><line x1="342" y1="69.34" x2="342" y2="170.68" stroke="#CBD5E1" stroke-width="2"/><line x1="136" y1="170.68" x2="342" y2="170.68" stroke="#CBD5E1" stroke-width="2"/><line x1="136" y1="69.34" x2="136" y2="170.68" stroke="#CBD5E1" stroke-width="2"/><rect x="342" y="69.34" width="206" height="101.34" fill="#FFFFFF"/><line x1="342" y1="69.34" x2="548" y2="69.34" stroke="#CBD5E1" stroke-width="2"/><line x1="548" y1="69.34" x2="548" y2="170.68" stroke="#CBD5E1" stroke-width="2"/><line x1="342" y1="170.68" x2="548" y2="170.68" stroke="#CBD5E1" stroke-width="2"/><line x1="342" y1="69.34" x2="342" y2="170.68" stroke="#CBD5E1" stroke-width="2"/><rect x="548" y="69.34" width="206" height="101.34" fill="#FFFFFF"/><line x1="548" y1="69.34" x2="754" y2="69.34" stroke="#CBD5E1" stroke-width="2"/><line x1="754" y1="69.34" x2="754" y2="170.68" stroke="#CBD5E1" stroke-width="2"/><line x1="548" y1="170.68" x2="754" y2="170.68" stroke="#CBD5E1" stroke-width="2"/><line x1="548" y1="69.34" x2="548" y2="170.68" stroke="#CBD5E1" stroke-width="2"/><rect x="754" y="69.34" width="206" height="101.34" fill="#FFFFFF"/><line x1="754" y1="69.34" x2="960" y2="69.34" stroke="#CBD5E1" stroke-width="2"/><line x1="960" y1="69.34" x2="960" y2="170.68" stroke="#CBD5E1" stroke-width="2"/><line x1="754" y1="170.68" x2="960" y2="170.68" stroke="#CBD5E1" stroke-width="2"/><line x1="754" y1="69.34" x2="754" y2="170.68" stroke="#CBD5E1" stroke-width="2"/><rect x="960" y="69.34" width="136" height="101.34" fill="#FFFFFF"/><line x1="960" y1="69.34" x2="1096" y2="69.34" stroke="#CBD5E1" stroke-width="2"/><line x1="1096" y1="69.34" x2="1096" y2="170.68" stroke="#CBD5E1" stroke-width="2"/><line x1="960" y1="170.68" x2="1096" y2="170.68" stroke="#CBD5E1" stroke-width="2"/><line x1="960" y1="69.34" x2="960" y2="170.68" stroke="#CBD5E1" stroke-width="2"/><rect x="0" y="170.68" width="136" height="101.34" fill="#FFFFFF"/><line x1="0" y1="170.68" x2="136" y2="170.68" stroke="#CBD5E1" stroke-width="2"/><line x1="136" y1="170.68" x2="136" y2="272.02" stroke="#CBD5E1" stroke-width="2"/><line x1="0" y1="272.02" x2="136" y2="272.02" stroke="#CBD5E1" stroke-width="2"/><line x1="0" y1="170.68" x2="0" y2="272.02" stroke="#CBD5E1" stroke-width="2"/><rect x="136" y="170.68" width="206" height="101.34" fill="#FFFFFF"/><line x1="136" y1="170.68" x2="342" y2="170.68" stroke="#CBD5E1" stroke-width="2"/><line x1="342" y1="170.68" x2="342" y2="272.02" stroke="#CBD5E1" stroke-width="2"/><line x1="136" y1="272.02" x2="342" y2="272.02" stroke="#CBD5E1" stroke-width="2"/><line x1="136" y1="170.68" x2="136" y2="272.02" stroke="#CBD5E1" stroke-width="2"/><rect x="342" y="170.68" width="206" height="101.34" fill="#FFFFFF"/><line x1="342" y1="170.68" x2="548" y2="170.68" stroke="#CBD5E1" stroke-width="2"/><line x1="548" y1="170.68" x2="548" y2="272.02" stroke="#CBD5E1" stroke-width="2"/><line x1="342" y1="272.02" x2="548" y2="272.02" stroke="#CBD5E1" stroke-width="2"/><line x1="342" y1="170.68" x2="342" y2="272.02" stroke="#CBD5E1" stroke-width="2"/><rect x="548" y="170.68" width="206" height="101.34" fill="#FFFFFF"/><line x1="548" y1="170.68" x2="754" y2="170.68" stroke="#CBD5E1" stroke-width="2"/><line x1="754" y1="170.68" x2="754" y2="272.02" stroke="#CBD5E1" stroke-width="2"/><line x1="548" y1="272.02" x2="754" y2="272.02" stroke="#CBD5E1" stroke-width="2"/><line x1="548" y1="170.68" x2="548" y2="272.02" stroke="#CBD5E1" stroke-width="2"/><rect x="754" y="170.68" width="206" height="101.34" fill="#FFFFFF"/><line x1="754" y1="170.68" x2="960" y2="170.68" stroke="#CBD5E1" stroke-width="2"/><line x1="960" y1="170.68" x2="960" y2="272.02" stroke="#CBD5E1" stroke-width="2"/><line x1="754" y1="272.02" x2="960" y2="272.02" stroke="#CBD5E1" stroke-width="2"/><line x1="754" y1="170.68" x2="754" y2="272.02" stroke="#CBD5E1" stroke-width="2"/><rect x="960" y="170.68" width="136" height="101.34" fill="#FFFFFF"/><line x1="960" y1="170.68" x2="1096" y2="170.68" stroke="#CBD5E1" stroke-width="2"/><line x1="1096" y1="170.68" x2="1096" y2="272.02" stroke="#CBD5E1" stroke-width="2"/><line x1="960" y1="272.02" x2="1096" y2="272.02" stroke="#CBD5E1" stroke-width="2"/><line x1="960" y1="170.68" x2="960" y2="272.02" stroke="#CBD5E1" stroke-width="2"/><rect x="0" y="272.02" width="136" height="80" fill="#FFFFFF"/><line x1="0" y1="272.02" x2="136" y2="272.02" stroke="#CBD5E1" stroke-width="2"/><line x1="136" y1="272.02" x2="136" y2="352.02" stroke="#CBD5E1" stroke-width="2"/><line x1="0" y1="352.02" x2="136" y2="352.02" stroke="#CBD5E1" stroke-width="2"/><line x1="0" y1="272.02" x2="0" y2="352.02" stroke="#CBD5E1" stroke-width="2"/><rect x="136" y="272.02" width="206" height="80" fill="#FFFFFF"/><line x1="136" y1="272.02" x2="342" y2="272.02" stroke="#CBD5E1" stroke-width="2"/><line x1="342" y1="272.02" x2="342" y2="352.02" stroke="#CBD5E1" stroke-width="2"/><line x1="136" y1="352.02" x2="342" y2="352.02" stroke="#CBD5E1" stroke-width="2"/><line x1="136" y1="272.02" x2="136" y2="352.02" stroke="#CBD5E1" stroke-width="2"/><rect x="342" y="272.02" width="206" height="80" fill="#FFFFFF"/><line x1="342" y1="272.02" x2="548" y2="272.02" stroke="#CBD5E1" stroke-width="2"/><line x1="548" y1="272.02" x2="548" y2="352.02" stroke="#CBD5E1" stroke-width="2"/><line x1="342" y1="352.02" x2="548" y2="352.02" stroke="#CBD5E1" stroke-width="2"/><line x1="342" y1="272.02" x2="342" y2="352.02" stroke="#CBD5E1" stroke-width="2"/><rect x="548" y="272.02" width="206" height="80" fill="#FFFFFF"/><line x1="548" y1="272.02" x2="754" y2="272.02" stroke="#CBD5E1" stroke-width="2"/><line x1="754" y1="272.02" x2="754" y2="352.02" stroke="#CBD5E1" stroke-width="2"/><line x1="548" y1="352.02" x2="754" y2="352.02" stroke="#CBD5E1" stroke-width="2"/><line x1="548" y1="272.02" x2="548" y2="352.02" stroke="#CBD5E1" stroke-width="2"/><rect x="754" y="272.02" width="206" height="80" fill="#FFFFFF"/><line x1="754" y1="272.02" x2="960" y2="272.02" stroke="#CBD5E1" stroke-width="2"/><line x1="960" y1="272.02" x2="960" y2="352.02" stroke="#CBD5E1" stroke-width="2"/><line x1="754" y1="352.02" x2="960" y2="352.02" stroke="#CBD5E1" stroke-width="2"/><line x1="754" y1="272.02" x2="754" y2="352.02" stroke="#CBD5E1" stroke-width="2"/><rect x="960" y="272.02" width="136" height="80" fill="#FFFFFF"/><line x1="960" y1="272.02" x2="1096" y2="272.02" stroke="#CBD5E1" stroke-width="2"/><line x1="1096" y1="272.02" x2="1096" y2="352.02" stroke="#CBD5E1" stroke-width="2"/><line x1="960" y1="352.02" x2="1096" y2="352.02" stroke="#CBD5E1" stroke-width="2"/><line x1="960" y1="272.02" x2="960" y2="352.02" stroke="#CBD5E1" stroke-width="2"/><rect x="0" y="352.02" width="136" height="74.66" fill="#FFFFFF"/><line x1="0" y1="352.02" x2="136" y2="352.02" stroke="#CBD5E1" stroke-width="2"/><line x1="136" y1="352.02" x2="136" y2="426.68" stroke="#CBD5E1" stroke-width="2"/><line x1="0" y1="426.68" x2="136" y2="426.68" stroke="#CBD5E1" stroke-width="2"/><line x1="0" y1="352.02" x2="0" y2="426.68" stroke="#CBD5E1" stroke-width="2"/><rect x="136" y="352.02" width="824" height="74.66" fill="#F8FAFC"/><line x1="136" y1="352.02" x2="960" y2="352.02" stroke="#CBD5E1" stroke-width="2"/><line x1="960" y1="352.02" x2="960" y2="426.68" stroke="#CBD5E1" stroke-width="2"/><line x1="136" y1="426.68" x2="960" y2="426.68" stroke="#CBD5E1" stroke-width="2"/><line x1="136" y1="352.02" x2="136" y2="426.68" stroke="#CBD5E1" stroke-width="2"/><clipPath id="xl-text-5-2"><rect x="136" y="352.02" width="824" height="74.66"/></clipPath><g clip-path="url(#xl-text-5-2)"><text x="548" y="396.83" fill="#334155" font-family="Calibri, Arial, sans-serif" font-size="22" text-anchor="middle">Simple text shapes render through OfficeIMO.Drawing.</text></g><rect x="960" y="352.02" width="136" height="74.66" fill="#FFFFFF"/><line x1="960" y1="352.02" x2="1096" y2="352.02" stroke="#CBD5E1" stroke-width="2"/><line x1="1096" y1="352.02" x2="1096" y2="426.68" stroke="#CBD5E1" stroke-width="2"/><line x1="960" y1="426.68" x2="1096" y2="426.68" stroke="#CBD5E1" stroke-width="2"/><line x1="960" y1="352.02" x2="960" y2="426.68" stroke="#CBD5E1" stroke-width="2"/><rect x="0" y="426.68" width="136" height="58.66" fill="#FFFFFF"/><line x1="0" y1="426.68" x2="136" y2="426.68" stroke="#CBD5E1" stroke-width="2"/><line x1="136" y1="426.68" x2="136" y2="485.34" stroke="#CBD5E1" stroke-width="2"/><line x1="0" y1="485.34" x2="136" y2="485.34" stroke="#CBD5E1" stroke-width="2"/><line x1="0" y1="426.68" x2="0" y2="485.34" stroke="#CBD5E1" stroke-width="2"/><rect x="136" y="426.68" width="206" height="58.66" fill="#FFFFFF"/><line x1="136" y1="426.68" x2="342" y2="426.68" stroke="#CBD5E1" stroke-width="2"/><line x1="342" y1="426.68" x2="342" y2="485.34" stroke="#CBD5E1" stroke-width="2"/><line x1="136" y1="485.34" x2="342" y2="485.34" stroke="#CBD5E1" stroke-width="2"/><line x1="136" y1="426.68" x2="136" y2="485.34" stroke="#CBD5E1" stroke-width="2"/><rect x="342" y="426.68" width="206" height="58.66" fill="#FFFFFF"/><line x1="342" y1="426.68" x2="548" y2="426.68" stroke="#CBD5E1" stroke-width="2"/><line x1="548" y1="426.68" x2="548" y2="485.34" stroke="#CBD5E1" stroke-width="2"/><line x1="342" y1="485.34" x2="548" y2="485.34" stroke="#CBD5E1" stroke-width="2"/><line x1="342" y1="426.68" x2="342" y2="485.34" stroke="#CBD5E1" stroke-width="2"/><rect x="548" y="426.68" width="206" height="58.66" fill="#FFFFFF"/><line x1="548" y1="426.68" x2="754" y2="426.68" stroke="#CBD5E1" stroke-width="2"/><line x1="754" y1="426.68" x2="754" y2="485.34" stroke="#CBD5E1" stroke-width="2"/><line x1="548" y1="485.34" x2="754" y2="485.34" stroke="#CBD5E1" stroke-width="2"/><line x1="548" y1="426.68" x2="548" y2="485.34" stroke="#CBD5E1" stroke-width="2"/><rect x="754" y="426.68" width="206" height="58.66" fill="#FFFFFF"/><line x1="754" y1="426.68" x2="960" y2="426.68" stroke="#CBD5E1" stroke-width="2"/><line x1="960" y1="426.68" x2="960" y2="485.34" stroke="#CBD5E1" stroke-width="2"/><line x1="754" y1="485.34" x2="960" y2="485.34" stroke="#CBD5E1" stroke-width="2"/><line x1="754" y1="426.68" x2="754" y2="485.34" stroke="#CBD5E1" stroke-width="2"/><rect x="960" y="426.68" width="136" height="58.66" fill="#FFFFFF"/><line x1="960" y1="426.68" x2="1096" y2="426.68" stroke="#CBD5E1" stroke-width="2"/><line x1="1096" y1="426.68" x2="1096" y2="485.34" stroke="#CBD5E1" stroke-width="2"/><line x1="960" y1="485.34" x2="1096" y2="485.34" stroke="#CBD5E1" stroke-width="2"/><line x1="960" y1="426.68" x2="960" y2="485.34" stroke="#CBD5E1" stroke-width="2"/><svg x="136" y="69.34" width="618" height="202.68" viewBox="0 0 618 202.68"><rect x="0" y="0" width="618" height="202.68" rx="36.482" ry="36.482" fill="#E0F2FE" stroke="#0284C7" stroke-width="2.667"/><text x="309" y="108.82" fill="#1F2937" font-family="Calibri" font-size="22" text-anchor="middle">Premium shape</text></svg></svg>