<?xml version="1.0" encoding="UTF-8" standalone="no"?>
<!DOCTYPE svg PUBLIC "-//W3C//DTD SVG 1.1//EN" "http://www.w3.org/Graphics/SVG/1.1/DTD/svg11.dtd">
<!-- Generated by Microsoft Visio, SVG Export officeimo-visio-premium-network-segmentation-page1.svg Premium Network Segmentation -->
<svg xmlns="http://www.w3.org/2000/svg" xmlns:xlink="http://www.w3.org/1999/xlink" xmlns:ev="http://www.w3.org/2001/xml-events"
		xmlns:v="http://schemas.microsoft.com/visio/2003/SVGExtensions/" width="18in" height="10.5in" viewBox="0 0 1296 756"
		xml:space="preserve" color-interpolation-filters="sRGB" class="st23">
	<v:documentProperties v:langID="1033" v:metric="true" v:viewMarkup="false"/>

	<style type="text/css">
	<![CDATA[
		.st1 {fill:#eff4f9;stroke:#94a3b8;stroke-linecap:round;stroke-linejoin:round;stroke-width:1.008}
		.st2 {fill:none;stroke:none;stroke-linecap:round;stroke-linejoin:round;stroke-width:1}
		.st3 {fill:#1e293b;font-family:Calibri;font-size:0.833336em;font-weight:bold}
		.st4 {fill:#efab33;stroke:#b17114;stroke-linecap:round;stroke-linejoin:round;stroke-width:1.44}
		.st5 {fill:#372b13;font-family:Calibri;font-size:0.833336em;font-weight:bold}
		.st6 {fill:#515d71;stroke:#344054;stroke-linecap:round;stroke-linejoin:round;stroke-width:1.44}
		.st7 {fill:#ffffff;font-family:Calibri;font-size:0.833336em;font-weight:bold}
		.st8 {fill:#1f4e79;stroke:#18395a;stroke-linecap:round;stroke-linejoin:round;stroke-width:1.44}
		.st9 {fill:#43a047;stroke:#2a6f30;stroke-linecap:round;stroke-linejoin:round;stroke-width:1.44}
		.st10 {fill:#2c7be5;stroke:#1a56b0;stroke-linecap:round;stroke-linejoin:round;stroke-width:1.44}
		.st11 {fill:#20374b;font-family:Calibri;font-size:1.66667em;font-weight:bold}
		.st12 {fill:none}
		.st13 {stroke:#1f4e79;stroke-linecap:round;stroke-linejoin:round;stroke-width:1.44}
		.st14 {fill:#1f4e79;fill-opacity:1;stroke:#1f4e79;stroke-opacity:1;stroke-width:0.36363636363636}
		.st15 {fill:#18395a;font-family:Calibri;font-size:0.75em}
		.st16 {stroke:#007ea7;stroke-linecap:round;stroke-linejoin:round;stroke-width:1.44}
		.st17 {fill:#007ea7;fill-opacity:1;stroke:#007ea7;stroke-opacity:1;stroke-width:0.36363636363636}
		.st18 {fill:#005677;font-family:Calibri;font-size:0.75em}
		.st19 {stroke:#515d71;stroke-dasharray:10.08,7.2;stroke-linecap:round;stroke-linejoin:round;stroke-width:1.44}
		.st20 {fill:#515d71;fill-opacity:1;stroke:#515d71;stroke-opacity:1;stroke-width:0.36363636363636}
		.st21 {fill:#344054;font-family:Calibri;font-size:0.75em}
		.st22 {stroke:#1f4e79;stroke-dasharray:10.08,7.2;stroke-linecap:round;stroke-linejoin:round;stroke-width:1.44}
		.st23 {fill:none;fill-rule:evenodd;font-size:12px;overflow:visible;stroke-linecap:square;stroke-miterlimit:3}
	]]>
	</style>

	<defs id="Markers">
		<g id="lend13">
			<path d="M 3 1 L 0 0 L 3 -1 L 3 1 " style="stroke:none"/>
		</g>
		<marker id="mrkr13-59" class="st14" v:arrowType="13" v:arrowSize="2" v:setback="8.25" refX="-8.25" orient="auto"
				markerUnits="strokeWidth" overflow="visible">
			<use xlink:href="#lend13" transform="scale(-2.75,-2.75) "/>
		</marker>
		<marker id="mrkr13-65" class="st17" v:arrowType="13" v:arrowSize="2" v:setback="8.25" refX="-8.25" orient="auto"
				markerUnits="strokeWidth" overflow="visible">
			<use xlink:href="#lend13" transform="scale(-2.75,-2.75) "/>
		</marker>
		<marker id="mrkr13-71" class="st20" v:arrowType="13" v:arrowSize="2" v:setback="8.25" refX="-8.25" orient="auto"
				markerUnits="strokeWidth" overflow="visible">
			<use xlink:href="#lend13" transform="scale(-2.75,-2.75) "/>
		</marker>
	</defs>
	<g v:mID="0" v:index="1" v:groupContext="foregroundPage">
		<v:userDefs>
			<v:ud v:nameU="msvThemeOrder" v:val="VT0(0):26"/>
		</v:userDefs>
		<title>Premium Network Segmentation</title>
		<v:pageProperties v:drawingScale="1" v:pageScale="1" v:drawingUnits="0" v:shadowOffsetX="8.50394"
				v:shadowOffsetY="-8.50394"/>
		<v:layer v:name="Annotations" v:index="0"/>
		<g id="shape1-1" v:mID="1" v:groupContext="shape" transform="translate(32.4,-402.84)">
			<title>Rectangle</title>
			<rect x="0" y="528.48" width="522" height="227.52" class="st1"/>
		</g>
		<g id="shape2-3" v:mID="2" v:groupContext="shape" transform="translate(43.2,-631.08)">
			<title>Text Box</title>
			<desc>Perimeter</desc>
			<v:textBlock v:margins="rect(0,5.76,0,5.76)" v:tabSpace="42.5197"/>
			<v:textRect cx="250.2" cy="745.2" width="500.4" height="21.6"/>
			<rect x="0" y="734.4" width="500.4" height="21.6" class="st2"/>
			<text x="5.76" y="748.2" class="st3" v:langID="1033"><v:paragraph/><v:tabList/>Perimeter</text>		</g>
		<g id="shape3-6" v:mID="3" v:groupContext="shape" transform="translate(583.2,-278.28)">
			<title>Sheet.3</title>
			<rect x="0" y="403.92" width="705.6" height="352.08" class="st1"/>
		</g>
		<g id="shape4-8" v:mID="4" v:groupContext="shape" transform="translate(594,-631.08)">
			<title>Sheet.4</title>
			<desc>Server Zone</desc>
			<v:textBlock v:margins="rect(0,5.76,0,5.76)" v:tabSpace="42.5197"/>
			<v:textRect cx="342" cy="745.2" width="684" height="21.6"/>
			<rect x="0" y="734.4" width="684" height="21.6" class="st2"/>
			<text x="5.76" y="748.2" class="st3" v:langID="1033"><v:paragraph/><v:tabList/>Server Zone</text>		</g>
		<g id="shape5-11" v:mID="5" v:groupContext="shape" transform="translate(32.4,-29.16)">
			<title>Sheet.5</title>
			<rect x="0" y="528.48" width="522" height="227.52" class="st1"/>
		</g>
		<g id="shape6-13" v:mID="6" v:groupContext="shape" transform="translate(43.2,-257.4)">
			<title>Sheet.6</title>
			<desc>Client LAN</desc>
			<v:textBlock v:margins="rect(0,5.76,0,5.76)" v:tabSpace="42.5197"/>
			<v:textRect cx="250.2" cy="745.2" width="500.4" height="21.6"/>
			<rect x="0" y="734.4" width="500.4" height="21.6" class="st2"/>
			<text x="5.76" y="748.2" class="st3" v:langID="1033"><v:paragraph/><v:tabList/>Client LAN</text>		</g>
		<g id="shape7-16" v:mID="7" v:groupContext="shape" transform="translate(77.4,-421.92)">
			<title>Circle</title>
			<desc>Internet</desc>
			<v:textBlock v:margins="rect(0,0,0,0)" v:tabSpace="42.5197"/>
			<v:textRect cx="32.4" cy="723.6" width="64.8" height="64.8"/>
			<path d="M64.8 723.6 L63.7 715.21 L60.46 707.4 L55.31 700.69 L48.6 695.54 L40.79 692.3 L32.4 691.2 L24.01 692.3 L16.2
						 695.54 L9.49 700.69 L4.34 707.4 L1.1 715.21 L0 723.6 L1.1 731.99 L4.34 739.8 L9.49 746.51 L16.2 751.66 L24.01
						 754.9 L32.4 756 L40.79 754.9 L48.6 751.66 L55.31 746.51 L60.46 739.8 L63.7 731.99 L64.8 723.6 Z"
					class="st4"/>
			<text x="15.42" y="726.6" class="st5" v:langID="1033"><v:paragraph v:horizAlign="1"/><v:tabList/>Internet</text>		</g>
		<g id="shape8-19" v:mID="8" v:groupContext="shape" transform="translate(247.23,-420.624)">
			<title>Decision</title>
			<desc>Edge Firewall</desc>
			<v:textBlock v:margins="rect(0,0,0,0)" v:tabSpace="42.5197"/>
			<v:textRect cx="46.17" cy="722.304" width="92.34" height="67.392"/>
			<path d="M46.17 756 L92.34 722.3 L46.17 688.61 L0 722.3 L46.17 756 Z" class="st6"/>
			<text x="18.56" y="725.3" class="st7" v:langID="1033"><v:paragraph v:horizAlign="1"/><v:tabList/>Edge Firewall</text>		</g>
		<g id="shape9-22" v:mID="9" v:groupContext="shape" transform="translate(421.11,-433.26)">
			<title>Sheet.9</title>
			<desc>Core Switch</desc>
			<v:textBlock v:margins="rect(0,0,0,0)" v:tabSpace="42.5197"/>
			<v:textRect cx="55.89" cy="734.94" width="111.78" height="42.12"/>
			<rect x="0" y="713.88" width="111.78" height="42.12" class="st8"/>
			<text x="31.3" y="737.94" class="st7" v:langID="1033"><v:paragraph v:horizAlign="1"/><v:tabList/>Core Switch</text>		</g>
		<g id="shape10-25" v:mID="10" v:groupContext="shape" transform="translate(795.6,-550.8)">
			<title>Process</title>
			<desc>Jump Host</desc>
			<v:textBlock v:margins="rect(0,0,0,0)" v:tabSpace="42.5197"/>
			<v:textRect cx="48.6" cy="727.92" width="97.2" height="56.16"/>
			<rect x="0" y="699.84" width="97.2" height="56.16" class="st8"/>
			<text x="26.81" y="730.92" class="st7" v:langID="1033"><v:paragraph v:horizAlign="1"/><v:tabList/>Jump Host</text>		</g>
		<g id="shape11-28" v:mID="11" v:groupContext="shape" transform="translate(795.6,-426.24)">
			<title>Sheet.11</title>
			<desc>App Server</desc>
			<v:textBlock v:margins="rect(0,0,0,0)" v:tabSpace="42.5197"/>
			<v:textRect cx="48.6" cy="727.92" width="97.2" height="56.16"/>
			<rect x="0" y="699.84" width="97.2" height="56.16" class="st8"/>
			<text x="25.76" y="730.92" class="st7" v:langID="1033"><v:paragraph v:horizAlign="1"/><v:tabList/>App Server</text>		</g>
		<g id="shape12-31" v:mID="12" v:groupContext="shape" transform="translate(979.2,-426.24)">
			<title>Data</title>
			<desc>Database</desc>
			<v:textBlock v:margins="rect(0,0,0,0)" v:tabSpace="42.5197"/>
			<v:textRect cx="48.6" cy="727.92" width="97.2" height="56.16"/>
			<path d="M18.72 756 L97.2 756 L78.48 699.84 L0 699.84 L18.72 756 Z" class="st9"/>
			<text x="29.12" y="730.92" class="st7" v:langID="1033"><v:paragraph v:horizAlign="1"/><v:tabList/>Database</text>		</g>
		<g id="shape13-34" v:mID="13" v:groupContext="shape" transform="translate(795.6,-301.68)">
			<title>Sheet.13</title>
			<desc>Backup NAS</desc>
			<v:textBlock v:margins="rect(0,0,0,0)" v:tabSpace="42.5197"/>
			<v:textRect cx="48.6" cy="727.92" width="97.2" height="56.16"/>
			<path d="M18.72 756 L97.2 756 L78.48 699.84 L0 699.84 L18.72 756 Z" class="st9"/>
			<text x="23.65" y="730.92" class="st7" v:langID="1033"><v:paragraph v:horizAlign="1"/><v:tabList/>Backup NAS</text>		</g>
		<g id="shape14-37" v:mID="14" v:groupContext="shape" transform="translate(237.51,-184.14)">
			<title>Sheet.14</title>
			<desc>Access Switch</desc>
			<v:textBlock v:margins="rect(0,0,0,0)" v:tabSpace="42.5197"/>
			<v:textRect cx="55.89" cy="734.94" width="111.78" height="42.12"/>
			<rect x="0" y="713.88" width="111.78" height="42.12" class="st8"/>
			<text x="27.21" y="737.94" class="st7" v:langID="1033"><v:paragraph v:horizAlign="1"/><v:tabList/>Access Switch</text>		</g>
		<g id="shape15-40" v:mID="15" v:groupContext="shape" transform="translate(61.2,-52.56)">
			<title>Sheet.15</title>
			<desc>Finance PC</desc>
			<v:textBlock v:margins="rect(0,0,0,0)" v:tabSpace="42.5197"/>
			<v:textRect cx="48.6" cy="727.92" width="97.2" height="56.16"/>
			<rect x="0" y="699.84" width="97.2" height="56.16" class="st8"/>
			<text x="26.19" y="730.92" class="st7" v:langID="1033"><v:paragraph v:horizAlign="1"/><v:tabList/>Finance PC</text>		</g>
		<g id="shape16-43" v:mID="16" v:groupContext="shape" transform="translate(244.8,-52.56)">
			<title>Sheet.16</title>
			<desc>Support PC</desc>
			<v:textBlock v:margins="rect(0,0,0,0)" v:tabSpace="42.5197"/>
			<v:textRect cx="48.6" cy="727.92" width="97.2" height="56.16"/>
			<rect x="0" y="699.84" width="97.2" height="56.16" class="st8"/>
			<text x="25.55" y="730.92" class="st7" v:langID="1033"><v:paragraph v:horizAlign="1"/><v:tabList/>Support PC</text>		</g>
		<g id="shape17-46" v:mID="17" v:groupContext="shape" transform="translate(444.6,-48.24)">
			<title>Sheet.17</title>
			<desc>Guest Wi-Fi</desc>
			<v:textBlock v:margins="rect(0,0,0,0)" v:tabSpace="42.5197"/>
			<v:textRect cx="32.4" cy="723.6" width="64.8" height="64.8"/>
			<path d="M64.8 723.6 L63.7 715.21 L60.46 707.4 L55.31 700.69 L48.6 695.54 L40.79 692.3 L32.4 691.2 L24.01 692.3 L16.2
						 695.54 L9.49 700.69 L4.34 707.4 L1.1 715.21 L0 723.6 L1.1 731.99 L4.34 739.8 L9.49 746.51 L16.2 751.66 L24.01
						 754.9 L32.4 756 L40.79 754.9 L48.6 751.66 L55.31 746.51 L60.46 739.8 L63.7 731.99 L64.8 723.6 Z"
					class="st10"/>
			<text x="8.34" y="726.6" class="st7" v:langID="1033"><v:paragraph v:horizAlign="1"/><v:tabList/>Guest Wi-Fi</text>		</g>
		<g id="shape18-49" v:mID="18" v:groupContext="shape" v:layerMember="0" transform="translate(397.8,-500.58)">
			<title>Callout</title>
			<desc>VLAN 20/30 and guest access</desc>
			<v:textBlock v:margins="rect(0,0,0,0)" v:tabSpace="42.5197"/>
			<v:textRect cx="79.2" cy="729" width="158.4" height="54"/>
			<rect x="0" y="702" width="158.4" height="54" class="st1"/>
			<text x="18.71" y="732" class="st3" v:langID="1033"><v:paragraph v:horizAlign="1"/><v:tabList/>VLAN 20/30 and guest access</text>		</g>
		<g id="shape19-52" v:mID="19" v:groupContext="shape" transform="translate(57.6,-662.4)">
			<title>Sheet.19</title>
			<desc>Branch Network - Segmented Access</desc>
			<v:textBlock v:margins="rect(0,0,0,0)" v:tabSpace="42.5197"/>
			<v:textRect cx="590.4" cy="739.8" width="1180.8" height="32.4"/>
			<rect x="0" y="723.6" width="1180.8" height="32.4" class="st2"/>
			<text x="438.67" y="745.8" class="st11" v:langID="1033"><v:paragraph v:horizAlign="1"/><v:tabList/>Branch Network - Segmented Access</text>		</g>
		<g id="shape20-55" v:mID="20" v:groupContext="shape">
			<title>Connector</title>
			<desc>WAN</desc>
			<v:textBlock v:margins="rect(0,0,0,0)" v:tabSpace="42.5197"/>
			<v:textRect cx="194.715" cy="290.88" width="90" height="21.6"/>
			<path d="M142.2 301.68 L194.71 301.68 L247.23 301.68 L142.2 301.68 Z" class="st12"/>
			<path d="M142.2 301.68 L194.71 301.68 L247.23 301.68" class="st13"/>
			<text x="185.2" y="293.58" class="st15" v:langID="1033"><v:paragraph v:horizAlign="1"/><v:tabList/>WAN</text>		</g>
		<g id="shape21-61" v:mID="21" v:groupContext="shape">
			<title>Sheet.21</title>
			<desc>uplink</desc>
			<v:textBlock v:margins="rect(0,0,0,0)" v:tabSpace="42.5197"/>
			<v:textRect cx="380.34" cy="290.88" width="90" height="21.6"/>
			<path d="M339.57 301.68 L384.66 301.68 L421.11 301.68 L339.57 301.68 Z" class="st12"/>
			<path d="M339.57 301.68 L384.66 301.68 L421.11 301.68" class="st16"/>
			<text x="369.14" y="293.58" class="st18" v:langID="1033"><v:paragraph v:horizAlign="1"/><v:tabList/>uplink</text>		</g>
		<g id="shape22-67" v:mID="22" v:groupContext="shape">
			<title>Sheet.22</title>
			<desc>admin</desc>
			<v:textBlock v:margins="rect(0,0,0,0)" v:tabSpace="42.5197"/>
			<v:textRect cx="672.885" cy="237.24" width="90" height="21.6"/>
			<path d="M532.89 301.68 L672.88 301.68 L672.88 177.12 L795.6 177.12 L532.89 301.68 Z" class="st12"/>
			<path d="M532.89 301.68 L672.88 301.68 L672.88 177.12 L795.6 177.12" class="st19"/>
			<text x="661.37" y="239.94" class="st21" v:langID="1033"><v:paragraph v:horizAlign="1"/><v:tabList/>admin</text>		</g>
		<g id="shape23-73" v:mID="23" v:groupContext="shape">
			<title>Sheet.23</title>
			<desc>10Gb</desc>
			<v:textBlock v:margins="rect(0,0,0,0)" v:tabSpace="42.5197"/>
			<v:textRect cx="664.245" cy="290.88" width="90" height="21.6"/>
			<path d="M532.89 301.68 L677.2 301.68 L795.6 301.68 L532.89 301.68 Z" class="st12"/>
			<path d="M532.89 301.68 L677.2 301.68 L795.6 301.68" class="st16"/>
			<text x="654.48" y="293.58" class="st18" v:langID="1033"><v:paragraph v:horizAlign="1"/><v:tabList/>10Gb</text>		</g>
		<g id="shape24-78" v:mID="24" v:groupContext="shape">
			<title>Sheet.24</title>
			<desc>SQL</desc>
			<v:textBlock v:margins="rect(0,0,0,0)" v:tabSpace="42.5197"/>
			<v:textRect cx="936" cy="290.88" width="90" height="21.6"/>
			<path d="M892.8 301.68 L936 301.68 L979.2 301.68 L892.8 301.68 Z" class="st12"/>
			<path d="M892.8 301.68 L936 301.68 L979.2 301.68" class="st13"/>
			<text x="929.01" y="293.58" class="st15" v:langID="1033"><v:paragraph v:horizAlign="1"/><v:tabList/>SQL</text>		</g>
		<g id="shape25-83" v:mID="25" v:groupContext="shape">
			<title>Sheet.25</title>
			<desc>backup</desc>
			<v:textBlock v:margins="rect(0,0,0,0)" v:tabSpace="42.5197"/>
			<v:textRect cx="844.2" cy="353.16" width="90" height="21.6"/>
			<path d="M844.2 329.76 L844.2 359.64 L844.2 398.16 L844.2 329.76 Z" class="st12"/>
			<path d="M844.2 329.76 L844.2 359.64 L844.2 398.16" class="st19"/>
			<text x="831" y="355.86" class="st21" v:langID="1033"><v:paragraph v:horizAlign="1"/><v:tabList/>backup</text>		</g>
		<g id="shape26-88" v:mID="26" v:groupContext="shape">
			<title>Sheet.26</title>
			<desc>client trunk</desc>
			<v:textBlock v:margins="rect(0,0,0,0)" v:tabSpace="42.5197"/>
			<v:textRect cx="376.56" cy="406.8" width="90" height="21.6"/>
			<path d="M477 322.74 L477 417.6 L293.4 417.6 L293.4 529.74 L477 322.74 Z" class="st12"/>
			<path d="M477 322.74 L477 417.6 L293.4 417.6 L293.4 529.74" class="st16"/>
			<text x="355.61" y="409.5" class="st18" v:langID="1033"><v:paragraph v:horizAlign="1"/><v:tabList/>client trunk</text>		</g>
		<g id="shape27-93" v:mID="27" v:groupContext="shape">
			<title>Sheet.27</title>
			<desc>wired</desc>
			<v:textBlock v:margins="rect(0,0,0,0)" v:tabSpace="42.5197"/>
			<v:textRect cx="184.995" cy="589.32" width="90" height="21.6"/>
			<path d="M237.51 550.8 L237.51 600.12 L158.4 600.12 L158.4 675.36 L237.51 550.8 Z" class="st12"/>
			<path d="M237.51 550.8 L237.51 600.12 L158.4 600.12 L158.4 675.36" class="st13"/>
			<text x="174.57" y="592.02" class="st15" v:langID="1033"><v:paragraph v:horizAlign="1"/><v:tabList/>wired</text>		</g>
		<g id="shape28-98" v:mID="28" v:groupContext="shape">
			<title>Sheet.28</title>
			<desc>wired</desc>
			<v:textBlock v:margins="rect(0,0,0,0)" v:tabSpace="42.5197"/>
			<v:textRect cx="293.4" cy="598.77" width="90" height="21.6"/>
			<path d="M293.4 571.86 L293.4 609.57 L293.4 647.28 L293.4 571.86 Z" class="st12"/>
			<path d="M293.4 571.86 L293.4 609.57 L293.4 647.28" class="st13"/>
			<text x="282.98" y="601.47" class="st15" v:langID="1033"><v:paragraph v:horizAlign="1"/><v:tabList/>wired</text>		</g>
		<g id="shape29-103" v:mID="29" v:groupContext="shape">
			<title>Sheet.29</title>
			<desc>guest</desc>
			<v:textBlock v:margins="rect(0,0,0,0)" v:tabSpace="42.5197"/>
			<v:textRect cx="401.265" cy="597.96" width="90" height="21.6"/>
			<path d="M349.29 550.8 L349.29 608.76 L444.6 608.76 L444.6 675.36 L349.29 550.8 Z" class="st12"/>
			<path d="M349.29 550.8 L349.29 608.76 L444.6 608.76 L444.6 675.36" class="st19"/>
			<text x="391.28" y="600.66" class="st21" v:langID="1033"><v:paragraph v:horizAlign="1"/><v:tabList/>guest</text>		</g>
		<g id="shape30-108" v:mID="30" v:groupContext="shape" v:layerMember="0">
			<title>Sheet.30</title>
			<path d="M477 255.42 L477 262.26 L477 280.62 L477 255.42 Z" class="st12"/>
			<path d="M477 255.42 L477 262.26 L477 280.62" class="st22"/>
		</g>
	</g>
</svg>
