<?xml version="1.0" encoding="UTF-8" standalone="no"?>
<!DOCTYPE svg PUBLIC "-//W3C//DTD SVG 1.1//EN" "http://www.w3.org/Graphics/SVG/1.1/DTD/svg11.dtd">
<!-- Generated by Microsoft Visio, SVG Export officeimo-visio-premium-release-timeline-page1.svg Premium Release Timeline -->
<svg xmlns="http://www.w3.org/2000/svg" xmlns:xlink="http://www.w3.org/1999/xlink" xmlns:ev="http://www.w3.org/2001/xml-events"
		xmlns:v="http://schemas.microsoft.com/visio/2003/SVGExtensions/" width="13.5in" height="5.85in" viewBox="0 0 972 421.2"
		xml:space="preserve" color-interpolation-filters="sRGB" class="st12">
	<v:documentProperties v:langID="1033" v:metric="true" v:viewMarkup="false"/>

	<style type="text/css">
	<![CDATA[
		.st1 {fill:#7e57c2;stroke:#573d8e;stroke-linecap:round;stroke-linejoin:round;stroke-width:1.296}
		.st2 {fill:#f5f7fa;stroke:#bec6d3;stroke-linecap:round;stroke-linejoin:round;stroke-width:0.864}
		.st3 {fill:#2d3748;font-family:Calibri;font-size:0.833336em;font-weight:bold}
		.st4 {fill:#267e74;stroke:#185953;stroke-linecap:round;stroke-linejoin:round;stroke-width:1.296}
		.st5 {fill:#ffffff;font-family:Calibri;font-size:0.833336em;font-weight:bold}
		.st6 {fill:#4169e1;stroke:#2a4bb1;stroke-linecap:round;stroke-linejoin:round;stroke-width:1.296}
		.st7 {font-size:1em}
		.st8 {fill:#e89c30;stroke:#ab6614;stroke-linecap:round;stroke-linejoin:round;stroke-width:1.296}
		.st9 {fill:#5d9a46;stroke:#3f6f2d;stroke-linecap:round;stroke-linejoin:round;stroke-width:1.296}
		.st10 {fill:none;stroke:none;stroke-linecap:round;stroke-linejoin:round;stroke-width:1}
		.st11 {fill:#20374b;font-family:Calibri;font-size:1.66667em;font-weight:bold}
		.st12 {fill:none;fill-rule:evenodd;font-size:12px;overflow:visible;stroke-linecap:square;stroke-miterlimit:3}
	]]>
	</style>

	<g v:mID="0" v:index="1" v:groupContext="foregroundPage">
		<v:userDefs>
			<v:ud v:nameU="msvThemeOrder" v:val="VT0(0):26"/>
		</v:userDefs>
		<title>Premium Release Timeline</title>
		<v:pageProperties v:drawingScale="1" v:pageScale="1" v:drawingUnits="0" v:shadowOffsetX="8.50394"
				v:shadowOffsetY="-8.50394"/>
		<g id="shape1-1" v:mID="1" v:groupContext="shape" transform="translate(46.8,-167.04)">
			<title>Rectangle</title>
			<rect x="0" y="416.88" width="878.4" height="4.32" class="st1"/>
		</g>
		<g id="shape2-3" v:mID="2" v:groupContext="shape" transform="translate(9,-128.88)">
			<title>Sheet.2</title>
			<desc>Jun 1</desc>
			<v:textBlock v:margins="rect(0,0,0,0)" v:tabSpace="42.5197"/>
			<v:textRect cx="37.8" cy="411.12" width="75.61" height="20.16"/>
			<rect x="0" y="401.04" width="75.6" height="20.16" class="st2"/>
			<text x="27.11" y="414.12" class="st3" v:langID="1033"><v:paragraph v:horizAlign="1"/><v:tabList/>Jun 1</text>		</g>
		<g id="shape3-6" v:mID="3" v:groupContext="shape" transform="translate(887.4,-128.88)">
			<title>Sheet.3</title>
			<desc>Sep 30</desc>
			<v:textBlock v:margins="rect(0,0,0,0)" v:tabSpace="42.5197"/>
			<v:textRect cx="37.8" cy="411.12" width="75.61" height="20.16"/>
			<rect x="0" y="401.04" width="75.6" height="20.16" class="st2"/>
			<text x="24.04" y="414.12" class="st3" v:langID="1033"><v:paragraph v:horizAlign="1"/><v:tabList/>Sep 30</text>		</g>
		<g id="shape4-9" v:mID="4" v:groupContext="shape" transform="translate(61.319,-252.72)">
			<title>Sheet.4</title>
			<desc>Premium gallery</desc>
			<v:textBlock v:margins="rect(0,0,0,0)" v:tabSpace="42.5197"/>
			<v:textRect cx="141.56" cy="410.4" width="283.13" height="21.6"/>
			<rect x="0" y="399.6" width="283.121" height="21.6" class="st4"/>
			<text x="107.47" y="413.4" class="st5" v:langID="1033"><v:paragraph v:horizAlign="1"/><v:tabList/>Premium gallery</text>		</g>
		<g id="shape5-12" v:mID="5" v:groupContext="shape" transform="translate(170.212,-284.4)">
			<title>Sheet.5</title>
			<desc>Stencil packs</desc>
			<v:textBlock v:margins="rect(0,0,0,0)" v:tabSpace="42.5197"/>
			<v:textRect cx="188.747" cy="410.4" width="377.5" height="21.6"/>
			<rect x="0" y="399.6" width="377.494" height="21.6" class="st4"/>
			<text x="162.13" y="413.4" class="st5" v:langID="1033"><v:paragraph v:horizAlign="1"/><v:tabList/>Stencil packs</text>		</g>
		<g id="shape6-15" v:mID="6" v:groupContext="shape" transform="translate(366.218,-64.08)">
			<title>Sheet.6</title>
			<desc>Visual baselines</desc>
			<v:textBlock v:margins="rect(0,0,0,0)" v:tabSpace="42.5197"/>
			<v:textRect cx="206.896" cy="410.4" width="413.8" height="21.6"/>
			<rect x="0" y="399.6" width="413.792" height="21.6" class="st4"/>
			<text x="173.89" y="413.4" class="st5" v:langID="1033"><v:paragraph v:horizAlign="1"/><v:tabList/>Visual baselines</text>		</g>
		<g id="shape7-18" v:mID="7" v:groupContext="shape" transform="translate(67.918,-181.44)">
			<title>Diamond</title>
			<path d="M7.92 421.2 L15.84 413.28 L7.92 405.36 L0 413.28 L7.92 421.2 Z" class="st6"/>
		</g>
		<g id="shape8-20" v:mID="8" v:groupContext="shape" transform="translate(23.638,-210.24)">
			<title>Sheet.8</title>
			<desc>Design brief Jun 5</desc>
			<v:textBlock v:margins="rect(0,0,0,0)" v:tabSpace="42.5197"/>
			<v:textRect cx="52.2" cy="403.92" width="104.4" height="34.56"/>
			<rect x="0" y="386.64" width="104.4" height="34.56" class="st2"/>
			<text x="27.34" y="400.92" class="st3" v:langID="1033"><v:paragraph v:horizAlign="1"/><v:tabList/>Design brief<v:newlineChar/><tspan
						x="41.51" dy="1.2em" class="st7">Jun 5</tspan></text>		</g>
		<g id="shape9-24" v:mID="9" v:groupContext="shape" transform="translate(387.336,-141.12)">
			<title>Circle</title>
			<path d="M15.84 413.28 L15.57 411.23 L14.78 409.32 L13.52 407.68 L11.88 406.42 L9.97 405.63 L7.92 405.36 L5.87 405.63
						 L3.96 406.42 L2.32 407.68 L1.06 409.32 L0.27 411.23 L0 413.28 L0.27 415.33 L1.06 417.24 L2.32 418.88 L3.96
						 420.14 L5.87 420.93 L7.92 421.2 L9.97 420.93 L11.88 420.14 L13.52 418.88 L14.78 417.24 L15.57 415.33 L15.84
						 413.28 Z" class="st8"/>
		</g>
		<g id="shape10-26" v:mID="10" v:groupContext="shape" transform="translate(343.056,-93.6)">
			<title>Sheet.10</title>
			<desc>Visual gate Jul 19</desc>
			<v:textBlock v:margins="rect(0,0,0,0)" v:tabSpace="42.5197"/>
			<v:textRect cx="52.2" cy="403.92" width="104.4" height="34.56"/>
			<rect x="0" y="386.64" width="104.4" height="34.56" class="st2"/>
			<text x="29.42" y="400.92" class="st3" v:langID="1033"><v:paragraph v:horizAlign="1"/><v:tabList/>Visual gate<v:newlineChar/><tspan
						x="40.43" dy="1.2em" class="st7">Jul 19</tspan></text>		</g>
		<g id="shape11-30" v:mID="11" v:groupContext="shape" transform="translate(576.083,-181.44)">
			<title>Sheet.11</title>
			<path d="M15.84 413.28 L15.57 411.23 L14.78 409.32 L13.52 407.68 L11.88 406.42 L9.97 405.63 L7.92 405.36 L5.87 405.63
						 L3.96 406.42 L2.32 407.68 L1.06 409.32 L0.27 411.23 L0 413.28 L0.27 415.33 L1.06 417.24 L2.32 418.88 L3.96
						 420.14 L5.87 420.93 L7.92 421.2 L9.97 420.93 L11.88 420.14 L13.52 418.88 L14.78 417.24 L15.57 415.33 L15.84
						 413.28 Z" class="st1"/>
		</g>
		<g id="shape12-32" v:mID="12" v:groupContext="shape" transform="translate(531.803,-210.24)">
			<title>Sheet.12</title>
			<desc>Export drift Aug 14</desc>
			<v:textBlock v:margins="rect(0,0,0,0)" v:tabSpace="42.5197"/>
			<v:textRect cx="52.2" cy="403.92" width="104.4" height="34.56"/>
			<rect x="0" y="386.64" width="104.4" height="34.56" class="st1"/>
			<text x="28.45" y="400.92" class="st5" v:langID="1033"><v:paragraph v:horizAlign="1"/><v:tabList/>Export drift<v:newlineChar/><tspan
						x="37.92" dy="1.2em" class="st7">Aug 14</tspan></text>		</g>
		<g id="shape13-36" v:mID="13" v:groupContext="shape" transform="translate(728.533,-141.12)">
			<title>Sheet.13</title>
			<path d="M15.84 413.28 L15.57 411.23 L14.78 409.32 L13.52 407.68 L11.88 406.42 L9.97 405.63 L7.92 405.36 L5.87 405.63
						 L3.96 406.42 L2.32 407.68 L1.06 409.32 L0.27 411.23 L0 413.28 L0.27 415.33 L1.06 417.24 L2.32 418.88 L3.96
						 420.14 L5.87 420.93 L7.92 421.2 L9.97 420.93 L11.88 420.14 L13.52 418.88 L14.78 417.24 L15.57 415.33 L15.84
						 413.28 Z" class="st9"/>
		</g>
		<g id="shape14-38" v:mID="14" v:groupContext="shape" transform="translate(684.253,-93.6)">
			<title>Sheet.14</title>
			<desc>Preview Sep 4</desc>
			<v:textBlock v:margins="rect(0,0,0,0)" v:tabSpace="42.5197"/>
			<v:textRect cx="52.2" cy="403.92" width="104.4" height="34.56"/>
			<rect x="0" y="386.64" width="104.4" height="34.56" class="st2"/>
			<text x="35.41" y="400.92" class="st3" v:langID="1033"><v:paragraph v:horizAlign="1"/><v:tabList/>Preview<v:newlineChar/><tspan
						x="40.97" dy="1.2em" class="st7">Sep 4</tspan></text>		</g>
		<g id="shape15-42" v:mID="15" v:groupContext="shape" transform="translate(873.723,-181.44)">
			<title>Sheet.15</title>
			<path d="M7.92 421.2 L15.84 413.28 L7.92 405.36 L0 413.28 L7.92 421.2 Z" class="st6"/>
		</g>
		<g id="shape16-44" v:mID="16" v:groupContext="shape" transform="translate(829.443,-210.24)">
			<title>Sheet.16</title>
			<desc>Ship Sep 24</desc>
			<v:textBlock v:margins="rect(0,0,0,0)" v:tabSpace="42.5197"/>
			<v:textRect cx="52.2" cy="403.92" width="104.4" height="34.56"/>
			<rect x="0" y="386.64" width="104.4" height="34.56" class="st2"/>
			<text x="43.24" y="400.92" class="st3" v:langID="1033"><v:paragraph v:horizAlign="1"/><v:tabList/>Ship<v:newlineChar/><tspan
						x="38.44" dy="1.2em" class="st7">Sep 24</tspan></text>		</g>
		<g id="shape17-48" v:mID="17" v:groupContext="shape" transform="translate(46.8,-349.2)">
			<title>Text Box</title>
			<desc>Visio Premium Gallery Roadmap</desc>
			<v:textBlock v:margins="rect(0,0,0,0)" v:tabSpace="42.5197"/>
			<v:textRect cx="439.2" cy="405" width="878.4" height="32.4"/>
			<rect x="0" y="388.8" width="878.4" height="32.4" class="st10"/>
			<text x="304.93" y="411" class="st11" v:langID="1033"><v:paragraph v:horizAlign="1"/><v:tabList/>Visio Premium Gallery Roadmap</text>		</g>
	</g>
</svg>
