<?xml version="1.0" encoding="UTF-8" standalone="no"?>
<!DOCTYPE svg PUBLIC "-//W3C//DTD SVG 1.1//EN" "http://www.w3.org/Graphics/SVG/1.1/DTD/svg11.dtd">
<!-- Generated by Microsoft Visio, SVG Export officeimo-visio-premium-incident-sequence-page1.svg Premium Incident Sequence -->
<svg xmlns="http://www.w3.org/2000/svg" xmlns:xlink="http://www.w3.org/1999/xlink" xmlns:ev="http://www.w3.org/2001/xml-events"
		xmlns:v="http://schemas.microsoft.com/visio/2003/SVGExtensions/" width="13.25in" height="9.52in" viewBox="0 0 954 685.44"
		xml:space="preserve" color-interpolation-filters="sRGB" class="st20">
	<v:documentProperties v:langID="1033" v:metric="true" v:viewMarkup="false"/>

	<style type="text/css">
	<![CDATA[
		.st1 {fill:none;stroke:none;stroke-linecap:round;stroke-linejoin:round;stroke-width:1}
		.st2 {fill:#20374b;font-family:Calibri;font-size:1.66667em;font-weight:bold}
		.st3 {fill:#047857;stroke:#6ee7b7;stroke-linecap:round;stroke-linejoin:round;stroke-width:1.44}
		.st4 {fill:#ffffff;font-family:Calibri;font-size:0.833336em;font-weight:bold}
		.st5 {fill:#1e40af;stroke:#93c5fd;stroke-linecap:round;stroke-linejoin:round;stroke-width:1.44}
		.st6 {fill:#1e293b;stroke:#cbd5e1;stroke-linecap:round;stroke-linejoin:round;stroke-width:1.44}
		.st7 {fill:#111827;stroke:#64748b;stroke-linecap:round;stroke-linejoin:round;stroke-width:1.008}
		.st8 {fill:#f1f5f9;font-family:Calibri;font-size:0.833336em;font-weight:bold}
		.st9 {fill:none}
		.st10 {stroke:#93c5fd;stroke-dasharray:7.56,5.4;stroke-linecap:round;stroke-linejoin:round;stroke-width:1.08}
		.st11 {stroke:#93c5fd;stroke-linecap:round;stroke-linejoin:round;stroke-width:1.44}
		.st12 {fill:#93c5fd;fill-opacity:1;stroke:#93c5fd;stroke-opacity:1;stroke-width:0.36363636363636}
		.st13 {fill:#dbeafe;font-family:Calibri;font-size:0.75em}
		.st14 {stroke:#d8b4fe;stroke-dasharray:10.08,7.2;stroke-linecap:round;stroke-linejoin:round;stroke-width:1.44}
		.st15 {fill:#d8b4fe;fill-opacity:1;stroke:#d8b4fe;stroke-opacity:1;stroke-width:0.36363636363636}
		.st16 {fill:#f3e8ff;font-family:Calibri;font-size:0.75em}
		.st17 {stroke:#5eead4;stroke-linecap:round;stroke-linejoin:round;stroke-width:1.44}
		.st18 {fill:#5eead4;fill-opacity:1;stroke:#5eead4;stroke-opacity:1;stroke-width:0.36363636363636}
		.st19 {fill:#ccfbf1;font-family:Calibri;font-size:0.75em}
		.st20 {fill:none;fill-rule:evenodd;font-size:12px;overflow:visible;stroke-linecap:square;stroke-miterlimit:3}
	]]>
	</style>

	<defs id="Markers">
		<g id="lend13">
			<path d="M 3 1 L 0 0 L 3 -1 L 3 1 " style="stroke:none"/>
		</g>
		<marker id="mrkr13-80" class="st12" v:arrowType="13" v:arrowSize="2" v:setback="8.25" refX="-8.25" orient="auto"
				markerUnits="strokeWidth" overflow="visible">
			<use xlink:href="#lend13" transform="scale(-2.75,-2.75) "/>
		</marker>
		<g id="lend1">
			<path d="M 1 -1 L 0 0 L 1 1 " style="stroke-linecap:round;stroke-linejoin:round;fill:none"/>
		</g>
		<marker id="mrkr1-91" class="st15" v:arrowType="1" v:arrowSize="2" orient="auto" markerUnits="strokeWidth"
				overflow="visible">
			<use xlink:href="#lend1" transform="scale(-2.75,-2.75) "/>
		</marker>
		<marker id="mrkr1-97" class="st18" v:arrowType="1" v:arrowSize="2" orient="auto" markerUnits="strokeWidth"
				overflow="visible">
			<use xlink:href="#lend1" transform="scale(-2.75,-2.75) "/>
		</marker>
	</defs>
	<g v:mID="0" v:index="1" v:groupContext="foregroundPage">
		<v:userDefs>
			<v:ud v:nameU="msvThemeOrder" v:val="VT0(0):26"/>
		</v:userDefs>
		<title>Premium Incident Sequence</title>
		<v:pageProperties v:drawingScale="1" v:pageScale="1" v:drawingUnits="0" v:shadowOffsetX="8.50394"
				v:shadowOffsetY="-8.50394"/>
		<v:layer v:name="Sequence Lifelines" v:index="0"/>
		<v:layer v:name="Sequence Messages" v:index="1"/>
		<v:layer v:name="Sequence Guides" v:index="2" v:print="false"/>
		<g id="shape1-1" v:mID="1" v:groupContext="shape" transform="translate(57.6,-599.04)">
			<title>Text Box</title>
			<desc>Payment Timeout - Detection and Recovery</desc>
			<v:textBlock v:margins="rect(0,0,0,0)" v:tabSpace="42.5197"/>
			<v:textRect cx="419.4" cy="669.24" width="838.8" height="32.4"/>
			<rect x="0" y="653.04" width="838.8" height="32.4" class="st1"/>
			<text x="238.61" y="675.24" class="st2" v:langID="1033"><v:paragraph v:horizAlign="1"/><v:tabList/>Payment Timeout - Detection and Recovery</text>		</g>
		<g id="shape2-4" v:mID="2" v:groupContext="shape" v:layerMember="0" transform="translate(57.6,-529.2)">
			<title>Circle</title>
			<desc>Support</desc>
			<v:textBlock v:margins="rect(0,0,0,0)" v:tabSpace="42.5197"/>
			<v:textRect cx="45" cy="663.12" width="90" height="44.64"/>
			<path d="M90 663.12 L88.47 657.34 L83.97 651.96 L76.82 647.34 L67.5 643.79 L56.65 641.56 L45 640.8 L33.35 641.56 L22.5
						 643.79 L13.18 647.34 L6.03 651.96 L1.53 657.34 L0 663.12 L1.53 668.9 L6.03 674.28 L13.18 678.9 L22.5 682.45
						 L33.35 684.68 L45 685.44 L56.65 684.68 L67.5 682.45 L76.82 678.9 L83.97 674.28 L88.47 668.9 L90 663.12 Z"
					class="st3"/>
			<text x="28.39" y="666.12" class="st4" v:langID="1033"><v:paragraph v:horizAlign="1"/><v:tabList/>Support</text>		</g>
		<g id="shape3-7" v:mID="3" v:groupContext="shape" v:layerMember="2" transform="translate(101.16,-52.56)">
			<title>Sheet.3</title>
			<path d="M2.88 684 L2.83 683.63 L2.69 683.28 L2.46 682.98 L2.16 682.75 L1.81 682.61 L1.44 682.56 L1.07 682.61 L0.72 682.75
						 L0.42 682.98 L0.19 683.28 L0.05 683.63 L0 684 L0.05 684.37 L0.19 684.72 L0.42 685.02 L0.72 685.25 L1.07
						 685.39 L1.44 685.44 L1.81 685.39 L2.16 685.25 L2.46 685.02 L2.69 684.72 L2.83 684.37 L2.88 684 Z"
					class="st1"/>
		</g>
		<g id="shape4-9" v:mID="4" v:groupContext="shape" v:layerMember="0" transform="translate(244.8,-529.2)">
			<title>Rectangle</title>
			<desc>Monitor</desc>
			<v:textBlock v:margins="rect(0,0,0,0)" v:tabSpace="42.5197"/>
			<v:textRect cx="45" cy="663.12" width="90" height="44.64"/>
			<rect x="0" y="640.8" width="90" height="44.64" class="st5"/>
			<text x="27.83" y="666.12" class="st4" v:langID="1033"><v:paragraph v:horizAlign="1"/><v:tabList/>Monitor</text>		</g>
		<g id="shape5-12" v:mID="5" v:groupContext="shape" v:layerMember="2" transform="translate(288.36,-52.56)">
			<title>Sheet.5</title>
			<path d="M2.88 684 L2.83 683.63 L2.69 683.28 L2.46 682.98 L2.16 682.75 L1.81 682.61 L1.44 682.56 L1.07 682.61 L0.72 682.75
						 L0.42 682.98 L0.19 683.28 L0.05 683.63 L0 684 L0.05 684.37 L0.19 684.72 L0.42 685.02 L0.72 685.25 L1.07
						 685.39 L1.44 685.44 L1.81 685.39 L2.16 685.25 L2.46 685.02 L2.69 684.72 L2.83 684.37 L2.88 684 Z"
					class="st1"/>
		</g>
		<g id="shape6-14" v:mID="6" v:groupContext="shape" v:layerMember="0" transform="translate(432,-529.2)">
			<title>Sheet.6</title>
			<desc>Payments API</desc>
			<v:textBlock v:margins="rect(0,0,0,0)" v:tabSpace="42.5197"/>
			<v:textRect cx="45" cy="663.12" width="90" height="44.64"/>
			<rect x="0" y="640.8" width="90" height="44.64" class="st6"/>
			<text x="16.35" y="666.12" class="st4" v:langID="1033"><v:paragraph v:horizAlign="1"/><v:tabList/>Payments API</text>		</g>
		<g id="shape7-17" v:mID="7" v:groupContext="shape" v:layerMember="2" transform="translate(475.56,-52.56)">
			<title>Sheet.7</title>
			<path d="M2.88 684 L2.83 683.63 L2.69 683.28 L2.46 682.98 L2.16 682.75 L1.81 682.61 L1.44 682.56 L1.07 682.61 L0.72 682.75
						 L0.42 682.98 L0.19 683.28 L0.05 683.63 L0 684 L0.05 684.37 L0.19 684.72 L0.42 685.02 L0.72 685.25 L1.07
						 685.39 L1.44 685.44 L1.81 685.39 L2.16 685.25 L2.46 685.02 L2.69 684.72 L2.83 684.37 L2.88 684 Z"
					class="st1"/>
		</g>
		<g id="shape8-19" v:mID="8" v:groupContext="shape" v:layerMember="0" transform="translate(619.2,-529.2)">
			<title>Sheet.8</title>
			<desc>Retry Queue</desc>
			<v:textBlock v:margins="rect(0,0,0,0)" v:tabSpace="42.5197"/>
			<v:textRect cx="45" cy="663.12" width="90" height="44.64"/>
			<rect x="0" y="640.8" width="90" height="44.64" class="st5"/>
			<text x="18.83" y="666.12" class="st4" v:langID="1033"><v:paragraph v:horizAlign="1"/><v:tabList/>Retry Queue</text>		</g>
		<g id="shape9-22" v:mID="9" v:groupContext="shape" v:layerMember="2" transform="translate(662.76,-52.56)">
			<title>Sheet.9</title>
			<path d="M2.88 684 L2.83 683.63 L2.69 683.28 L2.46 682.98 L2.16 682.75 L1.81 682.61 L1.44 682.56 L1.07 682.61 L0.72 682.75
						 L0.42 682.98 L0.19 683.28 L0.05 683.63 L0 684 L0.05 684.37 L0.19 684.72 L0.42 685.02 L0.72 685.25 L1.07
						 685.39 L1.44 685.44 L1.81 685.39 L2.16 685.25 L2.46 685.02 L2.69 684.72 L2.83 684.37 L2.88 684 Z"
					class="st1"/>
		</g>
		<g id="shape10-24" v:mID="10" v:groupContext="shape" v:layerMember="0" transform="translate(806.4,-529.2)">
			<title>Data</title>
			<desc>Ledger</desc>
			<v:textBlock v:margins="rect(0,0,0,0)" v:tabSpace="42.5197"/>
			<v:textRect cx="45" cy="663.12" width="90" height="44.64"/>
			<path d="M14.88 685.44 L90 685.44 L75.12 640.8 L0 640.8 L14.88 685.44 Z" class="st7"/>
			<text x="31.02" y="666.12" class="st8" v:langID="1033"><v:paragraph v:horizAlign="1"/><v:tabList/>Ledger</text>		</g>
		<g id="shape11-27" v:mID="11" v:groupContext="shape" v:layerMember="2" transform="translate(849.96,-52.56)">
			<title>Sheet.11</title>
			<path d="M2.88 684 L2.83 683.63 L2.69 683.28 L2.46 682.98 L2.16 682.75 L1.81 682.61 L1.44 682.56 L1.07 682.61 L0.72 682.75
						 L0.42 682.98 L0.19 683.28 L0.05 683.63 L0 684 L0.05 684.37 L0.19 684.72 L0.42 685.02 L0.72 685.25 L1.07
						 685.39 L1.44 685.44 L1.81 685.39 L2.16 685.25 L2.46 685.02 L2.69 684.72 L2.83 684.37 L2.88 684 Z"
					class="st1"/>
		</g>
		<g id="shape12-29" v:mID="12" v:groupContext="shape" v:layerMember="2" transform="translate(288.36,-478.8)">
			<title>Sheet.12</title>
			<path d="M2.88 684 L2.83 683.63 L2.69 683.28 L2.46 682.98 L2.16 682.75 L1.81 682.61 L1.44 682.56 L1.07 682.61 L0.72 682.75
						 L0.42 682.98 L0.19 683.28 L0.05 683.63 L0 684 L0.05 684.37 L0.19 684.72 L0.42 685.02 L0.72 685.25 L1.07
						 685.39 L1.44 685.44 L1.81 685.39 L2.16 685.25 L2.46 685.02 L2.69 684.72 L2.83 684.37 L2.88 684 Z"
					class="st1"/>
		</g>
		<g id="shape13-31" v:mID="13" v:groupContext="shape" v:layerMember="2" transform="translate(101.16,-478.8)">
			<title>Sheet.13</title>
			<path d="M2.88 684 L2.83 683.63 L2.69 683.28 L2.46 682.98 L2.16 682.75 L1.81 682.61 L1.44 682.56 L1.07 682.61 L0.72 682.75
						 L0.42 682.98 L0.19 683.28 L0.05 683.63 L0 684 L0.05 684.37 L0.19 684.72 L0.42 685.02 L0.72 685.25 L1.07
						 685.39 L1.44 685.44 L1.81 685.39 L2.16 685.25 L2.46 685.02 L2.69 684.72 L2.83 684.37 L2.88 684 Z"
					class="st1"/>
		</g>
		<g id="shape14-33" v:mID="14" v:groupContext="shape" v:layerMember="2" transform="translate(101.16,-425.52)">
			<title>Sheet.14</title>
			<path d="M2.88 684 L2.83 683.63 L2.69 683.28 L2.46 682.98 L2.16 682.75 L1.81 682.61 L1.44 682.56 L1.07 682.61 L0.72 682.75
						 L0.42 682.98 L0.19 683.28 L0.05 683.63 L0 684 L0.05 684.37 L0.19 684.72 L0.42 685.02 L0.72 685.25 L1.07
						 685.39 L1.44 685.44 L1.81 685.39 L2.16 685.25 L2.46 685.02 L2.69 684.72 L2.83 684.37 L2.88 684 Z"
					class="st1"/>
		</g>
		<g id="shape15-35" v:mID="15" v:groupContext="shape" v:layerMember="2" transform="translate(475.56,-425.52)">
			<title>Sheet.15</title>
			<path d="M2.88 684 L2.83 683.63 L2.69 683.28 L2.46 682.98 L2.16 682.75 L1.81 682.61 L1.44 682.56 L1.07 682.61 L0.72 682.75
						 L0.42 682.98 L0.19 683.28 L0.05 683.63 L0 684 L0.05 684.37 L0.19 684.72 L0.42 685.02 L0.72 685.25 L1.07
						 685.39 L1.44 685.44 L1.81 685.39 L2.16 685.25 L2.46 685.02 L2.69 684.72 L2.83 684.37 L2.88 684 Z"
					class="st1"/>
		</g>
		<g id="shape16-37" v:mID="16" v:groupContext="shape" v:layerMember="2" transform="translate(475.56,-372.24)">
			<title>Sheet.16</title>
			<path d="M2.88 684 L2.83 683.63 L2.69 683.28 L2.46 682.98 L2.16 682.75 L1.81 682.61 L1.44 682.56 L1.07 682.61 L0.72 682.75
						 L0.42 682.98 L0.19 683.28 L0.05 683.63 L0 684 L0.05 684.37 L0.19 684.72 L0.42 685.02 L0.72 685.25 L1.07
						 685.39 L1.44 685.44 L1.81 685.39 L2.16 685.25 L2.46 685.02 L2.69 684.72 L2.83 684.37 L2.88 684 Z"
					class="st1"/>
		</g>
		<g id="shape17-39" v:mID="17" v:groupContext="shape" v:layerMember="2" transform="translate(101.16,-372.24)">
			<title>Sheet.17</title>
			<path d="M2.88 684 L2.83 683.63 L2.69 683.28 L2.46 682.98 L2.16 682.75 L1.81 682.61 L1.44 682.56 L1.07 682.61 L0.72 682.75
						 L0.42 682.98 L0.19 683.28 L0.05 683.63 L0 684 L0.05 684.37 L0.19 684.72 L0.42 685.02 L0.72 685.25 L1.07
						 685.39 L1.44 685.44 L1.81 685.39 L2.16 685.25 L2.46 685.02 L2.69 684.72 L2.83 684.37 L2.88 684 Z"
					class="st1"/>
		</g>
		<g id="shape18-41" v:mID="18" v:groupContext="shape" v:layerMember="2" transform="translate(101.16,-318.96)">
			<title>Sheet.18</title>
			<path d="M2.88 684 L2.83 683.63 L2.69 683.28 L2.46 682.98 L2.16 682.75 L1.81 682.61 L1.44 682.56 L1.07 682.61 L0.72 682.75
						 L0.42 682.98 L0.19 683.28 L0.05 683.63 L0 684 L0.05 684.37 L0.19 684.72 L0.42 685.02 L0.72 685.25 L1.07
						 685.39 L1.44 685.44 L1.81 685.39 L2.16 685.25 L2.46 685.02 L2.69 684.72 L2.83 684.37 L2.88 684 Z"
					class="st1"/>
		</g>
		<g id="shape19-43" v:mID="19" v:groupContext="shape" v:layerMember="2" transform="translate(662.76,-318.96)">
			<title>Sheet.19</title>
			<path d="M2.88 684 L2.83 683.63 L2.69 683.28 L2.46 682.98 L2.16 682.75 L1.81 682.61 L1.44 682.56 L1.07 682.61 L0.72 682.75
						 L0.42 682.98 L0.19 683.28 L0.05 683.63 L0 684 L0.05 684.37 L0.19 684.72 L0.42 685.02 L0.72 685.25 L1.07
						 685.39 L1.44 685.44 L1.81 685.39 L2.16 685.25 L2.46 685.02 L2.69 684.72 L2.83 684.37 L2.88 684 Z"
					class="st1"/>
		</g>
		<g id="shape20-45" v:mID="20" v:groupContext="shape" v:layerMember="2" transform="translate(475.56,-265.68)">
			<title>Sheet.20</title>
			<path d="M2.88 684 L2.83 683.63 L2.69 683.28 L2.46 682.98 L2.16 682.75 L1.81 682.61 L1.44 682.56 L1.07 682.61 L0.72 682.75
						 L0.42 682.98 L0.19 683.28 L0.05 683.63 L0 684 L0.05 684.37 L0.19 684.72 L0.42 685.02 L0.72 685.25 L1.07
						 685.39 L1.44 685.44 L1.81 685.39 L2.16 685.25 L2.46 685.02 L2.69 684.72 L2.83 684.37 L2.88 684 Z"
					class="st1"/>
		</g>
		<g id="shape21-47" v:mID="21" v:groupContext="shape" v:layerMember="2" transform="translate(849.96,-265.68)">
			<title>Sheet.21</title>
			<path d="M2.88 684 L2.83 683.63 L2.69 683.28 L2.46 682.98 L2.16 682.75 L1.81 682.61 L1.44 682.56 L1.07 682.61 L0.72 682.75
						 L0.42 682.98 L0.19 683.28 L0.05 683.63 L0 684 L0.05 684.37 L0.19 684.72 L0.42 685.02 L0.72 685.25 L1.07
						 685.39 L1.44 685.44 L1.81 685.39 L2.16 685.25 L2.46 685.02 L2.69 684.72 L2.83 684.37 L2.88 684 Z"
					class="st1"/>
		</g>
		<g id="shape22-49" v:mID="22" v:groupContext="shape" v:layerMember="2" transform="translate(849.96,-212.4)">
			<title>Sheet.22</title>
			<path d="M2.88 684 L2.83 683.63 L2.69 683.28 L2.46 682.98 L2.16 682.75 L1.81 682.61 L1.44 682.56 L1.07 682.61 L0.72 682.75
						 L0.42 682.98 L0.19 683.28 L0.05 683.63 L0 684 L0.05 684.37 L0.19 684.72 L0.42 685.02 L0.72 685.25 L1.07
						 685.39 L1.44 685.44 L1.81 685.39 L2.16 685.25 L2.46 685.02 L2.69 684.72 L2.83 684.37 L2.88 684 Z"
					class="st1"/>
		</g>
		<g id="shape23-51" v:mID="23" v:groupContext="shape" v:layerMember="2" transform="translate(475.56,-212.4)">
			<title>Sheet.23</title>
			<path d="M2.88 684 L2.83 683.63 L2.69 683.28 L2.46 682.98 L2.16 682.75 L1.81 682.61 L1.44 682.56 L1.07 682.61 L0.72 682.75
						 L0.42 682.98 L0.19 683.28 L0.05 683.63 L0 684 L0.05 684.37 L0.19 684.72 L0.42 685.02 L0.72 685.25 L1.07
						 685.39 L1.44 685.44 L1.81 685.39 L2.16 685.25 L2.46 685.02 L2.69 684.72 L2.83 684.37 L2.88 684 Z"
					class="st1"/>
		</g>
		<g id="shape24-53" v:mID="24" v:groupContext="shape" v:layerMember="2" transform="translate(662.76,-159.12)">
			<title>Sheet.24</title>
			<path d="M2.88 684 L2.83 683.63 L2.69 683.28 L2.46 682.98 L2.16 682.75 L1.81 682.61 L1.44 682.56 L1.07 682.61 L0.72 682.75
						 L0.42 682.98 L0.19 683.28 L0.05 683.63 L0 684 L0.05 684.37 L0.19 684.72 L0.42 685.02 L0.72 685.25 L1.07
						 685.39 L1.44 685.44 L1.81 685.39 L2.16 685.25 L2.46 685.02 L2.69 684.72 L2.83 684.37 L2.88 684 Z"
					class="st1"/>
		</g>
		<g id="shape25-55" v:mID="25" v:groupContext="shape" v:layerMember="2" transform="translate(475.56,-159.12)">
			<title>Sheet.25</title>
			<path d="M2.88 684 L2.83 683.63 L2.69 683.28 L2.46 682.98 L2.16 682.75 L1.81 682.61 L1.44 682.56 L1.07 682.61 L0.72 682.75
						 L0.42 682.98 L0.19 683.28 L0.05 683.63 L0 684 L0.05 684.37 L0.19 684.72 L0.42 685.02 L0.72 685.25 L1.07
						 685.39 L1.44 685.44 L1.81 685.39 L2.16 685.25 L2.46 685.02 L2.69 684.72 L2.83 684.37 L2.88 684 Z"
					class="st1"/>
		</g>
		<g id="shape26-57" v:mID="26" v:groupContext="shape" v:layerMember="2" transform="translate(101.16,-105.84)">
			<title>Sheet.26</title>
			<path d="M2.88 684 L2.83 683.63 L2.69 683.28 L2.46 682.98 L2.16 682.75 L1.81 682.61 L1.44 682.56 L1.07 682.61 L0.72 682.75
						 L0.42 682.98 L0.19 683.28 L0.05 683.63 L0 684 L0.05 684.37 L0.19 684.72 L0.42 685.02 L0.72 685.25 L1.07
						 685.39 L1.44 685.44 L1.81 685.39 L2.16 685.25 L2.46 685.02 L2.69 684.72 L2.83 684.37 L2.88 684 Z"
					class="st1"/>
		</g>
		<g id="shape27-59" v:mID="27" v:groupContext="shape" v:layerMember="2" transform="translate(101.16,-79.92)">
			<title>Sheet.27</title>
			<path d="M2.88 684 L2.83 683.63 L2.69 683.28 L2.46 682.98 L2.16 682.75 L1.81 682.61 L1.44 682.56 L1.07 682.61 L0.72 682.75
						 L0.42 682.98 L0.19 683.28 L0.05 683.63 L0 684 L0.05 684.37 L0.19 684.72 L0.42 685.02 L0.72 685.25 L1.07
						 685.39 L1.44 685.44 L1.81 685.39 L2.16 685.25 L2.46 685.02 L2.69 684.72 L2.83 684.37 L2.88 684 Z"
					class="st1"/>
		</g>
		<g id="shape28-61" v:mID="28" v:groupContext="shape" v:layerMember="0">
			<title>Connector</title>
			<path d="M102.6 156.24 L102.6 630 L102.6 156.24 Z" class="st9"/>
			<path d="M102.6 156.24 L102.6 630" class="st10"/>
		</g>
		<g id="shape29-64" v:mID="29" v:groupContext="shape" v:layerMember="0">
			<title>Sheet.29</title>
			<path d="M289.8 156.24 L289.8 630 L289.8 156.24 Z" class="st9"/>
			<path d="M289.8 156.24 L289.8 630" class="st10"/>
		</g>
		<g id="shape30-67" v:mID="30" v:groupContext="shape" v:layerMember="0">
			<title>Sheet.30</title>
			<path d="M477 156.24 L477 630 L477 156.24 Z" class="st9"/>
			<path d="M477 156.24 L477 630" class="st10"/>
		</g>
		<g id="shape31-70" v:mID="31" v:groupContext="shape" v:layerMember="0">
			<title>Sheet.31</title>
			<path d="M664.2 156.24 L664.2 630 L664.2 156.24 Z" class="st9"/>
			<path d="M664.2 156.24 L664.2 630" class="st10"/>
		</g>
		<g id="shape32-73" v:mID="32" v:groupContext="shape" v:layerMember="0">
			<title>Sheet.32</title>
			<path d="M851.4 156.24 L851.4 630 L851.4 156.24 Z" class="st9"/>
			<path d="M851.4 156.24 L851.4 630" class="st10"/>
		</g>
		<g id="shape33-76" v:mID="33" v:groupContext="shape" v:layerMember="1">
			<title>Sheet.33</title>
			<desc>Alert: timeout spike</desc>
			<v:textBlock v:margins="rect(0,0,0,0)" v:tabSpace="42.5197"/>
			<v:textRect cx="196.2" cy="193.68" width="172.8" height="20.16"/>
			<path d="M288.36 205.2 L104.04 205.2 L288.36 205.2 Z" class="st9"/>
			<path d="M288.36 205.2 L104.04 205.2" class="st11"/>
			<text x="159.95" y="196.38" class="st13" v:langID="1033"><v:paragraph v:horizAlign="1"/><v:tabList/>Alert: timeout spike</text>		</g>
		<g id="shape34-82" v:mID="34" v:groupContext="shape" v:layerMember="1">
			<title>Sheet.34</title>
			<desc>Check health</desc>
			<v:textBlock v:margins="rect(0,0,0,0)" v:tabSpace="42.5197"/>
			<v:textRect cx="289.8" cy="246.96" width="187.2" height="20.16"/>
			<path d="M104.04 258.48 L475.56 258.48 L104.04 258.48 Z" class="st9"/>
			<path d="M104.04 258.48 L475.56 258.48" class="st11"/>
			<text x="266.17" y="249.66" class="st13" v:langID="1033"><v:paragraph v:horizAlign="1"/><v:tabList/>Check health</text>		</g>
		<g id="shape35-87" v:mID="35" v:groupContext="shape" v:layerMember="1">
			<title>Sheet.35</title>
			<desc>Gateway latency</desc>
			<v:textBlock v:margins="rect(0,0,0,0)" v:tabSpace="42.5197"/>
			<v:textRect cx="289.8" cy="300.24" width="187.2" height="20.16"/>
			<path d="M475.56 311.76 L104.04 311.76 L475.56 311.76 Z" class="st9"/>
			<path d="M475.56 311.76 L104.04 311.76" class="st14"/>
			<text x="259.39" y="302.94" class="st16" v:langID="1033"><v:paragraph v:horizAlign="1"/><v:tabList/>Gateway latency</text>		</g>
		<g id="shape36-93" v:mID="36" v:groupContext="shape" v:layerMember="1">
			<title>Sheet.36</title>
			<desc>Pause retries</desc>
			<v:textBlock v:margins="rect(0,0,0,0)" v:tabSpace="42.5197"/>
			<v:textRect cx="383.4" cy="353.52" width="187.2" height="20.16"/>
			<path d="M104.04 365.04 L662.76 365.04 L104.04 365.04 Z" class="st9"/>
			<path d="M104.04 365.04 L662.76 365.04" class="st17"/>
			<text x="359.62" y="356.22" class="st19" v:langID="1033"><v:paragraph v:horizAlign="1"/><v:tabList/>Pause retries</text>		</g>
		<g id="shape37-99" v:mID="37" v:groupContext="shape" v:layerMember="1">
			<title>Sheet.37</title>
			<desc>Verify settlement</desc>
			<v:textBlock v:margins="rect(0,0,0,0)" v:tabSpace="42.5197"/>
			<v:textRect cx="664.2" cy="406.8" width="187.2" height="20.16"/>
			<path d="M478.44 418.32 L849.96 418.32 L478.44 418.32 Z" class="st9"/>
			<path d="M478.44 418.32 L849.96 418.32" class="st11"/>
			<text x="632.39" y="409.5" class="st13" v:langID="1033"><v:paragraph v:horizAlign="1"/><v:tabList/>Verify settlement</text>		</g>
		<g id="shape38-104" v:mID="38" v:groupContext="shape" v:layerMember="1">
			<title>Sheet.38</title>
			<desc>Consistent</desc>
			<v:textBlock v:margins="rect(0,0,0,0)" v:tabSpace="42.5197"/>
			<v:textRect cx="664.2" cy="460.08" width="187.2" height="20.16"/>
			<path d="M849.96 471.6 L478.44 471.6 L849.96 471.6 Z" class="st9"/>
			<path d="M849.96 471.6 L478.44 471.6" class="st14"/>
			<text x="644.89" y="462.78" class="st16" v:langID="1033"><v:paragraph v:horizAlign="1"/><v:tabList/>Consistent</text>		</g>
		<g id="shape39-109" v:mID="39" v:groupContext="shape" v:layerMember="1">
			<title>Sheet.39</title>
			<desc>Resume controlled drain</desc>
			<v:textBlock v:margins="rect(0,0,0,0)" v:tabSpace="42.5197"/>
			<v:textRect cx="570.6" cy="513.36" width="172.8" height="20.16"/>
			<path d="M662.76 524.88 L478.44 524.88 L662.76 524.88 Z" class="st9"/>
			<path d="M662.76 524.88 L478.44 524.88" class="st17"/>
			<text x="525.68" y="516.06" class="st19" v:langID="1033"><v:paragraph v:horizAlign="1"/><v:tabList/>Resume controlled drain</text>		</g>
		<g id="shape40-114" v:mID="40" v:groupContext="shape" v:layerMember="1">
			<title>Sheet.40</title>
			<desc>Update incident record</desc>
			<v:textBlock v:margins="rect(0,0,0,0)" v:tabSpace="42.5197"/>
			<v:textRect cx="223.2" cy="594.72" width="107.28" height="33.12"/>
			<path d="M104.04 578.16 L156.6 578.16 L156.6 604.08 L104.04 604.08 L104.04 578.16 Z" class="st9"/>
			<path d="M104.04 578.16 L156.6 578.16 L156.6 604.08 L104.04 604.08" class="st11"/>
			<text x="180.82" y="597.42" class="st13" v:langID="1033"><v:paragraph v:horizAlign="1"/><v:tabList/>Update incident record</text>		</g>
	</g>
</svg>
