<?xml version="1.0" encoding="UTF-8" standalone="no"?>
<!DOCTYPE svg PUBLIC "-//W3C//DTD SVG 1.1//EN" "http://www.w3.org/Graphics/SVG/1.1/DTD/svg11.dtd">
<!-- Generated by Microsoft Visio, SVG Export officeimo-visio-premium-cloud-architecture-page1.svg Premium Cloud Architecture -->
<svg xmlns="http://www.w3.org/2000/svg" xmlns:xlink="http://www.w3.org/1999/xlink" xmlns:ev="http://www.w3.org/2001/xml-events"
		xmlns:v="http://schemas.microsoft.com/visio/2003/SVGExtensions/" width="18in" height="8.5in" viewBox="0 0 1296 612"
		xml:space="preserve" color-interpolation-filters="sRGB" class="st25">
	<v:documentProperties v:langID="1033" v:metric="true" v:viewMarkup="false"/>

	<style type="text/css">
	<![CDATA[
		.st1 {fill:#e8f6fd;stroke:#74bede;stroke-linecap:round;stroke-linejoin:round;stroke-width:0.864}
		.st2 {fill:none;stroke:none;stroke-linecap:round;stroke-linejoin:round;stroke-width:1}
		.st3 {fill:#164d69;font-family:Calibri;font-size:0.833336em;font-weight:bold}
		.st4 {fill:#6250be;stroke:#463692;stroke-linecap:round;stroke-linejoin:round;stroke-width:1.296}
		.st5 {fill:#ffffff;font-family:Calibri;font-size:0.833336em;font-weight:bold}
		.st6 {fill:#415062;stroke:#2a3544;stroke-linecap:round;stroke-linejoin:round;stroke-width:1.296}
		.st7 {fill:#0067b8;stroke:#004e8c;stroke-linecap:round;stroke-linejoin:round;stroke-width:1.296}
		.st8 {fill:#f4b400;stroke:#b77900;stroke-linecap:round;stroke-linejoin:round;stroke-width:1.296}
		.st9 {fill:#342b0c;font-family:Calibri;font-size:0.833336em;font-weight:bold}
		.st10 {fill:#009977;stroke:#006f58;stroke-linecap:round;stroke-linejoin:round;stroke-width:1.296}
		.st11 {fill:#ffffff;font-family:Calibri;font-size:1.66667em;font-weight:bold}
		.st12 {fill:none;stroke:#0099bc;stroke-linecap:round;stroke-linejoin:round;stroke-width:1.296}
		.st13 {fill:#00677c;font-family:Calibri;font-size:0.75em}
		.st14 {fill:none;stroke:#6250be;stroke-dasharray:9.072,6.48;stroke-linecap:round;stroke-linejoin:round;stroke-width:1.296}
		.st15 {fill:#463692;font-family:Calibri;font-size:0.75em}
		.st16 {fill:none}
		.st17 {stroke:#0099bc;stroke-linecap:round;stroke-linejoin:round;stroke-width:1.296}
		.st18 {fill:#0099bc;fill-opacity:1;stroke:#0099bc;stroke-opacity:1;stroke-width:0.33962264150943}
		.st19 {stroke:#0067b8;stroke-linecap:round;stroke-linejoin:round;stroke-width:1.296}
		.st20 {fill:#0067b8;fill-opacity:1;stroke:#0067b8;stroke-opacity:1;stroke-width:0.33962264150943}
		.st21 {fill:#004e8c;font-family:Calibri;font-size:0.75em}
		.st22 {stroke:#6250be;stroke-dasharray:9.072,6.48;stroke-linecap:round;stroke-linejoin:round;stroke-width:1.296}
		.st23 {fill:#6250be;fill-opacity:1;stroke:#6250be;stroke-opacity:1;stroke-width:0.33962264150943}
		.st24 {stroke:#0067b8;stroke-dasharray:9.072,6.48;stroke-linecap:round;stroke-linejoin:round;stroke-width:1.296}
		.st25 {fill:none;fill-rule:evenodd;font-size:12px;overflow:visible;stroke-linecap:square;stroke-miterlimit:3}
	]]>
	</style>

	<defs id="Markers">
		<g id="lend13">
			<path d="M 3 1 L 0 0 L 3 -1 L 3 1 " style="stroke:none"/>
		</g>
		<marker id="mrkr13-63" class="st18" v:arrowType="13" v:arrowSize="2" v:setback="8.83333" refX="-8.8333333333333"
				orient="auto" markerUnits="strokeWidth" overflow="visible">
			<use xlink:href="#lend13" transform="scale(-2.9444444444444,-2.9444444444444) "/>
		</marker>
		<marker id="mrkr13-69" class="st20" v:arrowType="13" v:arrowSize="2" v:setback="8.83333" refX="-8.8333333333333"
				orient="auto" markerUnits="strokeWidth" overflow="visible">
			<use xlink:href="#lend13" transform="scale(-2.9444444444444,-2.9444444444444) "/>
		</marker>
		<marker id="mrkr13-80" class="st23" v:arrowType="13" v:arrowSize="2" v:setback="8.83333" refX="-8.8333333333333"
				orient="auto" markerUnits="strokeWidth" overflow="visible">
			<use xlink:href="#lend13" transform="scale(-2.9444444444444,-2.9444444444444) "/>
		</marker>
	</defs>
	<g v:mID="0" v:index="1" v:groupContext="foregroundPage">
		<v:userDefs>
			<v:ud v:nameU="msvThemeOrder" v:val="VT0(0):26"/>
		</v:userDefs>
		<title>Premium Cloud Architecture</title>
		<v:pageProperties v:drawingScale="1" v:pageScale="1" v:drawingUnits="0" v:shadowOffsetX="8.50394"
				v:shadowOffsetY="-8.50394"/>
		<v:layer v:name="Annotations" v:index="0"/>
		<g id="shape1-1" v:mID="1" v:groupContext="shape" transform="translate(34.2,-80.64)">
			<title>Rectangle</title>
			<rect x="0" y="253.44" width="345.6" height="358.56" class="st1"/>
		</g>
		<g id="shape2-3" v:mID="2" v:groupContext="shape" transform="translate(45,-439.92)">
			<title>Text Box</title>
			<desc>Edge and Identity</desc>
			<v:textBlock v:margins="rect(0,5.76,0,5.76)" v:tabSpace="42.5197"/>
			<v:textRect cx="162" cy="601.2" width="324" height="21.6"/>
			<rect x="0" y="590.4" width="324" height="21.6" class="st2"/>
			<text x="5.76" y="604.2" class="st3" v:langID="1033"><v:paragraph/><v:tabList/>Edge and Identity</text>		</g>
		<g id="shape3-6" v:mID="3" v:groupContext="shape" transform="translate(394.2,-80.64)">
			<title>Sheet.3</title>
			<rect x="0" y="253.44" width="525.6" height="358.56" class="st1"/>
		</g>
		<g id="shape4-8" v:mID="4" v:groupContext="shape" transform="translate(405,-439.92)">
			<title>Sheet.4</title>
			<desc>Runtime Services</desc>
			<v:textBlock v:margins="rect(0,5.76,0,5.76)" v:tabSpace="42.5197"/>
			<v:textRect cx="252" cy="601.2" width="504" height="21.6"/>
			<rect x="0" y="590.4" width="504" height="21.6" class="st2"/>
			<text x="5.76" y="604.2" class="st3" v:langID="1033"><v:paragraph/><v:tabList/>Runtime Services</text>		</g>
		<g id="shape5-11" v:mID="5" v:groupContext="shape" transform="translate(934.2,-80.64)">
			<title>Sheet.5</title>
			<rect x="0" y="253.44" width="345.6" height="358.56" class="st1"/>
		</g>
		<g id="shape6-13" v:mID="6" v:groupContext="shape" transform="translate(945,-439.92)">
			<title>Sheet.6</title>
			<desc>Data Platform</desc>
			<v:textBlock v:margins="rect(0,5.76,0,5.76)" v:tabSpace="42.5197"/>
			<v:textRect cx="162" cy="601.2" width="324" height="21.6"/>
			<rect x="0" y="590.4" width="324" height="21.6" class="st2"/>
			<text x="5.76" y="604.2" class="st3" v:langID="1033"><v:paragraph/><v:tabList/>Data Platform</text>		</g>
		<g id="shape7-16" v:mID="7" v:groupContext="shape" transform="translate(86.4,-229.32)">
			<title>Circle</title>
			<desc>Customers</desc>
			<v:textBlock v:margins="rect(0,0,0,0)" v:tabSpace="42.5197"/>
			<v:textRect cx="30.6" cy="581.4" width="61.2" height="61.2"/>
			<path d="M61.2 581.4 L60.16 573.48 L57.1 566.1 L52.24 559.76 L45.9 554.9 L38.52 551.84 L30.6 550.8 L22.68 551.84 L15.3
						 554.9 L8.96 559.76 L4.1 566.1 L1.04 573.48 L0 581.4 L1.04 589.32 L4.1 596.7 L8.96 603.04 L15.3 607.9 L22.68
						 610.96 L30.6 612 L38.52 610.96 L45.9 607.9 L52.24 603.04 L57.1 596.7 L60.16 589.32 L61.2 581.4 Z"
					class="st4"/>
			<text x="8.5" y="584.4" class="st5" v:langID="1033"><v:paragraph v:horizAlign="1"/><v:tabList/>Customers</text>		</g>
		<g id="shape8-19" v:mID="8" v:groupContext="shape" transform="translate(243.99,-351.036)">
			<title>Decision</title>
			<desc>Identity</desc>
			<v:textBlock v:margins="rect(0,0,0,0)" v:tabSpace="42.5197"/>
			<v:textRect cx="53.01" cy="576.396" width="106.02" height="71.208"/>
			<path d="M53.01 612 L106.02 576.4 L53.01 540.79 L0 576.4 L53.01 612 Z" class="st6"/>
			<text x="36.73" y="579.4" class="st5" v:langID="1033"><v:paragraph v:horizAlign="1"/><v:tabList/>Identity</text>		</g>
		<g id="shape9-22" v:mID="9" v:groupContext="shape" transform="translate(243.99,-224.316)">
			<title>Sheet.9</title>
			<desc>Front Door</desc>
			<v:textBlock v:margins="rect(0,0,0,0)" v:tabSpace="42.5197"/>
			<v:textRect cx="53.01" cy="576.396" width="106.02" height="71.208"/>
			<path d="M53.01 612 L106.02 576.4 L53.01 540.79 L0 576.4 L53.01 612 Z" class="st6"/>
			<text x="30.4" y="579.4" class="st5" v:langID="1033"><v:paragraph v:horizAlign="1"/><v:tabList/>Front Door</text>		</g>
		<g id="shape10-25" v:mID="10" v:groupContext="shape" transform="translate(421.2,-228.96)">
			<title>Process</title>
			<desc>Portal</desc>
			<v:textBlock v:margins="rect(0,0,0,0)" v:tabSpace="42.5197"/>
			<v:textRect cx="55.8" cy="581.04" width="111.6" height="61.92"/>
			<rect x="0" y="550.08" width="111.6" height="61.92" class="st7"/>
			<text x="43.24" y="584.04" class="st5" v:langID="1033"><v:paragraph v:horizAlign="1"/><v:tabList/>Portal</text>		</g>
		<g id="shape11-28" v:mID="11" v:groupContext="shape" transform="translate(601.2,-228.96)">
			<title>Sheet.11</title>
			<desc>API</desc>
			<v:textBlock v:margins="rect(0,0,0,0)" v:tabSpace="42.5197"/>
			<v:textRect cx="55.8" cy="581.04" width="111.6" height="61.92"/>
			<rect x="0" y="550.08" width="111.6" height="61.92" class="st7"/>
			<text x="48.78" y="584.04" class="st5" v:langID="1033"><v:paragraph v:horizAlign="1"/><v:tabList/>API</text>		</g>
		<g id="shape12-31" v:mID="12" v:groupContext="shape" transform="translate(601.2,-102.24)">
			<title>Data</title>
			<desc>Events</desc>
			<v:textBlock v:margins="rect(0,0,0,0)" v:tabSpace="42.5197"/>
			<v:textRect cx="55.8" cy="581.04" width="111.6" height="61.92"/>
			<path d="M20.64 612 L111.6 612 L90.96 550.08 L0 550.08 L20.64 612 Z" class="st8"/>
			<text x="42.07" y="584.04" class="st9" v:langID="1033"><v:paragraph v:horizAlign="1"/><v:tabList/>Events</text>		</g>
		<g id="shape13-34" v:mID="13" v:groupContext="shape" transform="translate(781.2,-102.24)">
			<title>Sheet.13</title>
			<desc>Worker</desc>
			<v:textBlock v:margins="rect(0,0,0,0)" v:tabSpace="42.5197"/>
			<v:textRect cx="55.8" cy="581.04" width="111.6" height="61.92"/>
			<rect x="0" y="550.08" width="111.6" height="61.92" class="st7"/>
			<text x="40.11" y="584.04" class="st5" v:langID="1033"><v:paragraph v:horizAlign="1"/><v:tabList/>Worker</text>		</g>
		<g id="shape14-37" v:mID="14" v:groupContext="shape" transform="translate(961.2,-228.96)">
			<title>Sheet.14</title>
			<desc>SQL</desc>
			<v:textBlock v:margins="rect(0,0,0,0)" v:tabSpace="42.5197"/>
			<v:textRect cx="55.8" cy="581.04" width="111.6" height="61.92"/>
			<path d="M20.64 612 L111.6 612 L90.96 550.08 L0 550.08 L20.64 612 Z" class="st10"/>
			<text x="47.89" y="584.04" class="st5" v:langID="1033"><v:paragraph v:horizAlign="1"/><v:tabList/>SQL</text>		</g>
		<g id="shape15-40" v:mID="15" v:groupContext="shape" transform="translate(1141.2,-102.24)">
			<title>Sheet.15</title>
			<desc>Archive</desc>
			<v:textBlock v:margins="rect(0,0,0,0)" v:tabSpace="42.5197"/>
			<v:textRect cx="55.8" cy="581.04" width="111.6" height="61.92"/>
			<path d="M20.64 612 L111.6 612 L90.96 550.08 L0 550.08 L20.64 612 Z" class="st10"/>
			<text x="40.11" y="584.04" class="st5" v:langID="1033"><v:paragraph v:horizAlign="1"/><v:tabList/>Archive</text>		</g>
		<g id="shape16-43" v:mID="16" v:groupContext="shape" v:layerMember="0" transform="translate(1098,-232.92)">
			<title>Callout</title>
			<desc>PII data boundary</desc>
			<v:textBlock v:margins="rect(0,0,0,0)" v:tabSpace="42.5197"/>
			<v:textRect cx="79.2" cy="585" width="158.4" height="54"/>
			<rect x="0" y="558" width="158.4" height="54" class="st1"/>
			<text x="42.22" y="588" class="st3" v:langID="1033"><v:paragraph v:horizAlign="1"/><v:tabList/>PII data boundary</text>		</g>
		<g id="shape17-46" v:mID="17" v:groupContext="shape" transform="translate(57.6,-518.4)">
			<title>Sheet.17</title>
			<desc>Customer Portal - Production Architecture</desc>
			<v:textBlock v:margins="rect(0,0,0,0)" v:tabSpace="42.5197"/>
			<v:textRect cx="590.4" cy="595.8" width="1180.8" height="32.4"/>
			<rect x="0" y="579.6" width="1180.8" height="32.4" class="st2"/>
			<text x="415.4" y="601.8" class="st11" v:langID="1033"><v:paragraph v:horizAlign="1"/><v:tabList/>Customer Portal - Production Architecture</text>		</g>
		<g id="shape18-49" v:mID="18" v:groupContext="shape" transform="translate(61.2,-480.24)">
			<title>Sheet.18</title>
			<rect x="0" y="606.24" width="46.08" height="5.76" class="st12"/>
		</g>
		<g id="shape19-51" v:mID="19" v:groupContext="shape" transform="translate(113.4,-473.04)">
			<title>Sheet.19</title>
			<desc>Data Flow</desc>
			<v:textBlock v:margins="rect(0,0,0,0)" v:tabSpace="42.5197"/>
			<v:textRect cx="59.4" cy="601.92" width="118.8" height="20.16"/>
			<rect x="0" y="591.84" width="118.8" height="20.16" class="st2"/>
			<text x="0" y="604.62" class="st13" v:langID="1033"><v:paragraph/><v:tabList/>Data Flow</text>		</g>
		<g id="shape20-54" v:mID="20" v:groupContext="shape" transform="translate(1054.8,-480.24)">
			<title>Sheet.20</title>
			<path d="M0 612 L46.08 612 L46.08 606.24 L0 606.24 L0 612 Z" class="st14"/>
		</g>
		<g id="shape21-56" v:mID="21" v:groupContext="shape" transform="translate(1107,-473.04)">
			<title>Sheet.21</title>
			<desc>Control Flow</desc>
			<v:textBlock v:margins="rect(0,0,0,0)" v:tabSpace="42.5197"/>
			<v:textRect cx="59.4" cy="601.92" width="118.8" height="20.16"/>
			<rect x="0" y="591.84" width="118.8" height="20.16" class="st2"/>
			<text x="0" y="604.62" class="st15" v:langID="1033"><v:paragraph/><v:tabList/>Control Flow</text>		</g>
		<g id="shape22-59" v:mID="22" v:groupContext="shape">
			<title>Connector</title>
			<desc>HTTPS</desc>
			<v:textBlock v:margins="rect(0,0,0,0)" v:tabSpace="42.5197"/>
			<v:textRect cx="195.795" cy="340.56" width="90" height="21.6"/>
			<path d="M147.6 352.08 L195.79 352.08 L243.99 352.08 L147.6 352.08 Z" class="st16"/>
			<path d="M147.6 352.08 L195.79 352.08 L243.99 352.08" class="st17"/>
			<text x="184.21" y="343.26" class="st13" v:langID="1033"><v:paragraph v:horizAlign="1"/><v:tabList/>HTTPS</text>		</g>
		<g id="shape23-65" v:mID="23" v:groupContext="shape">
			<title>Sheet.23</title>
			<desc>auth</desc>
			<v:textBlock v:margins="rect(0,0,0,0)" v:tabSpace="42.5197"/>
			<v:textRect cx="297" cy="277.2" width="90" height="21.6"/>
			<path d="M297 316.48 L297 282.96 L297 260.96 L297 316.48 Z" class="st16"/>
			<path d="M297 316.48 L297 282.96 L297 260.96" class="st19"/>
			<text x="288.61" y="279.9" class="st21" v:langID="1033"><v:paragraph v:horizAlign="1"/><v:tabList/>auth</text>		</g>
		<g id="shape24-71" v:mID="24" v:groupContext="shape">
			<title>Sheet.24</title>
			<desc>route</desc>
			<v:textBlock v:margins="rect(0,0,0,0)" v:tabSpace="42.5197"/>
			<v:textRect cx="385.605" cy="340.56" width="90" height="21.6"/>
			<path d="M350.01 352.08 L397.12 352.08 L421.2 352.08 L350.01 352.08 Z" class="st16"/>
			<path d="M350.01 352.08 L397.12 352.08 L421.2 352.08" class="st17"/>
			<text x="375.55" y="343.26" class="st13" v:langID="1033"><v:paragraph v:horizAlign="1"/><v:tabList/>route</text>		</g>
		<g id="shape25-76" v:mID="25" v:groupContext="shape">
			<title>Sheet.25</title>
			<desc>REST</desc>
			<v:textBlock v:margins="rect(0,0,0,0)" v:tabSpace="42.5197"/>
			<v:textRect cx="567" cy="340.56" width="90" height="21.6"/>
			<path d="M532.8 352.08 L567 352.08 L601.2 352.08 L532.8 352.08 Z" class="st16"/>
			<path d="M532.8 352.08 L567 352.08 L601.2 352.08" class="st22"/>
			<text x="558.1" y="343.26" class="st15" v:langID="1033"><v:paragraph v:horizAlign="1"/><v:tabList/>REST</text>		</g>
		<g id="shape26-82" v:mID="26" v:groupContext="shape">
			<title>Sheet.26</title>
			<desc>publish</desc>
			<v:textBlock v:margins="rect(0,0,0,0)" v:tabSpace="42.5197"/>
			<v:textRect cx="657" cy="403.92" width="90" height="21.6"/>
			<path d="M657 383.04 L657 409.68 L657 447.84 L657 383.04 Z" class="st16"/>
			<path d="M657 383.04 L657 409.68 L657 447.84" class="st22"/>
			<text x="643.72" y="406.62" class="st15" v:langID="1033"><v:paragraph v:horizAlign="1"/><v:tabList/>publish</text>		</g>
		<g id="shape27-87" v:mID="27" v:groupContext="shape">
			<title>Sheet.27</title>
			<desc>trigger</desc>
			<v:textBlock v:margins="rect(0,0,0,0)" v:tabSpace="42.5197"/>
			<v:textRect cx="747" cy="467.28" width="90" height="21.6"/>
			<path d="M712.8 478.8 L758.52 478.8 L781.2 478.8 L712.8 478.8 Z" class="st16"/>
			<path d="M712.8 478.8 L758.52 478.8 L781.2 478.8" class="st22"/>
			<text x="734.85" y="469.98" class="st15" v:langID="1033"><v:paragraph v:horizAlign="1"/><v:tabList/>trigger</text>		</g>
		<g id="shape28-92" v:mID="28" v:groupContext="shape">
			<title>Sheet.28</title>
			<desc>SQL</desc>
			<v:textBlock v:margins="rect(0,0,0,0)" v:tabSpace="42.5197"/>
			<v:textRect cx="837" cy="340.56" width="90" height="21.6"/>
			<path d="M712.8 352.08 L837 352.08 L961.2 352.08 L712.8 352.08 Z" class="st16"/>
			<path d="M712.8 352.08 L837 352.08 L961.2 352.08" class="st17"/>
			<text x="830.01" y="343.26" class="st13" v:langID="1033"><v:paragraph v:horizAlign="1"/><v:tabList/>SQL</text>		</g>
		<g id="shape29-97" v:mID="29" v:groupContext="shape">
			<title>Sheet.29</title>
			<desc>export</desc>
			<v:textBlock v:margins="rect(0,0,0,0)" v:tabSpace="42.5197"/>
			<v:textRect cx="1017" cy="467.28" width="90" height="21.6"/>
			<path d="M892.8 478.8 L1022.76 478.8 L1141.2 478.8 L892.8 478.8 Z" class="st16"/>
			<path d="M892.8 478.8 L1022.76 478.8 L1141.2 478.8" class="st17"/>
			<text x="1005" y="469.98" class="st13" v:langID="1033"><v:paragraph v:horizAlign="1"/><v:tabList/>export</text>		</g>
		<g id="shape30-102" v:mID="30" v:groupContext="shape" v:layerMember="0">
			<title>Sheet.30</title>
			<path d="M1098 352.08 L1091.16 352.08 L1072.8 352.08 L1098 352.08 Z" class="st16"/>
			<path d="M1098 352.08 L1091.16 352.08 L1072.8 352.08" class="st24"/>
		</g>
	</g>
</svg>
