<?xml version="1.0" encoding="utf-8"?>
<!-- Generator: Adobe Illustrator 15.0.2, SVG Export Plug-In . SVG Version: 6.00 Build 0)  -->
<!DOCTYPE svg PUBLIC "-//W3C//DTD SVG 1.1//EN" "http://www.w3.org/Graphics/SVG/1.1/DTD/svg11.dtd">
<svg version="1.1" id="Layer_1" xmlns="http://www.w3.org/2000/svg" xmlns:xlink="http://www.w3.org/1999/xlink" x="0px" y="0px"
	 width="401.98px" height="127.494px" viewBox="0 0 401.98 127.494" enable-background="new 0 0 401.98 127.494"
	 xml:space="preserve">
<g>
	<g>
		<g>
			<g>
				<linearGradient id="SVGID_1_" gradientUnits="userSpaceOnUse" x1="31.9595" y1="92.9395" x2="91.4836" y2="31.3004">
					<stop  offset="0" style="stop-color:#E6E7E8"/>
					<stop  offset="0.1099" style="stop-color:#000000"/>
					<stop  offset="0.11" style="stop-color:#FFFFFF"/>
					<stop  offset="0.2362" style="stop-color:#58595B"/>
					<stop  offset="0.3398" style="stop-color:#FFFFFF"/>
					<stop  offset="0.5599" style="stop-color:#D1D3D4"/>
					<stop  offset="0.56" style="stop-color:#000000"/>
					<stop  offset="0.7044" style="stop-color:#FFFFFF"/>
					<stop  offset="0.8099" style="stop-color:#414042"/>
					<stop  offset="0.81" style="stop-color:#FFFFFF"/>
					<stop  offset="0.95" style="stop-color:#414042"/>
					<stop  offset="0.95" style="stop-color:#FFFFFF"/>
				</linearGradient>
				<path fill="url(#SVGID_1_)" d="M37.375,99.222c0.003-0.992,0.793-1.788,1.772-1.82l0.006-0.007h0.026
					c0.013,0,0.02-0.007,0.023,0.007c0.013,0,0.023,0,0.036-0.007l29.506,0.007c19.551-0.007,35.459-15.916,35.466-35.467
					c0-19.557-15.905-35.459-35.463-35.466L39.16,26.462l-0.003-0.025c-0.963-0.039-1.73-0.822-1.733-1.789
					c0-0.973,0.771-1.75,1.733-1.789v-0.025h29.587c21.565,0,39.105,17.54,39.102,39.102c0.003,21.563-17.537,39.103-39.102,39.103
					l-29.463-0.007c-0.033,0-0.056,0.014-0.079,0.02C38.197,101.044,37.381,100.228,37.375,99.222z"/>
				<linearGradient id="SVGID_2_" gradientUnits="userSpaceOnUse" x1="21.9951" y1="93.5049" x2="83.5627" y2="29.7498">
					<stop  offset="0" style="stop-color:#E6E7E8"/>
					<stop  offset="0.1099" style="stop-color:#000000"/>
					<stop  offset="0.11" style="stop-color:#FFFFFF"/>
					<stop  offset="0.2362" style="stop-color:#58595B"/>
					<stop  offset="0.3398" style="stop-color:#FFFFFF"/>
					<stop  offset="0.5599" style="stop-color:#D1D3D4"/>
					<stop  offset="0.56" style="stop-color:#000000"/>
					<stop  offset="0.7044" style="stop-color:#FFFFFF"/>
					<stop  offset="0.79" style="stop-color:#414042"/>
					<stop  offset="0.79" style="stop-color:#FFFFFF"/>
					<stop  offset="0.95" style="stop-color:#414042"/>
					<stop  offset="0.95" style="stop-color:#FFFFFF"/>
				</linearGradient>
				<path fill="url(#SVGID_2_)" d="M27.485,80.161c0-0.83,0.679-1.508,1.504-1.502c0.017,0,0.036,0.007,0.052,0.014v-0.026h39.203
					c4.462-0.007,8.656-1.743,11.813-4.896c3.163-3.166,4.902-7.364,4.896-11.816c0.003-4.458-1.737-8.656-4.896-11.814
					c-3.16-3.16-7.351-4.896-11.813-4.896l-39.207,0.013l0.007-0.026c-0.029,0-0.036,0.007-0.052,0.007
					c-0.839,0.007-1.508-0.659-1.498-1.495c-0.01-0.835,0.659-1.501,1.501-1.508c0.01,0.007,0.029,0.007,0.045,0.014v-0.014h39.213
					c10.873-0.006,19.721,8.846,19.718,19.715c-0.003,5.268-2.06,10.216-5.787,13.949c-3.728,3.722-8.672,5.784-13.937,5.771
					l-39.21,0.013l0.007-0.007c-0.023,0-0.039,0.007-0.059,0.007C28.164,81.662,27.491,80.989,27.485,80.161z"/>
				<linearGradient id="SVGID_3_" gradientUnits="userSpaceOnUse" x1="33.2207" y1="94.0664" x2="92.7012" y2="32.4725">
					<stop  offset="0" style="stop-color:#E6E7E8"/>
					<stop  offset="0.1099" style="stop-color:#000000"/>
					<stop  offset="0.11" style="stop-color:#FFFFFF"/>
					<stop  offset="0.2362" style="stop-color:#58595B"/>
					<stop  offset="0.3398" style="stop-color:#FFFFFF"/>
					<stop  offset="0.5599" style="stop-color:#D1D3D4"/>
					<stop  offset="0.56" style="stop-color:#000000"/>
					<stop  offset="0.7044" style="stop-color:#FFFFFF"/>
					<stop  offset="0.8099" style="stop-color:#414042"/>
					<stop  offset="0.81" style="stop-color:#FFFFFF"/>
					<stop  offset="0.95" style="stop-color:#414042"/>
					<stop  offset="0.95" style="stop-color:#FFFFFF"/>
				</linearGradient>
				<path fill="url(#SVGID_3_)" d="M47.698,86.297c0-0.973,0.787-1.756,1.756-1.756c0.023-0.007,0.046,0.007,0.065,0.007h19.071
					c6.028,0,11.708-2.351,15.983-6.626c4.276-4.276,6.623-9.955,6.629-15.987c0.003-6.031-2.354-11.711-6.629-15.98
					c-4.282-4.281-9.955-6.632-15.983-6.632H49.428l-0.003-0.039c-0.911-0.052-1.638-0.783-1.638-1.717
					c0.003-0.927,0.725-1.665,1.642-1.729l-0.003-0.047l19.166-0.006c6.969,0.014,13.532,2.729,18.48,7.677
					c4.941,4.941,7.661,11.509,7.661,18.468c0,6.979-2.719,13.539-7.667,18.48l0,0c-4.942,4.947-11.505,7.67-18.474,7.67
					l-19.163,0.006v-0.039C48.472,88.021,47.705,87.257,47.698,86.297z"/>
				<linearGradient id="SVGID_4_" gradientUnits="userSpaceOnUse" x1="21.5356" y1="93.0244" x2="83.0752" y2="29.2984">
					<stop  offset="0" style="stop-color:#E6E7E8"/>
					<stop  offset="0.1099" style="stop-color:#000000"/>
					<stop  offset="0.11" style="stop-color:#FFFFFF"/>
					<stop  offset="0.2362" style="stop-color:#58595B"/>
					<stop  offset="0.3398" style="stop-color:#FFFFFF"/>
					<stop  offset="0.5599" style="stop-color:#D1D3D4"/>
					<stop  offset="0.56" style="stop-color:#000000"/>
					<stop  offset="0.7044" style="stop-color:#FFFFFF"/>
					<stop  offset="0.8099" style="stop-color:#414042"/>
					<stop  offset="0.81" style="stop-color:#FFFFFF"/>
					<stop  offset="0.94" style="stop-color:#414042"/>
					<stop  offset="0.94" style="stop-color:#FFFFFF"/>
				</linearGradient>
				<path fill="url(#SVGID_4_)" d="M19.766,93.034c0.003-1.012,0.813-1.822,1.821-1.822c0.013,0.008,0.029,0.008,0.042,0.014v-0.039
					l46.694-0.007c16.13,0,29.248-13.114,29.251-29.251C97.571,45.805,84.454,32.684,68.33,32.684L21.809,32.69
					c-0.078,0-0.147,0.039-0.229,0.045c-1.002-0.006-1.818-0.822-1.821-1.82c0.003-1.006,0.823-1.828,1.821-1.828
					c0.02,0.006,0.029,0.02,0.049,0.013v-0.052h46.697c18.131,0,32.881,14.76,32.884,32.887c0,18.135-14.753,32.888-32.884,32.888
					H21.714c-0.045,0-0.082,0.026-0.13,0.026C20.578,94.849,19.766,94.039,19.766,93.034z"/>
			</g>
		</g>
		<linearGradient id="SVGID_5_" gradientUnits="userSpaceOnUse" x1="33.186" y1="93.5381" x2="92.316" y2="32.3072">
			<stop  offset="0" style="stop-color:#E6E7E8"/>
			<stop  offset="0.1099" style="stop-color:#000000"/>
			<stop  offset="0.11" style="stop-color:#FFFFFF"/>
			<stop  offset="0.2362" style="stop-color:#58595B"/>
			<stop  offset="0.3398" style="stop-color:#FFFFFF"/>
			<stop  offset="0.5599" style="stop-color:#D1D3D4"/>
			<stop  offset="0.56" style="stop-color:#000000"/>
			<stop  offset="0.7044" style="stop-color:#FFFFFF"/>
			<stop  offset="0.8099" style="stop-color:#414042"/>
			<stop  offset="0.81" style="stop-color:#FFFFFF"/>
			<stop  offset="0.95" style="stop-color:#414042"/>
			<stop  offset="0.95" style="stop-color:#FFFFFF"/>
		</linearGradient>
		<path fill="url(#SVGID_5_)" d="M58.143,74.155c0.003-0.816,0.666-1.476,1.481-1.476c0.026,0,0.056,0.013,0.082,0.013h0.003
			l8.686-0.006c2.885,0.006,5.607-1.129,7.661-3.173c2.046-2.056,3.186-4.784,3.179-7.67c0.003-2.898-1.126-5.614-3.179-7.671
			c-2.05-2.049-4.609-2.898-7.533-3.107l-11.519,0.099c-2.863,0-5.369,2.507-5.373,5.372c-0.003,1.43,0.562,2.774,1.577,3.793
			c1.018,1.018,2.363,1.58,3.786,1.58c0,0,7.784-0.111,7.912-0.105c0.819,0.079,1.446,0.744,1.439,1.561
			c0,0.425-0.163,0.81-0.457,1.104c-0.261,0.262-0.613,0.431-1.035,0.463L57,65.075c-2.278,0-4.413-0.908-6.025-2.514
			c-1.622-1.612-2.516-3.747-2.513-6.025c0.007-2.277,0.888-4.426,2.503-6.038c1.613-1.606,3.76-2.493,6.052-2.493l11.505,0.032
			c7.625-0.007,13.686,6.194,13.682,13.807c0.003,3.682-1.439,7.147-4.047,9.753l0,0c-2.614,2.617-6.074,4.053-9.762,4.061
			l-8.692-0.008l0.003-0.032c-0.02,0-0.049,0.026-0.082,0.013C58.812,75.63,58.153,74.972,58.143,74.155z"/>
	</g>
	<g>
		<linearGradient id="SVGID_6_" gradientUnits="userSpaceOnUse" x1="186.7813" y1="50.7266" x2="186.7813" y2="72.3592">
			<stop  offset="0" style="stop-color:#BCBEC0"/>
			<stop  offset="0.0843" style="stop-color:#FFFFFF"/>
			<stop  offset="0.174" style="stop-color:#D1D3D4"/>
			<stop  offset="0.3398" style="stop-color:#FFFFFF"/>
			<stop  offset="0.3522" style="stop-color:#6D6E71"/>
			<stop  offset="0.5166" style="stop-color:#D1D3D4"/>
			<stop  offset="0.74" style="stop-color:#FFFFFF"/>
			<stop  offset="0.74" style="stop-color:#BCBEC0"/>
			<stop  offset="1" style="stop-color:#FFFFFF"/>
		</linearGradient>
		<path fill="url(#SVGID_6_)" d="M200.37,51.923c0.496-0.594,1.109-0.887,1.841-0.887c0.662,0,1.228,0.229,1.693,0.691
			c0.464,0.471,0.695,1.031,0.695,1.697c0,0.588-0.166,1.07-0.499,1.436l-0.049,0.053l-12.044,16.229
			c-0.598,0.758-1.352,1.384-2.265,1.867c-0.914,0.482-1.9,0.718-2.96,0.718c-0.996,0-1.936-0.216-2.813-0.653
			c-0.878-0.43-1.616-1.018-2.213-1.788l-12.096-16.177c-0.199-0.229-0.365-0.482-0.496-0.77c-0.134-0.274-0.199-0.588-0.199-0.914
			c0-0.666,0.231-1.227,0.695-1.697c0.464-0.463,1.032-0.691,1.691-0.691c0.8,0,1.43,0.307,1.893,0.939l11.597,15.484
			c0.232,0.261,0.522,0.549,0.872,0.868c0.346,0.319,0.705,0.477,1.071,0.477c0.365,0,0.721-0.157,1.07-0.477
			c0.35-0.319,0.62-0.607,0.819-0.868L200.37,51.923z"/>
		<linearGradient id="SVGID_7_" gradientUnits="userSpaceOnUse" x1="272.0845" y1="50.7256" x2="272.0845" y2="72.3614">
			<stop  offset="0" style="stop-color:#BCBEC0"/>
			<stop  offset="0.0843" style="stop-color:#FFFFFF"/>
			<stop  offset="0.174" style="stop-color:#D1D3D4"/>
			<stop  offset="0.3398" style="stop-color:#FFFFFF"/>
			<stop  offset="0.3522" style="stop-color:#6D6E71"/>
			<stop  offset="0.5166" style="stop-color:#D1D3D4"/>
			<stop  offset="0.74" style="stop-color:#FFFFFF"/>
			<stop  offset="0.74" style="stop-color:#BCBEC0"/>
			<stop  offset="1" style="stop-color:#FFFFFF"/>
		</linearGradient>
		<path fill="url(#SVGID_7_)" d="M290.902,51.728c0.463,0.471,0.691,1.031,0.691,1.697c0,0.659-0.229,1.227-0.691,1.684
			c-0.471,0.471-1.032,0.705-1.697,0.705h-14.728v14.531c0,0.666-0.234,1.228-0.698,1.685c-0.464,0.47-1.024,0.705-1.69,0.705
			s-1.228-0.235-1.697-0.705c-0.464-0.457-0.692-1.019-0.692-1.685V55.813h-14.936c-0.594-0.071-1.11-0.326-1.541-0.77
			c-0.431-0.457-0.646-0.992-0.646-1.619c0-0.666,0.229-1.227,0.698-1.697c0.463-0.463,1.031-0.691,1.69-0.691h34.239
			C289.87,51.036,290.431,51.265,290.902,51.728z"/>
		<g>
			<linearGradient id="SVGID_8_" gradientUnits="userSpaceOnUse" x1="144.7861" y1="50.7266" x2="144.7861" y2="72.358">
				<stop  offset="0" style="stop-color:#BCBEC0"/>
				<stop  offset="0.0843" style="stop-color:#FFFFFF"/>
				<stop  offset="0.174" style="stop-color:#D1D3D4"/>
				<stop  offset="0.3398" style="stop-color:#FFFFFF"/>
				<stop  offset="0.3522" style="stop-color:#6D6E71"/>
				<stop  offset="0.5166" style="stop-color:#D1D3D4"/>
				<stop  offset="0.74" style="stop-color:#FFFFFF"/>
				<stop  offset="0.74" style="stop-color:#BCBEC0"/>
				<stop  offset="1" style="stop-color:#FFFFFF"/>
			</linearGradient>
			<path fill="url(#SVGID_8_)" d="M161.597,55.813c0.663,0,1.227-0.234,1.694-0.705c0.463-0.457,0.695-1.024,0.695-1.684
				c0-0.666-0.232-1.227-0.695-1.697c-0.467-0.463-1.031-0.691-1.694-0.691H133.08c-1.427,0-2.706,0.326-3.835,0.992
				c-1.126,0.666-2.089,1.514-2.885,2.559c-0.291,0.385-0.532,0.809-0.773,1.227H161.597z"/>
			<linearGradient id="SVGID_9_" gradientUnits="userSpaceOnUse" x1="143.3252" y1="50.7236" x2="143.3252" y2="72.3639">
				<stop  offset="0" style="stop-color:#BCBEC0"/>
				<stop  offset="0.0843" style="stop-color:#FFFFFF"/>
				<stop  offset="0.174" style="stop-color:#D1D3D4"/>
				<stop  offset="0.3398" style="stop-color:#FFFFFF"/>
				<stop  offset="0.3522" style="stop-color:#6D6E71"/>
				<stop  offset="0.5166" style="stop-color:#D1D3D4"/>
				<stop  offset="0.74" style="stop-color:#FFFFFF"/>
				<stop  offset="0.74" style="stop-color:#BCBEC0"/>
				<stop  offset="1" style="stop-color:#FFFFFF"/>
			</linearGradient>
			<path fill="url(#SVGID_9_)" d="M134.722,64.274h17.208c0.663,0,1.224-0.235,1.691-0.699c0.463-0.463,0.698-1.031,0.698-1.69
				c0-0.665-0.235-1.228-0.698-1.69c-0.467-0.463-1.028-0.699-1.691-0.699h-17.208c-0.663,0-1.227,0.236-1.694,0.699
				c-0.464,0.463-0.695,1.025-0.695,1.69c0,0.659,0.231,1.228,0.695,1.69C133.495,64.039,134.059,64.274,134.722,64.274z"/>
			<linearGradient id="SVGID_10_" gradientUnits="userSpaceOnUse" x1="143.9541" y1="50.7197" x2="143.9541" y2="72.3619">
				<stop  offset="0" style="stop-color:#BCBEC0"/>
				<stop  offset="0.0843" style="stop-color:#FFFFFF"/>
				<stop  offset="0.174" style="stop-color:#D1D3D4"/>
				<stop  offset="0.3398" style="stop-color:#FFFFFF"/>
				<stop  offset="0.3522" style="stop-color:#6D6E71"/>
				<stop  offset="0.5166" style="stop-color:#D1D3D4"/>
				<stop  offset="0.74" style="stop-color:#FFFFFF"/>
				<stop  offset="0.74" style="stop-color:#BCBEC0"/>
				<stop  offset="1" style="stop-color:#FFFFFF"/>
			</linearGradient>
			<path fill="url(#SVGID_10_)" d="M161.597,67.956h-27.424c-1.162,0-2.099-0.209-2.813-0.627c-0.711-0.418-1.276-0.92-1.691-1.514
				c-0.415-0.602-0.695-1.254-0.845-1.973c-0.15-0.705-0.225-1.363-0.225-1.958c0-0.601,0.075-1.253,0.225-1.972
				c0.029-0.143,0.095-0.287,0.137-0.431h-4.782c-0.167,0.797-0.258,1.6-0.258,2.402c0,1.228,0.199,2.487,0.597,3.773
				c0.398,1.299,0.969,2.474,1.717,3.512c0.748,1.052,1.648,1.906,2.712,2.572c1.061,0.653,2.271,0.992,3.633,0.992h29.017
				c0.663,0,1.227-0.235,1.694-0.705c0.463-0.457,0.695-1.019,0.695-1.685s-0.232-1.227-0.695-1.697
				C162.824,68.19,162.26,67.956,161.597,67.956z"/>
		</g>
		<g>
			<linearGradient id="SVGID_11_" gradientUnits="userSpaceOnUse" x1="317.5161" y1="50.7266" x2="317.5161" y2="72.358">
				<stop  offset="0" style="stop-color:#BCBEC0"/>
				<stop  offset="0.0843" style="stop-color:#FFFFFF"/>
				<stop  offset="0.174" style="stop-color:#D1D3D4"/>
				<stop  offset="0.3398" style="stop-color:#FFFFFF"/>
				<stop  offset="0.3522" style="stop-color:#6D6E71"/>
				<stop  offset="0.5166" style="stop-color:#D1D3D4"/>
				<stop  offset="0.74" style="stop-color:#FFFFFF"/>
				<stop  offset="0.74" style="stop-color:#BCBEC0"/>
				<stop  offset="1" style="stop-color:#FFFFFF"/>
			</linearGradient>
			<path fill="url(#SVGID_11_)" d="M334.332,55.813c0.659,0,1.228-0.234,1.69-0.705c0.464-0.457,0.692-1.024,0.692-1.684
				c0-0.666-0.229-1.227-0.692-1.697c-0.463-0.463-1.031-0.691-1.69-0.691h-28.521c-1.423,0-2.702,0.326-3.832,0.992
				c-1.129,0.666-2.089,1.514-2.885,2.559c-0.294,0.385-0.529,0.809-0.777,1.227H334.332z"/>
			<linearGradient id="SVGID_12_" gradientUnits="userSpaceOnUse" x1="316.0601" y1="50.7236" x2="316.0601" y2="72.3639">
				<stop  offset="0" style="stop-color:#BCBEC0"/>
				<stop  offset="0.0843" style="stop-color:#FFFFFF"/>
				<stop  offset="0.174" style="stop-color:#D1D3D4"/>
				<stop  offset="0.3398" style="stop-color:#FFFFFF"/>
				<stop  offset="0.3522" style="stop-color:#6D6E71"/>
				<stop  offset="0.5166" style="stop-color:#D1D3D4"/>
				<stop  offset="0.74" style="stop-color:#FFFFFF"/>
				<stop  offset="0.74" style="stop-color:#BCBEC0"/>
				<stop  offset="1" style="stop-color:#FFFFFF"/>
			</linearGradient>
			<path fill="url(#SVGID_12_)" d="M307.457,64.274h17.207c0.666,0,1.228-0.235,1.69-0.699c0.464-0.463,0.699-1.031,0.699-1.69
				c0-0.665-0.235-1.228-0.699-1.69c-0.463-0.463-1.024-0.699-1.69-0.699h-17.207c-0.666,0-1.228,0.236-1.697,0.699
				c-0.457,0.463-0.692,1.025-0.692,1.69c0,0.659,0.235,1.228,0.692,1.69C306.229,64.039,306.791,64.274,307.457,64.274z"/>
			<linearGradient id="SVGID_13_" gradientUnits="userSpaceOnUse" x1="316.686" y1="50.7197" x2="316.686" y2="72.3619">
				<stop  offset="0" style="stop-color:#BCBEC0"/>
				<stop  offset="0.0843" style="stop-color:#FFFFFF"/>
				<stop  offset="0.174" style="stop-color:#D1D3D4"/>
				<stop  offset="0.3398" style="stop-color:#FFFFFF"/>
				<stop  offset="0.3522" style="stop-color:#6D6E71"/>
				<stop  offset="0.5166" style="stop-color:#D1D3D4"/>
				<stop  offset="0.74" style="stop-color:#FFFFFF"/>
				<stop  offset="0.74" style="stop-color:#BCBEC0"/>
				<stop  offset="1" style="stop-color:#FFFFFF"/>
			</linearGradient>
			<path fill="url(#SVGID_13_)" d="M334.332,67.956h-27.424c-1.162,0-2.102-0.209-2.813-0.627c-0.711-0.418-1.272-0.92-1.69-1.514
				c-0.418-0.602-0.698-1.254-0.849-1.973c-0.144-0.705-0.222-1.363-0.222-1.958c0-0.601,0.078-1.253,0.222-1.972
				c0.032-0.143,0.098-0.287,0.137-0.431h-4.778c-0.163,0.797-0.255,1.6-0.255,2.402c0,1.228,0.196,2.487,0.595,3.773
				c0.397,1.299,0.973,2.474,1.717,3.512c0.744,1.052,1.645,1.906,2.716,2.572c1.057,0.653,2.271,0.992,3.629,0.992h29.017
				c0.659,0,1.228-0.235,1.69-0.705c0.464-0.457,0.692-1.019,0.692-1.685s-0.229-1.227-0.692-1.697
				C335.559,68.19,334.991,67.956,334.332,67.956z"/>
		</g>
		<linearGradient id="SVGID_14_" gradientUnits="userSpaceOnUse" x1="228.5903" y1="50.7256" x2="228.5903" y2="72.3614">
			<stop  offset="0" style="stop-color:#BCBEC0"/>
			<stop  offset="0.0843" style="stop-color:#FFFFFF"/>
			<stop  offset="0.174" style="stop-color:#D1D3D4"/>
			<stop  offset="0.3398" style="stop-color:#FFFFFF"/>
			<stop  offset="0.3522" style="stop-color:#6D6E71"/>
			<stop  offset="0.5166" style="stop-color:#D1D3D4"/>
			<stop  offset="0.74" style="stop-color:#FFFFFF"/>
			<stop  offset="0.74" style="stop-color:#BCBEC0"/>
			<stop  offset="1" style="stop-color:#FFFFFF"/>
		</linearGradient>
		<path fill="url(#SVGID_14_)" d="M248.249,58.151c-0.398-1.267-0.973-2.409-1.717-3.434c-0.751-1.031-1.652-1.887-2.709-2.566
			c-1.071-0.686-2.278-1.051-3.643-1.115h-22.691c-1.423,0-2.702,0.326-3.832,0.992c-1.129,0.666-2.089,1.514-2.892,2.559
			c-0.287,0.385-0.529,0.809-0.771,1.227h28.645c1.129,0,2.063,0.209,2.794,0.621c0.725,0.41,1.293,0.92,1.71,1.514
			c0.418,0.594,0.699,1.26,0.849,1.965c0.15,0.719,0.223,1.371,0.223,1.972c0,0.595-0.072,1.253-0.223,1.958
			c-0.149,0.719-0.431,1.371-0.849,1.973c-0.417,0.594-0.985,1.096-1.71,1.514c-0.731,0.418-1.665,0.627-2.794,0.627h-20.105
			c-1.162,0-2.103-0.209-2.808-0.627c-0.718-0.418-1.279-0.92-1.697-1.514c-0.418-0.602-0.691-1.254-0.849-1.973
			c-0.144-0.705-0.222-1.363-0.222-1.958c0-0.601,0.078-1.253,0.222-1.972c0.039-0.143,0.098-0.287,0.144-0.431h-4.739
			c-0.156,0.797-0.254,1.6-0.254,2.402c0,1.228,0.202,2.468,0.594,3.733c0.404,1.261,0.973,2.402,1.724,3.435
			c0.744,1.024,1.645,1.88,2.709,2.559c1.063,0.679,2.278,1.058,3.636,1.123h22.691c1.429,0,2.702-0.339,3.838-0.992
			c1.123-0.666,2.089-1.521,2.886-2.572c0.796-1.038,1.396-2.206,1.814-3.485c0.418-1.273,0.627-2.547,0.627-3.8
			C248.849,60.657,248.646,59.411,248.249,58.151z"/>
		<g>
			<linearGradient id="SVGID_15_" gradientUnits="userSpaceOnUse" x1="361.4849" y1="50.7266" x2="361.4849" y2="72.358">
				<stop  offset="0" style="stop-color:#BCBEC0"/>
				<stop  offset="0.0843" style="stop-color:#FFFFFF"/>
				<stop  offset="0.174" style="stop-color:#D1D3D4"/>
				<stop  offset="0.3398" style="stop-color:#FFFFFF"/>
				<stop  offset="0.3522" style="stop-color:#6D6E71"/>
				<stop  offset="0.5166" style="stop-color:#D1D3D4"/>
				<stop  offset="0.74" style="stop-color:#FFFFFF"/>
				<stop  offset="0.74" style="stop-color:#BCBEC0"/>
				<stop  offset="1" style="stop-color:#FFFFFF"/>
			</linearGradient>
			<path fill="url(#SVGID_15_)" d="M378.545,55.813c0.665,0,1.227-0.234,1.69-0.705c0.463-0.457,0.698-1.024,0.698-1.684
				c0-0.666-0.235-1.227-0.698-1.697c-0.464-0.463-1.025-0.691-1.69-0.691h-29.017c-1.43,0-2.703,0.326-3.832,0.992
				c-1.13,0.666-2.089,1.514-2.886,2.559c-0.294,0.385-0.535,0.809-0.776,1.227H378.545z"/>
			<linearGradient id="SVGID_16_" gradientUnits="userSpaceOnUse" x1="360.6519" y1="50.7197" x2="360.6519" y2="72.3619">
				<stop  offset="0" style="stop-color:#BCBEC0"/>
				<stop  offset="0.0843" style="stop-color:#FFFFFF"/>
				<stop  offset="0.174" style="stop-color:#D1D3D4"/>
				<stop  offset="0.3398" style="stop-color:#FFFFFF"/>
				<stop  offset="0.3522" style="stop-color:#6D6E71"/>
				<stop  offset="0.5166" style="stop-color:#D1D3D4"/>
				<stop  offset="0.74" style="stop-color:#FFFFFF"/>
				<stop  offset="0.74" style="stop-color:#BCBEC0"/>
				<stop  offset="1" style="stop-color:#FFFFFF"/>
			</linearGradient>
			<path fill="url(#SVGID_16_)" d="M378.545,67.956h-27.973c-1.162,0-2.096-0.209-2.813-0.627c-0.712-0.418-1.272-0.92-1.69-1.514
				c-0.411-0.602-0.698-1.254-0.842-1.973c-0.157-0.705-0.229-1.363-0.229-1.958c0-0.601,0.071-1.253,0.229-1.972
				c0.025-0.143,0.091-0.287,0.13-0.431h-4.726c-0.17,0.797-0.262,1.6-0.262,2.402c0,1.228,0.202,2.487,0.601,3.773
				c0.392,1.299,0.966,2.474,1.711,3.512c0.75,1.052,1.657,1.906,2.715,2.572c1.064,0.653,2.272,0.992,3.637,0.992h29.513
				c0.665,0,1.227-0.235,1.69-0.705c0.463-0.457,0.698-1.019,0.698-1.685s-0.235-1.227-0.698-1.697
				C379.772,68.19,379.21,67.956,378.545,67.956z"/>
		</g>
	</g>
</g>
</svg>
